<svg width="16" height="16" viewBox="0 0 16 16" fill="none" xmlns="http://www.w3.org/2000/svg">
<circle cx="8" cy="8" r="5.5" stroke="#2373FF"/>
<path fill-rule="evenodd" clip-rule="evenodd" d="M9.88394 6.08004C9.68868 5.88478 9.37209 5.88478 9.17683 6.08004L7.93939 7.31748L6.73637 6.11445C6.5411 5.91919 6.22452 5.91919 6.02926 6.11445C5.834 6.30971 5.834 6.62629 6.02926 6.82155L7.23229 8.02458L6.1127 9.14417C5.91744 9.33943 5.91744 9.65601 6.1127 9.85128C6.30796 10.0465 6.62455 10.0465 6.81981 9.85128L7.93939 8.73169L9.09339 9.88568C9.28865 10.0809 9.60523 10.0809 9.80049 9.88568C9.99576 9.69042 9.99576 9.37384 9.80049 9.17858L8.6465 8.02458L9.88394 6.78715C10.0792 6.59188 10.0792 6.2753 9.88394 6.08004Z" fill="#2373FF"/>
</svg>
