<svg width="24" height="24" viewBox="0 0 24 24" fill="none" xmlns="http://www.w3.org/2000/svg">
<path fill-rule="evenodd" clip-rule="evenodd" d="M12 24C18.6274 24 24 18.6274 24 12C24 5.37258 18.6274 0 12 0C5.37258 0 0 5.37258 0 12C0 18.6274 5.37258 24 12 24ZM15.065 16.9136H15.6415C15.8383 16.9136 16 17.0818 16 17.2938C16 17.3962 15.9649 17.4839 15.8946 17.557C15.8243 17.6301 15.7399 17.6667 15.6415 17.6667H8.35852C8.16169 17.6667 8 17.4985 8 17.2938C8 17.0891 8.16169 16.921 8.35852 16.921H8.93497V15.2102C8.93497 14.0566 9.86752 13.2967 10.5492 12.7413L10.5518 12.7391C10.7417 12.5856 10.9736 12.3955 11.0791 12.2712L11.1283 12.2127L11.0721 12.1542C10.9596 12.0299 10.7276 11.8545 10.5378 11.7156C9.84886 11.2038 8.91388 10.5019 8.91388 9.38337V7.74572H8.35852C8.16169 7.74572 8 7.57756 8 7.37286C8 7.16815 8.16169 7 8.35852 7H15.6415C15.8383 7 16 7.16815 16 7.37286C16 7.57756 15.8383 7.74572 15.6415 7.74572H15.0861V9.36875C15.0861 10.4822 14.1526 11.1828 13.4715 11.694L13.4622 11.7009C13.4457 11.7137 13.4288 11.7266 13.4118 11.7398C13.2329 11.8773 13.0306 12.0328 12.9279 12.1396L12.8717 12.1981L12.9209 12.2566C13.0264 12.3809 13.2583 12.5709 13.4482 12.7245C13.4588 12.7333 13.4695 12.7421 13.4803 12.751C14.159 13.311 15.065 14.0586 15.065 15.2029V16.9136ZM10.3339 15.5173C10.3339 15.7073 10.4815 15.8609 10.6643 15.8609H13.3357C13.5185 15.8609 13.6661 15.7073 13.6661 15.5173C13.6661 15.3272 13.5185 15.1736 13.3357 15.1736H10.6643C10.4815 15.1736 10.3339 15.3272 10.3339 15.5173Z" fill="#39D5EB"/>
</svg>
