<svg width="32" height="32" viewBox="0 0 32 32" fill="none" xmlns="http://www.w3.org/2000/svg">
<path fill-rule="evenodd" clip-rule="evenodd" d="M16 28C22.6274 28 28 22.6274 28 16C28 9.37258 22.6274 4 16 4C9.37258 4 4 9.37258 4 16C4 22.6274 9.37258 28 16 28ZM13.9974 17.7333C13.9974 17.7614 13.9984 17.7892 14.0005 17.8168C13.9984 17.8443 13.9974 17.8721 13.9974 17.9002C13.9974 18.5077 14.4899 19.0002 15.0974 19.0002H21.3974C22.0049 19.0002 22.4974 18.5077 22.4974 17.9002C22.4974 17.2927 22.0049 16.8002 21.3974 16.8002H16.1974L16.1974 10.6C16.1974 9.99249 15.7049 9.5 15.0974 9.5C14.4899 9.5 13.9974 9.99249 13.9974 10.6V17.7333Z" fill="#39D5EB"/>
</svg>
