<svg width="20" height="20" viewBox="0 0 20 20" fill="none" xmlns="http://www.w3.org/2000/svg">
<path fill-rule="evenodd" clip-rule="evenodd" d="M6.55734 3.4043C6.00562 3.4043 5.49282 3.68854 5.20046 4.15643L1.64937 9.8394C1.49049 10.0937 1.40625 10.3874 1.40625 10.6873V14.9941C1.40625 15.8777 2.12259 16.5941 3.00625 16.5941H4.20281C5.08647 16.5941 5.80281 15.8777 5.80281 14.9941V14.1986H14.2054V14.9951C14.2054 15.8781 14.9208 16.5942 15.8038 16.5951L17.0047 16.5962C17.889 16.5971 18.6063 15.8805 18.6063 14.9962V10.6875C18.6063 10.3874 18.5219 10.0934 18.3627 9.839L14.8076 4.15577C14.5152 3.68826 14.0026 3.4043 13.4512 3.4043H6.55734ZM6.21812 4.79233C6.29121 4.67536 6.41941 4.6043 6.55734 4.6043H13.4512C13.589 4.6043 13.7172 4.67529 13.7903 4.79217L15.7453 7.91745H4.26534L6.21812 4.79233ZM3.5155 9.11744L2.66703 10.4753C2.62731 10.5389 2.60625 10.6123 2.60625 10.6873V14.9941C2.60625 15.215 2.78534 15.3941 3.00625 15.3941H4.20281C4.42373 15.3941 4.60281 15.215 4.60281 14.9941V13.7986C4.60281 13.3568 4.96098 12.9986 5.40281 12.9986H14.6054C15.0472 12.9986 15.4054 13.3568 15.4054 13.7986V14.9951C15.4054 15.2158 15.5842 15.3949 15.805 15.3951L17.0059 15.3962C17.2269 15.3965 17.4062 15.2173 17.4062 14.9962V10.6875C17.4062 10.6125 17.3852 10.539 17.3454 10.4754L16.4959 9.11744H3.5155ZM5.59688 10.4174C5.26551 10.4174 4.99688 10.6861 4.99688 11.0174C4.99688 11.3488 5.26551 11.6174 5.59688 11.6174H6.89688C7.22825 11.6174 7.49688 11.3488 7.49688 11.0174C7.49688 10.6861 7.22825 10.4174 6.89688 10.4174H5.59688ZM13.0969 10.4174C12.7655 10.4174 12.4969 10.6861 12.4969 11.0174C12.4969 11.3488 12.7655 11.6174 13.0969 11.6174H14.3969C14.7283 11.6174 14.9969 11.3488 14.9969 11.0174C14.9969 10.6861 14.7283 10.4174 14.3969 10.4174H13.0969Z" fill="#2373FF"/>
</svg>
