<svg width="16" height="16" viewBox="0 0 16 16" fill="none" xmlns="http://www.w3.org/2000/svg">
<mask id="path-1-inside-1_2997_26093" fill="white">
<rect x="1.33594" y="3" width="10.6667" height="10" rx="0.666667"/>
</mask>
<rect x="1.33594" y="3" width="10.6667" height="10" rx="0.666667" stroke="#25305A" stroke-width="2" mask="url(#path-1-inside-1_2997_26093)"/>
<path fill-rule="evenodd" clip-rule="evenodd" d="M12.0039 10.4711L13.5796 11.7687C14.0145 12.1269 14.6701 11.8175 14.6701 11.2541V4.74606C14.6701 4.18265 14.0145 3.87327 13.5796 4.23144L12.0039 5.52905V6.82451L13.6701 5.45239L13.6701 10.5478L12.0039 9.17563V10.4711Z" fill="#25305A"/>
<path fill-rule="evenodd" clip-rule="evenodd" d="M5.5059 5.65426C5.31064 5.459 4.99405 5.459 4.79879 5.65426L3.85598 6.59707C3.823 6.63005 3.79558 6.6665 3.77374 6.70524C3.6244 6.90123 3.63926 7.18231 3.81832 7.36137L4.76113 8.30417C4.95639 8.49944 5.27298 8.49944 5.46824 8.30417C5.6635 8.10891 5.6635 7.79233 5.46824 7.59707L4.86922 6.99805L5.5059 6.36137C5.70116 6.1661 5.70116 5.84952 5.5059 5.65426Z" fill="#25305A"/>
<path d="M4.33594 7H8.0026C8.73898 7 9.33594 7.59695 9.33594 8.33333V8.33333C9.33594 9.06971 8.73898 9.66667 8.0026 9.66667H6.33594" stroke="#25305A" stroke-linecap="round"/>
</svg>
