<svg width="969" height="615" viewBox="0 0 969 615" fill="none" xmlns="http://www.w3.org/2000/svg">
<rect x="290" y="41" width="40" height="96" rx="2" transform="rotate(90 290 41)" fill="#3D86FF"/>
<rect x="678" y="41" width="40" height="96" rx="2" transform="rotate(90 678 41)" fill="#3D86FF"/>
<rect x="581" y="41" width="40" height="96" rx="2" transform="rotate(90 581 41)" fill="#3D86FF"/>
<rect x="969" y="41" width="40" height="96" rx="2" transform="rotate(90 969 41)" fill="#3D86FF"/>
<rect x="290" y="82" width="40" height="96" rx="2" transform="rotate(90 290 82)" fill="#70A6FF"/>
<rect x="678" y="82" width="40" height="96" rx="2" transform="rotate(90 678 82)" fill="#70A6FF"/>
<rect x="581" y="82" width="40" height="96" rx="2" transform="rotate(90 581 82)" fill="#70A6FF"/>
<rect x="969" y="82" width="40" height="96" rx="2" transform="rotate(90 969 82)" fill="#70A6FF"/>
<rect x="290" y="123" width="40" height="96" rx="2" transform="rotate(90 290 123)" fill="#F2F7FE"/>
<rect x="678" y="123" width="40" height="96" rx="2" transform="rotate(90 678 123)" fill="#F2F7FE"/>
<rect x="581" y="123" width="40" height="96" rx="2" transform="rotate(90 581 123)" fill="#F2F7FE"/>
<rect x="969" y="123" width="40" height="96" rx="2" transform="rotate(90 969 123)" fill="#F2F7FE"/>
<rect x="290" y="164" width="40" height="96" rx="2" transform="rotate(90 290 164)" fill="#D0E2FC"/>
<rect x="678" y="164" width="40" height="96" rx="2" transform="rotate(90 678 164)" fill="#D0E2FC"/>
<rect x="581" y="164" width="40" height="96" rx="2" transform="rotate(90 581 164)" fill="#D0E2FC"/>
<rect x="969" y="164" width="40" height="96" rx="2" transform="rotate(90 969 164)" fill="#D0E2FC"/>
<rect x="290" y="205" width="40" height="96" rx="2" transform="rotate(90 290 205)" fill="#F2F7FE"/>
<rect x="678" y="205" width="40" height="96" rx="2" transform="rotate(90 678 205)" fill="#F2F7FE"/>
<rect x="581" y="205" width="40" height="96" rx="2" transform="rotate(90 581 205)" fill="#F2F7FE"/>
<rect x="969" y="205" width="40" height="96" rx="2" transform="rotate(90 969 205)" fill="#F2F7FE"/>
<rect x="290" y="246" width="40" height="96" rx="2" transform="rotate(90 290 246)" fill="#3D86FF"/>
<rect x="678" y="246" width="40" height="96" rx="2" transform="rotate(90 678 246)" fill="#3D86FF"/>
<rect x="581" y="246" width="40" height="96" rx="2" transform="rotate(90 581 246)" fill="#3D86FF"/>
<rect x="969" y="246" width="40" height="96" rx="2" transform="rotate(90 969 246)" fill="#3D86FF"/>
<rect x="290" width="40" height="96" rx="2" transform="rotate(90 290 0)" fill="#3D86FF"/>
<rect x="678" width="40" height="96" rx="2" transform="rotate(90 678 0)" fill="#3D86FF"/>
<rect x="581" width="40" height="96" rx="2" transform="rotate(90 581 0)" fill="#3D86FF"/>
<rect x="969" width="40" height="96" rx="2" transform="rotate(90 969 0)" fill="#3D86FF"/>
<rect x="193" y="41" width="40" height="96" rx="2" transform="rotate(90 193 41)" fill="#94BFFF"/>
<rect x="484" y="41" width="40" height="96" rx="2" transform="rotate(90 484 41)" fill="#94BFFF"/>
<rect x="872" y="41" width="40" height="96" rx="2" transform="rotate(90 872 41)" fill="#94BFFF"/>
<rect x="193" y="82" width="40" height="96" rx="2" transform="rotate(90 193 82)" fill="#5595FF"/>
<rect x="484" y="82" width="40" height="96" rx="2" transform="rotate(90 484 82)" fill="#5595FF"/>
<rect x="872" y="82" width="40" height="96" rx="2" transform="rotate(90 872 82)" fill="#5595FF"/>
<rect x="193" y="123" width="40" height="96" rx="2" transform="rotate(90 193 123)" fill="#3D86FF"/>
<rect x="484" y="123" width="40" height="96" rx="2" transform="rotate(90 484 123)" fill="#3D86FF"/>
<rect x="872" y="123" width="40" height="96" rx="2" transform="rotate(90 872 123)" fill="#3D86FF"/>
<rect x="193" y="164" width="40" height="96" rx="2" transform="rotate(90 193 164)" fill="#F2F7FE"/>
<rect x="484" y="164" width="40" height="96" rx="2" transform="rotate(90 484 164)" fill="#F2F7FE"/>
<rect x="872" y="164" width="40" height="96" rx="2" transform="rotate(90 872 164)" fill="#F2F7FE"/>
<rect x="193" y="205" width="40" height="96" rx="2" transform="rotate(90 193 205)" fill="#F2F7FE"/>
<rect x="484" y="205" width="40" height="96" rx="2" transform="rotate(90 484 205)" fill="#F2F7FE"/>
<rect x="872" y="205" width="40" height="96" rx="2" transform="rotate(90 872 205)" fill="#F2F7FE"/>
<rect x="193" y="246" width="40" height="96" rx="2" transform="rotate(90 193 246)" fill="#3D86FF"/>
<rect x="484" y="246" width="40" height="96" rx="2" transform="rotate(90 484 246)" fill="#3D86FF"/>
<rect x="872" y="246" width="40" height="96" rx="2" transform="rotate(90 872 246)" fill="#3D86FF"/>
<rect x="193" width="40" height="96" rx="2" transform="rotate(90 193 0)" fill="#5595FF"/>
<rect x="484" width="40" height="96" rx="2" transform="rotate(90 484 0)" fill="#5595FF"/>
<rect x="872" width="40" height="96" rx="2" transform="rotate(90 872 0)" fill="#5595FF"/>
<rect x="96" y="41" width="40" height="96" rx="2" transform="rotate(90 96 41)" fill="#D0E2FC"/>
<rect x="387" y="41" width="40" height="96" rx="2" transform="rotate(90 387 41)" fill="#D0E2FC"/>
<rect x="775" y="41" width="40" height="96" rx="2" transform="rotate(90 775 41)" fill="#D0E2FC"/>
<rect x="96" y="82" width="40" height="96" rx="2" transform="rotate(90 96 82)" fill="#BAD6FF"/>
<rect x="387" y="82" width="40" height="96" rx="2" transform="rotate(90 387 82)" fill="#BAD6FF"/>
<rect x="775" y="82" width="40" height="96" rx="2" transform="rotate(90 775 82)" fill="#BAD6FF"/>
<rect x="96" y="123" width="40" height="96" rx="2" transform="rotate(90 96 123)" fill="#3D86FF"/>
<rect x="387" y="123" width="40" height="96" rx="2" transform="rotate(90 387 123)" fill="#3D86FF"/>
<rect x="775" y="123" width="40" height="96" rx="2" transform="rotate(90 775 123)" fill="#3D86FF"/>
<rect x="96" y="164" width="40" height="96" rx="2" transform="rotate(90 96 164)" fill="#F2F7FE"/>
<rect x="387" y="164" width="40" height="96" rx="2" transform="rotate(90 387 164)" fill="#F2F7FE"/>
<rect x="775" y="164" width="40" height="96" rx="2" transform="rotate(90 775 164)" fill="#F2F7FE"/>
<rect x="96" y="205" width="40" height="96" rx="2" transform="rotate(90 96 205)" fill="#F2F7FE"/>
<rect x="387" y="205" width="40" height="96" rx="2" transform="rotate(90 387 205)" fill="#F2F7FE"/>
<rect x="775" y="205" width="40" height="96" rx="2" transform="rotate(90 775 205)" fill="#F2F7FE"/>
<rect x="96" y="246" width="40" height="96" rx="2" transform="rotate(90 96 246)" fill="#3D86FF"/>
<rect x="387" y="246" width="40" height="96" rx="2" transform="rotate(90 387 246)" fill="#3D86FF"/>
<rect x="775" y="246" width="40" height="96" rx="2" transform="rotate(90 775 246)" fill="#3D86FF"/>
<rect x="96" width="40" height="96" rx="2" transform="rotate(90 96 0)" fill="#3D86FF"/>
<rect x="387" width="40" height="96" rx="2" transform="rotate(90 387 0)" fill="#3D86FF"/>
<rect x="775" width="40" height="96" rx="2" transform="rotate(90 775 0)" fill="#3D86FF"/>
<rect x="290" y="328" width="40" height="96" rx="2" transform="rotate(90 290 328)" fill="#3D86FF"/>
<rect x="678" y="328" width="40" height="96" rx="2" transform="rotate(90 678 328)" fill="#3D86FF"/>
<rect x="581" y="328" width="40" height="96" rx="2" transform="rotate(90 581 328)" fill="#3D86FF"/>
<rect x="969" y="328" width="40" height="96" rx="2" transform="rotate(90 969 328)" fill="#3D86FF"/>
<rect x="290" y="369" width="40" height="96" rx="2" transform="rotate(90 290 369)" fill="#3D86FF"/>
<rect x="678" y="369" width="40" height="96" rx="2" transform="rotate(90 678 369)" fill="#3D86FF"/>
<rect x="581" y="369" width="40" height="96" rx="2" transform="rotate(90 581 369)" fill="#3D86FF"/>
<rect x="969" y="369" width="40" height="96" rx="2" transform="rotate(90 969 369)" fill="#3D86FF"/>
<rect x="290" y="492" width="40" height="96" rx="2" transform="rotate(90 290 492)" fill="#BAD6FF"/>
<rect x="678" y="492" width="40" height="96" rx="2" transform="rotate(90 678 492)" fill="#BAD6FF"/>
<rect x="581" y="492" width="40" height="96" rx="2" transform="rotate(90 581 492)" fill="#BAD6FF"/>
<rect x="969" y="492" width="40" height="96" rx="2" transform="rotate(90 969 492)" fill="#BAD6FF"/>
<rect x="290" y="287" width="40" height="96" rx="2" transform="rotate(90 290 287)" fill="#3D86FF"/>
<rect x="678" y="287" width="40" height="96" rx="2" transform="rotate(90 678 287)" fill="#3D86FF"/>
<rect x="581" y="287" width="40" height="96" rx="2" transform="rotate(90 581 287)" fill="#3D86FF"/>
<rect x="969" y="287" width="40" height="96" rx="2" transform="rotate(90 969 287)" fill="#3D86FF"/>
<rect x="193" y="328" width="40" height="96" rx="2" transform="rotate(90 193 328)" fill="#3D86FF"/>
<rect x="484" y="328" width="40" height="96" rx="2" transform="rotate(90 484 328)" fill="#3D86FF"/>
<rect x="872" y="328" width="40" height="96" rx="2" transform="rotate(90 872 328)" fill="#3D86FF"/>
<rect x="193" y="369" width="40" height="96" rx="2" transform="rotate(90 193 369)" fill="#3D86FF"/>
<rect x="484" y="369" width="40" height="96" rx="2" transform="rotate(90 484 369)" fill="#3D86FF"/>
<rect x="872" y="369" width="40" height="96" rx="2" transform="rotate(90 872 369)" fill="#3D86FF"/>
<rect x="193" y="492" width="40" height="96" rx="2" transform="rotate(90 193 492)" fill="#3D86FF"/>
<rect x="484" y="492" width="40" height="96" rx="2" transform="rotate(90 484 492)" fill="#3D86FF"/>
<rect x="872" y="492" width="40" height="96" rx="2" transform="rotate(90 872 492)" fill="#3D86FF"/>
<rect x="193" y="287" width="40" height="96" rx="2" transform="rotate(90 193 287)" fill="#3D86FF"/>
<rect x="484" y="287" width="40" height="96" rx="2" transform="rotate(90 484 287)" fill="#3D86FF"/>
<rect x="872" y="287" width="40" height="96" rx="2" transform="rotate(90 872 287)" fill="#3D86FF"/>
<rect x="96" y="328" width="40" height="96" rx="2" transform="rotate(90 96 328)" fill="#3D86FF"/>
<rect x="387" y="328" width="40" height="96" rx="2" transform="rotate(90 387 328)" fill="#3D86FF"/>
<rect x="775" y="328" width="40" height="96" rx="2" transform="rotate(90 775 328)" fill="#3D86FF"/>
<rect x="96" y="369" width="40" height="96" rx="2" transform="rotate(90 96 369)" fill="#5595FF"/>
<rect x="387" y="369" width="40" height="96" rx="2" transform="rotate(90 387 369)" fill="#5595FF"/>
<rect x="775" y="369" width="40" height="96" rx="2" transform="rotate(90 775 369)" fill="#5595FF"/>
<rect x="96" y="492" width="40" height="96" rx="2" transform="rotate(90 96 492)" fill="#3D86FF"/>
<rect x="387" y="492" width="40" height="96" rx="2" transform="rotate(90 387 492)" fill="#3D86FF"/>
<rect x="775" y="492" width="40" height="96" rx="2" transform="rotate(90 775 492)" fill="#3D86FF"/>
<rect x="96" y="287" width="40" height="96" rx="2" transform="rotate(90 96 287)" fill="#3D86FF"/>
<rect x="387" y="287" width="40" height="96" rx="2" transform="rotate(90 387 287)" fill="#3D86FF"/>
<rect x="775" y="287" width="40" height="96" rx="2" transform="rotate(90 775 287)" fill="#3D86FF"/>
<rect x="290" y="451" width="40" height="96" rx="2" transform="rotate(90 290 451)" fill="#3D86FF"/>
<rect x="678" y="451" width="40" height="96" rx="2" transform="rotate(90 678 451)" fill="#3D86FF"/>
<rect x="581" y="451" width="40" height="96" rx="2" transform="rotate(90 581 451)" fill="#3D86FF"/>
<rect x="969" y="451" width="40" height="96" rx="2" transform="rotate(90 969 451)" fill="#3D86FF"/>
<rect x="290" y="575" width="40" height="96" rx="2" transform="rotate(90 290 575)" fill="#C2DBFF"/>
<rect x="678" y="575" width="40" height="96" rx="2" transform="rotate(90 678 575)" fill="#C2DBFF"/>
<rect x="581" y="575" width="40" height="96" rx="2" transform="rotate(90 581 575)" fill="#C2DBFF"/>
<rect x="969" y="575" width="40" height="96" rx="2" transform="rotate(90 969 575)" fill="#C2DBFF"/>
<rect x="290" y="410" width="40" height="96" rx="2" transform="rotate(90 290 410)" fill="#478DFF"/>
<rect x="678" y="410" width="40" height="96" rx="2" transform="rotate(90 678 410)" fill="#478DFF"/>
<rect x="581" y="410" width="40" height="96" rx="2" transform="rotate(90 581 410)" fill="#478DFF"/>
<rect x="969" y="410" width="40" height="96" rx="2" transform="rotate(90 969 410)" fill="#478DFF"/>
<rect x="290" y="533" width="40" height="96" rx="2" transform="rotate(90 290 533)" fill="#3D86FF"/>
<rect x="678" y="533" width="40" height="96" rx="2" transform="rotate(90 678 533)" fill="#3D86FF"/>
<rect x="581" y="533" width="40" height="96" rx="2" transform="rotate(90 581 533)" fill="#3D86FF"/>
<rect x="969" y="533" width="40" height="96" rx="2" transform="rotate(90 969 533)" fill="#3D86FF"/>
<rect x="193" y="451" width="40" height="96" rx="2" transform="rotate(90 193 451)" fill="#3D86FF"/>
<rect x="484" y="451" width="40" height="96" rx="2" transform="rotate(90 484 451)" fill="#3D86FF"/>
<rect x="872" y="451" width="40" height="96" rx="2" transform="rotate(90 872 451)" fill="#3D86FF"/>
<rect x="193" y="575" width="40" height="96" rx="2" transform="rotate(90 193 575)" fill="#CFE3FF"/>
<rect x="484" y="575" width="40" height="96" rx="2" transform="rotate(90 484 575)" fill="#CFE3FF"/>
<rect x="872" y="575" width="40" height="96" rx="2" transform="rotate(90 872 575)" fill="#CFE3FF"/>
<rect x="193" y="410" width="40" height="96" rx="2" transform="rotate(90 193 410)" fill="#5595FF"/>
<rect x="484" y="410" width="40" height="96" rx="2" transform="rotate(90 484 410)" fill="#5595FF"/>
<rect x="872" y="410" width="40" height="96" rx="2" transform="rotate(90 872 410)" fill="#5595FF"/>
<rect x="193" y="533" width="40" height="96" rx="2" transform="rotate(90 193 533)" fill="#D0E2FC"/>
<rect x="484" y="533" width="40" height="96" rx="2" transform="rotate(90 484 533)" fill="#D0E2FC"/>
<rect x="872" y="533" width="40" height="96" rx="2" transform="rotate(90 872 533)" fill="#D0E2FC"/>
<rect x="96" y="451" width="40" height="96" rx="2" transform="rotate(90 96 451)" fill="#3D86FF"/>
<rect x="387" y="451" width="40" height="96" rx="2" transform="rotate(90 387 451)" fill="#3D86FF"/>
<rect x="775" y="451" width="40" height="96" rx="2" transform="rotate(90 775 451)" fill="#3D86FF"/>
<rect x="96" y="575" width="40" height="96" rx="2" transform="rotate(90 96 575)" fill="#D0E2FC"/>
<rect x="387" y="575" width="40" height="96" rx="2" transform="rotate(90 387 575)" fill="#D0E2FC"/>
<rect x="775" y="575" width="40" height="96" rx="2" transform="rotate(90 775 575)" fill="#D0E2FC"/>
<rect x="96" y="410" width="40" height="96" rx="2" transform="rotate(90 96 410)" fill="#5595FF"/>
<rect x="387" y="410" width="40" height="96" rx="2" transform="rotate(90 387 410)" fill="#5595FF"/>
<rect x="775" y="410" width="40" height="96" rx="2" transform="rotate(90 775 410)" fill="#5595FF"/>
<rect x="96" y="533" width="40" height="96" rx="2" transform="rotate(90 96 533)" fill="#D0E2FC"/>
<rect x="387" y="533" width="40" height="96" rx="2" transform="rotate(90 387 533)" fill="#D0E2FC"/>
<rect x="775" y="533" width="40" height="96" rx="2" transform="rotate(90 775 533)" fill="#D0E2FC"/>
</svg>
