<svg width="16" height="16" viewBox="0 0 16 16" fill="none" xmlns="http://www.w3.org/2000/svg">
<mask id="path-1-inside-1_2997_26159" fill="white">
<rect x="1.33594" y="3" width="10.6667" height="10" rx="0.666667"/>
</mask>
<rect x="1.33594" y="3" width="10.6667" height="10" rx="0.666667" stroke="#25305A" stroke-width="2" mask="url(#path-1-inside-1_2997_26159)"/>
<path d="M8.73972 7.82692C8.85045 7.89336 8.84682 8.05504 8.73323 8.11645L5.74593 9.73147C5.63488 9.7915 5.5 9.71109 5.5 9.58485L5.5 6.17746C5.5 6.04791 5.64133 5.96789 5.75242 6.03454L8.73972 7.82692Z" stroke="#25305A"/>
<path fill-rule="evenodd" clip-rule="evenodd" d="M12 10.4711L13.5757 11.7687C14.0106 12.1269 14.6661 11.8175 14.6661 11.2541V4.74606C14.6661 4.18265 14.0106 3.87327 13.5757 4.23144L12 5.52905V6.82451L13.6661 5.45239L13.6661 10.5478L12 9.17563V10.4711Z" fill="#25305A"/>
</svg>
