<svg width="13" height="13" viewBox="0 0 13 13" fill="none" xmlns="http://www.w3.org/2000/svg">
<path d="M7.01153 5.47694C7.01153 5.75945 7.24055 5.98847 7.52306 5.98847H12.1268C12.4093 5.98847 12.6383 5.75945 12.6383 5.47694C12.6383 5.19444 12.4093 4.96542 12.1268 4.96542H8.03458V0.873194C8.03458 0.590685 7.80556 0.361666 7.52306 0.361666C7.24055 0.361666 7.01153 0.590685 7.01153 0.873194V5.47694ZM12.2766 -3.86301e-05L7.16135 5.11524L7.88476 5.83865L13 0.723371L12.2766 -3.86301e-05Z" fill="white"/>
<path d="M5.98847 7.52306C5.98847 7.24055 5.75945 7.01153 5.47694 7.01153H0.873194C0.590685 7.01153 0.361666 7.24055 0.361666 7.52306C0.361666 7.80556 0.590685 8.03458 0.873194 8.03458H4.96542V12.1268C4.96542 12.4093 5.19444 12.6383 5.47694 12.6383C5.75945 12.6383 5.98847 12.4093 5.98847 12.1268V7.52306ZM5.11524 7.16135L-3.86301e-05 12.2766L0.723371 13L5.83865 7.88476L5.11524 7.16135Z" fill="white"/>
</svg>
