<svg width="16" height="16" viewBox="0 0 16 16" fill="none" xmlns="http://www.w3.org/2000/svg">
<path d="M11.333 10.3077L12.9797 11.1273C13.1575 11.2159 13.3551 11.2576 13.5536 11.2484C13.7521 11.2392 13.9449 11.1795 14.1138 11.0749C14.2828 10.9703 14.4222 10.8243 14.5189 10.6507C14.6156 10.4771 14.6663 10.2817 14.6663 10.083V5.86133C14.6663 5.66078 14.6146 5.46363 14.5162 5.28889C14.4178 5.11416 14.276 4.96774 14.1045 4.86377C13.933 4.75981 13.7376 4.70181 13.5372 4.69536C13.3367 4.68892 13.138 4.73426 12.9602 4.827L11.333 5.6755V5.00016C11.333 3.98766 10.5122 3.16683 9.49967 3.16683H3.16634C2.15384 3.16683 1.33301 3.98766 1.33301 5.00016V11.0002C1.33301 12.0127 2.15384 12.8335 3.16634 12.8335H9.49967C10.5122 12.8335 11.333 12.0127 11.333 11.0002V10.3077ZM11.333 9.1905V6.8035L13.4227 5.71383C13.4481 5.7006 13.4764 5.69414 13.5051 5.69506C13.5337 5.69599 13.5616 5.70427 13.5861 5.71911C13.6105 5.73395 13.6308 5.75484 13.6449 5.77978C13.6589 5.80472 13.6663 5.83286 13.6663 5.8615V10.083C13.6663 10.1114 13.6591 10.1393 13.6453 10.1641C13.6315 10.1889 13.6115 10.2098 13.5874 10.2247C13.5633 10.2396 13.5357 10.2482 13.5073 10.2495C13.479 10.2508 13.4508 10.2448 13.4253 10.2322L11.333 9.1905ZM10.333 5.00016V11.0002C10.333 11.2212 10.2452 11.4331 10.0889 11.5894C9.93265 11.7457 9.72069 11.8335 9.49967 11.8335H3.16634C3.05691 11.8335 2.94854 11.8119 2.84744 11.7701C2.74633 11.7282 2.65447 11.6668 2.57709 11.5894C2.4997 11.512 2.43832 11.4202 2.39644 11.3191C2.35456 11.218 2.33301 11.1096 2.33301 11.0002V5.00016C2.33301 4.89073 2.35456 4.78236 2.39644 4.68126C2.43832 4.58016 2.4997 4.48829 2.57709 4.41091C2.65447 4.33353 2.74633 4.27214 2.84744 4.23026C2.94854 4.18839 3.05691 4.16683 3.16634 4.16683H9.49967C9.72069 4.16683 9.93265 4.25463 10.0889 4.41091C10.2452 4.56719 10.333 4.77915 10.333 5.00016ZM4.49967 8.66683C4.23446 8.66683 3.9801 8.77219 3.79257 8.95972C3.60503 9.14726 3.49967 9.40161 3.49967 9.66683C3.49967 9.93205 3.60503 10.1864 3.79257 10.3739C3.9801 10.5615 4.23446 10.6668 4.49967 10.6668C4.76489 10.6668 5.01924 10.5615 5.20678 10.3739C5.39432 10.1864 5.49967 9.93205 5.49967 9.66683C5.49967 9.40161 5.39432 9.14726 5.20678 8.95972C5.01924 8.77219 4.76489 8.66683 4.49967 8.66683Z" fill="#1E2427"/>
</svg>
