<svg width="16" height="16" viewBox="0 0 16 16" fill="none" xmlns="http://www.w3.org/2000/svg">
<path fill-rule="evenodd" clip-rule="evenodd" d="M8 4.79883C8.27614 4.79883 8.5 5.02269 8.5 5.29883V7.29172L10.0036 8.79527C10.1988 8.99054 10.1988 9.30712 10.0036 9.50238C9.80829 9.69764 9.49171 9.69764 9.29645 9.50238L7.5 7.70594V5.29883C7.5 5.02269 7.72386 4.79883 8 4.79883Z" fill="#25305A"/>
<path fill-rule="evenodd" clip-rule="evenodd" d="M13.4776 7.99863C13.5024 7.7236 13.2761 7.499 13 7.499C12.7239 7.499 12.5029 7.72372 12.4726 7.9982C12.2243 10.2486 10.3166 11.999 8 11.999C5.51472 11.999 3.5 9.98429 3.5 7.499C3.5 5.18244 5.25044 3.27473 7.5008 3.02638C7.77528 2.99608 8 2.77514 8 2.499C8 2.22286 7.7754 1.99662 7.50037 2.02139C4.69694 2.27383 2.5 4.62985 2.5 7.499C2.5 10.5366 4.96243 12.999 8 12.999C10.8691 12.999 13.2252 10.8021 13.4776 7.99863ZM9.86995 3.42908C10.1737 3.42908 10.4199 3.18284 10.4199 2.87908C10.4199 2.57532 10.1737 2.32908 9.86995 2.32908C9.56619 2.32908 9.31995 2.57532 9.31995 2.87908C9.31995 3.18284 9.56619 3.42908 9.86995 3.42908ZM11.52 4.52905C11.8237 4.52905 12.07 4.28281 12.07 3.97905C12.07 3.6753 11.8237 3.42905 11.52 3.42905C11.2162 3.42905 10.97 3.6753 10.97 3.97905C10.97 4.28281 11.2162 4.52905 11.52 4.52905ZM13.1699 5.62908C13.1699 5.93284 12.9237 6.17908 12.6199 6.17908C12.3162 6.17908 12.0699 5.93284 12.0699 5.62908C12.0699 5.32532 12.3162 5.07908 12.6199 5.07908C12.9237 5.07908 13.1699 5.32532 13.1699 5.62908Z" fill="#25305A"/>
</svg>
