<svg width="32" height="32" viewBox="0 0 32 32" fill="none" xmlns="http://www.w3.org/2000/svg">
<path fill-rule="evenodd" clip-rule="evenodd" d="M16 28C22.6274 28 28 22.6274 28 16C28 9.37258 22.6274 4 16 4C9.37258 4 4 9.37258 4 16C4 22.6274 9.37258 28 16 28ZM13.5312 18.4667V13.5334H18.4646V18.4667H13.5312ZM11.3313 13.0001C11.3313 12.0796 12.0774 11.3334 12.9979 11.3334H18.9979C19.9184 11.3334 20.6646 12.0796 20.6646 13.0001V19.0001C20.6646 19.9205 19.9184 20.6667 18.9979 20.6667H12.9979C12.0774 20.6667 11.3313 19.9205 11.3313 19.0001V13.0001Z" fill="#DB3244"/>
</svg>
