<svg width="16" height="16" viewBox="0 0 16 16" fill="none" xmlns="http://www.w3.org/2000/svg">
<path d="M13.9465 6.13729C13.8414 6.04078 13.704 5.99182 13.5645 6.00118C13.4249 6.01054 13.2947 6.07745 13.2023 6.1872C12.2925 7.26869 11.3506 8.08787 10.4028 8.6218C9.47765 9.14363 8.51833 9.40807 7.55197 9.40807C6.58561 9.40807 5.62863 9.14363 4.70666 8.62241C3.763 8.08849 2.82697 7.26976 1.92477 6.18889C1.83283 6.07871 1.70279 6.01123 1.56325 6.00128C1.42371 5.99133 1.2861 6.03973 1.1807 6.13583C1.0753 6.23194 1.01074 6.36787 1.00122 6.51373C0.991705 6.65959 1.03801 6.80343 1.12995 6.9136C1.78385 7.69696 2.45944 8.35721 3.14806 8.88716L2.29743 9.77647C2.19986 9.88013 2.14543 10.0199 2.146 10.1653C2.14657 10.3107 2.20208 10.45 2.30045 10.5528C2.39882 10.6557 2.53208 10.7137 2.67119 10.7143C2.81031 10.7149 2.94401 10.658 3.04318 10.556L4.05099 9.50254C4.10211 9.53317 4.15353 9.56302 4.20465 9.59196C4.6611 9.85202 5.14221 10.0617 5.6402 10.2176L5.14215 11.9266C5.12196 11.9958 5.115 12.0686 5.1217 12.1406C5.12839 12.2127 5.14859 12.2827 5.18116 12.3465C5.21372 12.4104 5.25801 12.467 5.31148 12.513C5.36496 12.559 5.42659 12.5936 5.49284 12.6147C5.55909 12.6358 5.62867 12.6431 5.69761 12.6361C5.76654 12.6291 5.83349 12.608 5.89462 12.5739C5.95575 12.5399 6.00986 12.4936 6.05388 12.4377C6.09789 12.3818 6.13094 12.3174 6.15114 12.2481L6.67526 10.4497C6.96553 10.4904 7.25807 10.5109 7.55094 10.511C7.84445 10.5109 8.13762 10.4904 8.42853 10.4497L8.95236 12.2481C8.97256 12.3174 9.00561 12.3818 9.04962 12.4377C9.09363 12.4936 9.14775 12.5399 9.20888 12.5739C9.27001 12.608 9.33695 12.6291 9.40589 12.6361C9.47483 12.6431 9.54441 12.6358 9.61066 12.6147C9.67691 12.5936 9.73853 12.559 9.79201 12.513C9.84549 12.467 9.88978 12.4104 9.92234 12.3465C9.9549 12.2827 9.97511 12.2127 9.9818 12.1406C9.98849 12.0686 9.98154 11.9958 9.96134 11.9266L9.4633 10.2176C9.96253 10.0617 10.445 9.85218 10.9029 9.59242C10.9511 9.56532 10.9992 9.5373 11.0474 9.50882L12.049 10.556C12.1482 10.658 12.2819 10.7149 12.421 10.7143C12.5601 10.7137 12.6934 10.6557 12.7918 10.5528C12.8901 10.45 12.9457 10.3107 12.9462 10.1653C12.9468 10.0199 12.8924 9.88013 12.7948 9.77647L11.9532 8.89619C12.6489 8.36502 13.3321 7.70232 13.9938 6.91529C14.0395 6.86095 14.0746 6.79773 14.097 6.72923C14.1194 6.66073 14.1287 6.58829 14.1243 6.51604C14.1199 6.4438 14.1019 6.37317 14.0714 6.30818C14.0409 6.24319 13.9984 6.18512 13.9465 6.13729Z" fill="#666E8B"/>
</svg>
