<svg width="16" height="16" viewBox="0 0 16 16" fill="none" xmlns="http://www.w3.org/2000/svg">
<path d="M4.6 3.92057C4.6 3.88375 4.62985 3.85391 4.66667 3.85391H11.3349C11.3717 3.85391 11.4015 3.88375 11.4015 3.92057V12.5892C11.4015 12.626 11.3717 12.6558 11.3349 12.6558H4.66667C4.62985 12.6558 4.6 12.626 4.6 12.5892V3.92057Z" stroke="white" stroke-width="1.2" stroke-linejoin="round"/>
<path d="M6.69922 6.84375V9.84433" stroke="white" stroke-width="1.2" stroke-linecap="round" stroke-linejoin="round"/>
<path d="M9.30078 6.84375V9.84433" stroke="white" stroke-width="1.2" stroke-linecap="round" stroke-linejoin="round"/>
<path d="M3 3.84375L13.0019 3.84375" stroke="white" stroke-width="1.2" stroke-linecap="round" stroke-linejoin="round"/>
<path d="M5.14453 3.8575L6.0947 2.31673C6.2161 2.11987 6.43086 2 6.66215 2H9.21848C9.45191 2 9.66833 2.12209 9.78906 2.32187L10.717 3.8575" stroke="white" stroke-width="1.2" stroke-linejoin="round"/>
</svg>
