<svg width="20" height="20" viewBox="0 0 20 20" fill="none" xmlns="http://www.w3.org/2000/svg">
<path d="M12.9727 6.24122L12.9629 6.22951C12.8574 6.11037 12.7051 6.04201 12.5469 6.04201H12.1406C10.5605 5.92873 9.42187 6.05763 8.52539 6.27247C7.9668 6.40529 7.52734 6.61037 7.18555 6.90138C6.80664 7.22365 6.54883 7.63966 6.40039 8.17287C6.30078 8.52638 6.25391 9.1631 6.44531 9.7881C6.49414 9.94435 6.55859 10.0947 6.64062 10.2373C6.22656 10.8975 6 11.2998 6 12.126C6 12.4326 6.25 12.6807 6.55664 12.6807C6.70508 12.6807 6.84375 12.6221 6.95117 12.5186C7.05664 12.4131 7.11523 12.2725 7.11328 12.126C7.11328 11.6631 7.27344 11.3721 7.42773 11.0674C7.4707 11.1279 7.46875 11.1006 7.53516 11.1377C7.63672 11.1983 7.74219 11.251 7.85156 11.294C8.07422 11.3838 8.43164 11.499 8.86914 11.5361C8.96289 11.544 9.0625 11.5498 9.16016 11.5498C9.69141 11.5498 10.1914 11.4229 10.6504 11.1709C11.2227 10.8565 11.7129 10.3526 12.1074 9.67287C12.5527 8.90919 12.8848 7.90724 13.0957 6.6924V6.69044C13.123 6.53224 13.0781 6.36818 12.9727 6.24122ZM8.18359 9.99123L8.19531 9.97951C8.25586 9.92287 8.3125 9.86818 8.36914 9.81349C8.70898 9.4756 9.0918 9.1924 9.47461 8.99123C9.80469 8.81935 10.0605 8.76076 10.2812 8.76076C10.5879 8.76076 10.8965 8.47169 10.8965 8.16701C10.8965 7.86232 10.6465 7.61232 10.3398 7.61232C9.93359 7.61232 9.45703 7.74904 8.95898 8.0088C8.47656 8.26076 8 8.61232 7.58203 9.02833C7.53516 9.07521 7.50977 9.10255 7.46484 9.14943C7.42188 8.84083 7.47852 8.59474 7.51172 8.47365C7.68164 7.86623 8.01367 7.54591 8.75 7.36232C9.47656 7.18263 10.4727 7.02443 11.8652 7.15529C11.5039 8.73341 10.9141 9.75685 10.1094 10.1983C9.81641 10.3584 9.49414 10.4404 9.1543 10.4404C8.75781 10.4404 8.42969 10.3311 8.26953 10.2647C8.21289 10.2412 8.15625 10.2139 8.10156 10.1807L8.09961 10.1787C8.07422 10.1651 8.04883 10.1514 8.02148 10.1416C8.07812 10.0908 8.13086 10.0401 8.18359 9.99123Z" fill="#25305A"/>
<rect x="2.5" y="3.5" width="15" height="11" stroke="#25305A"/>
<rect x="5" y="16" width="10" height="1" fill="#25305A"/>
</svg>
