<svg width="336" height="254" viewBox="0 0 336 254" fill="none" xmlns="http://www.w3.org/2000/svg">
<circle cx="168" cy="96" r="96" fill="url(#paint0_linear_0_481)"/>
<path d="M152.4 125.754C152.4 159.418 135.208 146.273 114 146.273C92.7924 146.273 75.6001 159.418 75.6001 125.754C75.6001 92.0906 92.7924 64.8008 114 64.8008C135.208 64.8008 152.4 92.0906 152.4 125.754Z" fill="url(#paint1_linear_0_481)"/>
<ellipse cx="222" cy="114" rx="14.4" ry="26.4" fill="url(#paint2_linear_0_481)"/>
<ellipse cx="246" cy="114" rx="14.4" ry="26.4" fill="url(#paint3_linear_0_481)"/>
<path fill-rule="evenodd" clip-rule="evenodd" d="M287.4 253.537C317.446 239.12 336 219.289 336 197.4C336 153.327 260.784 117.6 168 117.6C75.2162 117.6 0 153.327 0 197.4C0 219.119 18.2665 238.811 47.9002 253.2H287.4V253.537Z" fill="url(#paint4_linear_0_481)"/>
<ellipse rx="10.4246" ry="6.16082" transform="matrix(0.837102 0.547047 0.725984 -0.687712 224.398 152.739)" fill="#DEE7F4"/>
<ellipse rx="9.23517" ry="4.91307" transform="matrix(0.837102 0.547047 0.725984 -0.687712 224.184 153.999)" fill="url(#paint5_linear_0_481)"/>
<ellipse cx="238.936" cy="136.256" rx="4.16733" ry="2.72442" transform="rotate(25.5736 238.936 136.256)" fill="#DEE7F4"/>
<ellipse rx="5.8976" ry="4.35423" transform="matrix(0.996972 -0.077764 0.0609016 0.998144 189.744 157.206)" fill="#DEE7F4"/>
<ellipse cx="238.513" cy="136.641" rx="3.72609" ry="2.17264" transform="rotate(25.5736 238.513 136.641)" fill="url(#paint6_linear_0_481)"/>
<ellipse rx="4.96871" ry="3.7498" transform="matrix(0.996972 -0.077764 0.0609016 0.998144 190.366 157.7)" fill="url(#paint7_linear_0_481)"/>
<ellipse cx="91.0337" cy="140.298" rx="3.46321" ry="2.11924" transform="rotate(-14.0951 91.0337 140.298)" fill="#DEE7F4"/>
<ellipse cx="91.3521" cy="140.642" rx="3.06807" ry="1.69003" transform="rotate(-14.0951 91.3521 140.642)" fill="url(#paint8_linear_0_481)"/>
<ellipse rx="9.58596" ry="8.10662" transform="matrix(0.996022 -0.0891128 0.0531186 0.998588 157.578 161.45)" fill="#DEE7F4"/>
<ellipse rx="8.07614" ry="6.9813" transform="matrix(0.996022 -0.0891128 0.0531186 0.998588 158.588 162.373)" fill="url(#paint9_linear_0_481)"/>
<ellipse rx="4.4105" ry="3.52246" transform="matrix(0.999659 0.0261254 -0.0379393 0.99928 109.457 159.565)" fill="#DEE7F4"/>
<ellipse rx="3.71583" ry="3.03349" transform="matrix(0.999659 0.0261254 -0.0379393 0.99928 109.883 160.015)" fill="url(#paint10_linear_0_481)"/>
<rect x="94.4985" y="135.766" width="1.88727" height="8.4433" rx="0.943633" transform="rotate(-118.458 94.4985 135.766)" fill="url(#paint11_linear_0_481)"/>
<rect x="100.466" y="125.555" width="1.23135" height="6.56719" rx="0.615674" fill="url(#paint12_linear_0_481)"/>
<path d="M98.5781 113.274C98.8989 112.276 99.8273 111.6 100.875 111.6C101.924 111.6 102.852 112.276 103.173 113.274L105.273 119.809L105.742 121.998C106.406 125.096 104.044 128.018 100.875 128.018C97.7068 128.018 95.3448 125.096 96.0088 121.998L96.4778 119.809L98.5781 113.274Z" fill="url(#paint13_linear_0_481)"/>
<rect x="226.185" y="132.166" width="1.23127" height="5.50847" rx="0.615633" transform="rotate(-118.458 226.185 132.166)" fill="url(#paint14_linear_0_481)"/>
<rect x="230.08" y="125.504" width="0.803341" height="4.28448" rx="0.40167" fill="url(#paint15_linear_0_481)"/>
<path d="M228.847 117.493C229.057 116.842 229.662 116.4 230.346 116.4C231.03 116.4 231.636 116.842 231.845 117.493L233.215 121.756L233.521 123.184C233.955 125.205 232.414 127.112 230.346 127.112C228.279 127.112 226.738 125.205 227.171 123.184L227.477 121.756L228.847 117.493Z" fill="url(#paint16_linear_0_481)"/>
<path d="M75.02 203.4L70.6929 157.802L134.582 120.466L145.137 132.529L75.02 203.4Z" fill="url(#paint17_linear_0_481)"/>
<path d="M108.192 153.64L92.3585 144.646L121.246 119.147L124.778 139.315L108.192 153.64Z" fill="url(#paint18_linear_0_481)"/>
<path d="M197.156 176.258L160.212 133.283L209.488 130.672L205.449 143.838L197.156 176.258Z" fill="url(#paint19_linear_0_481)"/>
<path fill-rule="evenodd" clip-rule="evenodd" d="M144.228 111.855L137.701 110.917L141.715 107.572L148.242 108.51L144.228 111.855Z" fill="url(#paint20_linear_0_481)"/>
<path fill-rule="evenodd" clip-rule="evenodd" d="M144.947 132.938L138.383 132.022L134.405 125.361L140.969 126.277L144.947 132.938Z" fill="#B9D0F0"/>
<path fill-rule="evenodd" clip-rule="evenodd" d="M127.778 125.438L121.229 124.441L129.861 117.193L136.68 118.159L127.778 125.438Z" fill="url(#paint21_linear_0_481)"/>
<path fill-rule="evenodd" clip-rule="evenodd" d="M136.384 118.112L129.863 117.192L123.207 105.924L129.728 106.844L136.384 118.112Z" fill="url(#paint22_linear_0_481)"/>
<path fill-rule="evenodd" clip-rule="evenodd" d="M118.421 138.592L124.854 139.525L120.087 131.234L113.654 130.301L118.421 138.592Z" fill="url(#paint23_linear_0_481)"/>
<path fill-rule="evenodd" clip-rule="evenodd" d="M124.616 88.8008L116.931 95.128L123.41 96.048L131.096 89.7205L124.616 88.8008Z" fill="#F7F9FD"/>
<path fill-rule="evenodd" clip-rule="evenodd" d="M113.621 130.308L120.086 131.233L123.411 96.0468L116.947 95.1211L113.621 130.308Z" fill="url(#paint24_linear_0_481)"/>
<path fill-rule="evenodd" clip-rule="evenodd" d="M123.412 96.0482L119.913 131.269L124.725 139.526L140.828 126.169L144.764 132.922L152.467 126.533L148.53 119.779L152.525 116.467L147.986 108.679L143.991 111.992L131.098 89.7207L123.412 96.0482ZM129.66 107.009L136.288 118.381L127.778 125.438L129.66 107.009Z" fill="url(#paint25_linear_0_481)"/>
<g filter="url(#filter0_f_0_481)">
<path fill-rule="evenodd" clip-rule="evenodd" d="M168.306 134.815C168.856 133.884 169.418 132.486 169.991 130.62C170.834 127.88 171.079 126.096 170.728 125.264C170.417 124.526 169.74 124.203 168.699 124.293C168.566 124.305 168.426 124.323 168.281 124.348C166.973 124.574 165.88 125.218 165.003 126.28C164.125 127.343 163.286 129.173 162.487 131.772C161.681 134.398 161.451 136.136 161.795 136.986C162.102 137.747 162.759 138.083 163.763 137.996C163.882 137.986 164.007 137.969 164.136 137.947C164.94 137.808 165.698 137.484 166.411 136.974C167.125 136.464 167.758 135.744 168.306 134.815ZM177.927 129.022C176.775 132.764 175.061 135.654 172.781 137.691C170.5 139.728 167.224 141.117 162.954 141.855C162.153 141.993 161.413 142.092 160.734 142.151C159.383 142.268 158.275 142.228 157.406 142.028C156.1 141.731 155.139 141.129 154.523 140.223C154.071 139.581 153.856 138.635 153.881 137.382C153.903 136.131 154.16 134.709 154.652 133.114C155.857 129.193 157.673 126.281 160.102 124.377C162.531 122.474 165.737 121.178 169.724 120.488C170.529 120.349 171.264 120.25 171.929 120.193C172.846 120.113 173.631 120.111 174.282 120.186C175.406 120.316 176.274 120.587 176.88 121.002C177.487 121.417 177.922 121.887 178.183 122.416C178.443 122.944 178.585 123.587 178.61 124.347C178.667 125.793 178.438 127.351 177.927 129.022Z" fill="#B1C4DF" fill-opacity="0.5"/>
</g>
<g filter="url(#filter1_f_0_481)">
<path fill-rule="evenodd" clip-rule="evenodd" d="M207.223 119.596C205.898 119.067 204.41 119.134 203.137 119.778L187.182 127.85C186.16 128.367 185.37 129.25 184.969 130.323C184.101 132.646 185.248 135.236 187.551 136.155L194.829 139.06C196.147 139.586 196.804 141.069 196.307 142.398C195.811 143.727 196.467 145.21 197.785 145.736L199.643 146.477C200.944 146.997 202.417 146.345 202.908 145.032L203.157 144.366C203.51 143.42 204.573 142.949 205.511 143.324C206.45 143.698 207.512 143.227 207.866 142.281L208.638 140.215C208.996 139.257 208.522 138.188 207.572 137.808C206.622 137.429 206.148 136.36 206.506 135.402L210.037 125.951C210.982 123.42 209.732 120.597 207.223 119.596ZM196.968 133.577C195.034 132.805 194.921 130.11 196.784 129.179C198.744 128.199 200.889 130.129 200.122 132.181C199.649 133.449 198.225 134.079 196.968 133.577Z" fill="#B1C4DF" fill-opacity="0.5"/>
</g>
<path fill-rule="evenodd" clip-rule="evenodd" d="M178.264 102.844C178.262 102.678 178.252 102.523 178.232 102.38C178.077 101.239 177.514 100.458 176.544 100.039C176.42 99.9853 176.289 99.9376 176.151 99.8955C176.058 99.8671 175.965 99.8436 175.873 99.8229C175.846 99.8165 175.819 99.8113 175.792 99.806C175.724 99.7919 175.656 99.7802 175.588 99.7706C175.572 99.7679 175.555 99.7638 175.538 99.7617C175.526 99.7604 175.515 99.7599 175.504 99.7584C175.464 99.7538 175.424 99.7507 175.385 99.7475C175.349 99.7444 175.313 99.7413 175.278 99.7396C175.238 99.7379 175.199 99.7376 175.16 99.7371C175.134 99.737 175.108 99.735 175.082 99.7355C175.075 99.7358 175.069 99.7367 175.063 99.7371C174.96 99.7394 174.859 99.747 174.758 99.7597C174.749 99.7608 174.74 99.7606 174.731 99.7616C174.718 99.7635 174.705 99.7672 174.691 99.7692C174.609 99.7815 174.528 99.7966 174.447 99.816C174.436 99.8186 174.425 99.8197 174.414 99.8223C174.411 99.8233 174.407 99.8245 174.404 99.8255C174.31 99.8491 174.218 99.8784 174.126 99.9112C174.117 99.9145 174.108 99.9166 174.098 99.9201C174.087 99.9241 174.077 99.93 174.066 99.9342C173.963 99.9737 173.861 100.018 173.76 100.069C173.758 100.07 173.755 100.071 173.753 100.072C173.733 100.082 173.714 100.094 173.695 100.105C173.647 100.131 173.6 100.156 173.552 100.185C173.526 100.201 173.499 100.218 173.472 100.235C173.43 100.262 173.388 100.289 173.346 100.319C173.337 100.325 173.328 100.33 173.319 100.336C173.305 100.346 173.291 100.358 173.277 100.369C173.218 100.412 173.159 100.457 173.101 100.504C173.079 100.522 173.056 100.54 173.034 100.559C172.957 100.624 172.882 100.691 172.806 100.763C172.736 100.831 172.666 100.905 172.595 100.982C172.589 100.989 172.583 100.995 172.577 101.001C172.548 101.034 172.518 101.07 172.489 101.104C172.464 101.132 172.44 101.159 172.416 101.188C172.375 101.238 172.333 101.292 172.291 101.345C172.271 101.37 172.251 101.394 172.231 101.42C172.169 101.502 172.107 101.587 172.044 101.676C172.04 101.681 172.036 101.688 172.032 101.693C171.974 101.777 171.914 101.864 171.855 101.954C171.834 101.986 171.812 102.021 171.79 102.055C171.748 102.121 171.706 102.186 171.663 102.255C171.638 102.296 171.613 102.339 171.587 102.382C171.548 102.447 171.509 102.512 171.469 102.58C171.442 102.626 171.415 102.675 171.388 102.722C171.35 102.789 171.312 102.857 171.273 102.926C171.245 102.978 171.216 103.031 171.188 103.084C171.15 103.153 171.113 103.224 171.075 103.296C171.046 103.351 171.017 103.408 170.987 103.466C170.95 103.539 170.912 103.613 170.874 103.689C170.845 103.748 170.815 103.808 170.786 103.868C170.748 103.946 170.709 104.026 170.671 104.106C170.641 104.168 170.612 104.23 170.582 104.294C170.543 104.376 170.504 104.461 170.465 104.547C170.435 104.611 170.406 104.675 170.376 104.741C170.336 104.83 170.296 104.921 170.256 105.012C170.226 105.079 170.197 105.144 170.168 105.212C170.126 105.308 170.084 105.408 170.042 105.507C170.014 105.573 169.986 105.637 169.958 105.704C169.912 105.815 169.865 105.93 169.818 106.044C169.794 106.103 169.77 106.16 169.746 106.219C169.676 106.394 169.605 106.572 169.533 106.755C169.485 106.877 169.438 106.998 169.393 107.117C169.386 107.134 169.381 107.151 169.374 107.168C169.289 107.39 169.208 107.608 169.131 107.82C169.115 107.864 169.1 107.907 169.085 107.95C169.019 108.134 168.955 108.314 168.895 108.491C168.882 108.531 168.867 108.572 168.854 108.611C168.786 108.812 168.723 109.006 168.663 109.197C168.65 109.239 168.637 109.281 168.624 109.323C168.572 109.489 168.524 109.652 168.478 109.81C168.47 109.841 168.46 109.873 168.451 109.903C168.401 110.081 168.355 110.254 168.312 110.423C168.302 110.462 168.293 110.501 168.283 110.539C168.246 110.691 168.212 110.839 168.18 110.982C168.176 111.002 168.171 111.022 168.167 111.042C168.134 111.199 168.105 111.35 168.079 111.497C168.073 111.532 168.067 111.567 168.062 111.601C168.039 111.74 168.019 111.875 168.003 112.004C168.002 112.011 168.001 112.019 168 112.025C168 112.027 168 112.028 167.999 112.03C167.984 112.165 167.973 112.293 167.964 112.417C167.962 112.448 167.961 112.478 167.959 112.508C167.953 112.631 167.948 112.751 167.95 112.864L168.006 118.006C168.005 117.893 168.009 117.773 168.015 117.65C168.017 117.621 168.019 117.59 168.021 117.559C168.029 117.435 168.04 117.307 168.056 117.173C168.057 117.164 168.059 117.154 168.06 117.145C168.076 117.017 168.096 116.882 168.118 116.744C168.124 116.709 168.13 116.674 168.136 116.639C168.162 116.492 168.19 116.342 168.224 116.185C168.228 116.165 168.233 116.144 168.237 116.124C168.268 115.981 168.303 115.834 168.34 115.683C168.35 115.643 168.359 115.604 168.369 115.564C168.412 115.396 168.458 115.223 168.509 115.045C168.517 115.015 168.526 114.985 168.535 114.955C168.58 114.795 168.629 114.632 168.681 114.465C168.694 114.423 168.706 114.382 168.72 114.34C168.78 114.149 168.843 113.954 168.911 113.753C168.924 113.714 168.938 113.675 168.951 113.635C169.012 113.457 169.076 113.276 169.142 113.091C169.158 113.048 169.172 113.006 169.188 112.963C169.265 112.751 169.346 112.533 169.431 112.311C169.482 112.174 169.535 112.038 169.59 111.897C169.661 111.715 169.733 111.535 169.804 111.36C169.827 111.303 169.849 111.249 169.872 111.193C169.92 111.076 169.968 110.959 170.015 110.846C170.043 110.779 170.071 110.715 170.099 110.65C170.141 110.55 170.183 110.451 170.225 110.354C170.254 110.286 170.284 110.22 170.313 110.153C170.353 110.063 170.393 109.972 170.432 109.885C170.463 109.818 170.492 109.753 170.523 109.687C170.561 109.603 170.6 109.519 170.638 109.437C170.668 109.373 170.698 109.31 170.729 109.247C170.766 109.167 170.804 109.089 170.842 109.012C170.872 108.951 170.902 108.89 170.932 108.83C170.969 108.755 171.006 108.682 171.044 108.609C171.073 108.551 171.103 108.494 171.132 108.438C171.17 108.366 171.207 108.296 171.244 108.227C171.273 108.174 171.302 108.12 171.33 108.068C171.368 107.999 171.406 107.933 171.444 107.866C171.471 107.818 171.499 107.769 171.526 107.722C171.565 107.655 171.604 107.591 171.643 107.526C171.669 107.483 171.695 107.439 171.72 107.397C171.762 107.329 171.804 107.265 171.845 107.2C171.867 107.166 171.89 107.13 171.912 107.096C171.97 107.008 172.027 106.924 172.084 106.843C172.09 106.835 172.095 106.826 172.101 106.818C172.164 106.729 172.226 106.644 172.288 106.563C172.308 106.536 172.329 106.512 172.349 106.486C172.39 106.433 172.432 106.38 172.473 106.331C172.497 106.301 172.521 106.274 172.546 106.246C172.581 106.205 172.617 106.164 172.652 106.125C172.723 106.047 172.793 105.973 172.863 105.906C172.938 105.833 173.014 105.766 173.091 105.701C173.113 105.682 173.136 105.664 173.158 105.646C173.216 105.599 173.274 105.554 173.333 105.511C173.356 105.494 173.38 105.477 173.403 105.461C173.444 105.432 173.486 105.405 173.529 105.378C173.555 105.361 173.582 105.343 173.609 105.327C173.656 105.299 173.703 105.273 173.751 105.248C173.773 105.236 173.794 105.223 173.817 105.212C173.917 105.16 174.02 105.116 174.122 105.077C174.143 105.069 174.163 105.061 174.183 105.054C174.275 105.021 174.367 104.992 174.46 104.968C174.475 104.964 174.489 104.962 174.504 104.958C174.584 104.939 174.666 104.924 174.748 104.912C174.77 104.908 174.792 104.905 174.814 104.902C174.915 104.89 175.017 104.882 175.119 104.879C175.151 104.879 175.184 104.879 175.216 104.88C175.256 104.88 175.295 104.88 175.334 104.882C175.37 104.884 175.405 104.887 175.441 104.89C175.481 104.893 175.52 104.896 175.56 104.901C175.588 104.904 175.617 104.909 175.645 104.913C175.713 104.922 175.78 104.934 175.848 104.948C175.876 104.954 175.903 104.959 175.93 104.965C176.022 104.986 176.114 105.009 176.208 105.038C176.345 105.08 176.477 105.128 176.601 105.182C177.571 105.601 178.134 106.381 178.289 107.523C178.308 107.666 178.319 107.82 178.321 107.987L178.264 102.844Z" fill="url(#paint26_linear_0_481)"/>
<mask id="mask0_0_481" style="mask-type:alpha" maskUnits="userSpaceOnUse" x="156" y="95" width="34" height="36">
<path fill-rule="evenodd" clip-rule="evenodd" d="M168.208 95.6992L189.279 105.701L177.659 130.181L156.588 120.179L168.208 95.6992Z" fill="white"/>
</mask>
<g mask="url(#mask0_0_481)">
<path fill-rule="evenodd" clip-rule="evenodd" d="M180.833 122.404C180.965 122.235 181.097 122.061 181.227 121.882C181.256 121.841 181.286 121.802 181.316 121.761C181.472 121.541 181.626 121.311 181.779 121.075C181.818 121.014 181.857 120.949 181.896 120.887C182.013 120.702 182.128 120.513 182.241 120.319C182.286 120.242 182.331 120.166 182.375 120.087C182.506 119.858 182.635 119.623 182.762 119.38C182.779 119.348 182.797 119.318 182.813 119.285C182.956 119.01 183.096 118.726 183.235 118.435C183.274 118.353 183.312 118.27 183.35 118.187C183.454 117.964 183.557 117.735 183.659 117.502C183.698 117.412 183.737 117.323 183.776 117.231C183.91 116.918 184.042 116.599 184.171 116.27C184.193 116.212 184.215 116.155 184.237 116.098C184.28 115.986 184.319 115.874 184.36 115.761C184.393 115.671 184.428 115.58 184.46 115.489C184.516 115.329 184.568 115.17 184.621 115.011C184.645 114.937 184.671 114.864 184.694 114.79C184.768 114.557 184.838 114.324 184.904 114.091C184.911 114.067 184.917 114.042 184.924 114.017C184.982 113.809 185.038 113.601 185.089 113.393C185.109 113.312 185.127 113.232 185.146 113.152C185.182 112.999 185.218 112.846 185.25 112.694C185.27 112.6 185.288 112.507 185.307 112.414C185.334 112.274 185.362 112.135 185.387 111.995C185.405 111.896 185.421 111.797 185.437 111.698C185.459 111.564 185.48 111.43 185.5 111.295C185.515 111.194 185.528 111.092 185.541 110.991C185.551 110.914 185.563 110.836 185.572 110.759C185.584 110.657 185.595 110.554 185.606 110.452C185.657 109.971 185.681 109.511 185.675 109.071L185.609 103.959C185.615 104.399 185.592 104.86 185.54 105.341C185.521 105.521 185.498 105.701 185.475 105.881C185.462 105.982 185.449 106.083 185.434 106.183C185.415 106.318 185.393 106.453 185.371 106.588C185.355 106.687 185.339 106.785 185.321 106.883C185.296 107.024 185.269 107.163 185.241 107.303C185.222 107.396 185.204 107.489 185.184 107.583C185.152 107.735 185.116 107.888 185.08 108.04C185.061 108.121 185.043 108.201 185.023 108.282C184.972 108.49 184.916 108.698 184.858 108.906C184.851 108.931 184.846 108.955 184.838 108.98C184.773 109.213 184.702 109.446 184.628 109.679C184.605 109.752 184.579 109.826 184.555 109.9C184.502 110.059 184.45 110.218 184.394 110.378C184.362 110.469 184.327 110.56 184.294 110.65C184.232 110.82 184.171 110.989 184.105 111.159C183.976 111.488 183.844 111.807 183.71 112.12C183.671 112.212 183.632 112.301 183.593 112.392C183.491 112.624 183.388 112.852 183.284 113.076C183.246 113.159 183.208 113.242 183.169 113.324C183.03 113.615 182.89 113.899 182.747 114.174C182.731 114.207 182.713 114.237 182.696 114.269C182.569 114.512 182.44 114.747 182.309 114.976C182.265 115.054 182.22 115.131 182.175 115.207C182.062 115.402 181.947 115.591 181.831 115.776C181.791 115.839 181.752 115.903 181.713 115.964C181.56 116.2 181.406 116.43 181.25 116.65C181.22 116.691 181.19 116.73 181.161 116.77C181.031 116.95 180.9 117.124 180.767 117.293C180.717 117.355 180.668 117.416 180.618 117.477C180.49 117.634 180.361 117.786 180.23 117.933C180.19 117.978 180.151 118.025 180.111 118.069C180.029 118.159 179.945 118.244 179.862 118.33C179.802 118.392 179.743 118.456 179.683 118.515C179.594 118.604 179.504 118.687 179.413 118.771C179.357 118.823 179.303 118.877 179.246 118.927C179.141 119.022 179.033 119.11 178.926 119.198C178.884 119.233 178.843 119.27 178.8 119.304C178.65 119.424 178.499 119.538 178.345 119.646C178.197 119.75 178.048 119.849 177.897 119.942C177.727 120.047 177.552 120.145 177.375 120.236C177.27 120.291 177.162 120.342 177.054 120.392C177.011 120.412 176.97 120.433 176.926 120.452C176.77 120.521 176.612 120.585 176.451 120.644C176.423 120.654 176.393 120.663 176.364 120.673C176.232 120.72 176.1 120.764 175.965 120.804C175.908 120.821 175.849 120.835 175.792 120.851C175.684 120.881 175.575 120.909 175.464 120.935C175.391 120.953 175.317 120.968 175.244 120.983C175.14 121.005 175.036 121.025 174.931 121.042C174.855 121.056 174.779 121.068 174.702 121.079C174.606 121.093 174.508 121.105 174.411 121.117C174.301 121.13 174.191 121.141 174.08 121.15C173.986 121.158 173.893 121.165 173.798 121.17C173.685 121.177 173.571 121.181 173.456 121.184C173.344 121.188 173.232 121.19 173.119 121.19C173.063 121.19 173.007 121.19 172.95 121.189C172.784 121.187 172.616 121.181 172.446 121.172C172.423 121.17 172.401 121.17 172.377 121.169C172.185 121.157 171.99 121.141 171.793 121.12C171.737 121.115 171.681 121.108 171.626 121.101C171.499 121.087 171.37 121.07 171.24 121.052C171.098 121.032 170.954 121.01 170.81 120.986C170.709 120.969 170.609 120.953 170.507 120.934C170.356 120.906 170.203 120.875 170.049 120.842C169.951 120.822 169.854 120.802 169.754 120.78C169.584 120.741 169.41 120.697 169.236 120.653C169.151 120.632 169.068 120.612 168.982 120.589C168.721 120.52 168.457 120.445 168.189 120.363C167.432 120.132 166.738 119.88 166.107 119.607C164.852 119.065 163.845 118.438 163.085 117.726C161.942 116.659 161.168 115.369 160.762 113.855C160.603 113.287 160.519 112.641 160.509 111.918L160.575 117.029C160.585 117.752 160.669 118.398 160.828 118.966C161.234 120.48 162.008 121.77 163.151 122.838C163.911 123.549 164.917 124.176 166.173 124.718C166.804 124.992 167.498 125.243 168.255 125.474C168.523 125.556 168.787 125.631 169.048 125.7C169.134 125.723 169.217 125.743 169.302 125.764C169.476 125.808 169.649 125.852 169.82 125.891C169.919 125.913 170.017 125.933 170.115 125.953C170.269 125.986 170.422 126.017 170.573 126.045C170.675 126.064 170.775 126.08 170.876 126.097C171.021 126.121 171.164 126.143 171.306 126.163C171.354 126.17 171.404 126.179 171.452 126.185C171.533 126.196 171.612 126.203 171.692 126.213C171.748 126.219 171.803 126.226 171.858 126.231C172.056 126.251 172.251 126.268 172.444 126.28C172.466 126.281 172.488 126.281 172.51 126.283C172.681 126.292 172.849 126.298 173.016 126.3C173.073 126.301 173.129 126.301 173.184 126.301C173.244 126.301 173.304 126.303 173.362 126.302C173.416 126.301 173.468 126.297 173.522 126.296C173.637 126.292 173.751 126.288 173.863 126.281C173.958 126.276 174.052 126.269 174.146 126.261C174.257 126.252 174.367 126.241 174.476 126.228C174.527 126.222 174.58 126.219 174.63 126.212C174.677 126.206 174.722 126.197 174.768 126.19C174.845 126.179 174.921 126.167 174.997 126.154C175.102 126.136 175.207 126.116 175.31 126.094C175.384 126.079 175.457 126.063 175.53 126.047C175.565 126.038 175.601 126.032 175.636 126.023C175.711 126.005 175.784 125.983 175.858 125.962C175.915 125.947 175.974 125.932 176.031 125.915C176.166 125.875 176.299 125.831 176.43 125.784C176.459 125.774 176.488 125.765 176.517 125.755C176.521 125.753 176.526 125.752 176.53 125.751C176.687 125.693 176.84 125.63 176.992 125.564C177.035 125.545 177.077 125.523 177.119 125.503C177.213 125.46 177.307 125.418 177.399 125.371C177.413 125.364 177.427 125.355 177.441 125.347C177.619 125.256 177.793 125.158 177.963 125.053C178.112 124.96 178.261 124.863 178.407 124.76C178.409 124.758 178.41 124.757 178.411 124.756C178.565 124.648 178.716 124.534 178.866 124.415C178.908 124.382 178.948 124.345 178.989 124.311C179.098 124.222 179.206 124.133 179.312 124.038C179.368 123.988 179.424 123.934 179.479 123.882C179.57 123.798 179.66 123.715 179.749 123.626C179.809 123.567 179.869 123.503 179.928 123.441C180.012 123.355 180.095 123.27 180.177 123.18C180.189 123.167 180.201 123.155 180.213 123.142C180.241 123.112 180.268 123.076 180.296 123.045C180.427 122.897 180.556 122.746 180.684 122.588C180.734 122.527 180.783 122.466 180.833 122.404Z" fill="url(#paint27_linear_0_481)"/>
</g>
<path fill-rule="evenodd" clip-rule="evenodd" d="M174.403 113.991C175.07 113.043 175.829 111.482 176.679 109.307C177.929 106.115 178.464 103.878 178.286 102.594C178.128 101.455 177.563 100.675 176.591 100.255C176.466 100.201 176.335 100.153 176.197 100.111C174.956 99.731 173.84 100.018 172.85 100.969C171.859 101.922 170.77 103.912 169.585 106.94C168.389 110.001 167.875 112.184 168.044 113.489C168.194 114.657 168.739 115.443 169.676 115.848C169.788 115.897 169.905 115.939 170.028 115.977C170.791 116.21 171.544 116.174 172.287 115.868C173.032 115.564 173.738 114.938 174.403 113.991ZM184.245 111.307C182.538 115.667 180.462 118.607 178.013 120.122C175.564 121.639 172.313 121.779 168.262 120.541C167.502 120.309 166.805 120.056 166.171 119.782C164.91 119.236 163.898 118.607 163.135 117.893C161.987 116.821 161.209 115.525 160.8 114.005C160.496 112.921 160.463 111.555 160.703 109.909C160.94 108.263 161.423 106.511 162.152 104.653C163.94 100.083 166.114 97.1677 168.676 95.9063C171.238 94.6452 174.408 94.5912 178.191 95.7452C178.954 95.9784 179.647 96.2296 180.268 96.4982C181.124 96.8687 181.846 97.2725 182.431 97.7098C183.441 98.4664 184.191 99.2752 184.676 100.14C185.162 101.004 185.48 101.853 185.627 102.688C185.775 103.523 185.794 104.449 185.685 105.468C185.486 107.414 185.006 109.36 184.245 111.307Z" fill="url(#paint28_linear_0_481)"/>
<path fill-rule="evenodd" clip-rule="evenodd" d="M205.28 126.984L202.943 130.992L206.047 123.005L208.299 118.9L205.28 126.984Z" fill="#B9D0F0"/>
<path fill-rule="evenodd" clip-rule="evenodd" d="M208.299 118.9L206.059 122.985L195.696 128.027L197.936 123.943L208.299 118.9Z" fill="url(#paint29_linear_0_481)"/>
<path fill-rule="evenodd" clip-rule="evenodd" d="M213.155 136.264L210.937 140.216L207.555 138.897L209.774 134.945L213.155 136.264Z" fill="url(#paint30_linear_0_481)"/>
<path fill-rule="evenodd" clip-rule="evenodd" d="M187.132 131.11L201.015 136.591L203.273 132.466L189.438 126.963L187.132 131.11Z" fill="url(#paint31_linear_0_481)"/>
<path fill-rule="evenodd" clip-rule="evenodd" d="M189.244 125.177L187.132 131.112L189.438 126.954L191.623 121.117L189.244 125.177Z" fill="#B9D0F0"/>
<path fill-rule="evenodd" clip-rule="evenodd" d="M199.324 141.204L205.829 143.84L208.086 139.834L201.448 137.252L199.324 141.204Z" fill="url(#paint32_linear_0_481)"/>
<path fill-rule="evenodd" clip-rule="evenodd" d="M201.525 137.103L199.324 141.203L201.076 136.408L203.277 132.309L201.525 137.103Z" fill="#B9D0F0"/>
<path fill-rule="evenodd" clip-rule="evenodd" d="M211.168 111.227L191.622 121.116L189.437 126.964L203.229 132.468L201.443 137.251L208.042 139.886L209.83 135.104L213.25 136.468L215.311 130.953L211.891 129.588L217.767 113.859L211.168 111.227ZM198.001 124.045L208.297 118.9L205.288 126.953L198.001 124.045Z" fill="url(#paint33_linear_0_481)"/>
<path d="M225.688 16.5254L226.334 16.9483L222.327 25.098L221.681 24.6751L225.688 16.5254Z" fill="#E9F2FD"/>
<circle cx="225.719" cy="17.72" r="2.13958" transform="rotate(21.4918 225.719 17.72)" fill="url(#paint34_linear_0_481)"/>
<ellipse cx="218.988" cy="30.3898" rx="13.7306" ry="10.6356" transform="rotate(21.6461 218.988 30.3898)" fill="url(#paint35_linear_0_481)"/>
<ellipse cx="212.145" cy="42.8755" rx="37.4048" ry="15.5853" transform="rotate(21.4918 212.145 42.8755)" fill="url(#paint36_linear_0_481)"/>
<path fill-rule="evenodd" clip-rule="evenodd" d="M206.709 57.4874C225.24 64.7838 242.726 64.4395 245.767 56.7183C248.807 48.9972 236.249 36.8231 217.718 29.5267C199.188 22.2303 181.701 22.5746 178.661 30.2958C175.621 38.0169 188.178 50.191 206.709 57.4874ZM196.217 34.0024C195.744 35.2047 193.574 35.4761 191.371 34.6086C189.168 33.7412 187.765 32.0633 188.239 30.861C188.712 29.6588 190.882 29.3873 193.085 30.2548C195.288 31.1223 196.69 32.8001 196.217 34.0024ZM212.967 36.4641C212.716 37.7316 211.02 38.464 209.179 38.0998C207.338 37.7356 206.049 36.4128 206.3 35.1453C206.551 33.8777 208.246 33.1454 210.087 33.5095C211.928 33.8737 213.217 35.1965 212.967 36.4641ZM224.948 46.5087C226.596 47.406 228.433 47.2134 229.051 46.0785C229.669 44.9436 228.833 43.2963 227.185 42.399C225.537 41.5017 223.7 41.6943 223.082 42.8292C222.464 43.9641 223.3 45.6114 224.948 46.5087ZM240.14 57.3342C239.308 57.9372 237.884 57.3923 236.961 56.1172C236.038 54.8421 235.964 53.3196 236.797 52.7166C237.63 52.1136 239.054 52.6584 239.977 53.9335C240.9 55.2086 240.973 56.7311 240.14 57.3342Z" fill="url(#paint37_linear_0_481)"/>
<path d="M195.597 44.3999L224.397 58.7999L227.997 154.8L124.799 126L195.597 44.3999Z" fill="url(#paint38_linear_0_481)"/>
<ellipse cx="210.43" cy="51.463" rx="16.3875" ry="6.12944" transform="rotate(21.4918 210.43 51.463)" fill="url(#paint39_linear_0_481)"/>
<circle cx="151.2" cy="30.0008" r="7.2" fill="url(#paint40_linear_0_481)"/>
<defs>
<filter id="filter0_f_0_481" x="148.57" y="114.821" width="35.3585" height="32.7056" filterUnits="userSpaceOnUse" color-interpolation-filters="sRGB">
<feFlood flood-opacity="0" result="BackgroundImageFix"/>
<feBlend mode="normal" in="SourceGraphic" in2="BackgroundImageFix" result="shape"/>
<feGaussianBlur stdDeviation="2.65493" result="effect1_foregroundBlur_0_481"/>
</filter>
<filter id="filter1_f_0_481" x="179.37" y="113.932" width="36.2921" height="38.0338" filterUnits="userSpaceOnUse" color-interpolation-filters="sRGB">
<feFlood flood-opacity="0" result="BackgroundImageFix"/>
<feBlend mode="normal" in="SourceGraphic" in2="BackgroundImageFix" result="shape"/>
<feGaussianBlur stdDeviation="2.65493" result="effect1_foregroundBlur_0_481"/>
</filter>
<linearGradient id="paint0_linear_0_481" x1="168" y1="-19.8" x2="168" y2="165" gradientUnits="userSpaceOnUse">
<stop stop-color="#E5F0FC"/>
<stop offset="1" stop-color="white" stop-opacity="0"/>
</linearGradient>
<linearGradient id="paint1_linear_0_481" x1="110.082" y1="64.8008" x2="104.549" y2="125.029" gradientUnits="userSpaceOnUse">
<stop stop-color="white"/>
<stop offset="1" stop-color="white" stop-opacity="0"/>
</linearGradient>
<linearGradient id="paint2_linear_0_481" x1="222.001" y1="94.7996" x2="218.958" y2="116.309" gradientUnits="userSpaceOnUse">
<stop stop-color="white"/>
<stop offset="1" stop-color="white" stop-opacity="0"/>
</linearGradient>
<linearGradient id="paint3_linear_0_481" x1="244.531" y1="87.5996" x2="247.097" y2="109.894" gradientUnits="userSpaceOnUse">
<stop stop-color="white"/>
<stop offset="1" stop-color="white" stop-opacity="0"/>
</linearGradient>
<linearGradient id="paint4_linear_0_481" x1="168" y1="117.6" x2="168" y2="164.4" gradientUnits="userSpaceOnUse">
<stop stop-color="#E5F0FC"/>
<stop offset="1" stop-color="white" stop-opacity="0"/>
</linearGradient>
<linearGradient id="paint5_linear_0_481" x1="0.952057" y1="7.23672" x2="21.2501" y2="-0.465987" gradientUnits="userSpaceOnUse">
<stop stop-color="#EFF4FB"/>
<stop offset="1" stop-color="#EFF4FB" stop-opacity="0"/>
</linearGradient>
<linearGradient id="paint6_linear_0_481" x1="241.092" y1="135.067" x2="236.015" y2="138.926" gradientUnits="userSpaceOnUse">
<stop stop-color="#EFF4FB"/>
<stop offset="1" stop-color="#EFF4FB" stop-opacity="0"/>
</linearGradient>
<linearGradient id="paint7_linear_0_481" x1="8.40816" y1="1.03368" x2="-5.72509" y2="3.85995" gradientUnits="userSpaceOnUse">
<stop stop-color="#EFF4FB"/>
<stop offset="1" stop-color="#EFF4FB" stop-opacity="0"/>
</linearGradient>
<linearGradient id="paint8_linear_0_481" x1="89.5186" y1="139.932" x2="95.0457" y2="142.557" gradientUnits="userSpaceOnUse">
<stop stop-color="#EFF4FB"/>
<stop offset="1" stop-color="#EFF4FB" stop-opacity="0"/>
</linearGradient>
<linearGradient id="paint9_linear_0_481" x1="13.6666" y1="1.92448" x2="-9.51756" y2="5.97206" gradientUnits="userSpaceOnUse">
<stop stop-color="#EFF4FB"/>
<stop offset="1" stop-color="#EFF4FB" stop-opacity="0"/>
</linearGradient>
<linearGradient id="paint10_linear_0_481" x1="6.288" y1="0.836219" x2="-4.34092" y2="2.80111" gradientUnits="userSpaceOnUse">
<stop stop-color="#EFF4FB"/>
<stop offset="1" stop-color="#EFF4FB" stop-opacity="0"/>
</linearGradient>
<linearGradient id="paint11_linear_0_481" x1="95.552" y1="137.984" x2="95.4814" y2="144.209" gradientUnits="userSpaceOnUse">
<stop stop-color="#DFECFC" stop-opacity="0"/>
<stop offset="1" stop-color="#DFECFC"/>
</linearGradient>
<linearGradient id="paint12_linear_0_481" x1="101.081" y1="127.607" x2="101.081" y2="132.122" gradientUnits="userSpaceOnUse">
<stop stop-color="#B5C4DD"/>
<stop offset="1" stop-color="#93A6C8"/>
</linearGradient>
<linearGradient id="paint13_linear_0_481" x1="101.149" y1="114.017" x2="101.149" y2="126.707" gradientUnits="userSpaceOnUse">
<stop stop-color="#EAF2FD"/>
<stop offset="1" stop-color="#D2E1F4"/>
</linearGradient>
<linearGradient id="paint14_linear_0_481" x1="226.872" y1="133.613" x2="226.826" y2="137.675" gradientUnits="userSpaceOnUse">
<stop stop-color="#DFECFC" stop-opacity="0"/>
<stop offset="1" stop-color="#DFECFC"/>
</linearGradient>
<linearGradient id="paint15_linear_0_481" x1="230.481" y1="126.843" x2="230.481" y2="129.788" gradientUnits="userSpaceOnUse">
<stop stop-color="#B5C4DD"/>
<stop offset="1" stop-color="#93A6C8"/>
</linearGradient>
<linearGradient id="paint16_linear_0_481" x1="230.525" y1="117.977" x2="230.525" y2="126.257" gradientUnits="userSpaceOnUse">
<stop stop-color="#EAF2FD"/>
<stop offset="1" stop-color="#D2E1F4"/>
</linearGradient>
<linearGradient id="paint17_linear_0_481" x1="155.692" y1="128.76" x2="124.685" y2="131.624" gradientUnits="userSpaceOnUse">
<stop stop-color="#BBD1F0"/>
<stop offset="1" stop-color="#E9F3FD" stop-opacity="0"/>
</linearGradient>
<linearGradient id="paint18_linear_0_481" x1="135.334" y1="134.037" x2="104.299" y2="134.9" gradientUnits="userSpaceOnUse">
<stop stop-color="#BBD1F0"/>
<stop offset="1" stop-color="#E9F3FD" stop-opacity="0"/>
</linearGradient>
<linearGradient id="paint19_linear_0_481" x1="241.639" y1="123.482" x2="181.908" y2="148.779" gradientUnits="userSpaceOnUse">
<stop stop-color="#BBD1F0"/>
<stop offset="1" stop-color="#E9F3FD" stop-opacity="0"/>
</linearGradient>
<linearGradient id="paint20_linear_0_481" x1="122.927" y1="116.121" x2="124.732" y2="101.006" gradientUnits="userSpaceOnUse">
<stop stop-color="#B1C4DF"/>
<stop offset="1" stop-color="#E7EFFA"/>
</linearGradient>
<linearGradient id="paint21_linear_0_481" x1="99.5736" y1="133.652" x2="104.093" y2="104.846" gradientUnits="userSpaceOnUse">
<stop stop-color="#B1C4DF"/>
<stop offset="1" stop-color="#E7EFFA"/>
</linearGradient>
<linearGradient id="paint22_linear_0_481" x1="133.636" y1="131.782" x2="122.108" y2="91.8091" gradientUnits="userSpaceOnUse">
<stop stop-color="#B1C4DF"/>
<stop offset="1" stop-color="#E7EFFA"/>
</linearGradient>
<linearGradient id="paint23_linear_0_481" x1="122.519" y1="149.869" x2="114.626" y2="119.13" gradientUnits="userSpaceOnUse">
<stop stop-color="#B1C4DF"/>
<stop offset="1" stop-color="#E7EFFA"/>
</linearGradient>
<linearGradient id="paint24_linear_0_481" x1="99.8998" y1="167.21" x2="164.326" y2="107.806" gradientUnits="userSpaceOnUse">
<stop stop-color="#B1C4DF"/>
<stop offset="1" stop-color="#E7EFFA"/>
</linearGradient>
<linearGradient id="paint25_linear_0_481" x1="113.472" y1="166.458" x2="142.694" y2="106.44" gradientUnits="userSpaceOnUse">
<stop stop-color="#B1C4DF"/>
<stop offset="0.862255" stop-color="#ECF4FF"/>
</linearGradient>
<linearGradient id="paint26_linear_0_481" x1="173.033" y1="117.45" x2="167.068" y2="103.361" gradientUnits="userSpaceOnUse">
<stop stop-color="#B1C4DF"/>
<stop offset="1" stop-color="#E7EFFA"/>
</linearGradient>
<linearGradient id="paint27_linear_0_481" x1="170.772" y1="131.021" x2="166.21" y2="116.592" gradientUnits="userSpaceOnUse">
<stop stop-color="#B1C4DF"/>
<stop offset="1" stop-color="#E7EFFA"/>
</linearGradient>
<linearGradient id="paint28_linear_0_481" x1="181.959" y1="91.4975" x2="165.345" y2="103.258" gradientUnits="userSpaceOnUse">
<stop stop-color="white"/>
<stop offset="1" stop-color="#E5F0FC"/>
</linearGradient>
<linearGradient id="paint29_linear_0_481" x1="178.032" y1="137.12" x2="184.687" y2="105.864" gradientUnits="userSpaceOnUse">
<stop stop-color="#B1C4DF"/>
<stop offset="1" stop-color="#E7EFFA"/>
</linearGradient>
<linearGradient id="paint30_linear_0_481" x1="211.988" y1="146.127" x2="206.929" y2="128.888" gradientUnits="userSpaceOnUse">
<stop stop-color="#B1C4DF"/>
<stop offset="1" stop-color="#E7EFFA"/>
</linearGradient>
<linearGradient id="paint31_linear_0_481" x1="199.908" y1="147.389" x2="193.759" y2="114.33" gradientUnits="userSpaceOnUse">
<stop stop-color="#B1C4DF"/>
<stop offset="1" stop-color="#E7EFFA"/>
</linearGradient>
<linearGradient id="paint32_linear_0_481" x1="206.259" y1="151.23" x2="201.058" y2="129.045" gradientUnits="userSpaceOnUse">
<stop stop-color="#B1C4DF"/>
<stop offset="1" stop-color="#E7EFFA"/>
</linearGradient>
<linearGradient id="paint33_linear_0_481" x1="204.643" y1="105.691" x2="194.989" y2="125.73" gradientUnits="userSpaceOnUse">
<stop stop-color="white"/>
<stop offset="1" stop-color="#E5F0FC"/>
</linearGradient>
<linearGradient id="paint34_linear_0_481" x1="226.201" y1="16.1911" x2="225.404" y2="20.7573" gradientUnits="userSpaceOnUse">
<stop stop-color="#F6FAFF"/>
<stop offset="1" stop-color="#D0DDEF"/>
</linearGradient>
<linearGradient id="paint35_linear_0_481" x1="218.988" y1="19.7543" x2="218.988" y2="41.0254" gradientUnits="userSpaceOnUse">
<stop stop-color="#F8FAFC"/>
<stop offset="0.278935" stop-color="#E8F1FC"/>
</linearGradient>
<linearGradient id="paint36_linear_0_481" x1="212.145" y1="27.2902" x2="207.888" y2="54.2883" gradientUnits="userSpaceOnUse">
<stop stop-color="white"/>
<stop offset="1" stop-color="#F8F8FB"/>
</linearGradient>
<linearGradient id="paint37_linear_0_481" x1="217.718" y1="29.5266" x2="206.709" y2="57.4873" gradientUnits="userSpaceOnUse">
<stop stop-color="#F6F7FC"/>
<stop offset="1" stop-color="#E5F0FC"/>
</linearGradient>
<linearGradient id="paint38_linear_0_481" x1="210.599" y1="44.3999" x2="225.465" y2="87.2236" gradientUnits="userSpaceOnUse">
<stop stop-color="#CFDEF5" stop-opacity="0.4"/>
<stop offset="1" stop-color="#E7EFFA" stop-opacity="0"/>
</linearGradient>
<linearGradient id="paint39_linear_0_481" x1="211.132" y1="47.4934" x2="209.813" y2="59.9522" gradientUnits="userSpaceOnUse">
<stop stop-color="#C3D5F1" stop-opacity="0.73"/>
<stop offset="1" stop-color="#DFEEFF"/>
</linearGradient>
<linearGradient id="paint40_linear_0_481" x1="151.2" y1="25.6808" x2="151.2" y2="35.4008" gradientUnits="userSpaceOnUse">
<stop stop-color="white"/>
<stop offset="1" stop-color="white" stop-opacity="0"/>
</linearGradient>
</defs>
</svg>
