<svg width="20" height="20" viewBox="0 0 20 20" fill="none" xmlns="http://www.w3.org/2000/svg">
<path fill-rule="evenodd" clip-rule="evenodd" d="M5.39976 3.50042C5.39975 3.27949 5.57884 3.10039 5.79976 3.10039H11.491C11.5879 3.10039 11.6815 3.13556 11.7544 3.19936L14.4635 5.56983C14.5503 5.64577 14.6001 5.75549 14.6001 5.87082L14.6007 13.3336H5.40035L5.39976 3.50042ZM4.20035 13.3336L4.19976 3.50049C4.19971 2.61679 4.91607 1.90039 5.79976 1.90039H11.491C11.8786 1.90039 12.253 2.04106 12.5446 2.29627L12.1633 2.73209L12.5446 2.29627L15.2537 4.66673C15.6009 4.97053 15.8001 5.40939 15.8001 5.87073L15.8007 13.3336H17.0182C17.5621 13.3433 18 13.7872 18 14.3334V16.5001C18 17.0524 17.5523 17.5001 17 17.5001H3C2.44772 17.5001 2 17.0524 2 16.5001V14.3334C2 13.7872 2.43792 13.3433 2.98181 13.3336H4.20035ZM3.2 14.5336H16.8V16.3001H3.2V14.5336ZM7 7.6C7 7.26863 7.26863 7 7.6 7H12.4C12.7314 7 13 7.26863 13 7.6C13 7.93137 12.7314 8.2 12.4 8.2H7.6C7.26863 8.2 7 7.93137 7 7.6ZM7.6 10C7.26863 10 7 10.2686 7 10.6C7 10.9314 7.26863 11.2 7.6 11.2H11.4C11.7314 11.2 12 10.9314 12 10.6C12 10.2686 11.7314 10 11.4 10H7.6Z" fill="#666E8B"/>
</svg>
