<svg width="16" height="16" viewBox="0 0 16 16" fill="none" xmlns="http://www.w3.org/2000/svg">
<path d="M4.6 4.92057C4.6 4.88375 4.62985 4.85391 4.66667 4.85391H11.3349C11.3717 4.85391 11.4015 4.88375 11.4015 4.92057V13.5892C11.4015 13.626 11.3717 13.6558 11.3349 13.6558H4.66667C4.62985 13.6558 4.6 13.626 4.6 13.5892V4.92057Z" stroke="#666E8B" stroke-width="1.2" stroke-linejoin="round"/>
<path d="M6.69922 7.84375V10.8443" stroke="#666E8B" stroke-width="1.2" stroke-linecap="round" stroke-linejoin="round"/>
<path d="M9.30078 7.84375V10.8443" stroke="#666E8B" stroke-width="1.2" stroke-linecap="round" stroke-linejoin="round"/>
<path d="M3 4.84375L13.0019 4.84375" stroke="#666E8B" stroke-width="1.2" stroke-linecap="round" stroke-linejoin="round"/>
<path d="M5.14453 4.8575L6.0947 3.31673C6.2161 3.11987 6.43086 3 6.66215 3H9.21848C9.45191 3 9.66833 3.12209 9.78906 3.32187L10.717 4.8575" stroke="#666E8B" stroke-width="1.2" stroke-linejoin="round"/>
</svg>
