<svg width="16" height="16" viewBox="0 0 16 16" fill="none" xmlns="http://www.w3.org/2000/svg">
<path d="M7.39209 11.6C7.39209 11.2686 7.66072 11 7.99209 11C8.32346 11 8.59209 11.2686 8.59209 11.6C8.59209 11.9314 8.32346 12.2 7.99209 12.2C7.66072 12.2 7.39209 11.9314 7.39209 11.6Z" fill="#25305A"/>
<path d="M7.99214 4.0061C6.65449 4.0061 5.56714 5.09346 5.56714 6.4311H6.56714C6.56714 5.64574 7.20678 5.0061 7.99214 5.0061C8.77749 5.0061 9.41714 5.64574 9.41714 6.4311C9.41714 6.96885 8.97265 7.50808 8.3925 7.74376L8.38994 7.74481C7.86039 7.96335 7.49219 8.48413 7.49219 9.0925V10H8.49219V9.0925C8.49219 8.89828 8.6075 8.73731 8.77041 8.66961C9.59774 8.33289 10.4171 7.49869 10.4171 6.4311C10.4171 5.09346 9.32978 4.0061 7.99214 4.0061Z" fill="#25305A"/>
<path d="M14.9922 8C14.9922 4.13401 11.8582 1 7.99219 1C4.1262 0.999998 0.992189 4.134 0.992188 8C0.992185 11.866 4.12619 15 7.99219 15C11.8582 15 14.9922 11.866 14.9922 8ZM13.9922 8C13.9922 11.3137 11.3059 14 7.99219 14C4.67848 14 1.99219 11.3137 1.99219 8C1.99219 4.68629 4.67848 2 7.99219 2C11.3059 2 13.9922 4.68629 13.9922 8Z" fill="#25305A"/>
</svg>
