<svg width="46" height="49" viewBox="0 0 46 49" fill="none" xmlns="http://www.w3.org/2000/svg">
<g filter="url(#filter0_f_2997_26901)">
<path d="M38.5902 31.1994C38.5908 31.1994 38.5912 31.1999 38.5911 31.2004L36.2995 46.0964C36.1911 46.8009 35.8342 47.4432 35.2933 47.9073C34.7524 48.3714 34.0633 48.6265 33.3506 48.6265H18.8603C18.1743 48.6284 17.4948 48.4941 16.8611 48.2316C16.2273 47.9691 15.6519 47.5835 15.1682 47.0971C15.1436 47.073 15.1307 47.0394 15.1307 47.0049V29.3344C15.1307 28.9573 15.2347 28.586 15.4487 28.2757C16.2686 27.0868 17.2388 26.0477 18.0719 25.1556L18.2817 24.9302C20.6784 22.3582 20.8684 20.2482 20.8684 17.7571C20.8684 16.8569 21.2894 16.3818 21.6425 16.1422C22.0511 15.8646 22.508 15.8063 22.8194 15.8063C23.5535 15.8063 24.6707 16.1376 25.6047 17.0674C26.3234 17.7825 27.18 19.11 27.18 21.372C27.18 22.4058 26.9289 23.5631 26.7182 24.351C26.4455 25.3724 26.0693 26.4228 25.6595 27.3081C25.6321 27.3655 25.6199 27.429 25.624 27.4924C25.6281 27.5559 25.6483 27.6173 25.6828 27.6708C25.7156 27.7233 25.7614 27.7664 25.8157 27.796C25.8701 27.8256 25.9312 27.8407 25.9931 27.8398H25.9966L35.6172 27.7621H35.6405C36.0707 27.7622 36.4957 27.8552 36.8865 28.0349C37.2774 28.2146 37.6247 28.4766 37.9048 28.8031C38.1849 29.1296 38.391 29.5128 38.5092 29.9264C38.6272 30.3397 38.6545 30.7735 38.5894 31.1984C38.5893 31.1989 38.5897 31.1994 38.5902 31.1994Z" fill="url(#paint0_linear_2997_26901)"/>
</g>
<g filter="url(#filter1_f_2997_26901)">
<path d="M6.08347 27.8732H12.7967C13.0152 27.8732 13.1696 28.0677 13.1696 28.2862V48.3452C13.1696 48.5638 13.0153 48.7587 12.7967 48.7587H6.08347C5.58907 48.7582 5.11508 48.5615 4.76548 48.2119C4.41589 47.8623 4.21924 47.3884 4.21869 46.894V29.738C4.21924 29.2436 4.41589 28.7696 4.76548 28.42C5.11508 28.0704 5.58907 27.8737 6.08347 27.8732Z" fill="url(#paint1_linear_2997_26901)"/>
</g>
<path d="M22.927 15.8063H18.1003L18.6769 20.4192C18.6947 20.5614 18.6971 20.705 18.6841 20.8477L18.2381 25.7538C18.1567 26.6492 18.6838 27.4886 19.5256 27.8043L22.3105 28.8487C22.7109 28.9988 23.1504 29.0205 23.554 28.879C24.8003 28.4417 26.056 27.8016 25.9437 27.8128C25.3404 27.8732 25.8457 26.8626 25.9437 26.6665C26.5471 25.4598 27.1504 23.6498 27.1504 20.6331C27.1504 17.6164 24.7371 15.8063 22.927 15.8063Z" fill="url(#paint2_linear_2997_26901)"/>
<path d="M33.9081 31.1994C33.9086 31.1994 33.909 31.1999 33.9089 31.2004L31.6173 46.0964C31.5089 46.8009 31.152 47.4432 30.6111 47.9073C30.0702 48.3714 29.3811 48.6265 28.6684 48.6265H14.1781C13.4921 48.6284 12.8126 48.4941 12.1789 48.2316C11.5451 47.9691 10.9698 47.5835 10.486 47.0971C10.4614 47.073 10.4485 47.0394 10.4485 47.0049V29.3344C10.4485 28.9573 10.5525 28.586 10.7666 28.2757C11.5864 27.0868 12.5566 26.0477 13.3897 25.1556L13.5995 24.9302C15.9962 22.3582 16.1862 20.2482 16.1862 17.7571C16.1862 16.8569 16.6072 16.3818 16.9603 16.1422C17.369 15.8646 17.8258 15.8063 18.1372 15.8063C18.8713 15.8063 19.9885 16.1376 20.9225 17.0674C21.6412 17.7825 22.4978 19.11 22.4978 21.372C22.4978 22.4058 22.2468 23.5631 22.036 24.351C21.7633 25.3724 21.3871 26.4228 20.9773 27.3081C20.9499 27.3655 20.9377 27.429 20.9418 27.4924C20.9459 27.5559 20.9661 27.6173 21.0006 27.6708C21.0334 27.7233 21.0792 27.7664 21.1335 27.796C21.1879 27.8256 21.249 27.8407 21.3109 27.8398H21.3144L30.935 27.7621H30.9583C31.3885 27.7622 31.8135 27.8552 32.2043 28.0349C32.5952 28.2146 32.9425 28.4766 33.2226 28.8031C33.5027 29.1296 33.7088 29.5128 33.827 29.9264C33.945 30.3397 33.9724 30.7735 33.9072 31.1984C33.9071 31.1989 33.9075 31.1994 33.9081 31.1994Z" fill="url(#paint3_linear_2997_26901)"/>
<path d="M1.86478 27.8732H8.578C8.79647 27.8732 8.95095 28.0677 8.95095 28.2862V48.3452C8.95095 48.5638 8.79662 48.7587 8.578 48.7587H1.86478C1.37038 48.7582 0.896389 48.5615 0.546795 48.2119C0.197201 47.8623 0.000555264 47.3884 0 46.894V29.738C0.000555264 29.2436 0.197201 28.7696 0.546795 28.42C0.896389 28.0704 1.37038 27.8737 1.86478 27.8732Z" fill="url(#paint4_linear_2997_26901)"/>
<path d="M2.61132 44.4629C2.90898 44.6618 3.25893 44.768 3.61692 44.768C4.09696 44.768 4.55735 44.5773 4.8968 44.2378C5.23624 43.8984 5.42694 43.438 5.42694 42.9579C5.42694 42.5999 5.32079 42.25 5.1219 41.9523C4.92301 41.6547 4.64032 41.4227 4.30958 41.2857C3.97884 41.1487 3.61491 41.1128 3.2638 41.1827C2.91269 41.2525 2.59017 41.4249 2.33703 41.678C2.08389 41.9312 1.91151 42.2537 1.84167 42.6048C1.77183 42.9559 1.80767 43.3199 1.94467 43.6506C2.08166 43.9813 2.31366 44.264 2.61132 44.4629Z" fill="url(#paint5_linear_2997_26901)"/>
<g filter="url(#filter2_f_2997_26901)">
<path d="M37.0272 0.119804H34.6137L37.1117 6.0567H39.525L37.0272 0.119804Z" fill="url(#paint6_linear_2997_26901)"/>
</g>
<g filter="url(#filter3_f_2997_26901)">
<path d="M45.6429 6.75697H43.2294L37.1119 6.057H39.5252L45.6429 6.75697Z" fill="url(#paint7_linear_2997_26901)"/>
</g>
<g filter="url(#filter4_f_2997_26901)">
<path d="M45.6383 6.75618H43.2248L38.6516 11.0761H41.0651L45.6383 6.75618Z" fill="url(#paint8_linear_2997_26901)"/>
</g>
<g filter="url(#filter5_f_2997_26901)">
<path d="M42.3321 17.4361H39.9187L38.6516 11.077H41.0651L42.3321 17.4361Z" fill="url(#paint9_linear_2997_26901)"/>
</g>
<g filter="url(#filter6_f_2997_26901)">
<path d="M36.5931 14.6004L34.5901 14.1781L29.2323 17.412L30.7689 17.6171L36.5931 14.6004Z" fill="url(#paint10_linear_2997_26901)"/>
</g>
<path d="M34.609 0.119804L37.1105 6.05479L43.2528 6.7462L38.654 11.0802L39.9262 17.432L34.5826 14.1753L29.2267 17.4098L30.5229 11.0631L25.9406 6.71012L32.0851 6.04426L34.609 0.119804Z" fill="url(#paint11_linear_2997_26901)"/>
<defs>
<filter id="filter0_f_2997_26901" x="14.8894" y="15.565" width="23.9722" height="33.3032" filterUnits="userSpaceOnUse" color-interpolation-filters="sRGB">
<feFlood flood-opacity="0" result="BackgroundImageFix"/>
<feBlend mode="normal" in="SourceGraphic" in2="BackgroundImageFix" result="shape"/>
<feGaussianBlur stdDeviation="0.12" result="effect1_foregroundBlur_2997_26901"/>
</filter>
<filter id="filter1_f_2997_26901" x="3.97735" y="27.6318" width="9.43069" height="21.3679" filterUnits="userSpaceOnUse" color-interpolation-filters="sRGB">
<feFlood flood-opacity="0" result="BackgroundImageFix"/>
<feBlend mode="normal" in="SourceGraphic" in2="BackgroundImageFix" result="shape"/>
<feGaussianBlur stdDeviation="0.12" result="effect1_foregroundBlur_2997_26901"/>
</filter>
<filter id="filter2_f_2997_26901" x="34.493" y="-0.000864153" width="5.15135" height="6.17853" filterUnits="userSpaceOnUse" color-interpolation-filters="sRGB">
<feFlood flood-opacity="0" result="BackgroundImageFix"/>
<feBlend mode="normal" in="SourceGraphic" in2="BackgroundImageFix" result="shape"/>
<feGaussianBlur stdDeviation="0.06" result="effect1_foregroundBlur_2997_26901"/>
</filter>
<filter id="filter3_f_2997_26901" x="36.9912" y="5.93633" width="8.77298" height="0.940523" filterUnits="userSpaceOnUse" color-interpolation-filters="sRGB">
<feFlood flood-opacity="0" result="BackgroundImageFix"/>
<feBlend mode="normal" in="SourceGraphic" in2="BackgroundImageFix" result="shape"/>
<feGaussianBlur stdDeviation="0.06" result="effect1_foregroundBlur_2997_26901"/>
</filter>
<filter id="filter4_f_2997_26901" x="38.531" y="6.63551" width="7.22534" height="4.56215" filterUnits="userSpaceOnUse" color-interpolation-filters="sRGB">
<feFlood flood-opacity="0" result="BackgroundImageFix"/>
<feBlend mode="normal" in="SourceGraphic" in2="BackgroundImageFix" result="shape"/>
<feGaussianBlur stdDeviation="0.06" result="effect1_foregroundBlur_2997_26901"/>
</filter>
<filter id="filter5_f_2997_26901" x="38.531" y="10.9563" width="3.91796" height="6.60079" filterUnits="userSpaceOnUse" color-interpolation-filters="sRGB">
<feFlood flood-opacity="0" result="BackgroundImageFix"/>
<feBlend mode="normal" in="SourceGraphic" in2="BackgroundImageFix" result="shape"/>
<feGaussianBlur stdDeviation="0.06" result="effect1_foregroundBlur_2997_26901"/>
</filter>
<filter id="filter6_f_2997_26901" x="29.1116" y="14.0575" width="7.60243" height="3.68031" filterUnits="userSpaceOnUse" color-interpolation-filters="sRGB">
<feFlood flood-opacity="0" result="BackgroundImageFix"/>
<feBlend mode="normal" in="SourceGraphic" in2="BackgroundImageFix" result="shape"/>
<feGaussianBlur stdDeviation="0.06" result="effect1_foregroundBlur_2997_26901"/>
</filter>
<linearGradient id="paint0_linear_2997_26901" x1="35.6049" y1="50.1969" x2="36.2082" y2="12.7896" gradientUnits="userSpaceOnUse">
<stop stop-color="#F8C882"/>
<stop offset="1" stop-color="#FFF8EE"/>
</linearGradient>
<linearGradient id="paint1_linear_2997_26901" x1="1.20197" y1="27.8732" x2="10.2521" y2="47.1802" gradientUnits="userSpaceOnUse">
<stop stop-color="#2165DD"/>
<stop offset="1" stop-color="#0E60ED"/>
</linearGradient>
<linearGradient id="paint2_linear_2997_26901" x1="21.117" y1="29.0799" x2="22.3237" y2="13.9963" gradientUnits="userSpaceOnUse">
<stop stop-color="#EBC082"/>
<stop offset="1" stop-color="#FFFBF7"/>
</linearGradient>
<linearGradient id="paint3_linear_2997_26901" x1="34.3937" y1="53.8169" x2="3.01986" y2="10.3762" gradientUnits="userSpaceOnUse">
<stop stop-color="#FFE1B5"/>
<stop offset="1" stop-color="white"/>
</linearGradient>
<linearGradient id="paint4_linear_2997_26901" x1="-0.600986" y1="47.7835" x2="-2.02868" y2="28.7021" gradientUnits="userSpaceOnUse">
<stop stop-color="#347EFF"/>
<stop offset="1" stop-color="#88B3FF"/>
</linearGradient>
<linearGradient id="paint5_linear_2997_26901" x1="3.01357" y1="41.7512" x2="4.22026" y2="44.768" gradientUnits="userSpaceOnUse">
<stop stop-color="#1B67ED"/>
<stop offset="1" stop-color="#79AAFF"/>
</linearGradient>
<linearGradient id="paint6_linear_2997_26901" x1="39.2141" y1="6.15323" x2="34.9525" y2="3.58576" gradientUnits="userSpaceOnUse">
<stop stop-color="#FFCB1D"/>
<stop offset="1" stop-color="#FFDE92"/>
</linearGradient>
<linearGradient id="paint7_linear_2997_26901" x1="32.5797" y1="6.75697" x2="49.4838" y2="9.14451" gradientUnits="userSpaceOnUse">
<stop stop-color="#EDB700"/>
<stop offset="1" stop-color="#FFE5A9"/>
</linearGradient>
<linearGradient id="paint8_linear_2997_26901" x1="39.8159" y1="10.9796" x2="42.209" y2="5.66114" gradientUnits="userSpaceOnUse">
<stop stop-color="#FEC918"/>
<stop offset="1" stop-color="#FFE794"/>
</linearGradient>
<linearGradient id="paint9_linear_2997_26901" x1="41.0226" y1="17.6171" x2="37.8695" y2="15.333" gradientUnits="userSpaceOnUse">
<stop stop-color="#FFCC21"/>
<stop offset="1" stop-color="#FFF0BC"/>
</linearGradient>
<linearGradient id="paint10_linear_2997_26901" x1="31.3734" y1="18.8238" x2="47.6075" y2="14.4007" gradientUnits="userSpaceOnUse">
<stop stop-color="#E8B715"/>
<stop offset="1" stop-color="#FFF8E0"/>
</linearGradient>
<linearGradient id="paint11_linear_2997_26901" x1="39.2141" y1="17.0134" x2="33.1807" y2="0.723146" gradientUnits="userSpaceOnUse">
<stop stop-color="#FFE17B"/>
<stop offset="1" stop-color="#FFF0BC"/>
</linearGradient>
</defs>
</svg>
