<svg width="16" height="16" viewBox="0 0 16 16" fill="none" xmlns="http://www.w3.org/2000/svg">
<path d="M7.66693 13.3333C4.8136 13.3333 2.24626 11.6493 1.05493 8.99133C0.978929 8.764 0.978929 8.56933 1.07293 8.29533C2.24626 5.684 4.81426 4 7.66626 4C10.5196 4 13.0876 5.684 14.2783 8.342C14.3543 8.56933 14.3543 8.764 14.2603 9.038C13.0876 11.6493 10.5196 13.3333 7.6676 13.3333H7.66693ZM1.9876 8.62933C3.00093 10.8833 5.2116 12.3333 7.66693 12.3333C10.1223 12.3333 12.3336 10.8833 13.3283 8.67533C13.3349 8.65333 13.3349 8.67867 13.3449 8.702L13.3456 8.704C12.3329 6.45 10.1216 5 7.6676 5C5.21226 5 3.00093 6.45 2.00626 8.658C1.99893 8.68 1.99893 8.65467 1.98893 8.63133V8.62933H1.9876ZM7.66693 11.25C7.32657 11.2531 6.98899 11.1884 6.67386 11.0598C6.35874 10.9311 6.07237 10.741 5.83144 10.5006C5.59051 10.2602 5.39983 9.9742 5.27053 9.65934C5.14122 9.34448 5.07586 9.00704 5.07826 8.66667C5.07586 8.3263 5.14122 7.98885 5.27053 7.674C5.39983 7.35914 5.59051 7.07316 5.83144 6.83273C6.07237 6.59229 6.35874 6.40221 6.67386 6.27355C6.98899 6.14489 7.32657 6.08023 7.66693 6.08333C8.00718 6.08041 8.34461 6.1452 8.65958 6.27394C8.97455 6.40268 9.26077 6.59279 9.50155 6.8332C9.74234 7.07362 9.9329 7.35954 10.0621 7.67431C10.1913 7.98908 10.2567 8.32641 10.2543 8.66667C10.2567 9.00698 10.1913 9.34437 10.0621 9.65918C9.93279 9.974 9.74218 10.2599 9.50132 10.5004C9.26046 10.7408 8.97417 10.9309 8.65912 11.0596C8.34407 11.1883 8.00657 11.253 7.66626 11.25H7.66693ZM7.66693 10.25C8.55893 10.25 9.2536 9.55667 9.2536 8.66667C9.25611 8.45776 9.21676 8.25047 9.13787 8.05702C9.05898 7.86356 8.94215 7.68787 8.79426 7.54029C8.64638 7.39272 8.47044 7.27626 8.27682 7.19778C8.0832 7.11929 7.87583 7.08038 7.66693 7.08333C7.45803 7.08038 7.25065 7.11929 7.05704 7.19778C6.86342 7.27626 6.68748 7.39272 6.53959 7.54029C6.39171 7.68787 6.27488 7.86356 6.19599 8.05702C6.1171 8.25047 6.07775 8.45776 6.08026 8.66667C6.07775 8.87557 6.1171 9.08286 6.19599 9.27632C6.27488 9.46977 6.39171 9.64547 6.53959 9.79304C6.68748 9.94061 6.86342 10.0571 7.05704 10.1356C7.25065 10.214 7.45803 10.253 7.66693 10.25Z" fill="#25305A"/>
</svg>
