<svg width="156" height="37" viewBox="0 0 156 37" fill="none" xmlns="http://www.w3.org/2000/svg">
<ellipse rx="10.4246" ry="6.16082" transform="matrix(0.841198 0.549724 0.729536 -0.691077 137.433 19.6239)" fill="#DEE7F4"/>
<ellipse rx="9.23517" ry="4.91307" transform="matrix(0.841198 0.549724 0.729536 -0.691077 137.218 20.8903)" fill="url(#paint0_linear_0_15)"/>
<ellipse cx="152.041" cy="3.06039" rx="4.18772" ry="2.73775" transform="rotate(25.5736 152.041 3.06039)" fill="#DEE7F4"/>
<ellipse rx="5.8976" ry="4.35423" transform="matrix(1.00185 -0.0781445 0.0611997 1.00303 102.609 24.1104)" fill="#DEE7F4"/>
<ellipse cx="151.617" cy="3.44635" rx="3.74433" ry="2.18328" transform="rotate(25.5736 151.617 3.44635)" fill="url(#paint1_linear_0_15)"/>
<ellipse rx="4.96871" ry="3.7498" transform="matrix(1.00185 -0.0781445 0.0611997 1.00303 103.234 24.6091)" fill="url(#paint2_linear_0_15)"/>
<ellipse cx="3.41547" cy="7.11975" rx="3.48016" ry="2.12961" transform="rotate(-14.0951 3.41547 7.11975)" fill="#DEE7F4"/>
<ellipse cx="3.73549" cy="7.4674" rx="3.08308" ry="1.6983" transform="rotate(-14.0951 3.73549 7.4674)" fill="url(#paint3_linear_0_15)"/>
<ellipse rx="9.58596" ry="8.10662" transform="matrix(1.0009 -0.0895489 0.0533785 1.00347 70.2851 28.3772)" fill="#DEE7F4"/>
<ellipse rx="8.07614" ry="6.9813" transform="matrix(1.0009 -0.0895489 0.0533785 1.00347 71.2999 29.3066)" fill="url(#paint4_linear_0_15)"/>
<ellipse rx="4.4105" ry="3.52246" transform="matrix(1.00455 0.0262533 -0.0381249 1.00417 21.9294 26.4829)" fill="#DEE7F4"/>
<ellipse rx="3.71583" ry="3.03349" transform="matrix(1.00455 0.0262533 -0.0381249 1.00417 22.3571 26.9353)" fill="url(#paint5_linear_0_15)"/>
<defs>
<linearGradient id="paint0_linear_0_15" x1="0.952057" y1="7.23672" x2="21.2501" y2="-0.465989" gradientUnits="userSpaceOnUse">
<stop stop-color="#EFF4FB"/>
<stop offset="1" stop-color="#EFF4FB" stop-opacity="0"/>
</linearGradient>
<linearGradient id="paint1_linear_0_15" x1="154.932" y1="1.8711" x2="149.83" y2="5.74968" gradientUnits="userSpaceOnUse">
<stop stop-color="#EFF4FB"/>
<stop offset="1" stop-color="#EFF4FB" stop-opacity="0"/>
</linearGradient>
<linearGradient id="paint2_linear_0_15" x1="8.40816" y1="1.03368" x2="-5.7251" y2="3.85995" gradientUnits="userSpaceOnUse">
<stop stop-color="#EFF4FB"/>
<stop offset="1" stop-color="#EFF4FB" stop-opacity="0"/>
</linearGradient>
<linearGradient id="paint3_linear_0_15" x1="1.89617" y1="6.78262" x2="7.45033" y2="9.42053" gradientUnits="userSpaceOnUse">
<stop stop-color="#EFF4FB"/>
<stop offset="1" stop-color="#EFF4FB" stop-opacity="0"/>
</linearGradient>
<linearGradient id="paint4_linear_0_15" x1="13.6666" y1="1.92448" x2="-9.51757" y2="5.97206" gradientUnits="userSpaceOnUse">
<stop stop-color="#EFF4FB"/>
<stop offset="1" stop-color="#EFF4FB" stop-opacity="0"/>
</linearGradient>
<linearGradient id="paint5_linear_0_15" x1="6.28801" y1="0.836219" x2="-4.34092" y2="2.80111" gradientUnits="userSpaceOnUse">
<stop stop-color="#EFF4FB"/>
<stop offset="1" stop-color="#EFF4FB" stop-opacity="0"/>
</linearGradient>
</defs>
</svg>
