<svg width="20" height="20" viewBox="0 0 20 20" fill="none" xmlns="http://www.w3.org/2000/svg">
<path fill-rule="evenodd" clip-rule="evenodd" d="M9.41667 3.95H16.05V10.5833C16.05 13.6025 13.6025 16.05 10.5833 16.05H3.95V9.41667C3.95 6.39751 6.39751 3.95 9.41667 3.95ZM2.75 9.41667C2.75 5.73477 5.73477 2.75 9.41667 2.75H16.25C16.8023 2.75 17.25 3.19772 17.25 3.75V10.5833C17.25 14.2652 14.2652 17.25 10.5833 17.25H3.75C3.19771 17.25 2.75 16.8023 2.75 16.25V9.41667ZM5.21838 14.045C4.98406 14.2793 4.98406 14.6592 5.21838 14.8935C5.45269 15.1279 5.83259 15.1279 6.06691 14.8935L7.23651 13.7239C7.24558 13.7233 7.2546 13.7225 7.26355 13.7215H12.5811C12.9125 13.7215 13.1811 13.4529 13.1811 13.1215C13.1811 12.7902 12.9125 12.5215 12.5811 12.5215H8.43892L14.6465 6.31398C14.8808 6.07966 14.8808 5.69976 14.6465 5.46545C14.4122 5.23113 14.0323 5.23113 13.7979 5.46545L7.79611 11.4673V7.65861C7.79611 7.32724 7.52748 7.05861 7.19611 7.05861C6.86473 7.05861 6.59611 7.32724 6.59611 7.65861V12.6673L5.21838 14.045Z" fill="#666E8B"/>
</svg>
