<svg width="32" height="32" viewBox="0 0 32 32" fill="none" xmlns="http://www.w3.org/2000/svg">
<path fill-rule="evenodd" clip-rule="evenodd" d="M16 28C22.6274 28 28 22.6274 28 16C28 9.37258 22.6274 4 16 4C9.37258 4 4 9.37258 4 16C4 22.6274 9.37258 28 16 28ZM13.599 19.8179C13.1696 20.2473 12.4733 20.2473 12.0439 19.8179C11.6145 19.3884 11.6145 18.6921 12.044 18.2627L14.4475 15.8594L12.1825 13.5944C11.7529 13.1648 11.7529 12.4684 12.1825 12.0388C12.6121 11.6092 13.3086 11.6092 13.7381 12.0388L16.0032 14.3039L18.2684 12.039C18.6979 11.6096 19.3941 11.6096 19.8236 12.039C20.253 12.4685 20.253 13.1648 19.8235 13.5942L17.5584 15.8591L19.9607 18.2613C20.3903 18.6909 20.3903 19.3874 19.9607 19.817C19.5311 20.2465 18.8346 20.2465 18.405 19.817L16.0027 17.4146L13.599 19.8179Z" fill="#BEC1CE"/>
</svg>
