<svg width="16" height="16" viewBox="0 0 16 16" fill="none" xmlns="http://www.w3.org/2000/svg">
<mask id="path-1-inside-1_2997_26106" fill="white">
<rect x="1.33594" y="3" width="10.6667" height="10" rx="0.666667"/>
</mask>
<rect x="1.33594" y="3" width="10.6667" height="10" rx="0.666667" stroke="#C2C5D1" stroke-width="2" mask="url(#path-1-inside-1_2997_26106)"/>
<path fill-rule="evenodd" clip-rule="evenodd" d="M12.0039 10.4711L13.5796 11.7687C14.0145 12.1269 14.6701 11.8175 14.6701 11.2541V4.74606C14.6701 4.18265 14.0145 3.87327 13.5796 4.23144L12.0039 5.52905V6.82451L13.6701 5.45239L13.6701 10.5478L12.0039 9.17563V10.4711Z" fill="#C2C5D1"/>
<path fill-rule="evenodd" clip-rule="evenodd" d="M4.83402 5.65426C4.63876 5.459 4.32218 5.459 4.12692 5.65426L3.18411 6.59707C3.15109 6.63008 3.12366 6.66657 3.10181 6.70535C2.95253 6.90133 2.96741 7.18236 3.14645 7.36139L4.08926 8.3042C4.28452 8.49946 4.6011 8.49946 4.79636 8.3042C4.99162 8.10894 4.99162 7.79236 4.79636 7.5971L4.19733 6.99806L4.83402 6.36137C5.02928 6.1661 5.02928 5.84952 4.83402 5.65426Z" fill="#C2C5D1"/>
<path d="M3.79297 7H7.79297C8.6214 7 9.29297 7.67157 9.29297 8.5V8.5C9.29297 9.32843 8.6214 10 7.79297 10H6.12891" stroke="#C2C5D1" stroke-linecap="round"/>
</svg>
