<svg width="16" height="16" viewBox="0 0 16 16" fill="none" xmlns="http://www.w3.org/2000/svg">
<g clip-path="url(#clip0_2997_26063)">
<path fill-rule="evenodd" clip-rule="evenodd" d="M6.02972 6.97237L2.58589 10.4161C2.46086 10.5412 2.39062 10.7107 2.39062 10.8875V12.9447C2.39062 13.3129 2.6891 13.6114 3.05729 13.6114H5.11449C5.2913 13.6114 5.46086 13.5412 5.58589 13.4161L9.02972 9.97237L8.32262 9.26526L4.97642 12.6114H3.39062V11.0256L6.73683 7.67948L6.02972 6.97237ZM9.73684 7.85106L12.4618 5.1262L11.6689 4.33331L10.876 3.54041L8.15106 6.26528L7.44395 5.55817L10.4046 2.5976C10.6649 2.33726 11.087 2.33726 11.3474 2.59761L12.376 3.62621L13.4046 4.6548C13.6649 4.91515 13.6649 5.33726 13.4046 5.59761L10.4439 8.55817L9.73684 7.85106Z" fill="#C2C5D1"/>
<rect x="3.01762" y="3.60938" width="0.5" height="14.1667" rx="0.25" transform="rotate(-45 3.01762 3.60938)" stroke="#C2C5D1" stroke-width="0.5"/>
<path d="M10.5732 2.87574C10.6382 2.81065 10.7438 2.81065 10.8089 2.87574L11.8375 3.90433L12.8661 4.93293C12.9311 4.99802 12.9311 5.10355 12.8661 5.16863L5.14249 12.8922C5.11123 12.9235 5.06884 12.941 5.02464 12.941H2.96745C2.8754 12.941 2.80078 12.8664 2.80078 12.7743L2.80078 10.7172C2.80078 10.6729 2.81834 10.6306 2.8496 10.5993L10.5732 2.87574Z" stroke="#C2C5D1"/>
</g>
<defs>
<clipPath id="clip0_2997_26063">
<rect width="16" height="16" fill="white"/>
</clipPath>
</defs>
</svg>
