<svg width="20" height="20" viewBox="0 0 20 20" fill="none" xmlns="http://www.w3.org/2000/svg">
<mask id="path-1-inside-1_2997_26360" fill="white">
<path fill-rule="evenodd" clip-rule="evenodd" d="M9 2H11L11.8273 3.24089C12.252 3.35544 12.6608 3.50895 13.0495 3.69736L14.7659 3.35574L16.1801 4.76995L15.8918 6.21863C16.2823 6.82586 16.5815 7.4974 16.7701 8.21384L18 9.00002V11L16.77 11.7862C16.6454 12.2597 16.4725 12.7136 16.2568 13.1423L16.579 14.7647L15.1648 16.179L13.7666 15.9012C13.1749 16.2797 12.5225 16.5716 11.8273 16.7591L11 18H9L8.17274 16.7591C7.47151 16.57 6.81386 16.2747 6.21811 15.8915L4.77094 16.1788L3.35672 14.7646L3.69727 13.0493C3.50891 12.6606 3.35543 12.252 3.2409 11.8273L2 11V9.00003L3.24088 8.17278C3.42177 7.50199 3.69986 6.87108 4.0591 6.29609L3.75447 4.76894L5.16868 3.35472L6.93188 3.70644C7.32615 3.51388 7.74119 3.35727 8.17274 3.24089L9 2Z"/>
</mask>
<path d="M11 2L11.9985 1.33436L11.6422 0.8H11V2ZM9 2V0.8H8.35778L8.00154 1.33436L9 2ZM11.8273 3.24089L10.8288 3.90653L11.0791 4.282L11.5148 4.3995L11.8273 3.24089ZM13.0495 3.69736L12.526 4.77719L12.8886 4.95292L13.2837 4.87428L13.0495 3.69736ZM14.7659 3.35574L15.6144 2.50721L15.1608 2.0536L14.5317 2.17882L14.7659 3.35574ZM16.1801 4.76995L17.357 5.00419L17.4823 4.37503L17.0286 3.92143L16.1801 4.76995ZM15.8918 6.21863L14.7149 5.98439L14.6202 6.45992L14.8825 6.86773L15.8918 6.21863ZM16.7701 8.21384L15.6096 8.51919L15.7288 8.97249L16.1238 9.22493L16.7701 8.21384ZM18 9.00002H19.2V8.34286L18.6463 7.98892L18 9.00002ZM18 11L18.6463 12.0111L19.2 11.6572V11H18ZM16.77 11.7862L16.1238 10.7751L15.7288 11.0276L15.6095 11.4808L16.77 11.7862ZM16.2568 13.1423L15.1848 12.6029L14.9994 12.9714L15.0798 13.3761L16.2568 13.1423ZM16.579 14.7647L17.4276 15.6133L17.8809 15.1599L17.756 14.531L16.579 14.7647ZM15.1648 16.179L14.931 17.356L15.5599 17.4809L16.0133 17.0275L15.1648 16.179ZM13.7666 15.9012L14.0004 14.7242L13.5268 14.6302L13.1201 14.8903L13.7666 15.9012ZM11.8273 16.7591L11.5148 15.6005L11.0791 15.718L10.8288 16.0935L11.8273 16.7591ZM11 18V19.2H11.6422L11.9985 18.6656L11 18ZM9 18L8.00154 18.6656L8.35778 19.2H9V18ZM8.17274 16.7591L9.1712 16.0935L8.92089 15.718L8.48519 15.6005L8.17274 16.7591ZM6.21811 15.8915L6.8673 14.8822L6.45975 14.6201L5.98443 14.7144L6.21811 15.8915ZM4.77094 16.1788L3.92241 17.0273L4.37576 17.4807L5.00462 17.3558L4.77094 16.1788ZM3.35672 14.7646L2.1797 14.5309L2.05484 15.1597L2.50819 15.6131L3.35672 14.7646ZM3.69727 13.0493L4.8743 13.2829L4.95269 12.8881L4.77711 12.5259L3.69727 13.0493ZM3.2409 11.8273L4.39951 11.5148L4.28201 11.0791L3.90654 10.8288L3.2409 11.8273ZM2 11H0.8V11.6423L1.33436 11.9985L2 11ZM2 9.00003L1.33436 8.00157L0.8 8.35781V9.00003H2ZM3.24088 8.17278L3.90652 9.17124L4.28199 8.92092L4.39949 8.48523L3.24088 8.17278ZM4.0591 6.29609L5.0768 6.93193L5.32905 6.5282L5.23592 6.06134L4.0591 6.29609ZM3.75447 4.76894L2.90594 3.92041L2.4521 4.37425L2.57766 5.00369L3.75447 4.76894ZM5.16868 3.35472L5.40343 2.17791L4.774 2.05235L4.32016 2.5062L5.16868 3.35472ZM6.93188 3.70644L6.69713 4.88326L7.09447 4.96252L7.45852 4.78471L6.93188 3.70644ZM8.17274 3.24089L8.48519 4.3995L8.92089 4.282L9.1712 3.90653L8.17274 3.24089ZM11 0.8H9V3.2H11V0.8ZM12.8257 2.57525L11.9985 1.33436L10.0015 2.66564L10.8288 3.90653L12.8257 2.57525ZM13.5729 2.61754C13.1172 2.39667 12.6379 2.21663 12.1397 2.08228L11.5148 4.3995C11.8661 4.49424 12.2043 4.62123 12.526 4.77719L13.5729 2.61754ZM14.5317 2.17882L12.8152 2.52045L13.2837 4.87428L15.0001 4.53266L14.5317 2.17882ZM17.0286 3.92143L15.6144 2.50721L13.9174 4.20427L15.3316 5.61848L17.0286 3.92143ZM17.0687 6.45287L17.357 5.00419L15.0032 4.53571L14.7149 5.98439L17.0687 6.45287ZM17.9306 7.90848C17.7094 7.06807 17.3585 6.28079 16.9011 5.56952L14.8825 6.86773C15.2061 7.37093 15.4537 7.92673 15.6096 8.51919L17.9306 7.90848ZM18.6463 7.98892L17.4163 7.20274L16.1238 9.22493L17.3537 10.0111L18.6463 7.98892ZM19.2 11V9.00002H16.8V11H19.2ZM17.4163 12.7973L18.6463 12.0111L17.3537 9.98892L16.1238 10.7751L17.4163 12.7973ZM17.3287 13.6817C17.5816 13.1792 17.7844 12.647 17.9305 12.0916L15.6095 11.4808C15.5065 11.8725 15.3634 12.248 15.1848 12.6029L17.3287 13.6817ZM17.756 14.531L17.4338 12.9085L15.0798 13.3761L15.402 14.9985L17.756 14.531ZM16.0133 17.0275L17.4276 15.6133L15.7305 13.9162L14.3163 15.3304L16.0133 17.0275ZM13.5329 17.0782L14.931 17.356L15.3986 15.0019L14.0004 14.7242L13.5329 17.0782ZM12.1397 17.9177C12.9553 17.6978 13.7201 17.3555 14.4132 16.9121L13.1201 14.8903C12.6297 15.204 12.0898 15.4454 11.5148 15.6005L12.1397 17.9177ZM11.9985 18.6656L12.8257 17.4247L10.8288 16.0935L10.0015 17.3344L11.9985 18.6656ZM9 19.2H11V16.8H9V19.2ZM7.17428 17.4247L8.00154 18.6656L9.99846 17.3344L9.1712 16.0935L7.17428 17.4247ZM5.56891 16.9007C6.26673 17.3496 7.03771 17.6959 7.86029 17.9177L8.48519 15.6005C7.90531 15.4441 7.36099 15.1998 6.8673 14.8822L5.56891 16.9007ZM5.00462 17.3558L6.45179 17.0685L5.98443 14.7144L4.53725 15.0017L5.00462 17.3558ZM2.50819 15.6131L3.92241 17.0273L5.61946 15.3302L4.20525 13.916L2.50819 15.6131ZM2.52024 12.8156L2.1797 14.5309L4.53375 14.9982L4.8743 13.2829L2.52024 12.8156ZM2.08229 12.1398C2.21662 12.6378 2.39662 13.1171 2.61743 13.5727L4.77711 12.5259C4.6212 12.2042 4.49423 11.8661 4.39951 11.5148L2.08229 12.1398ZM1.33436 11.9985L2.57526 12.8258L3.90654 10.8288L2.66564 10.0016L1.33436 11.9985ZM0.8 9.00003V11H3.2V9.00003H0.8ZM2.57524 7.17432L1.33436 8.00157L2.66564 9.99849L3.90652 9.17124L2.57524 7.17432ZM3.04141 5.66025C2.62058 6.33382 2.29446 7.07348 2.08227 7.86033L4.39949 8.48523C4.54908 7.9305 4.77915 7.40835 5.0768 6.93193L3.04141 5.66025ZM2.57766 5.00369L2.88229 6.53084L5.23592 6.06134L4.93128 4.53419L2.57766 5.00369ZM4.32016 2.5062L2.90594 3.92041L4.603 5.61747L6.01721 4.20325L4.32016 2.5062ZM7.16663 2.52963L5.40343 2.17791L4.93393 4.53154L6.69713 4.88326L7.16663 2.52963ZM7.86028 2.08228C7.35413 2.21878 6.86742 2.40245 6.40524 2.62818L7.45852 4.78471C7.78488 4.62531 8.12826 4.49576 8.48519 4.3995L7.86028 2.08228ZM8.00154 1.33436L7.17428 2.57525L9.1712 3.90653L9.99846 2.66564L8.00154 1.33436Z" fill="#666E8B" mask="url(#path-1-inside-1_2997_26360)"/>
<circle cx="10" cy="10" r="3.4" stroke="#666E8B" stroke-width="1.2"/>
</svg>
