<svg width="16" height="16" viewBox="0 0 16 16" fill="none" xmlns="http://www.w3.org/2000/svg">
<g clip-path="url(#clip0_2997_24957)">
<path d="M4.58801 10.0822C6.01701 8.72617 7.45601 6.63617 10.008 6.77617C10.0926 6.77852 10.173 6.81379 10.232 6.87449C10.291 6.93519 10.324 7.01652 10.324 7.10117V8.02917C10.3248 8.09121 10.3429 8.15178 10.3762 8.20412C10.4096 8.25645 10.4568 8.29846 10.5126 8.32546C10.5685 8.35245 10.6308 8.36336 10.6925 8.35695C10.7542 8.35054 10.8129 8.32707 10.862 8.28917L14.162 5.61417C14.2008 5.58287 14.2322 5.54327 14.2537 5.49828C14.2752 5.45328 14.2864 5.40405 14.2864 5.35417C14.2864 5.3043 14.2752 5.25506 14.2537 5.21007C14.2322 5.16508 14.2008 5.12548 14.162 5.09417L10.877 2.09417C10.8271 2.05428 10.767 2.02913 10.7035 2.02157C10.6401 2.014 10.5758 2.02431 10.5178 2.05135C10.4599 2.07838 10.4107 2.12106 10.3758 2.17456C10.3408 2.22807 10.3215 2.29028 10.32 2.35417V3.29317C10.3208 3.37196 10.2929 3.44835 10.2416 3.50814C10.1903 3.56792 10.119 3.60703 10.041 3.61817C5.65501 4.58317 4.55101 9.72917 4.58801 10.0822ZM3.00001 15.0002C2.70753 14.9844 2.42131 14.9093 2.15877 14.7795C1.89623 14.6496 1.66286 14.4677 1.47286 14.2447C1.28286 14.0218 1.14022 13.7626 1.0536 13.4828C0.966977 13.203 0.938198 12.9085 0.969011 12.6172L1.00001 13.0002V3.00017C0.971721 2.73058 1.00401 2.45808 1.09452 2.20256C1.18502 1.94705 1.33146 1.71498 1.52314 1.5233C1.71481 1.33162 1.94689 1.18518 2.2024 1.09468C2.45792 1.00417 2.73042 0.971883 3.00001 1.00017C1.30001 1.01617 7.00001 1.00017 7.00001 1.00017C7.05941 0.996931 7.11885 1.00574 7.17475 1.02607C7.23066 1.0464 7.28187 1.07783 7.32532 1.11847C7.36876 1.15911 7.40353 1.20811 7.42754 1.26254C7.45154 1.31697 7.46429 1.37569 7.46501 1.43517C7.46774 1.56936 7.42235 1.70009 7.33706 1.80372C7.25177 1.90735 7.13222 1.97704 7.00001 2.00017H3.00001C2.86206 1.96725 2.71798 1.97023 2.5815 2.00881C2.44503 2.0474 2.32072 2.12032 2.22044 2.2206C2.12015 2.32089 2.04724 2.44519 2.00865 2.58167C1.97006 2.71814 1.96709 2.86222 2.00001 3.00017C2.02401 2.41417 2.00001 13.0002 2.00001 13.0002C1.96559 13.1383 1.9675 13.283 2.00555 13.4202C2.0436 13.5574 2.11651 13.6824 2.21717 13.783C2.31783 13.8837 2.44283 13.9566 2.58001 13.9946C2.71719 14.0327 2.86188 14.0346 3.00001 14.0002C3.77401 13.9932 13 14.0002 13 14.0002C13.1383 14.0361 13.2836 14.0353 13.4216 13.9978C13.5595 13.9604 13.6852 13.8875 13.7862 13.7864C13.8873 13.6853 13.9602 13.5596 13.9977 13.4217C14.0352 13.2838 14.036 13.1385 14 13.0002C13.99 14.6432 14 9.00017 14 9.00017C13.9887 8.86595 14.0252 8.73205 14.1032 8.62222C14.1812 8.51239 14.2956 8.43372 14.426 8.40017C14.506 8.39056 14.5871 8.39969 14.663 8.42686C14.7388 8.45402 14.8073 8.49847 14.863 8.55669C14.9187 8.6149 14.9601 8.68529 14.9838 8.76226C15.0076 8.83924 15.0132 8.92069 15 9.00017V13.0002C15.0283 13.2698 14.996 13.5423 14.9055 13.7978C14.815 14.0533 14.6686 14.2854 14.4769 14.477C14.2852 14.6687 14.0531 14.8152 13.7976 14.9057C13.5421 14.9962 13.2696 15.0285 13 15.0002C12.21 14.9932 3.00001 15.0002 3.00001 15.0002Z" fill="#C2C5D1"/>
</g>
<defs>
<clipPath id="clip0_2997_24957">
<rect width="16" height="16" fill="white"/>
</clipPath>
</defs>
</svg>
