<svg width="336" height="240" viewBox="0 0 336 240" fill="none" xmlns="http://www.w3.org/2000/svg">
<circle cx="168" cy="96" r="96" fill="url(#paint0_linear_2997_26837)"/>
<circle cx="150.005" cy="25.2" r="7.2" fill="url(#paint1_linear_2997_26837)"/>
<path d="M124.803 61.3687C124.803 73.3915 119.968 68.6969 114.003 68.6969C108.038 68.6969 103.203 73.3915 103.203 61.3687C103.203 49.346 108.038 39.5996 114.003 39.5996C119.968 39.5996 124.803 49.346 124.803 61.3687Z" fill="url(#paint2_linear_2997_26837)"/>
<ellipse cx="235.797" cy="67.8008" rx="9" ry="21" fill="url(#paint3_linear_2997_26837)"/>
<ellipse cx="220.795" cy="72.0008" rx="9.6" ry="19.2" fill="url(#paint4_linear_2997_26837)"/>
<path fill-rule="evenodd" clip-rule="evenodd" d="M287.4 239.137C317.446 224.72 336 204.889 336 182.999C336 138.927 260.784 103.199 168 103.199C75.2162 103.199 0 138.927 0 182.999C0 204.718 18.2665 224.41 47.9001 238.799H287.4V239.137Z" fill="url(#paint5_linear_2997_26837)"/>
<ellipse rx="10.4246" ry="6.16082" transform="matrix(0.837102 0.547047 0.725984 -0.687712 220.793 137.14)" fill="#DEE7F4"/>
<ellipse rx="9.23517" ry="4.91307" transform="matrix(0.837102 0.547047 0.725984 -0.687712 220.579 138.4)" fill="url(#paint6_linear_2997_26837)"/>
<ellipse cx="235.333" cy="120.657" rx="4.16733" ry="2.72442" transform="rotate(25.5736 235.333 120.657)" fill="#DEE7F4"/>
<ellipse rx="5.8976" ry="4.35423" transform="matrix(0.996972 -0.077764 0.0609016 0.998144 186.145 141.604)" fill="#DEE7F4"/>
<ellipse cx="234.908" cy="121.041" rx="3.72609" ry="2.17264" transform="rotate(25.5736 234.908 121.041)" fill="url(#paint7_linear_2997_26837)"/>
<ellipse rx="4.96871" ry="3.7498" transform="matrix(0.996972 -0.077764 0.0609016 0.998144 186.76 142.101)" fill="url(#paint8_linear_2997_26837)"/>
<ellipse cx="87.4297" cy="124.698" rx="3.46321" ry="2.11924" transform="rotate(-14.0951 87.4297 124.698)" fill="#DEE7F4"/>
<ellipse cx="87.7466" cy="125.042" rx="3.06807" ry="1.69003" transform="rotate(-14.0951 87.7466 125.042)" fill="url(#paint9_linear_2997_26837)"/>
<ellipse rx="9.58596" ry="8.10662" transform="matrix(0.996022 -0.0891128 0.0531186 0.998588 153.971 145.85)" fill="#DEE7F4"/>
<ellipse rx="8.07614" ry="6.9813" transform="matrix(0.996022 -0.0891128 0.0531186 0.998588 154.985 146.775)" fill="url(#paint10_linear_2997_26837)"/>
<ellipse rx="4.4105" ry="3.52246" transform="matrix(0.999659 0.0261254 -0.0379393 0.99928 105.853 143.965)" fill="#DEE7F4"/>
<ellipse rx="3.71583" ry="3.03349" transform="matrix(0.999659 0.0261254 -0.0379393 0.99928 106.279 144.415)" fill="url(#paint11_linear_2997_26837)"/>
<rect x="99.3594" y="127.902" width="2.02284" height="9.04982" rx="1.01142" transform="rotate(-118.458 99.3594 127.902)" fill="url(#paint12_linear_2997_26837)"/>
<rect x="105.75" y="116.959" width="1.3198" height="7.03894" rx="0.659901" fill="url(#paint13_linear_2997_26837)"/>
<path d="M103.73 103.795C104.074 102.725 105.069 102 106.193 102C107.316 102 108.311 102.725 108.655 103.795L110.906 110.799L111.409 113.145C112.121 116.466 109.589 119.597 106.193 119.597C102.796 119.597 100.265 116.466 100.976 113.145L101.479 110.799L103.73 103.795Z" fill="url(#paint14_linear_2997_26837)"/>
<rect x="118.25" y="111.049" width="1.36277" height="6.0968" rx="0.681385" transform="rotate(-118.458 118.25 111.049)" fill="url(#paint15_linear_2997_26837)"/>
<rect x="122.555" y="103.676" width="0.889141" height="4.74209" rx="0.444571" fill="url(#paint16_linear_2997_26837)"/>
<path d="M121.201 94.8089C121.432 94.0883 122.103 93.5996 122.86 93.5996C123.617 93.5996 124.287 94.0883 124.519 94.8089L126.035 99.5272L126.374 101.108C126.853 103.345 125.148 105.455 122.86 105.455C120.572 105.455 118.866 103.345 119.346 101.108L119.684 99.5272L121.201 94.8089Z" fill="url(#paint17_linear_2997_26837)"/>
<rect x="221.523" y="117.594" width="1.5171" height="6.78724" rx="0.758549" transform="rotate(-118.458 221.523 117.594)" fill="url(#paint18_linear_2997_26837)"/>
<rect x="226.32" y="109.387" width="0.989833" height="5.27911" rx="0.494916" fill="url(#paint19_linear_2997_26837)"/>
<path d="M224.806 99.5142C225.063 98.712 225.81 98.168 226.652 98.168C227.495 98.168 228.241 98.712 228.499 99.5142L230.187 104.767L230.564 106.526C231.098 109.017 229.199 111.366 226.652 111.366C224.105 111.366 222.206 109.017 222.74 106.526L223.117 104.767L224.806 99.5142Z" fill="url(#paint20_linear_2997_26837)"/>
<defs>
<linearGradient id="paint0_linear_2997_26837" x1="168" y1="-19.8" x2="168" y2="165" gradientUnits="userSpaceOnUse">
<stop stop-color="#E5F0FC"/>
<stop offset="1" stop-color="white" stop-opacity="0"/>
</linearGradient>
<linearGradient id="paint1_linear_2997_26837" x1="150.005" y1="20.88" x2="150.005" y2="30.6" gradientUnits="userSpaceOnUse">
<stop stop-color="white"/>
<stop offset="1" stop-color="white" stop-opacity="0"/>
</linearGradient>
<linearGradient id="paint2_linear_2997_26837" x1="112.901" y1="39.5996" x2="110.405" y2="60.9999" gradientUnits="userSpaceOnUse">
<stop stop-color="white"/>
<stop offset="1" stop-color="white" stop-opacity="0"/>
</linearGradient>
<linearGradient id="paint3_linear_2997_26837" x1="235.797" y1="52.5281" x2="232.754" y2="69.4319" gradientUnits="userSpaceOnUse">
<stop stop-color="white"/>
<stop offset="1" stop-color="white" stop-opacity="0"/>
</linearGradient>
<linearGradient id="paint4_linear_2997_26837" x1="219.816" y1="52.8008" x2="221.847" y2="68.9748" gradientUnits="userSpaceOnUse">
<stop stop-color="white"/>
<stop offset="1" stop-color="white" stop-opacity="0"/>
</linearGradient>
<linearGradient id="paint5_linear_2997_26837" x1="168" y1="96.5992" x2="168" y2="150" gradientUnits="userSpaceOnUse">
<stop stop-color="#E5F0FC"/>
<stop offset="1" stop-color="white" stop-opacity="0"/>
</linearGradient>
<linearGradient id="paint6_linear_2997_26837" x1="0.952057" y1="7.23672" x2="21.2501" y2="-0.465987" gradientUnits="userSpaceOnUse">
<stop stop-color="#EFF4FB"/>
<stop offset="1" stop-color="#EFF4FB" stop-opacity="0"/>
</linearGradient>
<linearGradient id="paint7_linear_2997_26837" x1="237.487" y1="119.467" x2="232.409" y2="123.327" gradientUnits="userSpaceOnUse">
<stop stop-color="#EFF4FB"/>
<stop offset="1" stop-color="#EFF4FB" stop-opacity="0"/>
</linearGradient>
<linearGradient id="paint8_linear_2997_26837" x1="8.40816" y1="1.03368" x2="-5.7251" y2="3.85995" gradientUnits="userSpaceOnUse">
<stop stop-color="#EFF4FB"/>
<stop offset="1" stop-color="#EFF4FB" stop-opacity="0"/>
</linearGradient>
<linearGradient id="paint9_linear_2997_26837" x1="85.9131" y1="124.333" x2="91.4402" y2="126.958" gradientUnits="userSpaceOnUse">
<stop stop-color="#EFF4FB"/>
<stop offset="1" stop-color="#EFF4FB" stop-opacity="0"/>
</linearGradient>
<linearGradient id="paint10_linear_2997_26837" x1="13.6666" y1="1.92448" x2="-9.51757" y2="5.97206" gradientUnits="userSpaceOnUse">
<stop stop-color="#EFF4FB"/>
<stop offset="1" stop-color="#EFF4FB" stop-opacity="0"/>
</linearGradient>
<linearGradient id="paint11_linear_2997_26837" x1="6.28801" y1="0.836219" x2="-4.34092" y2="2.80111" gradientUnits="userSpaceOnUse">
<stop stop-color="#EFF4FB"/>
<stop offset="1" stop-color="#EFF4FB" stop-opacity="0"/>
</linearGradient>
<linearGradient id="paint12_linear_2997_26837" x1="100.488" y1="130.28" x2="100.413" y2="136.953" gradientUnits="userSpaceOnUse">
<stop stop-color="#DFECFC" stop-opacity="0"/>
<stop offset="1" stop-color="#DFECFC"/>
</linearGradient>
<linearGradient id="paint13_linear_2997_26837" x1="106.41" y1="119.159" x2="106.41" y2="123.998" gradientUnits="userSpaceOnUse">
<stop stop-color="#B5C4DD"/>
<stop offset="1" stop-color="#93A6C8"/>
</linearGradient>
<linearGradient id="paint14_linear_2997_26837" x1="106.486" y1="104.591" x2="106.486" y2="118.193" gradientUnits="userSpaceOnUse">
<stop stop-color="#EAF2FD"/>
<stop offset="1" stop-color="#D2E1F4"/>
</linearGradient>
<linearGradient id="paint15_linear_2997_26837" x1="119.011" y1="112.651" x2="118.96" y2="117.146" gradientUnits="userSpaceOnUse">
<stop stop-color="#DFECFC" stop-opacity="0"/>
<stop offset="1" stop-color="#DFECFC"/>
</linearGradient>
<linearGradient id="paint16_linear_2997_26837" x1="122.999" y1="105.158" x2="122.999" y2="108.418" gradientUnits="userSpaceOnUse">
<stop stop-color="#B5C4DD"/>
<stop offset="1" stop-color="#93A6C8"/>
</linearGradient>
<linearGradient id="paint17_linear_2997_26837" x1="123.058" y1="95.3451" x2="123.058" y2="104.509" gradientUnits="userSpaceOnUse">
<stop stop-color="#EAF2FD"/>
<stop offset="1" stop-color="#D2E1F4"/>
</linearGradient>
<linearGradient id="paint18_linear_2997_26837" x1="222.37" y1="119.377" x2="222.314" y2="124.381" gradientUnits="userSpaceOnUse">
<stop stop-color="#DFECFC" stop-opacity="0"/>
<stop offset="1" stop-color="#DFECFC"/>
</linearGradient>
<linearGradient id="paint19_linear_2997_26837" x1="226.815" y1="111.036" x2="226.815" y2="114.666" gradientUnits="userSpaceOnUse">
<stop stop-color="#B5C4DD"/>
<stop offset="1" stop-color="#93A6C8"/>
</linearGradient>
<linearGradient id="paint20_linear_2997_26837" x1="226.872" y1="100.111" x2="226.872" y2="110.312" gradientUnits="userSpaceOnUse">
<stop stop-color="#EAF2FD"/>
<stop offset="1" stop-color="#D2E1F4"/>
</linearGradient>
</defs>
</svg>
