<svg width="14" height="16" viewBox="0 0 14 16" fill="none" xmlns="http://www.w3.org/2000/svg">
<path opacity="0.95" fill-rule="evenodd" clip-rule="evenodd" d="M12.8182 1.2C12.8182 0.537258 12.2809 0 11.6182 0H3.88422C1.73902 0 0 1.71865 0 3.83871V4.16129C0 6.28135 1.73902 8 3.88422 8H5.09192L5.05899 7.99974C3.97454 7.98236 3.10085 7.10814 3.10085 6.03226L3.10112 5.99972C3.1187 4.92797 4.00328 4.06452 5.09192 4.06452H11.6182C12.2809 4.06452 12.8182 3.52726 12.8182 2.86452V1.2ZM0.610002 14.8C0.610002 15.4627 1.14726 16 1.81 16H9.54396C11.6892 16 13.4282 14.2814 13.4282 12.1613V11.8387C13.4282 9.71865 11.6892 8 9.54396 8H8.33626L8.36919 8.00026C9.45364 8.01764 10.3273 8.89186 10.3273 9.96774L10.3271 10.0003C10.3095 11.072 9.4249 11.9355 8.33626 11.9355H1.81C1.14726 11.9355 0.610002 12.4727 0.610002 13.1355V14.8Z" fill="white"/>
</svg>
