<svg width="115" height="123" viewBox="0 0 115 123" fill="none" xmlns="http://www.w3.org/2000/svg">
<path d="M112.284 89.1052C87.1583 92.6111 46.8404 106.365 18.7931 122.996C-9.28265 122.996 2.41827 117.686 2.41827 116.35C2.41827 115.015 31.6407 82.9472 59.7165 82.9472C87.7922 82.9472 112.284 87.7696 112.284 89.1052Z" fill="url(#paint0_linear_2997_27101)"/>
<path d="M69.0653 53.2429V87.3987L92.9821 89.4841C93.5953 78.6118 89.9158 58.938 81.9436 51.172C75.0343 44.4415 69.2697 49.1011 69.0653 53.2429Z" fill="url(#paint1_linear_2997_27101)"/>
<path d="M73.7535 52.9882V85.3124L94.0865 89.4833C94.6079 78.5348 91.4797 58.7232 84.7021 50.9028C78.8281 44.1251 73.9273 48.8173 73.7535 52.9882Z" fill="url(#paint2_linear_2997_27101)"/>
<path fill-rule="evenodd" clip-rule="evenodd" d="M48.6957 64.1686C65.0495 75.3143 87.4555 71.8468 99.6254 55.9361C111.795 40.0253 109.276 17.4929 94.2379 4.62739L48.6957 64.1686Z" fill="url(#paint3_linear_2997_27101)"/>
<ellipse cx="71.4691" cy="34.3966" rx="37.5378" ry="10.4272" transform="rotate(-52.5882 71.4691 34.3966)" fill="url(#paint4_linear_2997_27101)"/>
<ellipse cx="70.738" cy="34.4943" rx="35.9737" ry="9.90581" transform="rotate(-52.5882 70.738 34.4943)" fill="url(#paint5_linear_2997_27101)"/>
<rect x="60.9002" y="27.6222" width="2.08543" height="21.8971" transform="rotate(-52.5882 60.9002 27.6222)" fill="url(#paint6_linear_2997_27101)"/>
<path fill-rule="evenodd" clip-rule="evenodd" d="M49.7264 17.7172C51.301 15.6586 53.7166 14.6223 56.1234 14.7216C56.6601 14.7437 57.0328 15.233 56.9849 15.768C56.9305 16.3759 56.3579 16.7945 55.7476 16.8009C54.0941 16.8181 52.4653 17.5691 51.3828 18.9842C50.4353 20.223 50.0886 21.7326 50.2961 23.163C50.3719 23.6859 50.1499 24.2303 49.6748 24.4613C49.107 24.7375 48.4185 24.4604 48.2968 23.8409C47.8891 21.7647 48.3398 19.53 49.7264 17.7172Z" fill="url(#paint7_radial_2997_27101)"/>
<path fill-rule="evenodd" clip-rule="evenodd" d="M44.6416 13.8593C47.5804 10.0171 52.1767 8.18973 56.662 8.6128C57.2011 8.66365 57.5764 9.15352 57.5281 9.69285C57.4739 10.2991 56.9105 10.7238 56.3038 10.6751C52.5616 10.3752 48.7485 11.9225 46.298 15.1263C43.8778 18.2904 43.3649 22.3143 44.5753 25.8171C44.7597 26.3507 44.5448 26.955 44.0371 27.202C43.5081 27.4593 42.867 27.2305 42.6672 26.6772C41.1566 22.4946 41.7391 17.654 44.6416 13.8593Z" fill="url(#paint8_radial_2997_27101)"/>
<path fill-rule="evenodd" clip-rule="evenodd" d="M52.1684 4.1384C52.2963 4.72467 51.9009 5.29436 51.3147 5.42272C43.5744 7.11771 37.7805 14.0135 37.7805 22.2625C37.7805 24.4762 38.1978 26.5924 38.958 28.5369C39.1649 29.0663 38.9498 29.677 38.4386 29.9256C37.9134 30.1811 37.278 29.957 37.0618 29.4145C36.18 27.2024 35.6951 24.789 35.6951 22.2625C35.6951 12.9705 42.2534 5.21028 50.9936 3.35819C51.5326 3.24396 52.051 3.60004 52.1684 4.1384Z" fill="url(#paint9_radial_2997_27101)"/>
<path fill-rule="evenodd" clip-rule="evenodd" d="M57.7207 0.0854387C57.3534 -0.107144 56.8996 0.0344338 56.707 0.401661L55.6613 2.39572L53.6673 1.35001C53.3001 1.15743 52.8462 1.299 52.6537 1.66623C52.4611 2.03346 52.6027 2.48727 52.9699 2.67986L54.9639 3.72557L53.9174 5.72104C53.7249 6.08827 53.8664 6.54208 54.2337 6.73467C54.6009 6.92725 55.0547 6.78567 55.2473 6.41844L56.2938 4.42297L58.2893 5.46946C58.6565 5.66205 59.1103 5.52047 59.3029 5.15324C59.4955 4.78602 59.3539 4.3322 58.9867 4.13962L56.9912 3.09312L58.0369 1.09906C58.2295 0.731836 58.0879 0.278021 57.7207 0.0854387Z" fill="url(#paint10_radial_2997_27101)"/>
<circle cx="58.2186" cy="24.2612" r="5.21359" transform="rotate(-52.5882 58.2186 24.2612)" fill="url(#paint11_linear_2997_27101)"/>
<path fill-rule="evenodd" clip-rule="evenodd" d="M99.2991 50.9042H96.171L96.1602 50.9096C92.5351 50.7621 90.0477 53.6765 89.9147 56.3717V58.7246V90.5274L113.831 92.6129C114.445 81.7405 110.765 62.0668 102.793 54.3008C101.506 53.0473 100.259 52.1889 99.0802 51.6486L99.2991 50.9042Z" fill="url(#paint12_linear_2997_27101)"/>
<path d="M69.0653 80.0996H81.8386H94.6119V92.6122C94.6119 92.6122 87.8342 90.0054 81.5779 88.9627C75.3216 87.92 69.0653 87.3986 69.0653 87.3986V80.0996Z" fill="url(#paint13_linear_2997_27101)"/>
<path d="M94.6069 56.117V92.6121H114.94C115.461 81.6636 112.548 61.6602 105.555 54.0316C99.8204 47.7753 94.7806 51.9462 94.6069 56.117Z" fill="url(#paint14_linear_2997_27101)"/>
<ellipse cx="101.91" cy="58.2019" rx="3.64951" ry="4.17087" fill="url(#paint15_linear_2997_27101)"/>
<ellipse cx="101.389" cy="58.7228" rx="3.12815" ry="3.64951" fill="url(#paint16_linear_2997_27101)"/>
<defs>
<linearGradient id="paint0_linear_2997_27101" x1="100.286" y1="93.3934" x2="54.5482" y2="82.3949" gradientUnits="userSpaceOnUse">
<stop stop-color="#BBD1F0"/>
<stop offset="1" stop-color="#E9F3FD" stop-opacity="0"/>
</linearGradient>
<linearGradient id="paint1_linear_2997_27101" x1="95.1332" y1="74.3647" x2="59.0147" y2="94.8185" gradientUnits="userSpaceOnUse">
<stop stop-color="#B1C4DF"/>
<stop offset="1" stop-color="#E7EFFA"/>
</linearGradient>
<linearGradient id="paint2_linear_2997_27101" x1="71.9652" y1="93.1958" x2="109.094" y2="94.2122" gradientUnits="userSpaceOnUse">
<stop stop-color="#B1C4DF"/>
<stop offset="1" stop-color="#E7EFFA"/>
</linearGradient>
<linearGradient id="paint3_linear_2997_27101" x1="80.728" y1="73.3296" x2="123.515" y2="15.633" gradientUnits="userSpaceOnUse">
<stop stop-color="#B1C4DF"/>
<stop offset="1" stop-color="white"/>
<stop offset="1" stop-color="white"/>
</linearGradient>
<linearGradient id="paint4_linear_2997_27101" x1="34.1645" y1="27.9058" x2="41.3283" y2="54.8416" gradientUnits="userSpaceOnUse">
<stop stop-color="#BCD2F1"/>
<stop offset="1" stop-color="#EFF7FF"/>
</linearGradient>
<linearGradient id="paint5_linear_2997_27101" x1="17.1485" y1="46.4842" x2="107.194" y2="40.1396" gradientUnits="userSpaceOnUse">
<stop stop-color="white"/>
<stop offset="1" stop-color="#E5F0FC"/>
</linearGradient>
<linearGradient id="paint6_linear_2997_27101" x1="61.7122" y1="55.0452" x2="70.6764" y2="52.5423" gradientUnits="userSpaceOnUse">
<stop offset="0.0476601" stop-color="#B1C4DF"/>
<stop offset="1" stop-color="#ECF2FB"/>
</linearGradient>
<radialGradient id="paint7_radial_2997_27101" cx="0" cy="0" r="1" gradientUnits="userSpaceOnUse" gradientTransform="translate(54.982 21.5028) rotate(-135) scale(6.83489 7.37707)">
<stop offset="0.0476601" stop-color="#B1C4DF"/>
<stop offset="1" stop-color="#ECF2FB"/>
</radialGradient>
<radialGradient id="paint8_radial_2997_27101" cx="0" cy="0" r="1" gradientUnits="userSpaceOnUse" gradientTransform="translate(53.1436 20.4235) rotate(-134.051) scale(11.3659 13.7586)">
<stop offset="0.0476601" stop-color="#B1C4DF"/>
<stop offset="1" stop-color="#ECF2FB"/>
</radialGradient>
<radialGradient id="paint9_radial_2997_27101" cx="0" cy="0" r="1" gradientUnits="userSpaceOnUse" gradientTransform="translate(50.287 21.1917) rotate(-134.707) scale(15.7575 17.6475)">
<stop offset="0.0476601" stop-color="#B1C4DF"/>
<stop offset="1" stop-color="#ECF2FB"/>
</radialGradient>
<radialGradient id="paint10_radial_2997_27101" cx="0" cy="0" r="1" gradientUnits="userSpaceOnUse" gradientTransform="translate(55.5802 3.37946) rotate(-149.04) scale(3.52269 3.27667)">
<stop offset="0.0476601" stop-color="#C8D9F1"/>
<stop offset="1" stop-color="#ECF2FB"/>
</radialGradient>
<linearGradient id="paint11_linear_2997_27101" x1="58.3547" y1="36.459" x2="59.7642" y2="19.4086" gradientUnits="userSpaceOnUse">
<stop offset="0.0476601" stop-color="#B1C4DF"/>
<stop offset="1" stop-color="#ECF2FB"/>
</linearGradient>
<linearGradient id="paint12_linear_2997_27101" x1="93.0428" y1="80.6216" x2="98.7778" y2="25.3576" gradientUnits="userSpaceOnUse">
<stop stop-color="#B1C3DF"/>
<stop offset="1" stop-color="#E7EFFA"/>
</linearGradient>
<linearGradient id="paint13_linear_2997_27101" x1="94.0905" y1="89.4839" x2="75.224" y2="102.3" gradientUnits="userSpaceOnUse">
<stop stop-color="#B1C4DF"/>
<stop offset="1" stop-color="#E7EFFA"/>
</linearGradient>
<linearGradient id="paint14_linear_2997_27101" x1="210.447" y1="8.4704" x2="84.8312" y2="67.4761" gradientUnits="userSpaceOnUse">
<stop offset="0.0476601" stop-color="#B1C4DF"/>
<stop offset="1" stop-color="#ECF2FB"/>
</linearGradient>
<linearGradient id="paint15_linear_2997_27101" x1="110.927" y1="42.9325" x2="99.9789" y2="66.915" gradientUnits="userSpaceOnUse">
<stop stop-color="#A6BFE5"/>
<stop offset="1" stop-color="#ECF4FE"/>
</linearGradient>
<linearGradient id="paint16_linear_2997_27101" x1="95.808" y1="74.2208" x2="105.192" y2="53.8878" gradientUnits="userSpaceOnUse">
<stop stop-color="#A6BFE5"/>
<stop offset="1" stop-color="#ECF4FE"/>
</linearGradient>
</defs>
</svg>
