<svg width="348" height="248" viewBox="0 0 348 248" fill="none" xmlns="http://www.w3.org/2000/svg">
<circle cx="174" cy="99.4286" r="99.4286" fill="url(#paint0_linear_0_636)"/>
<circle cx="155.358" cy="26.0996" r="7.45714" fill="url(#paint1_linear_0_636)"/>
<path d="M129.256 63.5608C129.256 76.0129 124.248 71.1507 118.071 71.1507C111.893 71.1507 106.885 76.0129 106.885 63.5608C106.885 51.1087 111.893 41.0142 118.071 41.0142C124.248 41.0142 129.256 51.1087 129.256 63.5608Z" fill="url(#paint2_linear_0_636)"/>
<ellipse cx="244.222" cy="70.2208" rx="9.32143" ry="21.75" fill="url(#paint3_linear_0_636)"/>
<ellipse cx="228.685" cy="74.572" rx="9.94286" ry="19.8857" fill="url(#paint4_linear_0_636)"/>
<path fill-rule="evenodd" clip-rule="evenodd" d="M297.668 247.677C328.785 232.745 348 212.207 348 189.536C348 143.89 270.098 106.886 174 106.886C77.9025 106.886 0 143.89 0 189.536C0 212.031 18.9187 232.426 49.6104 247.329H297.668V247.677Z" fill="url(#paint5_linear_0_636)"/>
<ellipse rx="10.7721" ry="6.36618" transform="matrix(0.83903 0.548308 0.727656 -0.689297 228.686 142.039)" fill="#DEE7F4"/>
<ellipse rx="9.54301" ry="5.07684" transform="matrix(0.83903 0.548308 0.727656 -0.689297 228.464 143.344)" fill="url(#paint6_linear_0_636)"/>
<ellipse cx="243.743" cy="124.967" rx="4.31616" ry="2.82172" transform="rotate(25.5736 243.743 124.967)" fill="#DEE7F4"/>
<ellipse rx="6.09419" ry="4.49937" transform="matrix(0.999269 -0.0779432 0.061042 1.00044 192.794 146.663)" fill="#DEE7F4"/>
<ellipse cx="243.304" cy="125.364" rx="3.85917" ry="2.25024" transform="rotate(25.5736 243.304 125.364)" fill="url(#paint7_linear_0_636)"/>
<ellipse rx="5.13434" ry="3.87479" transform="matrix(0.999269 -0.0779432 0.061042 1.00044 193.438 147.178)" fill="url(#paint8_linear_0_636)"/>
<ellipse cx="90.5584" cy="129.151" rx="3.5869" ry="2.19493" transform="rotate(-14.0951 90.5584 129.151)" fill="#DEE7F4"/>
<ellipse cx="90.8877" cy="129.509" rx="3.17764" ry="1.75039" transform="rotate(-14.0951 90.8877 129.509)" fill="url(#paint9_linear_0_636)"/>
<ellipse rx="9.90549" ry="8.37685" transform="matrix(0.998317 -0.0893182 0.053241 1.00089 159.48 151.06)" fill="#DEE7F4"/>
<ellipse rx="8.34535" ry="7.21401" transform="matrix(0.998317 -0.0893182 0.053241 1.00089 160.525 152.017)" fill="url(#paint10_linear_0_636)"/>
<ellipse rx="4.55751" ry="3.63988" transform="matrix(1.00196 0.0261856 -0.0380267 1.00158 109.64 149.107)" fill="#DEE7F4"/>
<ellipse rx="3.83969" ry="3.1346" transform="matrix(1.00196 0.0261856 -0.0380267 1.00158 110.082 149.575)" fill="url(#paint11_linear_0_636)"/>
<rect x="102.911" y="132.471" width="2.09508" height="9.37303" rx="1.04513" transform="rotate(-118.458 102.911 132.471)" fill="url(#paint12_linear_0_636)"/>
<rect x="109.537" y="121.136" width="1.36694" height="7.29033" rx="0.681897" fill="url(#paint13_linear_0_636)"/>
<path d="M107.444 107.502C107.8 106.395 108.831 105.643 109.994 105.643C111.158 105.643 112.189 106.395 112.545 107.502L114.876 114.756L115.397 117.186C116.134 120.626 113.512 123.869 109.994 123.869C106.477 123.869 103.855 120.626 104.592 117.186L105.113 114.756L107.444 107.502Z" fill="url(#paint14_linear_0_636)"/>
<rect x="122.473" y="115.016" width="1.41144" height="6.31454" rx="0.704098" transform="rotate(-118.458 122.473 115.016)" fill="url(#paint15_linear_0_636)"/>
<rect x="126.936" y="107.38" width="0.920896" height="4.91145" rx="0.45939" fill="url(#paint16_linear_0_636)"/>
<path d="M125.526 98.196C125.765 97.4497 126.46 96.9436 127.244 96.9436C128.028 96.9436 128.722 97.4497 128.962 98.196L130.533 103.083L130.883 104.72C131.38 107.037 129.614 109.222 127.244 109.222C124.874 109.222 123.107 107.037 123.604 104.72L123.955 103.083L125.526 98.196Z" fill="url(#paint17_linear_0_636)"/>
<rect x="229.435" y="121.794" width="1.57128" height="7.02964" rx="0.783834" transform="rotate(-118.458 229.435 121.794)" fill="url(#paint18_linear_0_636)"/>
<rect x="234.406" y="113.292" width="1.02518" height="5.46765" rx="0.511413" fill="url(#paint19_linear_0_636)"/>
<path d="M232.835 103.067C233.102 102.237 233.875 101.673 234.748 101.673C235.62 101.673 236.393 102.237 236.66 103.067L238.409 108.508L238.799 110.33C239.352 112.91 237.386 115.342 234.748 115.342C232.109 115.342 230.143 112.91 230.696 110.33L231.086 108.508L232.835 103.067Z" fill="url(#paint20_linear_0_636)"/>
<path d="M200.913 126.304C135.882 142.178 105.359 176.486 81.6036 176.486C57.8483 176.486 114.887 128.675 114.887 126.204C114.887 123.733 134.657 119.135 158.412 119.135C182.167 119.135 200.913 123.833 200.913 126.304Z" fill="url(#paint21_linear_0_636)"/>
<path fill-rule="evenodd" clip-rule="evenodd" d="M151.757 48.4708C148.929 48.4708 146.636 50.7634 146.636 53.5914V127.328H197.842V116.062L201.938 110.43V66.9049H206.035V66.3928V48.4708H151.757Z" fill="url(#paint22_linear_0_636)"/>
<path d="M201.936 52.5673C201.936 50.3049 203.77 48.4708 206.033 48.4708C208.295 48.4708 210.129 50.3049 210.129 52.5673V66.9049H201.936V52.5673Z" fill="url(#paint23_linear_0_636)"/>
<path d="M194.768 123.743C194.768 125.723 196.373 127.328 198.353 127.328C200.332 127.328 201.937 125.723 201.937 123.743V105.821L194.768 104.797V123.743Z" fill="url(#paint24_linear_0_636)"/>
<g opacity="0.4" filter="url(#filter0_f_0_636)">
<path fill-rule="evenodd" clip-rule="evenodd" d="M198.185 125.529C196.494 125.5 195.132 124.12 195.132 122.422V103.157H146.658V120.058C146.658 123.079 149.108 125.529 152.129 125.529H198.185ZM198.292 125.529H198.346C198.369 125.529 198.392 125.527 198.414 125.524C198.374 125.526 198.333 125.528 198.292 125.529Z" fill="#B1C4DF"/>
</g>
<path fill-rule="evenodd" clip-rule="evenodd" d="M198.289 127.248C196.339 127.214 194.769 125.623 194.769 123.665V104.798H141.516V121.857C141.516 124.879 143.965 127.328 146.986 127.328H198.015C198.116 127.328 198.21 127.299 198.289 127.248Z" fill="url(#paint25_linear_0_636)"/>
<path fill-rule="evenodd" clip-rule="evenodd" d="M170.272 59.035C170.272 58.6917 169.993 58.4108 169.651 58.439C165.823 58.7549 162.815 61.9615 162.815 65.8706C162.815 69.9891 166.154 73.3278 170.272 73.3278C174.182 73.3278 177.388 70.3197 177.704 66.492C177.732 66.1499 177.451 65.8707 177.108 65.8707H170.894C170.55 65.8707 170.272 65.5925 170.272 65.2493V59.035Z" fill="url(#paint26_linear_0_636)"/>
<path fill-rule="evenodd" clip-rule="evenodd" d="M178.974 64.6276C178.974 64.6277 178.974 64.6277 178.974 64.6277H172.138C171.795 64.6277 171.517 64.3495 171.517 64.0063V57.1707C171.517 57.1706 171.517 57.1705 171.517 57.1705C175.636 57.1705 178.974 60.5092 178.974 64.6276Z" fill="url(#paint27_linear_0_636)"/>
<rect x="154.115" y="78.2991" width="38.5286" height="6.21429" rx="3.1" fill="url(#paint28_linear_0_636)"/>
<rect x="154.115" y="90.7281" width="26.1" height="6.21429" rx="3.1" fill="url(#paint29_linear_0_636)"/>
<g filter="url(#filter1_f_0_636)">
<path d="M219.335 110.312C219.336 110.312 219.336 110.312 219.336 110.313L216.976 125.655C216.864 126.381 216.497 127.043 215.939 127.521C215.382 127.999 214.673 128.261 213.938 128.261H199.014C198.307 128.263 197.607 128.125 196.955 127.855C196.302 127.584 195.709 127.187 195.211 126.686C195.186 126.661 195.172 126.627 195.172 126.591V108.391C195.172 108.003 195.28 107.62 195.5 107.301C196.345 106.076 197.344 105.006 198.202 104.087L198.418 103.855C200.886 101.206 201.082 99.0325 201.082 96.4667C201.082 95.5395 201.516 95.0502 201.879 94.8034C202.3 94.5174 202.771 94.4574 203.092 94.4574C203.848 94.4574 204.998 94.7986 205.96 95.7563C206.701 96.4928 207.583 97.8601 207.583 100.19C207.583 101.255 207.324 102.447 207.107 103.258C206.826 104.31 206.439 105.392 206.017 106.304C205.989 106.363 205.976 106.428 205.98 106.494C205.984 106.559 206.005 106.622 206.041 106.677C206.075 106.732 206.122 106.776 206.178 106.806C206.234 106.837 206.297 106.853 206.36 106.852H206.364L216.273 106.772H216.297C216.74 106.772 217.178 106.867 217.58 107.053C217.983 107.238 218.341 107.508 218.629 107.844C218.918 108.18 219.13 108.575 219.252 109.001C219.373 109.426 219.401 109.873 219.334 110.311C219.334 110.311 219.335 110.312 219.335 110.312Z" fill="url(#paint30_linear_0_636)"/>
</g>
<g filter="url(#filter2_f_0_636)">
<path d="M185.865 106.884H192.779C193.004 106.884 193.163 107.085 193.163 107.31V127.97C193.163 128.195 193.004 128.396 192.779 128.396H185.865C185.355 128.395 184.867 128.193 184.507 127.833C184.147 127.473 183.944 126.985 183.944 126.475V108.805C183.944 108.296 184.147 107.808 184.507 107.448C184.867 107.088 185.355 106.885 185.865 106.884Z" fill="url(#paint31_linear_0_636)"/>
</g>
<path d="M203.209 94.4574H198.238L198.832 99.2086C198.85 99.355 198.853 99.5029 198.839 99.6499L198.38 104.703C198.296 105.625 198.839 106.49 199.706 106.815L202.574 107.891C202.987 108.045 203.439 108.068 203.855 107.922C205.139 107.471 206.432 106.812 206.316 106.824C205.695 106.886 206.215 105.845 206.316 105.643C206.938 104.4 207.559 102.536 207.559 99.4288C207.559 96.3217 205.074 94.4574 203.209 94.4574Z" fill="url(#paint32_linear_0_636)"/>
<path d="M214.51 110.312C214.511 110.312 214.511 110.312 214.511 110.313L212.151 125.655C212.039 126.381 211.672 127.043 211.115 127.521C210.558 127.999 209.848 128.261 209.114 128.261H194.189C193.482 128.263 192.783 128.125 192.13 127.855C191.477 127.584 190.885 127.187 190.386 126.686C190.361 126.661 190.348 126.627 190.348 126.591V108.391C190.348 108.003 190.455 107.62 190.675 107.301C191.52 106.076 192.519 105.006 193.377 104.087L193.593 103.855C196.062 101.206 196.257 99.0325 196.257 96.4667C196.257 95.5395 196.691 95.0502 197.055 94.8034C197.476 94.5174 197.946 94.4574 198.267 94.4574C199.023 94.4574 200.174 94.7986 201.136 95.7563C201.876 96.4928 202.758 97.8601 202.758 100.19C202.758 101.255 202.5 102.447 202.283 103.258C202.002 104.31 201.614 105.392 201.192 106.304C201.164 106.363 201.151 106.428 201.155 106.494C201.16 106.559 201.181 106.622 201.216 106.677C201.25 106.732 201.297 106.776 201.353 106.806C201.409 106.837 201.472 106.853 201.536 106.852H201.539L211.448 106.772H211.472C211.915 106.772 212.353 106.867 212.756 107.053C213.158 107.238 213.516 107.508 213.804 107.844C214.093 108.18 214.305 108.575 214.427 109.001C214.548 109.426 214.577 109.873 214.509 110.311C214.509 110.311 214.51 110.312 214.51 110.312Z" fill="url(#paint33_linear_0_636)"/>
<path d="M181.513 106.884H188.428C188.653 106.884 188.812 107.085 188.812 107.31V127.97C188.812 128.195 188.653 128.396 188.428 128.396H181.513C181.004 128.395 180.516 128.193 180.156 127.833C179.796 127.473 179.593 126.985 179.593 126.475V108.805C179.593 108.296 179.796 107.808 180.156 107.448C180.516 107.088 181.004 106.885 181.513 106.884Z" fill="url(#paint34_linear_0_636)"/>
<path d="M182.289 123.971C182.595 124.176 182.956 124.285 183.325 124.285C183.819 124.285 184.293 124.089 184.643 123.739C184.992 123.389 185.189 122.915 185.189 122.421C185.189 122.052 185.079 121.692 184.875 121.385C184.67 121.078 184.379 120.839 184.038 120.698C183.697 120.557 183.322 120.52 182.961 120.592C182.599 120.664 182.267 120.842 182.006 121.102C181.746 121.363 181.568 121.695 181.496 122.057C181.424 122.419 181.461 122.794 181.602 123.134C181.743 123.475 181.982 123.766 182.289 123.971Z" fill="url(#paint35_linear_0_636)"/>
<g filter="url(#filter3_f_0_636)">
<path d="M217.735 78.2991H215.249L217.822 84.414H220.307L217.735 78.2991Z" fill="url(#paint36_linear_0_636)"/>
</g>
<g filter="url(#filter4_f_0_636)">
<path d="M226.607 85.1357H224.122L217.821 84.4148H220.306L226.607 85.1357Z" fill="url(#paint37_linear_0_636)"/>
</g>
<g filter="url(#filter5_f_0_636)">
<path d="M226.608 85.1352H224.122L219.412 89.5846H221.897L226.608 85.1352Z" fill="url(#paint38_linear_0_636)"/>
</g>
<g filter="url(#filter6_f_0_636)">
<path d="M223.202 96.1346H220.717L219.412 89.5849H221.897L223.202 96.1346Z" fill="url(#paint39_linear_0_636)"/>
</g>
<g filter="url(#filter7_f_0_636)">
<path d="M217.287 93.2139L215.224 92.7789L209.706 96.1098L211.288 96.3211L217.287 93.2139Z" fill="url(#paint40_linear_0_636)"/>
</g>
<path d="M215.246 78.2991L217.822 84.412L224.148 85.1242L219.412 89.5881L220.722 96.1303L215.218 92.776L209.702 96.1074L211.037 89.5704L206.317 85.087L212.646 84.4012L215.246 78.2991Z" fill="url(#paint41_linear_0_636)"/>
<defs>
<filter id="filter0_f_0_636" x="144.173" y="100.671" width="56.7268" height="27.3432" filterUnits="userSpaceOnUse" color-interpolation-filters="sRGB">
<feFlood flood-opacity="0" result="BackgroundImageFix"/>
<feBlend mode="normal" in="SourceGraphic" in2="BackgroundImageFix" result="shape"/>
<feGaussianBlur stdDeviation="1.24" result="effect1_foregroundBlur_0_636"/>
</filter>
<filter id="filter1_f_0_636" x="194.924" y="94.2088" width="24.6945" height="34.3014" filterUnits="userSpaceOnUse" color-interpolation-filters="sRGB">
<feFlood flood-opacity="0" result="BackgroundImageFix"/>
<feBlend mode="normal" in="SourceGraphic" in2="BackgroundImageFix" result="shape"/>
<feGaussianBlur stdDeviation="0.124" result="effect1_foregroundBlur_0_636"/>
</filter>
<filter id="filter2_f_0_636" x="183.695" y="106.636" width="9.71646" height="22.0095" filterUnits="userSpaceOnUse" color-interpolation-filters="sRGB">
<feFlood flood-opacity="0" result="BackgroundImageFix"/>
<feBlend mode="normal" in="SourceGraphic" in2="BackgroundImageFix" result="shape"/>
<feGaussianBlur stdDeviation="0.124" result="effect1_foregroundBlur_0_636"/>
</filter>
<filter id="filter3_f_0_636" x="215.124" y="78.1749" width="5.3072" height="6.36419" filterUnits="userSpaceOnUse" color-interpolation-filters="sRGB">
<feFlood flood-opacity="0" result="BackgroundImageFix"/>
<feBlend mode="normal" in="SourceGraphic" in2="BackgroundImageFix" result="shape"/>
<feGaussianBlur stdDeviation="0.062" result="effect1_foregroundBlur_0_636"/>
</filter>
<filter id="filter4_f_0_636" x="217.696" y="84.2905" width="9.03537" height="0.968978" filterUnits="userSpaceOnUse" color-interpolation-filters="sRGB">
<feFlood flood-opacity="0" result="BackgroundImageFix"/>
<feBlend mode="normal" in="SourceGraphic" in2="BackgroundImageFix" result="shape"/>
<feGaussianBlur stdDeviation="0.062" result="effect1_foregroundBlur_0_636"/>
</filter>
<filter id="filter5_f_0_636" x="219.287" y="85.0109" width="7.44468" height="4.69825" filterUnits="userSpaceOnUse" color-interpolation-filters="sRGB">
<feFlood flood-opacity="0" result="BackgroundImageFix"/>
<feBlend mode="normal" in="SourceGraphic" in2="BackgroundImageFix" result="shape"/>
<feGaussianBlur stdDeviation="0.062" result="effect1_foregroundBlur_0_636"/>
</filter>
<filter id="filter6_f_0_636" x="219.287" y="89.4606" width="4.03939" height="6.79879" filterUnits="userSpaceOnUse" color-interpolation-filters="sRGB">
<feFlood flood-opacity="0" result="BackgroundImageFix"/>
<feBlend mode="normal" in="SourceGraphic" in2="BackgroundImageFix" result="shape"/>
<feGaussianBlur stdDeviation="0.062" result="effect1_foregroundBlur_0_636"/>
</filter>
<filter id="filter7_f_0_636" x="209.581" y="92.6554" width="7.82997" height="3.78992" filterUnits="userSpaceOnUse" color-interpolation-filters="sRGB">
<feFlood flood-opacity="0" result="BackgroundImageFix"/>
<feBlend mode="normal" in="SourceGraphic" in2="BackgroundImageFix" result="shape"/>
<feGaussianBlur stdDeviation="0.062" result="effect1_foregroundBlur_0_636"/>
</filter>
<linearGradient id="paint0_linear_0_636" x1="174.172" y1="-20.5071" x2="174.172" y2="170.893" gradientUnits="userSpaceOnUse">
<stop stop-color="#E5F0FC"/>
<stop offset="1" stop-color="white" stop-opacity="0"/>
</linearGradient>
<linearGradient id="paint1_linear_0_636" x1="155.699" y1="21.6683" x2="155.699" y2="31.7354" gradientUnits="userSpaceOnUse">
<stop stop-color="white"/>
<stop offset="1" stop-color="white" stop-opacity="0"/>
</linearGradient>
<linearGradient id="paint2_linear_0_636" x1="116.929" y1="41.0142" x2="114.344" y2="63.1788" gradientUnits="userSpaceOnUse">
<stop stop-color="white"/>
<stop offset="1" stop-color="white" stop-opacity="0"/>
</linearGradient>
<linearGradient id="paint3_linear_0_636" x1="244.763" y1="54.5143" x2="241.611" y2="72.0219" gradientUnits="userSpaceOnUse">
<stop stop-color="white"/>
<stop offset="1" stop-color="white" stop-opacity="0"/>
</linearGradient>
<linearGradient id="paint4_linear_0_636" x1="228.175" y1="54.8123" x2="230.278" y2="71.5639" gradientUnits="userSpaceOnUse">
<stop stop-color="white"/>
<stop offset="1" stop-color="white" stop-opacity="0"/>
</linearGradient>
<linearGradient id="paint5_linear_0_636" x1="174" y1="100.051" x2="174" y2="155.357" gradientUnits="userSpaceOnUse">
<stop stop-color="#E5F0FC"/>
<stop offset="1" stop-color="white" stop-opacity="0"/>
</linearGradient>
<linearGradient id="paint6_linear_0_636" x1="0.983792" y1="7.47794" x2="21.9584" y2="-0.48152" gradientUnits="userSpaceOnUse">
<stop stop-color="#EFF4FB"/>
<stop offset="1" stop-color="#EFF4FB" stop-opacity="0"/>
</linearGradient>
<linearGradient id="paint7_linear_0_636" x1="246.528" y1="124.018" x2="241.269" y2="128.015" gradientUnits="userSpaceOnUse">
<stop stop-color="#EFF4FB"/>
<stop offset="1" stop-color="#EFF4FB" stop-opacity="0"/>
</linearGradient>
<linearGradient id="paint8_linear_0_636" x1="8.68843" y1="1.06813" x2="-5.91593" y2="3.98861" gradientUnits="userSpaceOnUse">
<stop stop-color="#EFF4FB"/>
<stop offset="1" stop-color="#EFF4FB" stop-opacity="0"/>
</linearGradient>
<linearGradient id="paint9_linear_0_636" x1="89.1908" y1="129.068" x2="94.9153" y2="131.787" gradientUnits="userSpaceOnUse">
<stop stop-color="#EFF4FB"/>
<stop offset="1" stop-color="#EFF4FB" stop-opacity="0"/>
</linearGradient>
<linearGradient id="paint10_linear_0_636" x1="14.1222" y1="1.98863" x2="-9.83482" y2="6.17113" gradientUnits="userSpaceOnUse">
<stop stop-color="#EFF4FB"/>
<stop offset="1" stop-color="#EFF4FB" stop-opacity="0"/>
</linearGradient>
<linearGradient id="paint11_linear_0_636" x1="6.49761" y1="0.864092" x2="-4.48562" y2="2.89448" gradientUnits="userSpaceOnUse">
<stop stop-color="#EFF4FB"/>
<stop offset="1" stop-color="#EFF4FB" stop-opacity="0"/>
</linearGradient>
<linearGradient id="paint12_linear_0_636" x1="104.317" y1="135.239" x2="104.239" y2="142.149" gradientUnits="userSpaceOnUse">
<stop stop-color="#DFECFC" stop-opacity="0"/>
<stop offset="1" stop-color="#DFECFC"/>
</linearGradient>
<linearGradient id="paint13_linear_0_636" x1="110.473" y1="123.693" x2="110.473" y2="128.705" gradientUnits="userSpaceOnUse">
<stop stop-color="#B5C4DD"/>
<stop offset="1" stop-color="#93A6C8"/>
</linearGradient>
<linearGradient id="paint14_linear_0_636" x1="110.299" y1="108.327" x2="110.299" y2="122.414" gradientUnits="userSpaceOnUse">
<stop stop-color="#EAF2FD"/>
<stop offset="1" stop-color="#D2E1F4"/>
</linearGradient>
<linearGradient id="paint15_linear_0_636" x1="123.543" y1="116.941" x2="123.49" y2="121.596" gradientUnits="userSpaceOnUse">
<stop stop-color="#DFECFC" stop-opacity="0"/>
<stop offset="1" stop-color="#DFECFC"/>
</linearGradient>
<linearGradient id="paint16_linear_0_636" x1="127.689" y1="109.162" x2="127.689" y2="112.539" gradientUnits="userSpaceOnUse">
<stop stop-color="#B5C4DD"/>
<stop offset="1" stop-color="#93A6C8"/>
</linearGradient>
<linearGradient id="paint17_linear_0_636" x1="127.449" y1="98.7514" x2="127.449" y2="108.242" gradientUnits="userSpaceOnUse">
<stop stop-color="#EAF2FD"/>
<stop offset="1" stop-color="#D2E1F4"/>
</linearGradient>
<linearGradient id="paint18_linear_0_636" x1="230.841" y1="123.921" x2="230.782" y2="129.104" gradientUnits="userSpaceOnUse">
<stop stop-color="#DFECFC" stop-opacity="0"/>
<stop offset="1" stop-color="#DFECFC"/>
</linearGradient>
<linearGradient id="paint19_linear_0_636" x1="235.459" y1="115.261" x2="235.459" y2="119.02" gradientUnits="userSpaceOnUse">
<stop stop-color="#B5C4DD"/>
<stop offset="1" stop-color="#93A6C8"/>
</linearGradient>
<linearGradient id="paint20_linear_0_636" x1="234.976" y1="103.686" x2="234.976" y2="114.251" gradientUnits="userSpaceOnUse">
<stop stop-color="#EAF2FD"/>
<stop offset="1" stop-color="#D2E1F4"/>
</linearGradient>
<linearGradient id="paint21_linear_0_636" x1="197.841" y1="125.28" x2="122.602" y2="130.387" gradientUnits="userSpaceOnUse">
<stop stop-color="#BBD1F0"/>
<stop offset="1" stop-color="#E9F3FD" stop-opacity="0"/>
</linearGradient>
<linearGradient id="paint22_linear_0_636" x1="174.002" y1="48.4708" x2="174.002" y2="134.849" gradientUnits="userSpaceOnUse">
<stop offset="0.0228873" stop-color="white"/>
<stop offset="0.0719424" stop-color="#F2F6FB"/>
<stop offset="1" stop-color="#D4E0F1"/>
</linearGradient>
<linearGradient id="paint23_linear_0_636" x1="206.184" y1="27.1351" x2="206.033" y2="78.1701" gradientUnits="userSpaceOnUse">
<stop stop-color="#B1C4DF"/>
<stop offset="1" stop-color="#E7EFFA"/>
</linearGradient>
<linearGradient id="paint24_linear_0_636" x1="198.525" y1="127.249" x2="198.525" y2="104.272" gradientUnits="userSpaceOnUse">
<stop stop-color="#B1C4DF"/>
<stop offset="1" stop-color="#E7EFFA"/>
</linearGradient>
<linearGradient id="paint25_linear_0_636" x1="168.517" y1="130.532" x2="168.517" y2="113.573" gradientUnits="userSpaceOnUse">
<stop stop-color="#B1C4DF"/>
<stop offset="1" stop-color="#EFF6FF"/>
</linearGradient>
<linearGradient id="paint26_linear_0_636" x1="99.8899" y1="67.3715" x2="263.449" y2="67.294" gradientUnits="userSpaceOnUse">
<stop stop-color="#F1F7FF"/>
<stop offset="1" stop-color="#B1C4DF"/>
</linearGradient>
<linearGradient id="paint27_linear_0_636" x1="140.004" y1="61.6448" x2="221.915" y2="61.606" gradientUnits="userSpaceOnUse">
<stop stop-color="#F1F7FF"/>
<stop offset="1" stop-color="#B1C4DF"/>
</linearGradient>
<linearGradient id="paint28_linear_0_636" x1="-8.34377" y1="82.2081" x2="414.849" y2="80.9653" gradientUnits="userSpaceOnUse">
<stop stop-color="#F1F7FF"/>
<stop offset="1" stop-color="#ABBFDB"/>
</linearGradient>
<linearGradient id="paint29_linear_0_636" x1="44.177" y1="94.6657" x2="330.857" y2="94.0954" gradientUnits="userSpaceOnUse">
<stop stop-color="#F1F7FF"/>
<stop offset="1" stop-color="#ABBFDB"/>
</linearGradient>
<linearGradient id="paint30_linear_0_636" x1="216.26" y1="129.879" x2="216.882" y2="91.3502" gradientUnits="userSpaceOnUse">
<stop stop-color="#F8C882"/>
<stop offset="1" stop-color="#FFF8EE"/>
</linearGradient>
<linearGradient id="paint31_linear_0_636" x1="180.837" y1="106.884" x2="190.158" y2="126.77" gradientUnits="userSpaceOnUse">
<stop stop-color="#2165DD"/>
<stop offset="1" stop-color="#0E60ED"/>
</linearGradient>
<linearGradient id="paint32_linear_0_636" x1="201.345" y1="108.129" x2="202.588" y2="92.5931" gradientUnits="userSpaceOnUse">
<stop stop-color="#EBC082"/>
<stop offset="1" stop-color="#FFFBF7"/>
</linearGradient>
<linearGradient id="paint33_linear_0_636" x1="215.011" y1="133.607" x2="182.696" y2="88.8645" gradientUnits="userSpaceOnUse">
<stop stop-color="#FFE1B5"/>
<stop offset="1" stop-color="white"/>
</linearGradient>
<linearGradient id="paint34_linear_0_636" x1="178.974" y1="127.392" x2="177.503" y2="107.738" gradientUnits="userSpaceOnUse">
<stop stop-color="#347EFF"/>
<stop offset="1" stop-color="#88B3FF"/>
</linearGradient>
<linearGradient id="paint35_linear_0_636" x1="182.703" y1="121.178" x2="183.946" y2="124.285" gradientUnits="userSpaceOnUse">
<stop stop-color="#1B67ED"/>
<stop offset="1" stop-color="#79AAFF"/>
</linearGradient>
<linearGradient id="paint36_linear_0_636" x1="219.987" y1="84.5134" x2="215.598" y2="81.869" gradientUnits="userSpaceOnUse">
<stop stop-color="#FFCB1D"/>
<stop offset="1" stop-color="#FFDE92"/>
</linearGradient>
<linearGradient id="paint37_linear_0_636" x1="213.153" y1="85.1357" x2="230.564" y2="87.5948" gradientUnits="userSpaceOnUse">
<stop stop-color="#EDB700"/>
<stop offset="1" stop-color="#FFE5A9"/>
</linearGradient>
<linearGradient id="paint38_linear_0_636" x1="220.611" y1="89.4852" x2="223.075" y2="84.0073" gradientUnits="userSpaceOnUse">
<stop stop-color="#FEC918"/>
<stop offset="1" stop-color="#FFE794"/>
</linearGradient>
<linearGradient id="paint39_linear_0_636" x1="221.854" y1="96.3211" x2="218.606" y2="93.9685" gradientUnits="userSpaceOnUse">
<stop stop-color="#FFCC21"/>
<stop offset="1" stop-color="#FFF0BC"/>
</linearGradient>
<linearGradient id="paint40_linear_0_636" x1="211.911" y1="97.5639" x2="228.632" y2="93.0082" gradientUnits="userSpaceOnUse">
<stop stop-color="#E8B715"/>
<stop offset="1" stop-color="#FFF8E0"/>
</linearGradient>
<linearGradient id="paint41_linear_0_636" x1="219.989" y1="95.6992" x2="213.774" y2="78.9206" gradientUnits="userSpaceOnUse">
<stop stop-color="#FFE17B"/>
<stop offset="1" stop-color="#FFF0BC"/>
</linearGradient>
</defs>
</svg>
