<svg width="32" height="32" viewBox="0 0 32 32" fill="none" xmlns="http://www.w3.org/2000/svg">
<path fill-rule="evenodd" clip-rule="evenodd" d="M16 28C22.6274 28 28 22.6274 28 16C28 9.37258 22.6274 4 16 4C9.37258 4 4 9.37258 4 16C4 22.6274 9.37258 28 16 28ZM19.8685 12.7774C20.298 12.3478 20.9945 12.3478 21.4241 12.7774C21.8537 13.207 21.8537 13.9035 21.4241 14.333L15.8916 19.8655C15.7852 19.9719 15.6625 20.052 15.5315 20.1057C15.1242 20.2956 14.6246 20.2225 14.2884 19.8864L11.6046 17.2026C11.1751 16.773 11.1751 16.0765 11.6046 15.6469C12.0342 15.2174 12.7307 15.2174 13.1603 15.6469L15.0796 17.5663L19.8685 12.7774Z" fill="#30BF78"/>
</svg>
