<svg width="20" height="19" viewBox="0 0 20 19" fill="none" xmlns="http://www.w3.org/2000/svg">
<path fill-rule="evenodd" clip-rule="evenodd" d="M1 19C0.447715 19 0 18.5523 0 18L0 13C0 12.4477 0.447715 12 1 12H3C3.55228 12 4 12.4477 4 13V18C4 18.5523 3.55228 19 3 19H1ZM9 19C8.44771 19 8 18.5523 8 18V7C8 6.44772 8.44771 6 9 6H11C11.5523 6 12 6.44772 12 7V18C12 18.5523 11.5523 19 11 19H9ZM16 18C16 18.5523 16.4477 19 17 19H19C19.5523 19 20 18.5523 20 18V1C20 0.447716 19.5523 0 19 0H17C16.4477 0 16 0.447716 16 1V18Z" fill="#30BF78"/>
</svg>
