<svg width="200" height="200" viewBox="0 0 200 200" fill="none" xmlns="http://www.w3.org/2000/svg">
<rect width="200" height="200" fill="white"/>
<path fill-rule="evenodd" clip-rule="evenodd" d="M110.877 151.4C167.575 151.4 136.726 148.254 147.532 146.274C157.253 144.494 171.266 144.005 171.266 141.607C171.266 136.543 145.809 133.06 110.877 133.06C75.9466 133.06 47.6289 137.166 47.6289 142.23C47.6289 147.294 75.9466 151.4 110.877 151.4Z" fill="url(#paint0_linear_608_7676)"/>
<path fill-rule="evenodd" clip-rule="evenodd" d="M19.2775 74.2883C25.2488 73.3219 27.6659 72.5947 33.4961 66.9472C39.327 61.2997 45.2388 69.5388 54.0067 66.2307C62.7745 62.9231 63.5757 58.9174 76.9868 71.1863C83.1686 76.4005 88.0857 74.3363 91.1156 76.4005C93.1355 77.7767 95.0827 81.169 96.9572 86.5774H19.2775C13.0925 84.4139 10 82.6172 10 81.1873C10 79.0415 13.3056 75.2546 19.2775 74.2883Z" fill="url(#paint1_linear_608_7676)"/>
<path fill-rule="evenodd" clip-rule="evenodd" d="M112.242 82.8261C118.214 81.8598 120.631 81.1325 126.461 75.485C132.291 69.8376 138.204 78.0767 146.971 74.7685C155.739 71.461 156.541 67.4559 169.952 79.7241C176.133 84.9384 181.05 82.8742 184.08 84.9384C186.1 86.3145 188.048 89.7068 189.922 95.1152H112.242C106.057 92.9517 102.965 91.155 102.965 89.7252C102.965 87.5794 106.27 83.7925 112.242 82.8261Z" fill="url(#paint2_linear_608_7676)"/>
<path opacity="0.4" fill-rule="evenodd" clip-rule="evenodd" d="M52.0689 80.0371L102.178 70.2776C102.308 70.2521 102.442 70.2525 102.573 70.2789C102.703 70.3053 102.827 70.3572 102.937 70.4315C103.047 70.5058 103.142 70.6011 103.215 70.712C103.288 70.8229 103.339 70.9471 103.364 71.0776L114.977 130.936C115.027 131.2 114.972 131.473 114.822 131.695C114.672 131.917 114.44 132.071 114.177 132.123L64.0671 141.882C63.9367 141.907 63.8026 141.907 63.6724 141.88C63.5422 141.854 63.4185 141.802 63.3083 141.728C63.1981 141.654 63.1036 141.559 63.0303 141.448C62.9569 141.337 62.9061 141.213 62.8807 141.083L62.8813 141.082L51.2683 81.2235C51.2176 80.96 51.2734 80.6872 51.4235 80.4648C51.5735 80.2425 51.8056 80.0886 52.0689 80.0371Z" fill="url(#paint3_linear_608_7676)"/>
<path opacity="0.4" fill-rule="evenodd" clip-rule="evenodd" d="M161.341 82.27L112.033 69.0329C111.905 68.9983 111.771 68.9893 111.639 69.0066C111.507 69.0238 111.38 69.0669 111.265 69.1334C111.15 69.1998 111.049 69.2883 110.969 69.3938C110.888 69.4993 110.828 69.6197 110.794 69.7481L95.0421 128.649C94.8985 129.189 95.2192 129.744 95.758 129.889L145.066 143.127C145.194 143.161 145.328 143.17 145.46 143.153C145.592 143.136 145.719 143.093 145.834 143.027C145.949 142.96 146.05 142.872 146.131 142.767C146.212 142.661 146.271 142.541 146.306 142.413L146.305 142.411L162.057 83.5101C162.126 83.2508 162.089 82.9749 161.955 82.7426C161.821 82.5102 161.6 82.3404 161.341 82.27Z" fill="url(#paint4_linear_608_7676)"/>
<path d="M136.137 52.4448H75.2794C75.0111 52.4448 74.7537 52.5514 74.5639 52.7412C74.3742 52.931 74.2676 53.1883 74.2676 53.4567V137.773C74.2676 138.041 74.3742 138.299 74.5639 138.488C74.7537 138.678 75.0111 138.785 75.2794 138.785H136.137C136.405 138.785 136.663 138.678 136.852 138.488C137.042 138.299 137.149 138.041 137.149 137.773V53.4567C137.149 53.1883 137.042 52.931 136.852 52.7412C136.663 52.5514 136.405 52.4448 136.137 52.4448Z" fill="url(#paint5_linear_608_7676)"/>
<path d="M86.6255 67.4961H83.5413C83.2752 67.4961 83.0117 67.5485 82.7659 67.6503C82.5201 67.7522 82.2968 67.9014 82.1087 68.0896C81.9206 68.2778 81.7714 68.5012 81.6696 68.747C81.5679 68.9928 81.5155 69.2563 81.5156 69.5224V72.6199C81.5156 73.1572 81.729 73.6724 82.1089 74.0523C82.4888 74.4321 83.004 74.6456 83.5413 74.6456H86.6255C87.1628 74.6456 87.678 74.4321 88.0579 74.0523C88.4378 73.6724 88.6512 73.1572 88.6512 72.6199V69.5224C88.6513 69.2563 88.5989 68.9928 88.4972 68.747C88.3954 68.5012 88.2462 68.2778 88.0581 68.0896C87.87 67.9014 87.6467 67.7522 87.4009 67.6503C87.1551 67.5485 86.8916 67.4961 86.6255 67.4961Z" fill="white"/>
<path d="M129.178 67.4961H93.6212C93.5547 67.4961 93.4889 67.5092 93.4276 67.5346C93.3662 67.56 93.3104 67.5973 93.2634 67.6443C93.2164 67.6913 93.1792 67.747 93.1537 67.8084C93.1283 67.8698 93.1152 67.9356 93.1152 68.002V74.1396C93.1152 74.2061 93.1283 74.2719 93.1537 74.3332C93.1792 74.3946 93.2164 74.4504 93.2634 74.4974C93.3104 74.5444 93.3662 74.5816 93.4276 74.607C93.4889 74.6325 93.5547 74.6456 93.6212 74.6456H129.178C129.312 74.6456 129.441 74.5923 129.536 74.4974C129.631 74.4025 129.684 74.2738 129.684 74.1396V68.002C129.684 67.8678 129.631 67.7392 129.536 67.6443C129.441 67.5494 129.312 67.4961 129.178 67.4961Z" fill="url(#paint6_linear_608_7676)"/>
<path d="M86.6255 81.7944H83.5413C83.004 81.7944 82.4888 82.0078 82.1089 82.3877C81.729 82.7676 81.5156 83.2828 81.5156 83.8201V86.9176C81.5155 87.1837 81.5679 87.4472 81.6696 87.693C81.7714 87.9388 81.9206 88.1622 82.1087 88.3504C82.2968 88.5385 82.5201 88.6878 82.7659 88.7896C83.0117 88.8915 83.2752 88.9439 83.5413 88.9439H86.6255C86.8916 88.9439 87.1551 88.8915 87.4009 88.7896C87.6467 88.6878 87.87 88.5385 88.0581 88.3504C88.2462 88.1622 88.3954 87.9388 88.4972 87.693C88.5989 87.4472 88.6513 87.1837 88.6512 86.9176V83.8201C88.6512 83.2828 88.4378 82.7676 88.0579 82.3877C87.678 82.0078 87.1628 81.7944 86.6255 81.7944Z" fill="white"/>
<path d="M129.173 81.7944H93.6153C93.4811 81.7944 93.3524 81.8477 93.2576 81.9426C93.1627 82.0375 93.1094 82.1662 93.1094 82.3004V88.438C93.1094 88.7169 93.3364 88.9439 93.6153 88.9439H129.173C129.452 88.9439 129.679 88.7169 129.679 88.438V82.3004C129.679 82.1662 129.626 82.0375 129.531 81.9426C129.436 81.8477 129.307 81.7944 129.173 81.7944Z" fill="url(#paint7_linear_608_7676)"/>
<path d="M86.6255 95.9048H83.5413C83.2752 95.9048 83.0117 95.9572 82.7659 96.059C82.5201 96.1609 82.2968 96.3101 82.1087 96.4983C81.9206 96.6865 81.7714 96.9098 81.6696 97.1557C81.5679 97.4015 81.5155 97.665 81.5156 97.9311V101.029C81.5156 101.566 81.729 102.081 82.1089 102.461C82.4888 102.841 83.004 103.054 83.5413 103.054H86.6255C87.1628 103.054 87.678 102.841 88.0579 102.461C88.4378 102.081 88.6512 101.566 88.6512 101.029V97.9311C88.6513 97.665 88.5989 97.4015 88.4972 97.1557C88.3954 96.9098 88.2462 96.6865 88.0581 96.4983C87.87 96.3101 87.6467 96.1609 87.4009 96.059C87.1551 95.9572 86.8916 95.9048 86.6255 95.9048Z" fill="white"/>
<path d="M129.173 95.9048H93.6153C93.4811 95.9048 93.3524 95.9581 93.2576 96.053C93.1627 96.1478 93.1094 96.2765 93.1094 96.4107V102.548C93.1094 102.682 93.1627 102.811 93.2576 102.906C93.3524 103.001 93.4811 103.054 93.6153 103.054H129.173C129.307 103.054 129.436 103.001 129.531 102.906C129.626 102.811 129.679 102.682 129.679 102.548V96.4107C129.679 96.2765 129.626 96.1478 129.531 96.053C129.436 95.9581 129.307 95.9048 129.173 95.9048Z" fill="url(#paint8_linear_608_7676)"/>
<path d="M118.743 48H93.1173C92.849 48 92.5916 48.1066 92.4018 48.2964C92.2121 48.4861 92.1055 48.7435 92.1055 49.0119V56.3713C92.1055 56.6397 92.2121 56.897 92.4018 57.0868C92.5916 57.2765 92.849 57.3832 93.1173 57.3832H118.743C119.012 57.3832 119.269 57.2765 119.459 57.0868C119.649 56.897 119.755 56.6397 119.755 56.3713V49.0119C119.755 48.7435 119.649 48.4861 119.459 48.2964C119.269 48.1066 119.012 48 118.743 48Z" fill="url(#paint9_linear_608_7676)"/>
<path fill-rule="evenodd" clip-rule="evenodd" d="M49.7899 131.946H50.6803C50.8313 131.946 50.976 132.006 51.0828 132.113C51.1895 132.219 51.2495 132.364 51.2495 132.515V141.719C51.2495 141.793 51.2348 141.867 51.2062 141.936C51.1776 142.005 51.1356 142.068 51.0828 142.121C51.0299 142.174 50.9672 142.216 50.8981 142.244C50.8291 142.273 50.7551 142.288 50.6803 142.288H49.7899C49.7151 142.288 49.6411 142.273 49.5721 142.244C49.503 142.216 49.4403 142.174 49.3874 142.121C49.3346 142.068 49.2926 142.005 49.264 141.936C49.2354 141.867 49.2207 141.793 49.2207 141.719V132.515C49.2207 132.364 49.2807 132.219 49.3874 132.113C49.4942 132.006 49.6389 131.946 49.7899 131.946Z" fill="#F0F0F3" fill-opacity="0.9"/>
<path fill-rule="evenodd" clip-rule="evenodd" d="M48.1555 119.607C46.2722 123.471 39.7855 135.321 48.8739 136.648C57.963 137.975 57.5576 130.087 55.9633 127.264C54.3696 124.442 52.5698 122.861 52.5698 119.607C52.5698 116.353 50.0395 115.744 48.1555 119.607Z" fill="url(#paint10_linear_608_7676)"/>
<path fill-rule="evenodd" clip-rule="evenodd" d="M162.331 131.289H162.881C162.957 131.289 163.029 131.319 163.082 131.372C163.136 131.426 163.166 131.498 163.166 131.574V136.57C163.166 136.645 163.136 136.718 163.082 136.771C163.029 136.824 162.957 136.854 162.881 136.854H162.331C162.256 136.854 162.184 136.824 162.13 136.771C162.077 136.718 162.047 136.645 162.047 136.57V131.574C162.047 131.498 162.077 131.426 162.13 131.372C162.184 131.319 162.256 131.289 162.331 131.289Z" fill="#F0F0F3" fill-opacity="0.9"/>
<path fill-rule="evenodd" clip-rule="evenodd" d="M161.543 124.44C160.464 126.605 156.752 133.245 161.954 133.988C167.156 134.732 166.924 130.312 166.012 128.731C165.099 127.149 164.069 126.264 164.069 124.44C164.069 122.616 162.621 122.275 161.543 124.44Z" fill="url(#paint11_linear_608_7676)"/>
<path fill-rule="evenodd" clip-rule="evenodd" d="M160.298 86.5275C159.714 89.3112 159.989 90.9478 161.122 91.4382C162.605 92.0277 161.173 93.4046 160.873 93.5542C160.673 93.6541 160.85 93.9394 161.404 94.4101C162.342 94.8836 163.032 95.0719 163.472 94.9756C163.913 94.8792 164.451 94.4057 165.085 93.5542C163.903 92.7435 163.492 92.0934 163.851 91.6031C164.21 91.1135 164.755 90.602 165.487 90.07C166.198 89.5513 166.17 89.1558 165.405 88.8851C165.59 88.394 165.658 87.8336 165.61 87.2047L163.12 86.5275L160.586 86L160.298 86.5275Z" fill="url(#paint12_linear_608_7676)"/>
<path fill-rule="evenodd" clip-rule="evenodd" d="M161.89 86.696C164.397 86.006 165.063 87.066 165.063 87.514C165.063 87.8128 164.984 88.3077 164.826 89C165.047 88.9084 165.264 88.8077 165.477 88.6981C166.246 88.2782 166.755 87.5329 166.936 86.9525C167.275 85.8683 166.279 83.5681 163.698 83.9116C162.798 83.7466 162.655 82.4664 161.091 83.2541C159.527 84.0417 159 83.4364 159 84.2437C159 85.0511 159.065 87.5397 161.89 86.696Z" fill="#353564"/>
<path fill-rule="evenodd" clip-rule="evenodd" d="M156.595 142.123C155.285 142.819 154.371 143.166 153.851 143.166C153.07 143.166 152.649 143.766 153.374 144.09C154.1 144.414 156.423 143.947 157.019 143.947C157.614 143.947 159.146 144.132 158.559 142.666C158.168 141.689 157.808 141.273 157.48 141.419L156.595 141.625V142.123ZM165.584 142.054C164.679 143.133 163.99 143.738 163.518 143.871C162.811 144.068 162.672 144.819 163.461 144.983C164.25 145.147 166.168 144.056 166.708 143.905C167.247 143.754 168.711 143.564 167.585 142.139C166.834 141.188 166.339 140.833 166.102 141.072L165.382 141.518L165.584 142.054Z" fill="#3E3E6E"/>
<path fill-rule="evenodd" clip-rule="evenodd" d="M165 112C164.089 117.671 162.804 122.102 161.144 125.296C160.238 129.274 159.658 141.315 158.453 141.771C157.247 142.227 156.389 141.954 156.432 141.371C156.476 140.788 154.827 124.646 155.015 122.136C155.14 120.463 155.158 117.143 155.07 112.176L165 112Z" fill="#2F3235"/>
<path fill-rule="evenodd" clip-rule="evenodd" d="M168.974 111C169.1 116.518 168.775 122.442 168.001 128.772C167.276 136.661 168.839 141.031 167.735 141.629C166.631 142.227 165.769 142.052 165.738 141.46C165.706 140.869 162.343 124.9 162.207 122.353C162.116 120.655 161.713 117.312 161 112.326L168.974 111Z" fill="#2F3235"/>
<path fill-rule="evenodd" clip-rule="evenodd" d="M156.107 97.2652C154.583 100.418 153.653 102.41 153.317 103.24C153.161 103.585 151.145 104.442 147.271 105.812C145.972 105.917 145.23 106.274 145.043 106.882C144.938 107.273 144.985 107.942 145.646 107.997C146.087 108.034 146.715 107.727 147.531 107.076C151.859 107.22 154.433 106.553 155.253 105.076C156.073 103.598 157.322 101.311 159 98.2143L156.308 97L156.107 97.2652Z" fill="url(#paint13_linear_608_7676)"/>
<path fill-rule="evenodd" clip-rule="evenodd" d="M160.587 93.0467C161.863 94.436 163.035 94.436 164.104 93.0467C164.29 92.921 168.216 92.7247 170.999 97.2643C171.028 97.4361 170.247 98.3724 168.657 100.072H168.171C169.251 105.656 169.413 110.106 168.657 113.419C168.558 113.763 164.095 113.958 155.268 114C155.246 106.528 155.738 102.11 156.746 100.746C156.623 100.495 155.708 99.6754 154 98.2862C154.538 97.1245 155.347 96.0082 156.426 94.9365C157.505 93.8648 158.893 93.2349 160.587 93.0467Z" fill="#2F7CFF"/>
<path fill-rule="evenodd" clip-rule="evenodd" d="M168.079 99.214C168.153 99.8127 170.467 101.857 171.328 102.59C171.542 102.6 166.935 106.199 166.577 106.618C165.602 107.76 165.941 109 167.007 109C168.072 109 167.739 107.111 167.917 107.013C171.013 105.297 171.328 105.297 173.377 104.132C175.161 103.177 172.776 100.286 170.477 97.0987C168.178 93.9105 168.006 98.6154 168.079 99.214Z" fill="url(#paint14_linear_608_7676)"/>
<path fill-rule="evenodd" clip-rule="evenodd" d="M166.515 93C167.175 93.3377 167.634 93.5895 167.893 93.7564C168.569 94.1917 169.031 94.6206 169.329 94.8788C170.253 95.6793 170.718 96.501 170.985 97.1165C171.209 97.5432 168.838 101.403 166.515 100.965C166.198 100.952 165.693 100.156 165 98.5758L166.515 93Z" fill="#2F7CFF"/>
<path fill-rule="evenodd" clip-rule="evenodd" d="M39.702 86.5275C40.2862 89.3112 40.0115 90.9478 38.878 91.4382C37.395 92.0277 38.8266 93.4046 39.127 93.5542C39.3267 93.6541 39.1496 93.9394 38.5958 94.4101C37.6575 94.8836 36.9682 95.0719 36.5278 94.9756C36.0867 94.8792 35.5495 94.4057 34.9154 93.5542C36.0965 92.7435 36.5082 92.0934 36.1487 91.6031C35.7901 91.1135 35.2445 90.602 34.5128 90.07C33.8023 89.5513 33.8303 89.1558 34.5953 88.8851C34.4099 88.394 34.3418 87.8336 34.3895 87.2047L36.8797 86.5275L39.4145 86L39.702 86.5275Z" fill="url(#paint15_linear_608_7676)"/>
<path fill-rule="evenodd" clip-rule="evenodd" d="M38.1095 86.696C35.6027 86.006 34.9368 87.066 34.9368 87.514C34.9368 87.8128 35.0155 88.3077 35.1737 89C34.9526 88.9084 34.7355 88.8077 34.5229 88.6981C33.7541 88.2782 33.2449 87.5329 33.0641 86.9525C32.7251 85.8683 33.7208 83.5681 36.3018 83.9116C37.2023 83.7466 37.3445 82.4664 38.9086 83.2541C40.4726 84.0417 41 83.4364 41 84.2437C41 85.0511 40.9349 87.5397 38.1095 86.696Z" fill="#353564"/>
<path fill-rule="evenodd" clip-rule="evenodd" d="M43.4051 142.123C44.7148 142.819 45.6294 143.166 46.1495 143.166C46.9296 143.166 47.3511 143.766 46.6257 144.09C45.9004 144.414 43.5767 143.947 42.9814 143.947C42.3861 143.947 40.8543 144.132 41.4409 142.666C41.8324 141.689 42.1918 141.273 42.5198 141.419L43.4051 141.625V142.123ZM34.4159 142.054C35.321 143.133 36.0098 143.738 36.4817 143.871C37.1888 144.068 37.3283 144.819 36.5387 144.983C35.7498 145.147 33.8323 144.056 33.2925 143.905C32.7527 143.754 31.2888 143.564 32.4152 142.139C33.1661 141.188 33.6606 140.833 33.898 141.072L34.6175 141.518L34.4159 142.054Z" fill="#3E3E6E"/>
<path fill-rule="evenodd" clip-rule="evenodd" d="M35 112C35.9114 117.671 37.196 122.102 38.8555 125.296C39.7622 129.274 40.3424 141.315 41.5474 141.771C42.7532 142.227 43.6115 141.954 43.5677 141.371C43.524 140.788 45.1726 124.646 44.9851 122.136C44.8602 120.463 44.8422 117.143 44.9305 112.176L35 112Z" fill="#2F3235"/>
<path fill-rule="evenodd" clip-rule="evenodd" d="M31.0264 111C30.9005 116.518 31.2251 122.442 31.9994 128.772C32.7236 136.661 31.1614 141.031 32.2648 141.629C33.369 142.227 34.2305 142.052 34.2624 141.46C34.2943 140.869 37.6569 124.9 37.7934 122.353C37.8844 120.655 38.2871 117.312 39 112.326L31.0264 111Z" fill="#2F3235"/>
<path fill-rule="evenodd" clip-rule="evenodd" d="M43.8934 97.2652C45.4172 100.418 46.3468 102.41 46.6828 103.24C46.8392 103.585 48.8547 104.442 52.7286 105.812C54.0279 105.917 54.7703 106.274 54.9567 106.882C55.0622 107.273 55.0151 107.942 54.3542 107.997C53.9134 108.034 53.2847 107.727 52.4689 107.076C48.1415 107.22 45.5669 106.553 44.7474 105.076C43.9271 103.598 42.678 101.311 41 98.2143L43.6921 97L43.8934 97.2652Z" fill="url(#paint16_linear_608_7676)"/>
<path fill-rule="evenodd" clip-rule="evenodd" d="M39.413 93.0467C38.1374 94.436 36.9653 94.436 35.8958 93.0467C35.7102 92.921 31.7837 92.7247 29.0008 97.2643C28.9722 97.4361 29.7533 98.3724 31.3429 100.072H31.8292C30.7487 105.656 30.5866 110.106 31.3429 113.419C31.4419 113.763 35.9046 113.958 44.7317 114C44.7545 106.528 44.2616 102.11 43.2537 100.746C43.3769 100.495 44.2924 99.6754 46 98.2862C45.4623 97.1245 44.6533 96.0082 43.5735 94.9365C42.4945 93.8648 41.1074 93.2349 39.413 93.0467Z" fill="#2F7CFF"/>
<path fill-rule="evenodd" clip-rule="evenodd" d="M31.9209 99.214C31.8469 99.8127 29.5327 101.857 28.672 102.59C28.4579 102.6 33.0654 106.199 33.4225 106.618C34.3983 107.76 34.0587 109 32.9929 109C31.9279 109 32.2612 107.111 32.0834 107.013C28.9866 105.297 28.672 105.297 26.6228 104.132C24.8394 103.177 27.2241 100.286 29.5229 97.0987C31.8218 93.9105 31.9941 98.6154 31.9209 99.214Z" fill="url(#paint17_linear_608_7676)"/>
<path fill-rule="evenodd" clip-rule="evenodd" d="M33.4846 93C32.8254 93.3377 32.3664 93.5895 32.1074 93.7564C31.4315 94.1917 30.9688 94.6206 30.6712 94.8788C29.7473 95.6793 29.2816 96.501 29.0146 97.1165C28.7913 97.5432 31.1623 101.403 33.4846 100.965C33.8018 100.952 34.3067 100.156 35 98.5758L33.4846 93Z" fill="#2F7CFF"/>
<path fill-rule="evenodd" clip-rule="evenodd" d="M160.298 86.5275C159.714 89.3112 159.989 90.9478 161.122 91.4382C162.605 92.0277 161.173 93.4046 160.873 93.5542C160.673 93.6541 160.85 93.9394 161.404 94.4101C162.342 94.8836 163.032 95.0719 163.472 94.9756C163.913 94.8792 164.451 94.4057 165.085 93.5542C163.903 92.7435 163.492 92.0934 163.851 91.6031C164.21 91.1135 164.755 90.602 165.487 90.07C166.198 89.5513 166.17 89.1558 165.405 88.8851C165.59 88.394 165.658 87.8336 165.61 87.2047L163.12 86.5275L160.586 86L160.298 86.5275Z" fill="url(#paint18_linear_608_7676)"/>
<path fill-rule="evenodd" clip-rule="evenodd" d="M161.89 86.696C164.397 86.006 165.063 87.066 165.063 87.514C165.063 87.8128 164.984 88.3077 164.826 89C165.047 88.9084 165.264 88.8077 165.477 88.6981C166.246 88.2782 166.755 87.5329 166.936 86.9525C167.275 85.8683 166.279 83.5681 163.698 83.9116C162.798 83.7466 162.655 82.4664 161.091 83.2541C159.527 84.0417 159 83.4364 159 84.2437C159 85.0511 159.065 87.5397 161.89 86.696Z" fill="#353564"/>
<path fill-rule="evenodd" clip-rule="evenodd" d="M156.595 142.123C155.285 142.819 154.371 143.166 153.851 143.166C153.07 143.166 152.649 143.766 153.374 144.09C154.1 144.414 156.423 143.947 157.019 143.947C157.614 143.947 159.146 144.132 158.559 142.666C158.168 141.689 157.808 141.273 157.48 141.419L156.595 141.625V142.123ZM165.584 142.054C164.679 143.133 163.99 143.738 163.518 143.871C162.811 144.068 162.672 144.819 163.461 144.983C164.25 145.147 166.168 144.056 166.708 143.905C167.247 143.754 168.711 143.564 167.585 142.139C166.834 141.188 166.339 140.833 166.102 141.072L165.382 141.518L165.584 142.054Z" fill="#3E3E6E"/>
<path fill-rule="evenodd" clip-rule="evenodd" d="M165 112C164.089 117.671 162.804 122.102 161.144 125.296C160.238 129.274 159.658 141.315 158.453 141.771C157.247 142.227 156.389 141.954 156.432 141.371C156.476 140.788 154.827 124.646 155.015 122.136C155.14 120.463 155.158 117.143 155.07 112.176L165 112Z" fill="#2F3235"/>
<path fill-rule="evenodd" clip-rule="evenodd" d="M168.974 111C169.1 116.518 168.775 122.442 168.001 128.772C167.276 136.661 168.839 141.031 167.735 141.629C166.631 142.227 165.769 142.052 165.738 141.46C165.706 140.869 162.343 124.9 162.207 122.353C162.116 120.655 161.713 117.312 161 112.326L168.974 111Z" fill="#2F3235"/>
<path fill-rule="evenodd" clip-rule="evenodd" d="M156.107 97.2652C154.583 100.418 153.653 102.41 153.317 103.24C153.161 103.585 151.145 104.442 147.271 105.812C145.972 105.917 145.23 106.274 145.043 106.882C144.938 107.273 144.985 107.942 145.646 107.997C146.087 108.034 146.715 107.727 147.531 107.076C151.859 107.22 154.433 106.553 155.253 105.076C156.073 103.598 157.322 101.311 159 98.2143L156.308 97L156.107 97.2652Z" fill="url(#paint19_linear_608_7676)"/>
<path fill-rule="evenodd" clip-rule="evenodd" d="M160.587 93.0467C161.863 94.436 163.035 94.436 164.104 93.0467C164.29 92.921 168.216 92.7247 170.999 97.2643C171.028 97.4361 170.247 98.3724 168.657 100.072H168.171C169.251 105.656 169.413 110.106 168.657 113.419C168.558 113.763 164.095 113.958 155.268 114C155.246 106.528 155.738 102.11 156.746 100.746C156.623 100.495 155.708 99.6754 154 98.2862C154.538 97.1245 155.347 96.0082 156.426 94.9365C157.505 93.8648 158.893 93.2349 160.587 93.0467Z" fill="#2F7CFF"/>
<path fill-rule="evenodd" clip-rule="evenodd" d="M168.079 99.214C168.153 99.8127 170.467 101.857 171.328 102.59C171.542 102.6 166.935 106.199 166.577 106.618C165.602 107.76 165.941 109 167.007 109C168.072 109 167.739 107.111 167.917 107.013C171.013 105.297 171.328 105.297 173.377 104.132C175.161 103.177 172.776 100.286 170.477 97.0987C168.178 93.9105 168.006 98.6154 168.079 99.214Z" fill="url(#paint20_linear_608_7676)"/>
<path fill-rule="evenodd" clip-rule="evenodd" d="M166.515 93C167.175 93.3377 167.634 93.5895 167.893 93.7564C168.569 94.1917 169.031 94.6206 169.329 94.8788C170.253 95.6793 170.718 96.501 170.985 97.1165C171.209 97.5432 168.838 101.403 166.515 100.965C166.198 100.952 165.693 100.156 165 98.5758L166.515 93Z" fill="#2F7CFF"/>
<path fill-rule="evenodd" clip-rule="evenodd" d="M39.702 86.5275C40.2862 89.3112 40.0115 90.9478 38.878 91.4382C37.395 92.0277 38.8266 93.4046 39.127 93.5542C39.3267 93.6541 39.1496 93.9394 38.5958 94.4101C37.6575 94.8836 36.9682 95.0719 36.5278 94.9756C36.0867 94.8792 35.5495 94.4057 34.9154 93.5542C36.0965 92.7435 36.5082 92.0934 36.1487 91.6031C35.7901 91.1135 35.2445 90.602 34.5128 90.07C33.8023 89.5513 33.8303 89.1558 34.5953 88.8851C34.4099 88.394 34.3418 87.8336 34.3895 87.2047L36.8797 86.5275L39.4145 86L39.702 86.5275Z" fill="url(#paint21_linear_608_7676)"/>
<path fill-rule="evenodd" clip-rule="evenodd" d="M38.1095 86.696C35.6027 86.006 34.9368 87.066 34.9368 87.514C34.9368 87.8128 35.0155 88.3077 35.1737 89C34.9526 88.9084 34.7355 88.8077 34.5229 88.6981C33.7541 88.2782 33.2449 87.5329 33.0641 86.9525C32.7251 85.8683 33.7208 83.5681 36.3018 83.9116C37.2023 83.7466 37.3445 82.4664 38.9086 83.2541C40.4726 84.0417 41 83.4364 41 84.2437C41 85.0511 40.9349 87.5397 38.1095 86.696Z" fill="#353564"/>
<path fill-rule="evenodd" clip-rule="evenodd" d="M43.4051 142.123C44.7148 142.819 45.6294 143.166 46.1495 143.166C46.9296 143.166 47.3511 143.766 46.6257 144.09C45.9004 144.414 43.5767 143.947 42.9814 143.947C42.3861 143.947 40.8543 144.132 41.4409 142.666C41.8324 141.689 42.1918 141.273 42.5198 141.419L43.4051 141.625V142.123ZM34.4159 142.054C35.321 143.133 36.0098 143.738 36.4817 143.871C37.1888 144.068 37.3283 144.819 36.5387 144.983C35.7498 145.147 33.8323 144.056 33.2925 143.905C32.7527 143.754 31.2888 143.564 32.4152 142.139C33.1661 141.188 33.6606 140.833 33.898 141.072L34.6175 141.518L34.4159 142.054Z" fill="#3E3E6E"/>
<path fill-rule="evenodd" clip-rule="evenodd" d="M35 112C35.9114 117.671 37.196 122.102 38.8555 125.296C39.7622 129.274 40.3424 141.315 41.5474 141.771C42.7532 142.227 43.6115 141.954 43.5677 141.371C43.524 140.788 45.1726 124.646 44.9851 122.136C44.8602 120.463 44.8422 117.143 44.9305 112.176L35 112Z" fill="#2F3235"/>
<path fill-rule="evenodd" clip-rule="evenodd" d="M31.0264 111C30.9005 116.518 31.2251 122.442 31.9994 128.772C32.7236 136.661 31.1614 141.031 32.2648 141.629C33.369 142.227 34.2305 142.052 34.2624 141.46C34.2943 140.869 37.6569 124.9 37.7934 122.353C37.8844 120.655 38.2871 117.312 39 112.326L31.0264 111Z" fill="#2F3235"/>
<path fill-rule="evenodd" clip-rule="evenodd" d="M43.8934 97.2652C45.4172 100.418 46.3468 102.41 46.6828 103.24C46.8392 103.585 48.8547 104.442 52.7286 105.812C54.0279 105.917 54.7703 106.274 54.9567 106.882C55.0622 107.273 55.0151 107.942 54.3542 107.997C53.9134 108.034 53.2847 107.727 52.4689 107.076C48.1415 107.22 45.5669 106.553 44.7474 105.076C43.9271 103.598 42.678 101.311 41 98.2143L43.6921 97L43.8934 97.2652Z" fill="url(#paint22_linear_608_7676)"/>
<path fill-rule="evenodd" clip-rule="evenodd" d="M39.413 93.0467C38.1374 94.436 36.9653 94.436 35.8958 93.0467C35.7102 92.921 31.7837 92.7247 29.0008 97.2643C28.9722 97.4361 29.7533 98.3724 31.3429 100.072H31.8292C30.7487 105.656 30.5866 110.106 31.3429 113.419C31.4419 113.763 35.9046 113.958 44.7317 114C44.7545 106.528 44.2616 102.11 43.2537 100.746C43.3769 100.495 44.2924 99.6754 46 98.2862C45.4623 97.1245 44.6533 96.0082 43.5735 94.9365C42.4945 93.8648 41.1074 93.2349 39.413 93.0467Z" fill="#2F7CFF"/>
<path fill-rule="evenodd" clip-rule="evenodd" d="M31.9209 99.214C31.8469 99.8127 29.5327 101.857 28.672 102.59C28.4579 102.6 33.0654 106.199 33.4225 106.618C34.3983 107.76 34.0587 109 32.9929 109C31.9279 109 32.2612 107.111 32.0834 107.013C28.9866 105.297 28.672 105.297 26.6228 104.132C24.8394 103.177 27.2241 100.286 29.5229 97.0987C31.8218 93.9105 31.9941 98.6154 31.9209 99.214Z" fill="url(#paint23_linear_608_7676)"/>
<path fill-rule="evenodd" clip-rule="evenodd" d="M33.4846 93C32.8254 93.3377 32.3664 93.5895 32.1074 93.7564C31.4315 94.1917 30.9688 94.6206 30.6712 94.8788C29.7473 95.6793 29.2816 96.501 29.0146 97.1165C28.7913 97.5432 31.1623 101.403 33.4846 100.965C33.8018 100.952 34.3067 100.156 35 98.5758L33.4846 93Z" fill="#2F7CFF"/>
<defs>
<linearGradient id="paint0_linear_608_7676" x1="69.2139" y1="142.182" x2="153.607" y2="149.1" gradientUnits="userSpaceOnUse">
<stop stop-color="#EDEDF2"/>
<stop offset="1" stop-color="#F9F9FC" stop-opacity="0.88"/>
</linearGradient>
<linearGradient id="paint1_linear_608_7676" x1="53.4786" y1="65.0961" x2="53.4786" y2="86.5774" gradientUnits="userSpaceOnUse">
<stop stop-color="#F6F6F7"/>
<stop offset="1" stop-color="#FCFCFF" stop-opacity="0.07"/>
</linearGradient>
<linearGradient id="paint2_linear_608_7676" x1="172.161" y1="82.5694" x2="169.201" y2="88.2794" gradientUnits="userSpaceOnUse">
<stop stop-color="#F6F6F7"/>
<stop offset="1" stop-color="#FCFCFF" stop-opacity="0.07"/>
</linearGradient>
<linearGradient id="paint3_linear_608_7676" x1="85.6325" y1="83.3952" x2="70.4419" y2="147.141" gradientUnits="userSpaceOnUse">
<stop stop-color="#F4F4F9"/>
<stop offset="1" stop-color="#E2E3E9"/>
</linearGradient>
<linearGradient id="paint4_linear_608_7676" x1="127.625" y1="83.2736" x2="138.337" y2="147.93" gradientUnits="userSpaceOnUse">
<stop stop-color="#F4F4F9"/>
<stop offset="1" stop-color="#E2E2E9"/>
</linearGradient>
<linearGradient id="paint5_linear_608_7676" x1="111.717" y1="65.7616" x2="80.0947" y2="146.4" gradientUnits="userSpaceOnUse">
<stop stop-color="#F4F4F9"/>
<stop offset="0.982" stop-color="#E3E3EA"/>
<stop offset="1" stop-color="#E2E2E9"/>
</linearGradient>
<linearGradient id="paint6_linear_608_7676" x1="111.4" y1="67.4961" x2="111.4" y2="74.6456" gradientUnits="userSpaceOnUse">
<stop stop-color="#FCFCFF"/>
<stop offset="1" stop-color="#FAFAFC"/>
</linearGradient>
<linearGradient id="paint7_linear_608_7676" x1="111.394" y1="81.7944" x2="111.394" y2="88.9439" gradientUnits="userSpaceOnUse">
<stop stop-color="#FCFCFF"/>
<stop offset="1" stop-color="#FAFAFC"/>
</linearGradient>
<linearGradient id="paint8_linear_608_7676" x1="111.394" y1="95.9048" x2="111.394" y2="103.054" gradientUnits="userSpaceOnUse">
<stop stop-color="#FCFCFF"/>
<stop offset="1" stop-color="#FAFAFC"/>
</linearGradient>
<linearGradient id="paint9_linear_608_7676" x1="105.931" y1="57.3832" x2="105.931" y2="48" gradientUnits="userSpaceOnUse">
<stop stop-color="#EBEBEF"/>
<stop offset="1" stop-color="#DFDFE5"/>
</linearGradient>
<linearGradient id="paint10_linear_608_7676" x1="50.5037" y1="116.933" x2="50.5037" y2="136.797" gradientUnits="userSpaceOnUse">
<stop stop-color="#EBEBEE"/>
<stop offset="1" stop-color="#FCFCFD"/>
</linearGradient>
<linearGradient id="paint11_linear_608_7676" x1="162.887" y1="122.941" x2="162.887" y2="134.072" gradientUnits="userSpaceOnUse">
<stop stop-color="#EBEBEE"/>
<stop offset="1" stop-color="#FCFCFD"/>
</linearGradient>
<linearGradient id="paint12_linear_608_7676" x1="161.184" y1="87.452" x2="165.663" y2="92.5713" gradientUnits="userSpaceOnUse">
<stop stop-color="#FFD2C4"/>
<stop offset="1" stop-color="#FFB8A3"/>
</linearGradient>
<linearGradient id="paint13_linear_608_7676" x1="152" y1="99.3995" x2="153.834" y2="104.77" gradientUnits="userSpaceOnUse">
<stop stop-color="#FFD2C4"/>
<stop offset="1" stop-color="#FFB8A3"/>
</linearGradient>
<linearGradient id="paint14_linear_608_7676" x1="170" y1="97.1451" x2="171.588" y2="105.675" gradientUnits="userSpaceOnUse">
<stop stop-color="#FFD2C4"/>
<stop offset="1" stop-color="#FFB8A3"/>
</linearGradient>
<linearGradient id="paint15_linear_608_7676" x1="38.816" y1="87.452" x2="34.3371" y2="92.5713" gradientUnits="userSpaceOnUse">
<stop stop-color="#FFD2C4"/>
<stop offset="1" stop-color="#FFB8A3"/>
</linearGradient>
<linearGradient id="paint16_linear_608_7676" x1="48" y1="99.3995" x2="46.1655" y2="104.77" gradientUnits="userSpaceOnUse">
<stop stop-color="#FFD2C4"/>
<stop offset="1" stop-color="#FFB8A3"/>
</linearGradient>
<linearGradient id="paint17_linear_608_7676" x1="30" y1="97.1451" x2="28.4116" y2="105.675" gradientUnits="userSpaceOnUse">
<stop stop-color="#FFD2C4"/>
<stop offset="1" stop-color="#FFB8A3"/>
</linearGradient>
<linearGradient id="paint18_linear_608_7676" x1="161.184" y1="87.452" x2="165.663" y2="92.5713" gradientUnits="userSpaceOnUse">
<stop stop-color="#FFD2C4"/>
<stop offset="1" stop-color="#FFB8A3"/>
</linearGradient>
<linearGradient id="paint19_linear_608_7676" x1="152" y1="99.3995" x2="153.834" y2="104.77" gradientUnits="userSpaceOnUse">
<stop stop-color="#FFD2C4"/>
<stop offset="1" stop-color="#FFB8A3"/>
</linearGradient>
<linearGradient id="paint20_linear_608_7676" x1="170" y1="97.1451" x2="171.588" y2="105.675" gradientUnits="userSpaceOnUse">
<stop stop-color="#FFD2C4"/>
<stop offset="1" stop-color="#FFB8A3"/>
</linearGradient>
<linearGradient id="paint21_linear_608_7676" x1="38.816" y1="87.452" x2="34.3371" y2="92.5713" gradientUnits="userSpaceOnUse">
<stop stop-color="#FFD2C4"/>
<stop offset="1" stop-color="#FFB8A3"/>
</linearGradient>
<linearGradient id="paint22_linear_608_7676" x1="48" y1="99.3995" x2="46.1655" y2="104.77" gradientUnits="userSpaceOnUse">
<stop stop-color="#FFD2C4"/>
<stop offset="1" stop-color="#FFB8A3"/>
</linearGradient>
<linearGradient id="paint23_linear_608_7676" x1="30" y1="97.1451" x2="28.4116" y2="105.675" gradientUnits="userSpaceOnUse">
<stop stop-color="#FFD2C4"/>
<stop offset="1" stop-color="#FFB8A3"/>
</linearGradient>
</defs>
</svg>
