<svg width="20" height="20" viewBox="0 0 20 20" fill="none" xmlns="http://www.w3.org/2000/svg">
<path fill-rule="evenodd" clip-rule="evenodd" d="M3.2 15.1334V4.20007L16.8 4.2V15.1333L3.2 15.1334ZM2 4.00007C2 3.44779 2.44771 3.00008 2.99999 3.00007L17 3C17.5523 3 18 3.44771 18 4V15.3333C18 15.8856 17.5523 16.3333 17 16.3333L3.00001 16.3334C2.44772 16.3334 2 15.8857 2 15.3334V4.00007ZM5.59871 8.00002C5.26733 8.00001 4.9987 8.26864 4.9987 8.60002C4.9987 8.93138 5.26732 9.20001 5.59869 9.20002L7.39869 9.20005C7.73006 9.20005 7.9987 8.93142 7.9987 8.60005C7.9987 8.26868 7.73007 8.00005 7.39871 8.00005L5.59871 8.00002ZM4.99978 12.2667C4.99978 11.9354 5.26841 11.6667 5.59978 11.6667H6.39978C6.73115 11.6667 6.99978 11.9354 6.99978 12.2667C6.99978 12.5981 6.73115 12.8667 6.39978 12.8667H5.59978C5.26841 12.8667 4.99978 12.5981 4.99978 12.2667ZM11.4502 8.80018C11.8642 8.80018 12.1997 8.4646 12.1997 8.05064C12.1997 7.63668 11.8642 7.30109 11.4502 7.30109C11.0362 7.30109 10.7006 7.63668 10.7006 8.05064C10.7006 8.4646 11.0362 8.80018 11.4502 8.80018ZM11.4502 10.0002C12.5269 10.0002 13.3997 9.12734 13.3997 8.05064C13.3997 6.97394 12.5269 6.10109 11.4502 6.10109C10.3735 6.10109 9.50065 6.97394 9.50065 8.05064C9.50065 9.12734 10.3735 10.0002 11.4502 10.0002ZM7.90693 13.4108C8.15927 11.6804 9.64304 10.3973 11.3917 10.3973H11.6096C13.3583 10.3973 14.842 11.6804 15.0944 13.4108C15.1422 13.7387 14.9151 14.0432 14.5872 14.0911C14.2593 14.1389 13.9547 13.9118 13.9069 13.5839C13.7406 12.4432 12.7624 11.5973 11.6096 11.5973H11.3917C10.2389 11.5973 9.26072 12.4432 9.09437 13.5839C9.04655 13.9118 8.74197 14.1389 8.41406 14.0911C8.08616 14.0432 7.85911 13.7387 7.90693 13.4108Z" fill="#2373FF"/>
</svg>
