<svg width="500" height="40" viewBox="0 0 500 40" fill="none" xmlns="http://www.w3.org/2000/svg">
<rect x="0.5" y="0.5" width="499" height="39" rx="3.5" fill="white" stroke="#E9EAEE"/>
<circle cx="14.5" cy="20.5" r="2.5" fill="#25305A"/>
<circle cx="21.5" cy="20.5" r="2.5" fill="#25305A"/>
<circle cx="28.5" cy="20.5" r="2.5" fill="#25305A"/>
<circle cx="35.5" cy="20.5" r="2.5" fill="#25305A"/>
<circle cx="42.5" cy="20.5" r="2.5" fill="#25305A"/>
<circle cx="49.5" cy="20.5" r="2.5" fill="#25305A"/>
<path d="M478.883 16.6578C478.778 16.5613 478.641 16.5123 478.502 16.5217C478.362 16.531 478.232 16.598 478.139 16.7077C477.23 17.7892 476.288 18.6084 475.34 19.1423C474.415 19.6641 473.455 19.9286 472.489 19.9286C471.523 19.9286 470.566 19.6641 469.644 19.1429C468.7 18.609 467.764 17.7903 466.862 16.7094C466.77 16.5992 466.64 16.5317 466.5 16.5218C466.361 16.5118 466.223 16.5602 466.118 16.6563C466.012 16.7524 465.948 16.8884 465.938 17.0342C465.929 17.1801 465.975 17.3239 466.067 17.4341C466.721 18.2175 467.396 18.8777 468.085 19.4077L467.234 20.297C467.137 20.4006 467.082 20.5404 467.083 20.6858C467.084 20.8312 467.139 20.9705 467.237 21.0733C467.336 21.1762 467.469 21.2342 467.608 21.2348C467.747 21.2354 467.881 21.1785 467.98 21.0765L468.988 20.023C469.039 20.0537 469.091 20.0835 469.142 20.1125C469.598 20.3725 470.079 20.5822 470.577 20.7381L470.079 22.4471C470.059 22.5163 470.052 22.5891 470.059 22.6611C470.065 22.7332 470.086 22.8032 470.118 22.8671C470.151 22.931 470.195 22.9875 470.248 23.0335C470.302 23.0795 470.364 23.1141 470.43 23.1352C470.496 23.1563 470.566 23.1636 470.635 23.1566C470.704 23.1496 470.77 23.1285 470.832 23.0944C470.893 23.0604 470.947 23.0141 470.991 22.9582C471.035 22.9023 471.068 22.8379 471.088 22.7686L471.612 20.9702C471.903 21.0109 472.195 21.0314 472.488 21.0315C472.781 21.0314 473.075 21.0109 473.366 20.9702L473.889 22.7686C473.91 22.8379 473.943 22.9023 473.987 22.9582C474.031 23.0141 474.085 23.0604 474.146 23.0944C474.207 23.1285 474.274 23.1496 474.343 23.1566C474.412 23.1636 474.481 23.1563 474.548 23.1352C474.614 23.1141 474.676 23.0795 474.729 23.0335C474.783 22.9875 474.827 22.931 474.859 22.8671C474.892 22.8032 474.912 22.7332 474.919 22.6611C474.926 22.5891 474.919 22.5163 474.898 22.4471L474.4 20.7381C474.9 20.5822 475.382 20.3727 475.84 20.1129C475.888 20.0858 475.936 20.0578 475.984 20.0293L476.986 21.0765C477.085 21.1785 477.219 21.2354 477.358 21.2348C477.497 21.2342 477.63 21.1762 477.729 21.0733C477.827 20.9705 477.883 20.8312 477.883 20.6858C477.884 20.5404 477.829 20.4006 477.732 20.297L476.89 19.4167C477.586 18.8855 478.269 18.2228 478.931 17.4358C478.977 17.3815 479.012 17.3182 479.034 17.2497C479.056 17.1812 479.066 17.1088 479.061 17.0366C479.057 16.9643 479.039 16.8937 479.008 16.8287C478.978 16.7637 478.935 16.7056 478.883 16.6578Z" fill="#A1A3A4"/>
</svg>
