<svg width="16" height="16" viewBox="0 0 16 16" fill="none" xmlns="http://www.w3.org/2000/svg">
<path d="M4.16406 4.00065C4.16406 3.9086 4.23868 3.83398 4.33073 3.83398H11.6641C11.7561 3.83398 11.8307 3.9086 11.8307 4.00065V13.334C11.8307 13.426 11.7561 13.5007 11.6641 13.5007H4.33073C4.23868 13.5007 4.16406 13.426 4.16406 13.334V4.00065Z" stroke="#C2C5D1" stroke-linejoin="round"/>
<path d="M6.66406 6.66602V10.666" stroke="#C2C5D1" stroke-linecap="round" stroke-linejoin="round"/>
<path d="M9.33594 6.66602V10.666" stroke="#C2C5D1" stroke-linecap="round" stroke-linejoin="round"/>
<path d="M2.33594 3.66602L13.6693 3.66602" stroke="#C2C5D1" stroke-linecap="round" stroke-linejoin="round"/>
<path d="M5 4L6.03805 2.31673C6.15945 2.11987 6.37421 2 6.60549 2H9.41534C9.64876 2 9.86519 2.12209 9.98592 2.32187L11 4" stroke="#C2C5D1" stroke-linejoin="round"/>
</svg>
