<svg width="28" height="28" viewBox="0 0 28 28" fill="none" xmlns="http://www.w3.org/2000/svg">
<path fill-rule="evenodd" clip-rule="evenodd" d="M14 24.5C19.799 24.5 24.5 19.799 24.5 14C24.5 8.20101 19.799 3.5 14 3.5C8.20101 3.5 3.5 8.20101 3.5 14C3.5 19.799 8.20101 24.5 14 24.5ZM12.0002 9.40078C12.0002 8.8485 12.448 8.40078 13.0002 8.40078C13.5525 8.40078 14.0002 8.8485 14.0002 9.40078V14.9024L18.295 16.0532C18.8285 16.1962 19.1451 16.7445 19.0022 17.278C18.8592 17.8114 18.3109 18.128 17.7774 17.9851L12.9478 16.691C12.7728 16.6441 12.6212 16.5536 12.5015 16.4344C12.2019 16.2617 12.0002 15.9381 12.0002 15.5675V9.40078Z" fill="#A8ACBD"/>
</svg>
