<svg width="336" height="240" viewBox="0 0 336 240" fill="none" xmlns="http://www.w3.org/2000/svg">
<circle cx="168" cy="96" r="96" fill="url(#paint0_linear_2684_25412)"/>
<path fill-rule="evenodd" clip-rule="evenodd" d="M135.135 40.7585C134.523 40.8938 133.889 40.9648 133.24 40.9648C132.877 40.9648 132.518 40.9426 132.165 40.8992C130.488 43.7351 127.023 45.6821 123.02 45.6821C117.375 45.6821 112.799 41.8101 112.799 37.0338C112.799 32.2575 117.375 28.3855 123.02 28.3855C123.367 28.3855 123.71 28.4002 124.049 28.4288C125.017 23.8994 128.765 20.5234 133.24 20.5234C136.998 20.5234 140.242 22.9033 141.76 26.3477C143.238 25.6362 144.878 25.2402 146.605 25.2402C153.118 25.2402 158.398 30.8722 158.398 37.8195C158.398 44.7669 153.118 50.3989 146.605 50.3989C141.041 50.3989 136.376 46.2882 135.135 40.7585Z" fill="url(#paint1_linear_2684_25412)"/>
<path fill-rule="evenodd" clip-rule="evenodd" d="M223.796 39.3132C224.043 39.3682 224.3 39.397 224.562 39.397C224.708 39.397 224.852 39.3881 224.994 39.3708C225.67 40.5137 227.067 41.2983 228.68 41.2983C230.955 41.2983 232.799 39.7377 232.799 37.8126C232.799 35.8875 230.955 34.327 228.68 34.327C228.541 34.327 228.403 34.3328 228.267 34.3443C227.877 32.5188 226.366 31.1582 224.562 31.1582C223.048 31.1582 221.74 32.1178 221.128 33.5066C220.532 33.219 219.87 33.059 219.173 33.059C216.548 33.059 214.42 35.3289 214.42 38.129C214.42 40.9292 216.548 43.1991 219.173 43.1991C221.416 43.1991 223.296 41.5421 223.796 39.3132Z" fill="url(#paint2_linear_2684_25412)"/>
<path fill-rule="evenodd" clip-rule="evenodd" d="M199.796 51.3132C200.043 51.3682 200.3 51.397 200.562 51.397C200.708 51.397 200.852 51.3881 200.994 51.3708C201.67 52.5137 203.067 53.2983 204.68 53.2983C206.955 53.2983 208.799 51.7377 208.799 49.8126C208.799 47.8875 206.955 46.327 204.68 46.327C204.541 46.327 204.403 46.3328 204.267 46.3443C203.877 44.5188 202.366 43.1582 200.562 43.1582C199.048 43.1582 197.74 44.1178 197.128 45.5066C196.532 45.219 195.87 45.059 195.173 45.059C192.548 45.059 190.42 47.3289 190.42 50.129C190.42 52.9292 192.548 55.1991 195.173 55.1991C197.416 55.1991 199.296 53.5421 199.796 51.3132Z" fill="url(#paint3_linear_2684_25412)"/>
<path fill-rule="evenodd" clip-rule="evenodd" d="M287.4 239.137C317.446 224.719 336 204.889 336 182.999C336 138.927 260.784 103.199 168 103.199C75.2162 103.199 0 138.927 0 182.999C0 204.718 18.2663 224.41 47.8998 238.799H287.4V239.137Z" fill="url(#paint4_linear_2684_25412)" fill-opacity="0.5"/>
<ellipse rx="10.4246" ry="6.16082" transform="matrix(0.837102 0.547047 0.725984 -0.687712 220.8 137.14)" fill="#DEE7F4"/>
<ellipse rx="9.23517" ry="4.91307" transform="matrix(0.837102 0.547047 0.725984 -0.687712 220.586 138.4)" fill="url(#paint5_linear_2684_25412)"/>
<ellipse cx="235.337" cy="120.657" rx="4.16733" ry="2.72442" transform="rotate(25.5736 235.337 120.657)" fill="#DEE7F4"/>
<ellipse rx="5.8976" ry="4.35423" transform="matrix(0.996972 -0.077764 0.0609016 0.998144 186.145 141.606)" fill="#DEE7F4"/>
<ellipse cx="234.914" cy="121.041" rx="3.72609" ry="2.17264" transform="rotate(25.5736 234.914 121.041)" fill="url(#paint6_linear_2684_25412)"/>
<ellipse rx="4.96871" ry="3.7498" transform="matrix(0.996972 -0.077764 0.0609016 0.998144 186.767 142.101)" fill="url(#paint7_linear_2684_25412)"/>
<ellipse cx="87.4351" cy="124.698" rx="3.46321" ry="2.11924" transform="rotate(-14.0951 87.4351 124.698)" fill="#DEE7F4"/>
<ellipse cx="87.7535" cy="125.042" rx="3.06807" ry="1.69003" transform="rotate(-14.0951 87.7535 125.042)" fill="url(#paint8_linear_2684_25412)"/>
<ellipse rx="9.58596" ry="8.10663" transform="matrix(0.996022 -0.0891128 0.0531186 0.998588 153.979 145.85)" fill="#DEE7F4"/>
<ellipse rx="8.07614" ry="6.9813" transform="matrix(0.996022 -0.0891128 0.0531186 0.998588 154.989 146.773)" fill="url(#paint9_linear_2684_25412)"/>
<ellipse rx="4.4105" ry="3.52246" transform="matrix(0.999659 0.0261254 -0.0379393 0.99928 105.859 143.965)" fill="#DEE7F4"/>
<ellipse rx="3.71583" ry="3.03349" transform="matrix(0.999659 0.0261254 -0.0379393 0.99928 106.285 144.415)" fill="url(#paint10_linear_2684_25412)"/>
<defs>
<linearGradient id="paint0_linear_2684_25412" x1="168" y1="-19.8" x2="168" y2="165" gradientUnits="userSpaceOnUse">
<stop stop-color="#E5F0FC"/>
<stop offset="1" stop-color="white" stop-opacity="0"/>
</linearGradient>
<linearGradient id="paint1_linear_2684_25412" x1="130.095" y1="17.3787" x2="135.92" y2="49.7757" gradientUnits="userSpaceOnUse">
<stop stop-color="white"/>
<stop offset="1" stop-color="white" stop-opacity="0"/>
</linearGradient>
<linearGradient id="paint2_linear_2684_25412" x1="225.828" y1="29.8907" x2="223.48" y2="42.948" gradientUnits="userSpaceOnUse">
<stop stop-color="white"/>
<stop offset="1" stop-color="white" stop-opacity="0"/>
</linearGradient>
<linearGradient id="paint3_linear_2684_25412" x1="201.828" y1="41.8907" x2="199.48" y2="54.948" gradientUnits="userSpaceOnUse">
<stop stop-color="white"/>
<stop offset="1" stop-color="white" stop-opacity="0"/>
</linearGradient>
<linearGradient id="paint4_linear_2684_25412" x1="168" y1="118.199" x2="167.509" y2="163.794" gradientUnits="userSpaceOnUse">
<stop stop-color="#EBF2F9"/>
<stop offset="1" stop-color="white" stop-opacity="0"/>
</linearGradient>
<linearGradient id="paint5_linear_2684_25412" x1="0.952057" y1="7.23672" x2="21.2501" y2="-0.465987" gradientUnits="userSpaceOnUse">
<stop stop-color="#EFF4FB"/>
<stop offset="1" stop-color="#EFF4FB" stop-opacity="0"/>
</linearGradient>
<linearGradient id="paint6_linear_2684_25412" x1="237.494" y1="119.467" x2="232.416" y2="123.327" gradientUnits="userSpaceOnUse">
<stop stop-color="#EFF4FB"/>
<stop offset="1" stop-color="#EFF4FB" stop-opacity="0"/>
</linearGradient>
<linearGradient id="paint7_linear_2684_25412" x1="8.40816" y1="1.03368" x2="-5.7251" y2="3.85995" gradientUnits="userSpaceOnUse">
<stop stop-color="#EFF4FB"/>
<stop offset="1" stop-color="#EFF4FB" stop-opacity="0"/>
</linearGradient>
<linearGradient id="paint8_linear_2684_25412" x1="85.9199" y1="124.333" x2="91.447" y2="126.958" gradientUnits="userSpaceOnUse">
<stop stop-color="#EFF4FB"/>
<stop offset="1" stop-color="#EFF4FB" stop-opacity="0"/>
</linearGradient>
<linearGradient id="paint9_linear_2684_25412" x1="13.6666" y1="1.92448" x2="-9.51757" y2="5.97206" gradientUnits="userSpaceOnUse">
<stop stop-color="#EFF4FB"/>
<stop offset="1" stop-color="#EFF4FB" stop-opacity="0"/>
</linearGradient>
<linearGradient id="paint10_linear_2684_25412" x1="6.28801" y1="0.836219" x2="-4.34092" y2="2.80111" gradientUnits="userSpaceOnUse">
<stop stop-color="#EFF4FB"/>
<stop offset="1" stop-color="#EFF4FB" stop-opacity="0"/>
</linearGradient>
</defs>
</svg>
