<svg width="20" height="20" viewBox="0 0 20 20" fill="none" xmlns="http://www.w3.org/2000/svg">
<rect width="20" height="20" fill="white"/>
<mask id="path-2-inside-1_0_821" fill="white">
<path fill-rule="evenodd" clip-rule="evenodd" d="M15 3H5L1 10V17H5V14H15V17H19V10L15 3Z"/>
</mask>
<path d="M5 3V2H4.41968L4.13176 2.50386L5 3ZM15 3L15.8682 2.50386L15.5803 2H15V3ZM1 10L0.131757 9.50386L0 9.73444V10H1ZM1 17H0V18H1V17ZM5 17V18H6V17H5ZM5 14V13H4V14H5ZM15 14H16V13H15V14ZM15 17H14V18H15V17ZM19 17V18H20V17H19ZM19 10H20V9.73444L19.8682 9.50386L19 10ZM5 4H15V2H5V4ZM1.86824 10.4961L5.86824 3.49614L4.13176 2.50386L0.131757 9.50386L1.86824 10.4961ZM0 10V17H2V10H0ZM1 18H5V16H1V18ZM6 17V14H4V17H6ZM5 15H15V13H5V15ZM14 14V17H16V14H14ZM15 18H19V16H15V18ZM20 17V10H18V17H20ZM14.1318 3.49614L18.1318 10.4961L19.8682 9.50386L15.8682 2.50386L14.1318 3.49614Z" fill="#25305A" mask="url(#path-2-inside-1_0_821)"/>
<rect x="3" y="7" width="14" height="1" fill="#25305A"/>
<rect x="5" y="10" width="3" height="1" fill="#25305A"/>
<rect x="12" y="10" width="3" height="1" fill="#25305A"/>
</svg>
