<svg width="20" height="20" viewBox="0 0 20 20" fill="none" xmlns="http://www.w3.org/2000/svg">
<path fill-rule="evenodd" clip-rule="evenodd" d="M2.95 14.634V4.53398H17.05V14.634H2.95ZM1.75 4.33398C1.75 3.7817 2.19772 3.33398 2.75 3.33398H17.25C17.8023 3.33398 18.25 3.7817 18.25 4.33398V14.834C18.25 15.3863 17.8023 15.834 17.25 15.834H2.75C2.19772 15.834 1.75 15.3863 1.75 14.834V4.33398ZM4.89096 9.9859L4.89318 9.98813L6.99093 12.0859C7.22524 12.3202 7.60514 12.3202 7.83945 12.0859C8.07377 11.8516 8.07377 11.4717 7.83945 11.2374L6.15614 9.55404L7.82956 7.88061C8.06388 7.6463 8.06388 7.2664 7.82956 7.03209C7.59525 6.79777 7.21535 6.79777 6.98104 7.03209L4.88329 9.12984C4.64897 9.36415 4.64897 9.74405 4.88329 9.97836L4.89096 9.9859ZM15.2646 9.43361C15.3294 9.64003 15.28 9.87456 15.1165 10.0381L13.0187 12.1359C12.7844 12.3702 12.4045 12.3702 12.1702 12.1359C11.9359 11.9016 11.9359 11.5217 12.1702 11.2874L13.8658 9.59178L12.1548 7.88082C11.9205 7.6465 11.9205 7.2666 12.1548 7.03229C12.3891 6.79798 12.769 6.79798 13.0033 7.03229L15.1011 9.13004C15.1874 9.21633 15.2419 9.32237 15.2646 9.43361Z" fill="#2373FF"/>
</svg>
