<svg width="148" height="104" viewBox="0 0 148 104" fill="none" xmlns="http://www.w3.org/2000/svg">
<path d="M101.23 62.9904C48.6066 75.8356 23.9073 103.598 4.68424 103.598C-14.5388 103.598 31.6177 64.9087 31.6177 62.9092C31.6177 60.9097 47.6154 57.1893 66.8384 57.1893C86.0615 57.1893 101.23 60.9909 101.23 62.9904Z" fill="url(#paint0_linear_2997_25871)"/>
<path fill-rule="evenodd" clip-rule="evenodd" d="M73.7472 0C71.0011 0 68.7749 2.22619 68.7749 4.97234V76.5741H118.498V65.635L122.475 60.1666V17.9003H126.454V17.4032V0H73.7472Z" fill="url(#paint1_linear_2997_25871)"/>
<path d="M122.472 3.97788C122.472 1.78096 124.253 0 126.45 0C128.646 0 130.427 1.78096 130.427 3.97788V17.9005H122.472V3.97788Z" fill="url(#paint2_linear_2997_25871)"/>
<path d="M115.51 73.0946C115.51 75.0169 117.068 76.5752 118.991 76.5752C120.913 76.5752 122.471 75.0169 122.471 73.0946V55.6914L115.51 54.6969V73.0946Z" fill="url(#paint3_linear_2997_25871)"/>
<path fill-rule="evenodd" clip-rule="evenodd" d="M118.931 76.4976C117.038 76.4641 115.513 74.9188 115.513 73.0175V54.6966H63.8012V71.2626C63.8012 74.1965 66.1796 76.5749 69.1136 76.5749H118.665C118.763 76.5749 118.854 76.5465 118.931 76.4976Z" fill="url(#paint4_linear_2997_25871)"/>
<rect x="75.7365" y="10.9393" width="24.8617" height="5.96682" rx="2.9664" fill="url(#paint5_linear_2997_25871)"/>
<rect x="75.7365" y="22.8726" width="36.7954" height="5.96682" rx="2.9664" fill="url(#paint6_linear_2997_25871)"/>
<rect x="75.7365" y="37.7897" width="36.7954" height="5.96682" rx="2.9664" fill="url(#paint7_linear_2997_25871)"/>
<g filter="url(#filter0_f_2997_25871)">
<path fill-rule="evenodd" clip-rule="evenodd" d="M120.68 25.4736C126.743 31.3999 128.212 40.2536 125.036 47.5972C124.06 49.8558 124.227 52.585 125.987 54.3051L126.995 55.2899C128.114 56.3839 129.749 56.7328 131.222 57.2625C131.872 57.4966 132.484 57.8708 133.011 58.3857L142.256 67.4225C144.22 69.3421 144.256 72.4902 142.336 74.454C140.417 76.4178 137.269 76.4537 135.305 74.5341L126.06 65.4973C125.534 64.983 125.146 64.3806 124.897 63.7364C124.334 62.2788 123.947 60.6551 122.83 59.5628L121.815 58.5708C120.056 56.851 117.324 56.7452 115.088 57.7725C107.82 61.1127 98.9366 59.8454 92.8747 53.92C85.0195 46.2417 84.876 33.6493 92.5543 25.794C100.233 17.9387 112.825 17.7953 120.68 25.4736ZM116.367 48.3785C121.166 43.469 121.077 35.5987 116.167 30.7997C111.257 26.0008 103.387 26.0904 98.5882 31C93.7893 35.9095 93.8789 43.7798 98.7885 48.5787C103.698 53.3777 111.568 53.288 116.367 48.3785Z" fill="#B1C4DF" fill-opacity="0.5"/>
</g>
<path fill-rule="evenodd" clip-rule="evenodd" d="M123.994 48.1252C129.656 40.2757 128.88 29.2558 121.749 22.2855C113.894 14.6072 101.301 14.7506 93.6229 22.6059C85.9446 30.4612 86.0881 43.0536 93.9433 50.7319C101.073 57.7007 112.104 58.2265 119.822 52.3915L127.092 59.4971L131.263 55.2301L123.994 48.1252ZM117.236 27.6107C122.145 32.4096 122.235 40.2799 117.436 45.1894C112.637 50.099 104.767 50.1886 99.857 45.3897C94.9475 40.5907 94.8579 32.7204 99.6568 27.8109C104.456 22.9014 112.326 22.8117 117.236 27.6107Z" fill="url(#paint8_linear_2997_25871)"/>
<path fill-rule="evenodd" clip-rule="evenodd" d="M124.38 46.7018C130.041 38.8523 129.264 27.8332 122.134 20.8633C114.279 13.185 101.686 13.3285 94.0079 21.1837C86.3296 29.039 86.4731 41.6314 94.3283 49.3098C101.458 56.2789 112.49 56.8044 120.209 50.9684L127.479 58.0749L131.65 53.808L124.38 46.7018ZM117.621 26.1895C122.53 30.9884 122.62 38.8587 117.821 43.7682C113.022 48.6778 105.152 48.7674 100.242 43.9685C95.3325 39.1695 95.2429 31.2992 100.042 26.3897C104.841 21.4802 112.711 21.3905 117.621 26.1895Z" fill="url(#paint9_linear_2997_25871)"/>
<rect x="123.564" y="58.8354" width="9.94469" height="22.8728" rx="4.944" transform="rotate(-45.6526 123.564 58.8354)" fill="url(#paint10_linear_2997_25871)"/>
<rect x="123.957" y="57.4133" width="9.94469" height="22.8728" rx="4.944" transform="rotate(-45.6526 123.957 57.4133)" fill="url(#paint11_linear_2997_25871)"/>
<circle cx="108.928" cy="35.081" r="12.4309" transform="rotate(-45.6526 108.928 35.081)" fill="url(#paint12_radial_2997_25871)"/>
<defs>
<filter id="filter0_f_2997_25871" x="82.6361" y="15.5584" width="65.363" height="64.6421" filterUnits="userSpaceOnUse" color-interpolation-filters="sRGB">
<feFlood flood-opacity="0" result="BackgroundImageFix"/>
<feBlend mode="normal" in="SourceGraphic" in2="BackgroundImageFix" result="shape"/>
<feGaussianBlur stdDeviation="2.11282" result="effect1_foregroundBlur_2997_25871"/>
</filter>
<linearGradient id="paint0_linear_2997_25871" x1="98.7445" y1="62.1617" x2="37.8606" y2="66.2944" gradientUnits="userSpaceOnUse">
<stop stop-color="#BBD1F0"/>
<stop offset="1" stop-color="#E9F3FD" stop-opacity="0"/>
</linearGradient>
<linearGradient id="paint1_linear_2997_25871" x1="95.3487" y1="0" x2="95.3487" y2="83.8782" gradientUnits="userSpaceOnUse">
<stop offset="0.0228873" stop-color="white"/>
<stop offset="0.0719424" stop-color="#F2F6FB"/>
<stop offset="1" stop-color="#D4E0F1"/>
</linearGradient>
<linearGradient id="paint2_linear_2997_25871" x1="126.596" y1="-20.7181" x2="126.45" y2="28.8396" gradientUnits="userSpaceOnUse">
<stop stop-color="#B1C4DF"/>
<stop offset="1" stop-color="#E7EFFA"/>
</linearGradient>
<linearGradient id="paint3_linear_2997_25871" x1="119.158" y1="76.4987" x2="119.158" y2="54.1869" gradientUnits="userSpaceOnUse">
<stop stop-color="#B1C4DF"/>
<stop offset="1" stop-color="#E7EFFA"/>
</linearGradient>
<linearGradient id="paint4_linear_2997_25871" x1="90.0206" y1="79.6858" x2="90.0206" y2="63.2176" gradientUnits="userSpaceOnUse">
<stop stop-color="#B1C4DF"/>
<stop offset="1" stop-color="#EFF6FF"/>
</linearGradient>
<linearGradient id="paint5_linear_2997_25871" x1="88.6016" y1="11.002" x2="88.6016" y2="19.455" gradientUnits="userSpaceOnUse">
<stop stop-color="#B1C4DF"/>
<stop offset="1" stop-color="#E7EFFA"/>
</linearGradient>
<linearGradient id="paint6_linear_2997_25871" x1="94.5684" y1="23.0037" x2="94.5684" y2="31.4567" gradientUnits="userSpaceOnUse">
<stop stop-color="#B1C4DF"/>
<stop offset="1" stop-color="#E7EFFA"/>
</linearGradient>
<linearGradient id="paint7_linear_2997_25871" x1="94.5684" y1="38.0063" x2="94.5684" y2="46.4593" gradientUnits="userSpaceOnUse">
<stop stop-color="#B1C4DF"/>
<stop offset="1" stop-color="#E7EFFA"/>
</linearGradient>
<linearGradient id="paint8_linear_2997_25871" x1="93.6229" y1="22.6059" x2="150.908" y2="78.6008" gradientUnits="userSpaceOnUse">
<stop stop-color="#B1C4DF"/>
<stop offset="1" stop-color="#E7EFFA"/>
</linearGradient>
<linearGradient id="paint9_linear_2997_25871" x1="88.1629" y1="13.4247" x2="97.6206" y2="48.9972" gradientUnits="userSpaceOnUse">
<stop stop-color="white"/>
<stop offset="1" stop-color="#E5F0FC"/>
</linearGradient>
<linearGradient id="paint10_linear_2997_25871" x1="123.505" y1="68.8285" x2="135.087" y2="70.7185" gradientUnits="userSpaceOnUse">
<stop stop-color="#B1C4DF"/>
<stop offset="1" stop-color="#E7EFFA"/>
</linearGradient>
<linearGradient id="paint11_linear_2997_25871" x1="124.369" y1="67.7783" x2="140.186" y2="68.3101" gradientUnits="userSpaceOnUse">
<stop stop-color="#B1C4DF"/>
<stop offset="1" stop-color="#E7EFFA"/>
</linearGradient>
<radialGradient id="paint12_radial_2997_25871" cx="0" cy="0" r="1" gradientUnits="userSpaceOnUse" gradientTransform="translate(106.667 28.3845) rotate(74.1483) scale(19.8022 9.79331)">
<stop stop-color="white"/>
<stop offset="1" stop-color="white" stop-opacity="0"/>
</radialGradient>
</defs>
</svg>
