<svg width="115" height="123" viewBox="0 0 115 123" fill="none" xmlns="http://www.w3.org/2000/svg">
<path d="M112.285 89.106C87.1591 92.6119 46.8408 106.366 18.7932 122.997C-9.28273 122.997 2.41829 117.687 2.41829 116.351C2.41829 115.015 31.641 82.9479 59.717 82.9479C87.7929 82.9479 112.285 87.7703 112.285 89.106Z" fill="url(#paint0_linear_0_749)"/>
<path d="M69.0644 53.2434V87.3994L92.9814 89.4849C93.5947 78.6124 89.9151 58.9385 81.9428 51.1725C75.0335 44.4419 69.2688 49.1015 69.0644 53.2434Z" fill="url(#paint1_linear_0_749)"/>
<path d="M73.7557 52.9887V85.3132L94.0888 89.4841C94.6102 78.5355 91.482 58.7237 84.7043 50.9032C78.8303 44.1255 73.9294 48.8178 73.7557 52.9887Z" fill="url(#paint2_linear_0_749)"/>
<path fill-rule="evenodd" clip-rule="evenodd" d="M48.6947 64.1691C65.0486 75.3149 87.4548 71.8474 99.6248 55.9365C111.795 40.0257 109.276 17.4931 94.2373 4.62743L48.6947 64.1691Z" fill="url(#paint3_linear_0_749)"/>
<ellipse cx="71.4697" cy="34.3969" rx="37.5381" ry="10.4273" transform="rotate(-52.5882 71.4697 34.3969)" fill="url(#paint4_linear_0_749)"/>
<ellipse cx="70.7376" cy="34.4946" rx="35.974" ry="9.9059" transform="rotate(-52.5882 70.7376 34.4946)" fill="url(#paint5_linear_0_749)"/>
<rect x="60.8982" y="27.6224" width="2.08545" height="21.8972" transform="rotate(-52.5882 60.8982 27.6224)" fill="url(#paint6_linear_0_749)"/>
<path fill-rule="evenodd" clip-rule="evenodd" d="M49.7249 17.7174C51.2995 15.6588 53.7151 14.6224 56.1219 14.7217C56.6586 14.7438 57.0314 15.2331 56.9835 15.7681C56.929 16.3761 56.3565 16.7947 55.7461 16.801C54.0926 16.8182 52.4638 17.5692 51.3813 18.9844C50.4338 20.2232 50.0871 21.7328 50.2945 23.1632C50.3704 23.6861 50.1483 24.2305 49.6732 24.4616C49.1055 24.7377 48.4169 24.4606 48.2953 23.8411C47.8875 21.7648 48.3383 19.5302 49.7249 17.7174Z" fill="url(#paint7_radial_0_749)"/>
<path fill-rule="evenodd" clip-rule="evenodd" d="M44.64 13.8594C47.5789 10.0172 52.1752 8.1898 56.6605 8.61288C57.1996 8.66373 57.5749 9.15359 57.5267 9.69293C57.4724 10.2992 56.9091 10.7238 56.3024 10.6752C52.5601 10.3753 48.747 11.9227 46.2965 15.1264C43.8762 18.2906 43.3633 22.3145 44.5737 25.8173C44.7581 26.351 44.5432 26.9553 44.0355 27.2022C43.5065 27.4595 42.8654 27.2307 42.6656 26.6775C41.155 22.4947 41.7375 17.6542 44.64 13.8594Z" fill="url(#paint8_radial_0_749)"/>
<path fill-rule="evenodd" clip-rule="evenodd" d="M52.1693 4.13843C52.2972 4.72471 51.9018 5.29441 51.3157 5.42277C43.5753 7.11777 37.7813 14.0136 37.7813 22.2626C37.7813 24.4764 38.1986 26.5927 38.9588 28.5371C39.1657 29.0665 38.9506 29.6772 38.4395 29.9259C37.9142 30.1813 37.2788 29.9572 37.0626 29.4147C36.1808 27.2026 35.6959 24.7892 35.6959 22.2626C35.6959 12.9706 42.2542 5.21032 50.9945 3.35822C51.5336 3.24399 52.0519 3.60007 52.1693 4.13843Z" fill="url(#paint9_radial_0_749)"/>
<path fill-rule="evenodd" clip-rule="evenodd" d="M57.7197 0.0854395C57.3525 -0.107145 56.8986 0.0344341 56.7061 0.401664L55.6603 2.39574L53.6663 1.35002C53.299 1.15744 52.8452 1.29902 52.6526 1.66625C52.4601 2.03348 52.6016 2.48729 52.9689 2.67988L54.9629 3.7256L53.9164 5.72109C53.7238 6.08832 53.8654 6.54214 54.2327 6.73472C54.5999 6.92731 55.0537 6.78573 55.2463 6.4185L56.2928 4.42301L58.2883 5.46951C58.6555 5.6621 59.1093 5.52052 59.3019 5.15329C59.4945 4.78606 59.3529 4.33224 58.9857 4.13965L56.9902 3.09315L58.0359 1.09907C58.2285 0.731842 58.0869 0.278023 57.7197 0.0854395Z" fill="url(#paint10_radial_0_749)"/>
<circle cx="58.2196" cy="24.2614" r="5.21363" transform="rotate(-52.5882 58.2196 24.2614)" fill="url(#paint11_linear_0_749)"/>
<path fill-rule="evenodd" clip-rule="evenodd" d="M99.3014 50.9046H96.1733L96.1625 50.91C92.5374 50.7626 90.0499 53.677 89.9169 56.3722V58.7251V90.5282L113.834 92.6137C114.447 81.7412 110.768 62.0673 102.795 54.3013C101.508 53.0477 100.261 52.1893 99.0825 51.649L99.3014 50.9046Z" fill="url(#paint12_linear_0_749)"/>
<path d="M69.0644 80.1003H81.8378H94.6112V92.613C94.6112 92.613 87.8335 90.0062 81.5771 88.9635C75.3208 87.9207 69.0644 87.3994 69.0644 87.3994V80.1003Z" fill="url(#paint13_linear_0_749)"/>
<path d="M94.6077 56.1175V92.6129H114.941C115.462 81.6643 112.549 61.6607 105.556 54.0321C99.8213 47.7758 94.7815 51.9466 94.6077 56.1175Z" fill="url(#paint14_linear_0_749)"/>
<ellipse cx="101.91" cy="58.2024" rx="3.64954" ry="4.1709" fill="url(#paint15_linear_0_749)"/>
<ellipse cx="101.389" cy="58.7233" rx="3.12818" ry="3.64954" fill="url(#paint16_linear_0_749)"/>
<defs>
<linearGradient id="paint0_linear_0_749" x1="100.287" y1="93.3942" x2="54.5486" y2="82.3956" gradientUnits="userSpaceOnUse">
<stop stop-color="#BBD1F0"/>
<stop offset="1" stop-color="#E9F3FD" stop-opacity="0"/>
</linearGradient>
<linearGradient id="paint1_linear_0_749" x1="95.1326" y1="74.3653" x2="59.0138" y2="94.8193" gradientUnits="userSpaceOnUse">
<stop stop-color="#B1C4DF"/>
<stop offset="1" stop-color="#E7EFFA"/>
</linearGradient>
<linearGradient id="paint2_linear_0_749" x1="71.9673" y1="93.1966" x2="109.096" y2="94.213" gradientUnits="userSpaceOnUse">
<stop stop-color="#B1C4DF"/>
<stop offset="1" stop-color="#E7EFFA"/>
</linearGradient>
<linearGradient id="paint3_linear_0_749" x1="80.7272" y1="73.3303" x2="123.515" y2="15.6332" gradientUnits="userSpaceOnUse">
<stop stop-color="#B1C4DF"/>
<stop offset="1" stop-color="white"/>
<stop offset="1" stop-color="white"/>
</linearGradient>
<linearGradient id="paint4_linear_0_749" x1="34.1651" y1="27.9062" x2="41.329" y2="54.8423" gradientUnits="userSpaceOnUse">
<stop stop-color="#BCD2F1"/>
<stop offset="1" stop-color="#EFF7FF"/>
</linearGradient>
<linearGradient id="paint5_linear_0_749" x1="17.148" y1="46.4848" x2="107.194" y2="40.1401" gradientUnits="userSpaceOnUse">
<stop stop-color="white"/>
<stop offset="1" stop-color="#E5F0FC"/>
</linearGradient>
<linearGradient id="paint6_linear_0_749" x1="61.7108" y1="55.0459" x2="70.675" y2="52.543" gradientUnits="userSpaceOnUse">
<stop offset="0.0476601" stop-color="#B1C4DF"/>
<stop offset="1" stop-color="#ECF2FB"/>
</linearGradient>
<radialGradient id="paint7_radial_0_749" cx="0" cy="0" r="1" gradientUnits="userSpaceOnUse" gradientTransform="translate(54.9805 21.5029) rotate(-135) scale(6.83495 7.37713)">
<stop offset="0.0476601" stop-color="#B1C4DF"/>
<stop offset="1" stop-color="#ECF2FB"/>
</radialGradient>
<radialGradient id="paint8_radial_0_749" cx="0" cy="0" r="1" gradientUnits="userSpaceOnUse" gradientTransform="translate(53.1421 20.4236) rotate(-134.051) scale(11.366 13.7587)">
<stop offset="0.0476601" stop-color="#B1C4DF"/>
<stop offset="1" stop-color="#ECF2FB"/>
</radialGradient>
<radialGradient id="paint9_radial_0_749" cx="0" cy="0" r="1" gradientUnits="userSpaceOnUse" gradientTransform="translate(50.2879 21.1919) rotate(-134.707) scale(15.7576 17.6476)">
<stop offset="0.0476601" stop-color="#B1C4DF"/>
<stop offset="1" stop-color="#ECF2FB"/>
</radialGradient>
<radialGradient id="paint10_radial_0_749" cx="0" cy="0" r="1" gradientUnits="userSpaceOnUse" gradientTransform="translate(55.5792 3.37948) rotate(-149.04) scale(3.52272 3.2767)">
<stop offset="0.0476601" stop-color="#C8D9F1"/>
<stop offset="1" stop-color="#ECF2FB"/>
</radialGradient>
<linearGradient id="paint11_linear_0_749" x1="58.3561" y1="36.4595" x2="59.7656" y2="19.4089" gradientUnits="userSpaceOnUse">
<stop offset="0.0476601" stop-color="#B1C4DF"/>
<stop offset="1" stop-color="#ECF2FB"/>
</linearGradient>
<linearGradient id="paint12_linear_0_749" x1="93.0451" y1="80.6223" x2="98.7801" y2="25.3578" gradientUnits="userSpaceOnUse">
<stop stop-color="#B1C3DF"/>
<stop offset="1" stop-color="#E7EFFA"/>
</linearGradient>
<linearGradient id="paint13_linear_0_749" x1="94.0898" y1="89.4847" x2="75.2231" y2="102.301" gradientUnits="userSpaceOnUse">
<stop stop-color="#B1C4DF"/>
<stop offset="1" stop-color="#E7EFFA"/>
</linearGradient>
<linearGradient id="paint14_linear_0_749" x1="210.449" y1="8.47048" x2="84.8319" y2="67.4767" gradientUnits="userSpaceOnUse">
<stop offset="0.0476601" stop-color="#B1C4DF"/>
<stop offset="1" stop-color="#ECF2FB"/>
</linearGradient>
<linearGradient id="paint15_linear_0_749" x1="110.928" y1="42.9334" x2="99.9796" y2="66.9161" gradientUnits="userSpaceOnUse">
<stop stop-color="#A6BFE5"/>
<stop offset="1" stop-color="#ECF4FE"/>
</linearGradient>
<linearGradient id="paint16_linear_0_749" x1="95.8087" y1="74.2219" x2="105.193" y2="53.8887" gradientUnits="userSpaceOnUse">
<stop stop-color="#A6BFE5"/>
<stop offset="1" stop-color="#ECF4FE"/>
</linearGradient>
</defs>
</svg>
