<svg width="20" height="20" viewBox="0 0 20 20" fill="none" xmlns="http://www.w3.org/2000/svg">
<path fill-rule="evenodd" clip-rule="evenodd" d="M3.98125 6.52705L9.99813 3.05321L16.015 6.52705V13.4747L9.99813 16.9486L3.98125 13.4747V6.52705ZM9.49813 1.95624C9.80753 1.77761 10.1887 1.77761 10.4981 1.95624L16.715 5.54556C17.0244 5.72419 17.215 6.05432 17.215 6.41158V13.5902C17.215 13.9475 17.0244 14.2776 16.715 14.4562L10.4981 18.0456C10.1887 18.2242 9.80753 18.2242 9.49813 18.0456L3.28125 14.4562C2.97185 14.2776 2.78125 13.9475 2.78125 13.5902V6.41158C2.78125 6.05432 2.97185 5.72419 3.28125 5.54556L9.49813 1.95624ZM6.03825 7.38842C5.75128 7.22274 5.38432 7.32106 5.21864 7.60804C5.05295 7.89501 5.15128 8.26197 5.43825 8.42765L9.39813 10.7139L9.39813 14.9664C9.39813 15.2978 9.66676 15.5664 9.99813 15.5664C10.3295 15.5664 10.5981 15.2978 10.5981 14.9664L10.5981 10.7138L14.5714 8.41984C14.8584 8.25416 14.9567 7.8872 14.791 7.60023C14.6254 7.31325 14.2584 7.21493 13.9714 7.38061L9.99808 9.67463L6.03825 7.38842Z" fill="#666E8B"/>
</svg>
