<svg width="336" height="240" viewBox="0 0 336 240" fill="none" xmlns="http://www.w3.org/2000/svg">
<circle cx="168" cy="96" r="96" fill="url(#paint0_linear_2997_25906)"/>
<circle cx="189.603" cy="29.9996" r="8.4" fill="url(#paint1_linear_2997_25906)"/>
<path fill-rule="evenodd" clip-rule="evenodd" d="M125.608 37.5628C125.092 37.6772 124.557 37.7372 124.009 37.7372C123.703 37.7372 123.402 37.7185 123.105 37.6821C121.692 40.07 118.774 41.7095 115.404 41.7095C110.65 41.7095 106.797 38.4489 106.797 34.4267C106.797 30.4045 110.65 27.1439 115.404 27.1439C115.696 27.1439 115.984 27.1562 116.269 27.1803C117.084 23.3662 120.24 20.5234 124.009 20.5234C127.174 20.5234 129.907 22.5284 131.184 25.4299C132.429 24.83 133.812 24.4961 135.267 24.4961C140.752 24.4961 145.198 29.2388 145.198 35.0892C145.198 40.9396 140.752 45.6823 135.267 45.6823C130.581 45.6823 126.653 42.22 125.608 37.5628Z" fill="url(#paint2_linear_2997_25906)"/>
<path fill-rule="evenodd" clip-rule="evenodd" d="M225.133 76.7585C224.521 76.8938 223.887 76.9648 223.238 76.9648C222.874 76.9648 222.516 76.9426 222.163 76.8992C220.486 79.7351 217.02 81.6821 213.018 81.6821C207.373 81.6821 202.797 77.8101 202.797 73.0338C202.797 68.2575 207.373 64.3855 213.018 64.3855C213.365 64.3855 213.708 64.4002 214.046 64.4288C215.015 59.8994 218.762 56.5234 223.238 56.5234C226.995 56.5234 230.24 58.9035 231.757 62.3481C233.235 61.6367 234.876 61.2408 236.602 61.2408C243.116 61.2408 248.396 66.8728 248.396 73.8201C248.396 80.7675 243.116 86.3994 236.602 86.3994C231.038 86.3994 226.373 82.2885 225.133 76.7585Z" fill="url(#paint3_linear_2997_25906)"/>
<path fill-rule="evenodd" clip-rule="evenodd" d="M287.4 239.137C317.446 224.719 336 204.889 336 182.999C336 138.927 260.784 103.199 168 103.199C75.2162 103.199 0 138.927 0 182.999C0 204.718 18.2663 224.41 47.8998 238.799H287.4V239.137Z" fill="url(#paint4_linear_2997_25906)"/>
<ellipse rx="3.63777" ry="1.70539" transform="matrix(0.978706 0.205267 -0.405915 0.913911 240.649 116.305)" fill="#DEE7F4"/>
<ellipse rx="3.2227" ry="1.36" transform="matrix(0.978706 0.205267 -0.405915 0.913911 240.743 116.656)" fill="url(#paint5_linear_2997_25906)"/>
<rect x="115.922" y="111.234" width="1.53916" height="7.69962" rx="0.769579" transform="rotate(-112.002 115.922 111.234)" fill="url(#paint6_linear_2997_25906)"/>
<rect x="121.844" y="103.441" width="0.9743" height="5.19627" rx="0.48715" fill="url(#paint7_linear_2997_25906)"/>
<path d="M120.351 93.7255C120.604 92.9358 121.339 92.4004 122.168 92.4004C122.998 92.4004 123.732 92.9359 123.986 93.7255L125.648 98.8957L126.019 100.628C126.544 103.079 124.676 105.391 122.168 105.391C119.661 105.391 117.792 103.079 118.318 100.628L118.689 98.8957L120.351 93.7255Z" fill="url(#paint8_linear_2997_25906)"/>
<rect x="100.352" y="129.27" width="2.03225" height="10.1663" rx="1.01613" transform="rotate(-112.002 100.352 129.27)" fill="url(#paint9_linear_2997_25906)"/>
<rect x="108.172" y="118.98" width="1.28644" height="6.86099" rx="0.643218" fill="url(#paint10_linear_2997_25906)"/>
<path d="M106.204 106.15C106.539 105.107 107.509 104.4 108.604 104.4C109.699 104.4 110.669 105.107 111.004 106.15L113.198 112.977L113.688 115.263C114.382 118.5 111.915 121.553 108.604 121.553C105.294 121.553 102.826 118.5 103.52 115.263L104.01 112.977L106.204 106.15Z" fill="url(#paint11_linear_2997_25906)"/>
<rect x="226.094" y="114.836" width="1.34303" height="6.71851" rx="0.671517" transform="rotate(-112.002 226.094 114.836)" fill="url(#paint12_linear_2997_25906)"/>
<rect x="231.266" y="108.035" width="0.850152" height="4.53415" rx="0.425076" fill="url(#paint13_linear_2997_25906)"/>
<path d="M229.961 99.5566C230.183 98.8676 230.824 98.4004 231.548 98.4004C232.271 98.4004 232.912 98.8676 233.134 99.5566L234.584 104.068L234.908 105.579C235.366 107.719 233.735 109.736 231.548 109.736C229.36 109.736 227.729 107.719 228.188 105.579L228.511 104.068L229.961 99.5566Z" fill="url(#paint14_linear_2997_25906)"/>
<defs>
<linearGradient id="paint0_linear_2997_25906" x1="168" y1="-19.8" x2="168" y2="165" gradientUnits="userSpaceOnUse">
<stop stop-color="#E5F0FC"/>
<stop offset="1" stop-color="white" stop-opacity="0"/>
</linearGradient>
<linearGradient id="paint1_linear_2997_25906" x1="189.603" y1="17.3996" x2="192.179" y2="38.0787" gradientUnits="userSpaceOnUse">
<stop stop-color="white"/>
<stop offset="1" stop-color="white" stop-opacity="0"/>
</linearGradient>
<linearGradient id="paint2_linear_2997_25906" x1="121.363" y1="17.8751" x2="126.268" y2="45.1576" gradientUnits="userSpaceOnUse">
<stop stop-color="white"/>
<stop offset="1" stop-color="white" stop-opacity="0"/>
</linearGradient>
<linearGradient id="paint3_linear_2997_25906" x1="220.093" y1="53.3786" x2="225.918" y2="85.7763" gradientUnits="userSpaceOnUse">
<stop stop-color="white"/>
<stop offset="1" stop-color="white" stop-opacity="0"/>
</linearGradient>
<linearGradient id="paint4_linear_2997_25906" x1="168" y1="96.5992" x2="168" y2="150" gradientUnits="userSpaceOnUse">
<stop stop-color="#E5F0FC"/>
<stop offset="1" stop-color="white" stop-opacity="0"/>
</linearGradient>
<linearGradient id="paint5_linear_2997_25906" x1="3.2227" y1="-9.07487e-08" x2="2.0077" y2="3.7639" gradientUnits="userSpaceOnUse">
<stop stop-color="#EFF4FB"/>
<stop offset="1" stop-color="#EFF4FB" stop-opacity="0"/>
</linearGradient>
<linearGradient id="paint6_linear_2997_25906" x1="116.781" y1="113.257" x2="116.709" y2="118.934" gradientUnits="userSpaceOnUse">
<stop stop-color="#DFECFC" stop-opacity="0"/>
<stop offset="1" stop-color="#DFECFC"/>
</linearGradient>
<linearGradient id="paint7_linear_2997_25906" x1="122.331" y1="105.065" x2="122.331" y2="108.638" gradientUnits="userSpaceOnUse">
<stop stop-color="#B5C4DD"/>
<stop offset="1" stop-color="#93A6C8"/>
</linearGradient>
<linearGradient id="paint8_linear_2997_25906" x1="122.385" y1="94.313" x2="122.385" y2="104.354" gradientUnits="userSpaceOnUse">
<stop stop-color="#EAF2FD"/>
<stop offset="1" stop-color="#D2E1F4"/>
</linearGradient>
<linearGradient id="paint9_linear_2997_25906" x1="101.486" y1="131.941" x2="101.391" y2="139.436" gradientUnits="userSpaceOnUse">
<stop stop-color="#DFECFC" stop-opacity="0"/>
<stop offset="1" stop-color="#DFECFC"/>
</linearGradient>
<linearGradient id="paint10_linear_2997_25906" x1="108.815" y1="121.125" x2="108.815" y2="125.841" gradientUnits="userSpaceOnUse">
<stop stop-color="#B5C4DD"/>
<stop offset="1" stop-color="#93A6C8"/>
</linearGradient>
<linearGradient id="paint11_linear_2997_25906" x1="108.89" y1="106.926" x2="108.89" y2="120.184" gradientUnits="userSpaceOnUse">
<stop stop-color="#EAF2FD"/>
<stop offset="1" stop-color="#D2E1F4"/>
</linearGradient>
<linearGradient id="paint12_linear_2997_25906" x1="226.843" y1="116.601" x2="226.781" y2="121.555" gradientUnits="userSpaceOnUse">
<stop stop-color="#DFECFC" stop-opacity="0"/>
<stop offset="1" stop-color="#DFECFC"/>
</linearGradient>
<linearGradient id="paint13_linear_2997_25906" x1="231.691" y1="109.452" x2="231.691" y2="112.569" gradientUnits="userSpaceOnUse">
<stop stop-color="#B5C4DD"/>
<stop offset="1" stop-color="#93A6C8"/>
</linearGradient>
<linearGradient id="paint14_linear_2997_25906" x1="231.737" y1="100.069" x2="231.737" y2="108.831" gradientUnits="userSpaceOnUse">
<stop stop-color="#EAF2FD"/>
<stop offset="1" stop-color="#D2E1F4"/>
</linearGradient>
</defs>
</svg>
