<svg width="336" height="240" viewBox="0 0 336 240" fill="none" xmlns="http://www.w3.org/2000/svg">
<circle cx="168" cy="96" r="96" fill="url(#paint0_linear_0_567)"/>
<circle cx="189.6" cy="30" r="8.4" fill="url(#paint1_linear_0_567)"/>
<path fill-rule="evenodd" clip-rule="evenodd" d="M125.61 37.5634C125.094 37.6778 124.559 37.7378 124.011 37.7378C123.706 37.7378 123.404 37.7191 123.108 37.6828C121.695 40.071 118.777 41.7106 115.406 41.7106C110.653 41.7106 106.799 38.45 106.799 34.4279C106.799 30.4057 110.653 27.1451 115.406 27.1451C115.698 27.1451 115.987 27.1574 116.271 27.1814C117.086 23.367 120.242 20.524 124.011 20.524C127.176 20.524 129.909 22.529 131.186 25.4305C132.432 24.8306 133.814 24.4967 135.269 24.4967C140.754 24.4967 145.2 29.2394 145.2 35.0898C145.2 40.9402 140.754 45.6829 135.269 45.6829C130.583 45.6829 126.655 42.2206 125.61 37.5634Z" fill="url(#paint2_linear_0_567)"/>
<path fill-rule="evenodd" clip-rule="evenodd" d="M225.135 76.7591C224.523 76.8944 223.889 76.9654 223.24 76.9654C222.877 76.9654 222.518 76.9432 222.165 76.8998C220.488 79.7357 217.023 81.6827 213.02 81.6827C207.375 81.6827 202.799 77.8107 202.799 73.0344C202.799 68.2581 207.375 64.3861 213.02 64.3861C213.367 64.3861 213.71 64.4008 214.049 64.4294C215.017 59.9 218.764 56.524 223.24 56.524C226.998 56.524 230.242 58.9039 231.759 62.3482C233.238 61.6368 234.878 61.2408 236.605 61.2408C243.118 61.2408 248.398 66.8728 248.398 73.8201C248.398 80.7675 243.118 86.3995 236.605 86.3995C231.04 86.3995 226.376 82.2888 225.135 76.7591Z" fill="url(#paint3_linear_0_567)"/>
<path fill-rule="evenodd" clip-rule="evenodd" d="M287.4 239.138C317.446 224.72 336 204.889 336 183C336 138.928 260.784 103.2 168 103.2C75.2162 103.2 0 138.928 0 183C0 204.719 18.2663 224.411 47.8998 238.8H287.4V239.138Z" fill="url(#paint4_linear_0_567)"/>
<ellipse rx="3.63777" ry="1.70539" transform="matrix(0.978706 0.205267 -0.405915 0.913911 240.651 116.305)" fill="#DEE7F4"/>
<ellipse rx="11.7912" ry="8.38094" transform="matrix(0.998756 -0.049865 -0.0329448 -0.999457 122.454 136.236)" fill="#DEE7F4"/>
<ellipse rx="16.7272" ry="8.56179" transform="matrix(0.992325 0.123656 -0.114399 0.993435 223.266 133.8)" fill="#DEE7F4"/>
<ellipse rx="3.2227" ry="1.36" transform="matrix(0.978706 0.205267 -0.405915 0.913911 240.746 116.656)" fill="url(#paint5_linear_0_567)"/>
<ellipse rx="10.4458" ry="6.68355" transform="matrix(0.998756 -0.049865 -0.0329448 -0.999457 123.402 137.826)" fill="url(#paint6_linear_0_567)"/>
<ellipse rx="14.7048" ry="6.82777" transform="matrix(0.992325 0.123656 -0.114399 0.993435 222.723 135.408)" fill="url(#paint7_linear_0_567)"/>
<ellipse rx="7.04042" ry="5.4365" transform="matrix(0.996686 -0.0813454 0.058213 0.998304 160.934 147.6)" fill="#DEE7F4"/>
<ellipse rx="5.93154" ry="4.68183" transform="matrix(0.996686 -0.0813454 0.058213 0.998304 161.673 148.22)" fill="url(#paint8_linear_0_567)"/>
<ellipse rx="3.95166" ry="3.26122" transform="matrix(0.971813 0.235753 -0.267301 0.963613 181.112 137.274)" fill="#DEE7F4"/>
<ellipse rx="3.32926" ry="2.80851" transform="matrix(0.971813 0.235753 -0.267301 0.963613 181.388 137.759)" fill="url(#paint9_linear_0_567)"/>
<ellipse rx="3.43222" ry="1.58523" transform="matrix(0.948597 -0.316485 0.427576 0.903979 97.032 121.568)" fill="#DEE7F4"/>
<ellipse rx="5.51366" ry="2.74008" transform="matrix(0.946318 -0.323237 0.501915 0.864917 80.993 119.353)" fill="#DEE7F4"/>
<ellipse rx="3.04061" ry="1.26417" transform="matrix(0.948597 -0.316485 0.427576 0.903979 97.3764 121.777)" fill="url(#paint10_linear_0_567)"/>
<ellipse rx="4.88456" ry="2.18513" transform="matrix(0.946318 -0.323237 0.501915 0.864917 81.6003 119.697)" fill="url(#paint11_linear_0_567)"/>
<rect x="115.923" y="111.234" width="1.53916" height="7.69962" rx="0.769579" transform="rotate(-112.002 115.923 111.234)" fill="url(#paint12_linear_0_567)"/>
<rect x="121.844" y="103.441" width="0.9743" height="5.19627" rx="0.48715" fill="url(#paint13_linear_0_567)"/>
<path d="M120.351 93.7247C120.604 92.9351 121.339 92.3996 122.168 92.3996C122.998 92.3996 123.732 92.9351 123.986 93.7247L125.648 98.8949L126.019 100.627C126.544 103.078 124.676 105.39 122.168 105.39C119.661 105.39 117.792 103.078 118.318 100.627L118.689 98.8949L120.351 93.7247Z" fill="url(#paint14_linear_0_567)"/>
<rect x="100.358" y="129.269" width="2.03225" height="10.1663" rx="1.01613" transform="rotate(-112.002 100.358 129.269)" fill="url(#paint15_linear_0_567)"/>
<rect x="108.177" y="118.979" width="1.28644" height="6.86099" rx="0.643218" fill="url(#paint16_linear_0_567)"/>
<path d="M106.209 106.149C106.544 105.107 107.514 104.4 108.609 104.4C109.704 104.4 110.674 105.107 111.009 106.149L113.203 112.976L113.693 115.263C114.387 118.5 111.919 121.552 108.609 121.552C105.298 121.552 102.831 118.5 103.524 115.263L104.014 112.976L106.209 106.149Z" fill="url(#paint17_linear_0_567)"/>
<rect x="226.1" y="114.834" width="1.34303" height="6.71851" rx="0.671517" transform="rotate(-112.002 226.1 114.834)" fill="url(#paint18_linear_0_567)"/>
<rect x="231.27" y="108.035" width="0.850152" height="4.53415" rx="0.425076" fill="url(#paint19_linear_0_567)"/>
<path d="M229.965 99.5559C230.186 98.8668 230.827 98.3996 231.551 98.3996C232.275 98.3996 232.915 98.8668 233.137 99.5559L234.587 104.067L234.911 105.579C235.369 107.718 233.739 109.735 231.551 109.735C229.363 109.735 227.732 107.718 228.191 105.579L228.515 104.067L229.965 99.5559Z" fill="url(#paint20_linear_0_567)"/>
<defs>
<linearGradient id="paint0_linear_0_567" x1="168" y1="-19.8" x2="168" y2="165" gradientUnits="userSpaceOnUse">
<stop stop-color="#E5F0FC"/>
<stop offset="1" stop-color="white" stop-opacity="0"/>
</linearGradient>
<linearGradient id="paint1_linear_0_567" x1="189.6" y1="17.4" x2="192.176" y2="38.0791" gradientUnits="userSpaceOnUse">
<stop stop-color="white"/>
<stop offset="1" stop-color="white" stop-opacity="0"/>
</linearGradient>
<linearGradient id="paint2_linear_0_567" x1="121.365" y1="17.8757" x2="126.27" y2="45.1582" gradientUnits="userSpaceOnUse">
<stop stop-color="white"/>
<stop offset="1" stop-color="white" stop-opacity="0"/>
</linearGradient>
<linearGradient id="paint3_linear_0_567" x1="220.095" y1="53.3793" x2="225.92" y2="85.7763" gradientUnits="userSpaceOnUse">
<stop stop-color="white"/>
<stop offset="1" stop-color="white" stop-opacity="0"/>
</linearGradient>
<linearGradient id="paint4_linear_0_567" x1="168" y1="96.6" x2="168" y2="150" gradientUnits="userSpaceOnUse">
<stop stop-color="#E5F0FC"/>
<stop offset="1" stop-color="white" stop-opacity="0"/>
</linearGradient>
<linearGradient id="paint5_linear_0_567" x1="3.2227" y1="-9.07487e-08" x2="2.0077" y2="3.7639" gradientUnits="userSpaceOnUse">
<stop stop-color="#EFF4FB"/>
<stop offset="1" stop-color="#EFF4FB" stop-opacity="0"/>
</linearGradient>
<linearGradient id="paint6_linear_0_567" x1="1.07686" y1="9.84455" x2="24.9639" y2="2.30761" gradientUnits="userSpaceOnUse">
<stop stop-color="#EFF4FB"/>
<stop offset="1" stop-color="#EFF4FB" stop-opacity="0"/>
</linearGradient>
<linearGradient id="paint7_linear_0_567" x1="17.112" y1="0.613815" x2="7.74076" y2="19.625" gradientUnits="userSpaceOnUse">
<stop stop-color="#EFF4FB"/>
<stop offset="1" stop-color="#EFF4FB" stop-opacity="0"/>
</linearGradient>
<linearGradient id="paint8_linear_0_567" x1="10.0375" y1="1.29061" x2="-6.89035" y2="4.5272" gradientUnits="userSpaceOnUse">
<stop stop-color="#EFF4FB"/>
<stop offset="1" stop-color="#EFF4FB" stop-opacity="0"/>
</linearGradient>
<linearGradient id="paint9_linear_0_567" x1="5.63384" y1="0.774201" x2="-3.90934" y2="2.48147" gradientUnits="userSpaceOnUse">
<stop stop-color="#EFF4FB"/>
<stop offset="1" stop-color="#EFF4FB" stop-opacity="0"/>
</linearGradient>
<linearGradient id="paint10_linear_0_567" x1="1.22347" y1="0.733426" x2="6.03254" y2="3.75954" gradientUnits="userSpaceOnUse">
<stop stop-color="#EFF4FB"/>
<stop offset="1" stop-color="#EFF4FB" stop-opacity="0"/>
</linearGradient>
<linearGradient id="paint11_linear_0_567" x1="1.96543" y1="1.26773" x2="10.0015" y2="5.96733" gradientUnits="userSpaceOnUse">
<stop stop-color="#EFF4FB"/>
<stop offset="1" stop-color="#EFF4FB" stop-opacity="0"/>
</linearGradient>
<linearGradient id="paint12_linear_0_567" x1="116.783" y1="113.257" x2="116.711" y2="118.934" gradientUnits="userSpaceOnUse">
<stop stop-color="#DFECFC" stop-opacity="0"/>
<stop offset="1" stop-color="#DFECFC"/>
</linearGradient>
<linearGradient id="paint13_linear_0_567" x1="122.331" y1="105.065" x2="122.331" y2="108.637" gradientUnits="userSpaceOnUse">
<stop stop-color="#B5C4DD"/>
<stop offset="1" stop-color="#93A6C8"/>
</linearGradient>
<linearGradient id="paint14_linear_0_567" x1="122.385" y1="94.3122" x2="122.385" y2="104.353" gradientUnits="userSpaceOnUse">
<stop stop-color="#EAF2FD"/>
<stop offset="1" stop-color="#D2E1F4"/>
</linearGradient>
<linearGradient id="paint15_linear_0_567" x1="101.492" y1="131.94" x2="101.397" y2="139.436" gradientUnits="userSpaceOnUse">
<stop stop-color="#DFECFC" stop-opacity="0"/>
<stop offset="1" stop-color="#DFECFC"/>
</linearGradient>
<linearGradient id="paint16_linear_0_567" x1="108.82" y1="121.123" x2="108.82" y2="125.84" gradientUnits="userSpaceOnUse">
<stop stop-color="#B5C4DD"/>
<stop offset="1" stop-color="#93A6C8"/>
</linearGradient>
<linearGradient id="paint17_linear_0_567" x1="108.895" y1="106.925" x2="108.895" y2="120.183" gradientUnits="userSpaceOnUse">
<stop stop-color="#EAF2FD"/>
<stop offset="1" stop-color="#D2E1F4"/>
</linearGradient>
<linearGradient id="paint18_linear_0_567" x1="226.85" y1="116.599" x2="226.787" y2="121.553" gradientUnits="userSpaceOnUse">
<stop stop-color="#DFECFC" stop-opacity="0"/>
<stop offset="1" stop-color="#DFECFC"/>
</linearGradient>
<linearGradient id="paint19_linear_0_567" x1="231.695" y1="109.452" x2="231.695" y2="112.569" gradientUnits="userSpaceOnUse">
<stop stop-color="#B5C4DD"/>
<stop offset="1" stop-color="#93A6C8"/>
</linearGradient>
<linearGradient id="paint20_linear_0_567" x1="231.74" y1="100.069" x2="231.74" y2="108.83" gradientUnits="userSpaceOnUse">
<stop stop-color="#EAF2FD"/>
<stop offset="1" stop-color="#D2E1F4"/>
</linearGradient>
</defs>
</svg>
