<svg width="20" height="20" viewBox="0 0 20 20" fill="none" xmlns="http://www.w3.org/2000/svg">
<rect width="20" height="20" fill="white"/>
<mask id="path-2-inside-1_3394_26071" fill="white">
<path fill-rule="evenodd" clip-rule="evenodd" d="M12.5981 8L10 5L7.40192 8H2V17H18V8H12.5981Z"/>
</mask>
<path d="M10 5L10.7559 4.34535L10 3.47247L9.24407 4.34535L10 5ZM12.5981 8L11.8421 8.65465L12.1412 9H12.5981V8ZM7.40192 8V9H7.85877L8.15785 8.65465L7.40192 8ZM2 8V7H1V8H2ZM2 17H1V18H2V17ZM18 17V18H19V17H18ZM18 8H19V7H18V8ZM9.24407 5.65465L11.8421 8.65465L13.354 7.34535L10.7559 4.34535L9.24407 5.65465ZM8.15785 8.65465L10.7559 5.65465L9.24407 4.34535L6.646 7.34535L8.15785 8.65465ZM2 9H7.40192V7H2V9ZM3 17V8H1V17H3ZM18 16H2V18H18V16ZM17 8V17H19V8H17ZM12.5981 9H18V7H12.5981V9Z" fill="#25305A" mask="url(#path-2-inside-1_3394_26071)"/>
<rect x="7" y="3" width="6" height="1" fill="#25305A"/>
<circle cx="6.5" cy="12.5" r="1.5" stroke="#25305A"/>
<rect x="11" y="10.5" width="1" height="4" fill="#25305A"/>
<rect x="14" y="10.5" width="1" height="4" fill="#25305A"/>
</svg>
