<svg width="492" height="36" viewBox="0 0 492 36" fill="none" xmlns="http://www.w3.org/2000/svg">
<rect x="0.5" y="0.5" width="491" height="34.6794" rx="3.5" fill="white"/>
<circle cx="14.5" cy="17.8398" r="2.5" fill="#25305A"/>
<circle cx="21.5" cy="17.8398" r="2.5" fill="#25305A"/>
<circle cx="28.5" cy="17.8398" r="2.5" fill="#25305A"/>
<circle cx="35.5" cy="17.8398" r="2.5" fill="#25305A"/>
<circle cx="42.5" cy="17.8398" r="2.5" fill="#25305A"/>
<circle cx="49.5" cy="17.8398" r="2.5" fill="#25305A"/>
<path d="M478.883 14.6578C478.778 14.5613 478.641 14.5123 478.502 14.5217C478.362 14.531 478.232 14.598 478.139 14.7077C477.23 15.7892 476.288 16.6084 475.34 17.1423C474.415 17.6641 473.455 17.9286 472.489 17.9286C471.523 17.9286 470.566 17.6641 469.644 17.1429C468.7 16.609 467.764 15.7903 466.862 14.7094C466.77 14.5992 466.64 14.5317 466.5 14.5218C466.361 14.5118 466.223 14.5602 466.118 14.6563C466.012 14.7524 465.948 14.8884 465.938 15.0342C465.929 15.1801 465.975 15.3239 466.067 15.4341C466.721 16.2175 467.396 16.8777 468.085 17.4077L467.234 18.297C467.137 18.4006 467.082 18.5404 467.083 18.6858C467.084 18.8312 467.139 18.9705 467.237 19.0733C467.336 19.1762 467.469 19.2342 467.608 19.2348C467.747 19.2354 467.881 19.1785 467.98 19.0765L468.988 18.023C469.039 18.0537 469.091 18.0835 469.142 18.1125C469.598 18.3725 470.079 18.5822 470.577 18.7381L470.079 20.4471C470.059 20.5163 470.052 20.5891 470.059 20.6611C470.065 20.7332 470.086 20.8032 470.118 20.8671C470.151 20.931 470.195 20.9875 470.248 21.0335C470.302 21.0795 470.364 21.1141 470.43 21.1352C470.496 21.1563 470.566 21.1636 470.635 21.1566C470.704 21.1496 470.77 21.1285 470.832 21.0944C470.893 21.0604 470.947 21.0141 470.991 20.9582C471.035 20.9023 471.068 20.8379 471.088 20.7686L471.612 18.9702C471.903 19.0109 472.195 19.0314 472.488 19.0315C472.781 19.0314 473.075 19.0109 473.366 18.9702L473.889 20.7686C473.91 20.8379 473.943 20.9023 473.987 20.9582C474.031 21.0141 474.085 21.0604 474.146 21.0944C474.207 21.1285 474.274 21.1496 474.343 21.1566C474.412 21.1636 474.481 21.1563 474.548 21.1352C474.614 21.1141 474.676 21.0795 474.729 21.0335C474.783 20.9875 474.827 20.931 474.859 20.8671C474.892 20.8032 474.912 20.7332 474.919 20.6611C474.926 20.5891 474.919 20.5163 474.898 20.4471L474.4 18.7381C474.9 18.5822 475.382 18.3727 475.84 18.1129C475.888 18.0858 475.936 18.0578 475.984 18.0293L476.986 19.0765C477.085 19.1785 477.219 19.2354 477.358 19.2348C477.497 19.2342 477.63 19.1762 477.729 19.0733C477.827 18.9705 477.883 18.8312 477.883 18.6858C477.884 18.5404 477.829 18.4006 477.732 18.297L476.89 17.4167C477.586 16.8855 478.269 16.2228 478.931 15.4358C478.977 15.3815 479.012 15.3182 479.034 15.2497C479.056 15.1812 479.066 15.1088 479.061 15.0366C479.057 14.9643 479.039 14.8937 479.008 14.8287C478.978 14.7637 478.935 14.7056 478.883 14.6578Z" fill="#A1A3A4"/>
<rect x="0.5" y="0.5" width="491" height="34.6794" rx="3.5" stroke="#E9EAEE"/>
</svg>
