<svg width="16" height="18" viewBox="0 0 16 18" fill="none" xmlns="http://www.w3.org/2000/svg">
<path fill-rule="evenodd" clip-rule="evenodd" d="M12.8432 9.00073C12.5564 9.00073 12.3119 9.20089 12.2175 9.47173C11.6093 11.2159 9.95016 12.4673 7.9987 12.4673C5.53183 12.4673 3.53203 10.4675 3.53203 8.00065C3.53203 5.53378 5.53183 3.53398 7.9987 3.53398C9.60685 3.53398 11.0165 4.38385 11.8031 5.65895C11.929 5.86317 12.1452 6.00073 12.3852 6.00073C12.8285 6.00073 13.1319 5.5566 12.9103 5.17256C11.9312 3.4759 10.0983 2.33398 7.9987 2.33398C4.86908 2.33398 2.33203 4.87104 2.33203 8.00065C2.33203 11.1303 4.86908 13.6673 7.9987 13.6673C10.5314 13.6673 12.676 12.0058 13.402 9.71323C13.5175 9.34829 13.226 9.00073 12.8432 9.00073Z" fill="#666E8B"/>
<rect x="11.1016" y="5.69922" width="2.5" height="1" rx="0.5" fill="#666E8B"/>
<rect x="12.6992" y="4" width="1" height="2.66667" rx="0.5" fill="#666E8B"/>
<rect x="7" y="5" width="1.2" height="4" rx="0.6" fill="#666E8B"/>
<path d="M7 8.40073C7 8.06936 7.26863 7.80073 7.6 7.80073H10.4C10.7314 7.80073 11 8.06936 11 8.40073C11 8.7321 10.7314 9.00073 10.4 9.00073H7.6C7.26863 9.00073 7 8.7321 7 8.40073Z" fill="#666E8B"/>
</svg>
