<svg width="102" height="95" viewBox="0 0 102 95" fill="none" xmlns="http://www.w3.org/2000/svg">
<rect x="54.3314" y="69.4985" width="0.913142" height="5.09732" rx="0.454656" transform="rotate(-52.072 54.3314 69.4985)" fill="url(#paint0_linear_2683_24777)"/>
<rect x="57.9844" y="68.7787" width="0.684856" height="3.65257" rx="0.340992" fill="url(#paint1_linear_2683_24777)"/>
<path d="M56.9344 61.9471C57.1128 61.3921 57.6292 61.0157 58.2122 61.0157C58.7952 61.0157 59.3115 61.3921 59.4899 61.9471L60.6581 65.5814L60.919 66.7988C61.2882 68.5221 59.9746 70.1471 58.2122 70.1471C56.4498 70.1471 55.1361 68.5221 55.5054 66.7988L55.7663 65.5814L56.9344 61.9471Z" fill="url(#paint2_linear_2683_24777)"/>
<path d="M52.2729 38.3621L91.4043 43.5109V84.7019L52.2729 79.553V38.3621Z" fill="url(#paint3_linear_2683_24777)"/>
<path d="M52.2166 38.3621L21.4877 45.5924V86.5642L52.2166 79.3339V38.3621Z" fill="url(#paint4_linear_2683_24777)"/>
<path d="M68.5542 31.4255C70.3701 26.6945 75.6673 16.5069 82.3294 13.605C90.6569 9.97757 97.6031 16.6211 96.3488 19.8407C95.1419 22.9386 92.5109 23.5635 87.9266 20.1008C83.3425 16.6382 84.2917 6.94009 89.217 4.6948C93.1572 2.89856 97.6297 4.78166 99.3734 5.94774" stroke="url(#paint5_linear_2683_24777)" stroke-width="0.8" stroke-linecap="round" stroke-linejoin="round" stroke-dasharray="1.2 2.4"/>
<path fill-rule="evenodd" clip-rule="evenodd" d="M73.0114 1.61913C71.048 5.03768 73.3658 8.9852 77.5173 9.54083C80.3871 9.92494 82.4383 9.12262 83.4859 8.42019C83.8576 8.17095 83.9587 7.69035 83.6751 7.34414C83.5284 7.16501 83.3358 6.96951 83.0899 6.7803C83.023 6.72877 82.9575 6.68023 82.8927 6.6322C82.2136 6.12896 81.6109 5.68236 80.2075 2.44232C79.0109 -0.320284 76.1408 -0.195908 74.7475 0.236597C74.6719 0.260065 74.6004 0.293362 74.5319 0.333139L73.6553 0.842642C73.5985 0.875641 73.5443 0.913221 73.4938 0.955137C75.2571 5.40543 80.014 7.52183 82.2662 8.03369C77.2504 6.91908 74.4622 4.30687 73.0114 1.61913Z" fill="url(#paint6_linear_2683_24777)"/>
<path fill-rule="evenodd" clip-rule="evenodd" d="M48.2327 14.8802C47.1922 14.104 45.6997 14.5039 45.1868 15.6964L40.0355 27.6717L29.9592 30.3716C27.8164 30.9458 26.5447 33.1484 27.1189 35.2912L32.9669 57.1161C33.2539 58.1875 34.3552 58.8233 35.4267 58.5362L78.1064 47.1002C79.1778 46.8132 79.8137 45.7119 79.5266 44.6404L73.1588 20.8756C72.8717 19.8042 71.7704 19.1683 70.699 19.4554L58.6815 22.6755L48.2327 14.8802Z" fill="url(#paint7_linear_2683_24777)"/>
<path fill-rule="evenodd" clip-rule="evenodd" d="M50.1757 14.8904C48.8751 13.9201 47.0095 14.42 46.3683 15.9106L41.4686 27.3011L30.4216 30.2611C28.8144 30.6918 27.8607 32.3437 28.2913 33.9509L34.1393 55.7757C34.5699 57.3829 36.2218 58.3366 37.829 57.906L78.5687 46.9898C80.1758 46.5592 81.1296 44.9072 80.699 43.3001L74.851 21.4752C74.4204 19.8681 72.7684 18.9143 71.1613 19.345L60.1143 22.305L50.1757 14.8904Z" fill="url(#paint8_linear_2683_24777)"/>
<circle cx="43.9326" cy="41.3163" r="6.02527" transform="rotate(-15 43.9326 41.3163)" fill="url(#paint9_linear_2683_24777)"/>
<rect x="55.0806" y="32.3858" width="4.01685" height="12.0505" rx="2" transform="rotate(-15 55.0806 32.3858)" fill="url(#paint10_linear_2683_24777)"/>
<rect x="62.8638" y="30.3264" width="4.01685" height="12.0505" rx="2" transform="rotate(-15 62.8638 30.3264)" fill="url(#paint11_linear_2683_24777)"/>
<circle cx="44.8579" cy="41.4575" r="6.02527" transform="rotate(-15 44.8579 41.4575)" fill="url(#paint12_linear_2683_24777)"/>
<rect x="55.9078" y="32.2583" width="4.01685" height="12.0505" rx="2" transform="rotate(-15 55.9078 32.2583)" fill="url(#paint13_linear_2683_24777)"/>
<rect x="63.6679" y="30.1793" width="4.01685" height="12.0505" rx="2" transform="rotate(-15 63.6679 30.1793)" fill="url(#paint14_linear_2683_24777)"/>
<path d="M0.736668 91.9284C0.1061 91.3899 -0.255313 90.4552 0.213281 89.7596C0.381191 89.5104 0.646591 89.3612 0.907496 89.2121C3.04688 87.9889 13.3939 82.0786 14.1362 81.7641C14.9645 81.4131 15.7133 81.0578 16.4498 81.6868C17.1862 82.3157 17.2823 83.4331 16.6643 84.1827C16.1118 84.8529 6.54583 90.3433 4.52786 91.4976C4.27599 91.6416 4.04548 91.8075 3.79401 91.9523C2.70776 92.5777 1.39764 92.4929 0.736668 91.9284Z" fill="url(#paint15_linear_2683_24777)"/>
<path d="M0.64659 91.2097C-0.118151 90.568 -0.278982 89.385 0.646477 88.673C0.646477 88.673 13.7012 81.1971 14.5613 80.839C15.4214 80.4809 16.1991 80.1184 16.9638 80.7601C17.7285 81.4018 17.8283 82.542 17.1866 83.3067C16.5449 84.0714 4.19738 90.9869 4.19738 90.9869C3.0129 91.8856 1.41133 91.8514 0.64659 91.2097Z" fill="url(#paint16_linear_2683_24777)"/>
<path d="M30.1268 38.162H80.8395V53.2252H30.1268V38.162Z" fill="url(#paint17_linear_2683_24777)"/>
<path d="M91.4044 43.5087L58.4516 49.6873V94.9973L91.4044 84.6996V43.5087Z" fill="url(#paint18_linear_2683_24777)"/>
<path d="M91.4013 43.5106L58.4485 49.6893L68.7462 67.1954L101.699 56.8977L91.4013 43.5106Z" fill="url(#paint19_linear_2683_24777)"/>
<path d="M21.3792 45.57L58.4511 49.6891V94.9992L21.3792 86.761V45.57Z" fill="url(#paint20_linear_2683_24777)"/>
<path d="M21.3777 45.57L58.4496 49.6891L50.7263 67.1953L13.6544 59.9869L21.3777 45.57Z" fill="url(#paint21_linear_2683_24777)"/>
<defs>
<linearGradient id="paint0_linear_2683_24777" x1="55.0699" y1="71.1305" x2="55.0168" y2="74.8885" gradientUnits="userSpaceOnUse">
<stop stop-color="#DFECFC" stop-opacity="0"/>
<stop offset="1" stop-color="#DFECFC"/>
</linearGradient>
<linearGradient id="paint1_linear_2683_24777" x1="58.571" y1="70.2098" x2="58.571" y2="72.7209" gradientUnits="userSpaceOnUse">
<stop stop-color="#B5C4DD"/>
<stop offset="1" stop-color="#93A6C8"/>
</linearGradient>
<linearGradient id="paint2_linear_2683_24777" x1="58.2122" y1="57.8215" x2="58.2122" y2="70.1471" gradientUnits="userSpaceOnUse">
<stop stop-color="#EBF3FE" stop-opacity="0.6"/>
<stop offset="1" stop-color="#D1E0F3"/>
</linearGradient>
<linearGradient id="paint3_linear_2683_24777" x1="71.4991" y1="-55.6322" x2="69.8301" y2="126.94" gradientUnits="userSpaceOnUse">
<stop stop-color="#B1C4DF"/>
<stop offset="1" stop-color="#E7EFFA"/>
</linearGradient>
<linearGradient id="paint4_linear_2683_24777" x1="43.7812" y1="170.918" x2="42.2952" y2="23.2956" gradientUnits="userSpaceOnUse">
<stop offset="0.129909" stop-color="#B1C4DF"/>
<stop offset="1" stop-color="#E7EFFA"/>
</linearGradient>
<linearGradient id="paint5_linear_2683_24777" x1="113.072" y1="-1.59941" x2="63.9509" y2="35.5537" gradientUnits="userSpaceOnUse">
<stop stop-color="#EBF3FE"/>
<stop offset="1" stop-color="#D2E1F5"/>
</linearGradient>
<linearGradient id="paint6_linear_2683_24777" x1="79.1309" y1="14.4607" x2="83.1164" y2="-4.49846" gradientUnits="userSpaceOnUse">
<stop stop-color="#BED3F2"/>
<stop offset="1" stop-color="white"/>
</linearGradient>
<linearGradient id="paint7_linear_2683_24777" x1="31.2036" y1="45.4014" x2="78.4016" y2="29.8361" gradientUnits="userSpaceOnUse">
<stop stop-color="#AFC2DC"/>
<stop offset="1" stop-color="#D3DDEA"/>
</linearGradient>
<linearGradient id="paint8_linear_2683_24777" x1="82.3054" y1="46.766" x2="-10.2913" y2="25.9052" gradientUnits="userSpaceOnUse">
<stop stop-color="#F8FBFF"/>
<stop offset="1" stop-color="#B1C4DF"/>
</linearGradient>
<linearGradient id="paint9_linear_2683_24777" x1="38.2936" y1="40.8042" x2="46.292" y2="37.733" gradientUnits="userSpaceOnUse">
<stop stop-color="#B2C2D9"/>
<stop offset="1" stop-color="#C9D9F1"/>
</linearGradient>
<linearGradient id="paint10_linear_2683_24777" x1="55.3881" y1="37.8867" x2="58.398" y2="37.5015" gradientUnits="userSpaceOnUse">
<stop stop-color="#B2C2D9"/>
<stop offset="1" stop-color="#C9D9F1"/>
</linearGradient>
<linearGradient id="paint11_linear_2683_24777" x1="63.2041" y1="35.8186" x2="66.214" y2="35.4334" gradientUnits="userSpaceOnUse">
<stop stop-color="#B2C2D9"/>
<stop offset="1" stop-color="#C9D9F1"/>
</linearGradient>
<linearGradient id="paint12_linear_2683_24777" x1="49.2258" y1="46.597" x2="23.5443" y2="33.7826" gradientUnits="userSpaceOnUse">
<stop stop-color="white"/>
<stop offset="1" stop-color="#D8E8FE"/>
</linearGradient>
<linearGradient id="paint13_linear_2683_24777" x1="59.7125" y1="43.619" x2="49.8208" y2="42.0971" gradientUnits="userSpaceOnUse">
<stop stop-color="white"/>
<stop offset="1" stop-color="#D8E8FE"/>
</linearGradient>
<linearGradient id="paint14_linear_2683_24777" x1="67.7513" y1="41.6702" x2="57.621" y2="40.1046" gradientUnits="userSpaceOnUse">
<stop stop-color="white"/>
<stop offset="1" stop-color="#D8E8FE"/>
</linearGradient>
<linearGradient id="paint15_linear_2683_24777" x1="16.5509" y1="81.3412" x2="1.37296" y2="92.0196" gradientUnits="userSpaceOnUse">
<stop stop-color="#C8D9F1"/>
<stop offset="1" stop-color="#A8BAD2"/>
</linearGradient>
<linearGradient id="paint16_linear_2683_24777" x1="-2.00891" y1="92.3875" x2="22.5943" y2="77.3243" gradientUnits="userSpaceOnUse">
<stop stop-color="#B1C4DF"/>
<stop offset="1" stop-color="#F1F7FF"/>
</linearGradient>
<linearGradient id="paint17_linear_2683_24777" x1="53.9423" y1="39.0481" x2="54.3151" y2="53.2292" gradientUnits="userSpaceOnUse">
<stop stop-color="#D0DDEF" stop-opacity="0"/>
<stop offset="1" stop-color="#819ABD"/>
</linearGradient>
<linearGradient id="paint18_linear_2683_24777" x1="-123.72" y1="8.23345" x2="111.7" y2="84.6705" gradientUnits="userSpaceOnUse">
<stop stop-color="#B1C4DF"/>
<stop offset="1" stop-color="#E7EFFA"/>
</linearGradient>
<linearGradient id="paint19_linear_2683_24777" x1="65.4709" y1="24.5036" x2="108.25" y2="104.037" gradientUnits="userSpaceOnUse">
<stop offset="0.14576" stop-color="white"/>
<stop offset="1" stop-color="#D4E0F1"/>
</linearGradient>
<linearGradient id="paint20_linear_2683_24777" x1="37.1544" y1="-23.0961" x2="52.1997" y2="157.613" gradientUnits="userSpaceOnUse">
<stop stop-color="#B1C4DF"/>
<stop offset="1" stop-color="#E7EFFA"/>
</linearGradient>
<linearGradient id="paint21_linear_2683_24777" x1="40.1656" y1="-11.6481" x2="-18.0989" y2="44.4609" gradientUnits="userSpaceOnUse">
<stop stop-color="white"/>
<stop offset="1" stop-color="#E5F0FC"/>
</linearGradient>
</defs>
</svg>
