<svg width="20" height="20" viewBox="0 0 20 20" fill="none" xmlns="http://www.w3.org/2000/svg">
<path fill-rule="evenodd" clip-rule="evenodd" d="M2.9 4.00039C2.9 3.11674 3.61634 2.40039 4.5 2.40039H10.5C11.3837 2.40039 12.1 3.11674 12.1 4.00039V5.40039H15.5C16.3837 5.40039 17.1 6.11673 17.1 7.00039V15.8004H17.4C17.7314 15.8004 18 16.069 18 16.4004C18 16.7318 17.7314 17.0004 17.4 17.0004H12.1H10.9H4.1H2.9H2.6C2.26863 17.0004 2 16.7318 2 16.4004C2 16.069 2.26863 15.8004 2.6 15.8004H2.9V4.00039ZM10.9 15.8004V6.00039V5.40039V4.00039C10.9 3.77948 10.7209 3.60039 10.5 3.60039H4.5C4.27909 3.60039 4.1 3.77948 4.1 4.00039V15.8004H10.9ZM12.1 15.8004H15.9V7.00039C15.9 6.77948 15.7209 6.60039 15.5 6.60039H12.1V15.8004ZM4.79297 8.10039C4.79297 7.76902 5.0616 7.50039 5.39297 7.50039H9.19297C9.52434 7.50039 9.79297 7.76902 9.79297 8.10039C9.79297 8.43176 9.52434 8.70039 9.19297 8.70039H5.39297C5.0616 8.70039 4.79297 8.43176 4.79297 8.10039ZM5.39297 11.6671C5.0616 11.6671 4.79297 11.9357 4.79297 12.2671C4.79297 12.5985 5.0616 12.8671 5.39297 12.8671H9.19297C9.52434 12.8671 9.79297 12.5985 9.79297 12.2671C9.79297 11.9357 9.52434 11.6671 9.19297 11.6671H5.39297ZM12.707 9.76711C12.707 9.43574 12.9757 9.16711 13.307 9.16711H14.607C14.9384 9.16711 15.207 9.43574 15.207 9.76711C15.207 10.0985 14.9384 10.3671 14.607 10.3671H13.307C12.9757 10.3671 12.707 10.0985 12.707 9.76711ZM13.307 12.5004C12.9757 12.5004 12.707 12.769 12.707 13.1004C12.707 13.4317 12.9757 13.7004 13.307 13.7004H14.607C14.9384 13.7004 15.207 13.4317 15.207 13.1004C15.207 12.769 14.9384 12.5004 14.607 12.5004H13.307Z" fill="#666E8B"/>
</svg>
