<svg width="336" height="240" viewBox="0 0 336 240" fill="none" xmlns="http://www.w3.org/2000/svg">
<circle cx="168" cy="96" r="96" fill="url(#paint0_linear_2997_27004)"/>
<path fill-rule="evenodd" clip-rule="evenodd" d="M135.137 40.7585C134.525 40.8938 133.891 40.9648 133.242 40.9648C132.878 40.9648 132.52 40.9426 132.167 40.8992C130.49 43.7351 127.024 45.6821 123.021 45.6821C117.377 45.6821 112.801 41.8101 112.801 37.0338C112.801 32.2575 117.377 28.3855 123.021 28.3855C123.369 28.3855 123.712 28.4002 124.05 28.4288C125.018 23.8994 128.766 20.5234 133.242 20.5234C136.999 20.5234 140.244 22.9033 141.761 26.3477C143.239 25.6362 144.879 25.2402 146.606 25.2402C153.12 25.2402 158.399 30.8722 158.399 37.8195C158.399 44.7669 153.12 50.3989 146.606 50.3989C141.042 50.3989 136.378 46.2882 135.137 40.7585Z" fill="url(#paint1_linear_2997_27004)"/>
<path fill-rule="evenodd" clip-rule="evenodd" d="M223.797 39.3132C224.045 39.3682 224.301 39.397 224.564 39.397C224.71 39.397 224.854 39.3881 224.995 39.3708C225.672 40.5137 227.068 41.2983 228.681 41.2983C230.956 41.2983 232.801 39.7377 232.801 37.8126C232.801 35.8875 230.956 34.327 228.681 34.327C228.542 34.327 228.404 34.3328 228.268 34.3443C227.878 32.5188 226.368 31.1582 224.564 31.1582C223.049 31.1582 221.741 32.1178 221.13 33.5066C220.533 33.219 219.871 33.059 219.174 33.059C216.549 33.059 214.421 35.3289 214.421 38.129C214.421 40.9292 216.549 43.1991 219.174 43.1991C221.417 43.1991 223.297 41.5421 223.797 39.3132Z" fill="url(#paint2_linear_2997_27004)"/>
<path fill-rule="evenodd" clip-rule="evenodd" d="M199.797 51.3132C200.045 51.3682 200.301 51.397 200.564 51.397C200.71 51.397 200.854 51.3881 200.995 51.3708C201.672 52.5137 203.068 53.2983 204.681 53.2983C206.956 53.2983 208.801 51.7377 208.801 49.8126C208.801 47.8875 206.956 46.327 204.681 46.327C204.542 46.327 204.404 46.3328 204.268 46.3443C203.878 44.5188 202.368 43.1582 200.564 43.1582C199.049 43.1582 197.741 44.1178 197.13 45.5066C196.533 45.219 195.871 45.059 195.174 45.059C192.549 45.059 190.421 47.3289 190.421 50.129C190.421 52.9292 192.549 55.1991 195.174 55.1991C197.417 55.1991 199.297 53.5421 199.797 51.3132Z" fill="url(#paint3_linear_2997_27004)"/>
<path fill-rule="evenodd" clip-rule="evenodd" d="M287.4 239.137C317.446 224.719 336 204.889 336 182.999C336 138.927 260.784 103.199 168 103.199C75.2162 103.199 0 138.927 0 182.999C0 204.718 18.2663 224.41 47.8998 238.799H287.4V239.137Z" fill="url(#paint4_linear_2997_27004)" fill-opacity="0.5"/>
<ellipse rx="10.4246" ry="6.16082" transform="matrix(0.837102 0.547047 0.725984 -0.687712 220.797 137.14)" fill="#DEE7F4"/>
<ellipse rx="9.23517" ry="4.91307" transform="matrix(0.837102 0.547047 0.725984 -0.687712 220.583 138.4)" fill="url(#paint5_linear_2997_27004)"/>
<ellipse cx="235.337" cy="120.657" rx="4.16733" ry="2.72442" transform="rotate(25.5736 235.337 120.657)" fill="#DEE7F4"/>
<ellipse rx="5.8976" ry="4.35423" transform="matrix(0.996972 -0.077764 0.0609016 0.998144 186.145 141.606)" fill="#DEE7F4"/>
<ellipse cx="234.911" cy="121.041" rx="3.72609" ry="2.17264" transform="rotate(25.5736 234.911 121.041)" fill="url(#paint6_linear_2997_27004)"/>
<ellipse rx="4.96871" ry="3.7498" transform="matrix(0.996972 -0.077764 0.0609016 0.998144 186.764 142.101)" fill="url(#paint7_linear_2997_27004)"/>
<ellipse cx="87.4336" cy="124.698" rx="3.46321" ry="2.11924" transform="rotate(-14.0951 87.4336 124.698)" fill="#DEE7F4"/>
<ellipse cx="87.7505" cy="125.042" rx="3.06807" ry="1.69003" transform="rotate(-14.0951 87.7505 125.042)" fill="url(#paint8_linear_2997_27004)"/>
<ellipse rx="9.58596" ry="8.10663" transform="matrix(0.996022 -0.0891128 0.0531186 0.998588 153.978 145.85)" fill="#DEE7F4"/>
<ellipse rx="8.07614" ry="6.9813" transform="matrix(0.996022 -0.0891128 0.0531186 0.998588 154.989 146.773)" fill="url(#paint9_linear_2997_27004)"/>
<ellipse rx="4.4105" ry="3.52246" transform="matrix(0.999659 0.0261254 -0.0379393 0.99928 105.857 143.965)" fill="#DEE7F4"/>
<ellipse rx="3.71583" ry="3.03349" transform="matrix(0.999659 0.0261254 -0.0379393 0.99928 106.283 144.415)" fill="url(#paint10_linear_2997_27004)"/>
<defs>
<linearGradient id="paint0_linear_2997_27004" x1="168" y1="-19.8" x2="168" y2="165" gradientUnits="userSpaceOnUse">
<stop stop-color="#E5F0FC"/>
<stop offset="1" stop-color="white" stop-opacity="0"/>
</linearGradient>
<linearGradient id="paint1_linear_2997_27004" x1="130.097" y1="17.3787" x2="135.921" y2="49.7757" gradientUnits="userSpaceOnUse">
<stop stop-color="white"/>
<stop offset="1" stop-color="white" stop-opacity="0"/>
</linearGradient>
<linearGradient id="paint2_linear_2997_27004" x1="225.829" y1="29.8907" x2="223.482" y2="42.948" gradientUnits="userSpaceOnUse">
<stop stop-color="white"/>
<stop offset="1" stop-color="white" stop-opacity="0"/>
</linearGradient>
<linearGradient id="paint3_linear_2997_27004" x1="201.829" y1="41.8907" x2="199.482" y2="54.948" gradientUnits="userSpaceOnUse">
<stop stop-color="white"/>
<stop offset="1" stop-color="white" stop-opacity="0"/>
</linearGradient>
<linearGradient id="paint4_linear_2997_27004" x1="168" y1="118.199" x2="167.509" y2="163.794" gradientUnits="userSpaceOnUse">
<stop stop-color="#EBF2F9"/>
<stop offset="1" stop-color="white" stop-opacity="0"/>
</linearGradient>
<linearGradient id="paint5_linear_2997_27004" x1="0.952057" y1="7.23672" x2="21.2501" y2="-0.465987" gradientUnits="userSpaceOnUse">
<stop stop-color="#EFF4FB"/>
<stop offset="1" stop-color="#EFF4FB" stop-opacity="0"/>
</linearGradient>
<linearGradient id="paint6_linear_2997_27004" x1="237.491" y1="119.467" x2="232.413" y2="123.327" gradientUnits="userSpaceOnUse">
<stop stop-color="#EFF4FB"/>
<stop offset="1" stop-color="#EFF4FB" stop-opacity="0"/>
</linearGradient>
<linearGradient id="paint7_linear_2997_27004" x1="8.40816" y1="1.03368" x2="-5.7251" y2="3.85995" gradientUnits="userSpaceOnUse">
<stop stop-color="#EFF4FB"/>
<stop offset="1" stop-color="#EFF4FB" stop-opacity="0"/>
</linearGradient>
<linearGradient id="paint8_linear_2997_27004" x1="85.917" y1="124.333" x2="91.4441" y2="126.958" gradientUnits="userSpaceOnUse">
<stop stop-color="#EFF4FB"/>
<stop offset="1" stop-color="#EFF4FB" stop-opacity="0"/>
</linearGradient>
<linearGradient id="paint9_linear_2997_27004" x1="13.6666" y1="1.92448" x2="-9.51757" y2="5.97206" gradientUnits="userSpaceOnUse">
<stop stop-color="#EFF4FB"/>
<stop offset="1" stop-color="#EFF4FB" stop-opacity="0"/>
</linearGradient>
<linearGradient id="paint10_linear_2997_27004" x1="6.28801" y1="0.836219" x2="-4.34092" y2="2.80111" gradientUnits="userSpaceOnUse">
<stop stop-color="#EFF4FB"/>
<stop offset="1" stop-color="#EFF4FB" stop-opacity="0"/>
</linearGradient>
</defs>
</svg>
