<svg width="16" height="18" viewBox="0 0 16 18" fill="none" xmlns="http://www.w3.org/2000/svg">
<path d="M3.1 3.66667C3.1 3.62985 3.12985 3.6 3.16667 3.6H12.8333C12.8702 3.6 12.9 3.62985 12.9 3.66667V12.3333C12.9 12.3702 12.8702 12.4 12.8333 12.4H3.16667C3.12985 12.4 3.1 12.3702 3.1 12.3333V3.66667Z" stroke="#666E8B" stroke-width="1.2"/>
<path d="M4.64453 8.01282H6.4272C6.47348 8.01282 6.51646 7.98882 6.54073 7.94941L7.84125 5.83779C7.90827 5.72897 8.07519 5.76767 8.08749 5.89487L8.46055 9.75119C8.47306 9.88045 8.64415 9.91738 8.70886 9.8048L9.70073 8.07931C9.72434 8.03823 9.76798 8.01277 9.81536 8.01243L11.5 8.00024" stroke="#666E8B" stroke-width="1.2" stroke-linecap="round"/>
</svg>
