<svg width="16" height="16" viewBox="0 0 16 16" fill="none" xmlns="http://www.w3.org/2000/svg">
<path d="M6.77206 14.221C6.84767 14.221 6.92344 14.2034 6.99305 14.1681L9.70522 13.1764C9.78561 13.1356 9.85313 13.0733 9.90029 12.9965C9.94745 12.9196 9.97241 12.8312 9.97241 12.7411V7.54355L12.8648 3.83342C12.9331 3.76514 12.9796 3.67815 12.9984 3.58345C13.0173 3.48875 13.0076 3.39059 12.9707 3.30138C12.9337 3.21217 12.8711 3.13593 12.7908 3.08228C12.7106 3.02864 12.6162 3 12.5196 3L3.49601 3C3.39945 3 3.30506 3.02864 3.22478 3.08228C3.1445 3.13593 3.08192 3.21217 3.04497 3.30138C3.00802 3.39059 2.99836 3.48875 3.01719 3.58345C3.03603 3.67815 3.08252 3.76514 3.1508 3.83342L6.28384 7.54355V13.7327C6.28383 13.7969 6.29646 13.8603 6.32099 13.9196C6.34552 13.9788 6.38149 14.0326 6.42682 14.078C6.47216 14.1233 6.52598 14.1593 6.58522 14.1838C6.64446 14.2083 6.70795 14.221 6.77206 14.221ZM8.6088 12.4414L7.632 12.9373V7.34132C7.632 7.27721 7.61937 7.21372 7.59484 7.15449C7.5703 7.09526 7.53434 7.04144 7.489 6.99611L5.18728 4.30189H10.9431L8.7518 7.11388C8.66024 7.20543 8.6088 7.32961 8.6088 7.45909V12.4414Z" fill="#25305A"/>
</svg>
