<svg width="24" height="24" viewBox="0 0 24 24" fill="none" xmlns="http://www.w3.org/2000/svg">
<circle cx="12" cy="12" r="11" fill="#A8ACBD"/>
<path d="M10.4306 12.3358C10.2926 12.4935 10.1891 12.6776 10.1267 12.8765C10.0643 13.0755 10.0443 13.285 10.068 13.4919C10.0917 13.6988 10.1586 13.8986 10.2644 14.0789C10.3702 14.2591 10.5128 14.4159 10.683 14.5393C10.8533 14.6627 11.0476 14.7501 11.2537 14.796C11.4599 14.8419 11.6735 14.8454 11.8811 14.8061C12.0887 14.7669 12.2858 14.6857 12.46 14.5679C12.6343 14.45 12.7819 14.2979 12.8937 14.1212C13.3834 12.8681 13.7188 11.5617 13.8928 10.23C12.6592 10.7963 11.4973 11.5031 10.4306 12.3358Z" fill="white"/>
<path d="M19.655 14.8536L18.1911 14.2814C18.4967 13.5118 18.6543 12.6929 18.6558 11.8666C18.6762 10.5544 18.2965 9.26628 17.5657 8.16896C16.835 7.07163 15.7868 6.21554 14.5568 5.71139C13.3268 5.20724 11.9715 5.07824 10.6662 5.34107C9.36097 5.6039 8.16579 6.24647 7.23527 7.18567C6.30835 8.09464 5.67652 9.25444 5.42002 10.5178C5.16352 11.7812 5.29391 13.0912 5.79463 14.2814L4.33076 14.8536C3.63247 13.1177 3.56333 11.1976 4.135 9.41728C4.70667 7.63695 5.88417 6.10533 7.46888 5.08075C9.05359 4.05617 10.9485 3.60134 12.8341 3.79298C14.7196 3.98463 16.4804 4.81102 17.8193 6.13275C18.9501 7.25491 19.7256 8.67652 20.0514 10.2247C20.3773 11.773 20.2396 13.3811 19.655 14.8536Z" fill="white"/>
</svg>
