<svg width="12" height="10" viewBox="0 0 12 10" fill="none" xmlns="http://www.w3.org/2000/svg">
<path fill-rule="evenodd" clip-rule="evenodd" d="M9.77059 3.42109C9.59813 3.25964 9.3185 3.25964 9.14604 3.42109L7.14405 5.29518L5.16085 3.43867C5.00151 3.28951 4.7507 3.27815 4.57743 3.40461C4.55702 3.41809 4.53756 3.43337 4.5193 3.45047L2.22926 5.59421C2.05679 5.75566 2.05679 6.01742 2.22926 6.17887C2.40172 6.34032 2.68135 6.34032 2.85381 6.17887L4.84638 4.3136L6.82633 6.16707C6.97948 6.31044 7.21713 6.3265 7.38921 6.21524C7.42186 6.19756 7.45261 6.17564 7.48055 6.14949L9.77059 4.00574C9.94306 3.84429 9.94306 3.58253 9.77059 3.42109Z" fill="#9A9C9E"/>
<path d="M0.515043 0.6C0.515043 0.55308 0.55308 0.515043 0.6 0.515043H11.4C11.4469 0.515043 11.485 0.553079 11.485 0.6V9C11.485 9.04692 11.4469 9.08496 11.4 9.08496H0.6C0.55308 9.08496 0.515043 9.04692 0.515043 9V0.6Z" stroke="#9A9C9E"/>
</svg>
