<svg width="24" height="24" viewBox="0 0 24 24" fill="none" xmlns="http://www.w3.org/2000/svg">
<path d="M17.7811 11.1265C18.4607 11.5088 18.4608 12.4873 17.7811 12.8696L10.1542 17.1598C9.48755 17.5347 8.6639 17.053 8.6639 16.2882L8.6639 7.70789C8.6639 6.94307 9.48756 6.46135 10.1542 6.83632L17.7811 11.1265Z" fill="#F0F8FF"/>
<path fill-rule="evenodd" clip-rule="evenodd" d="M12 24C18.6274 24 24 18.6274 24 12C24 5.37258 18.6274 0 12 0C5.37258 0 0 5.37258 0 12C0 18.6274 5.37258 24 12 24ZM8.19775 7.19727C7.64547 7.19727 7.19775 7.64498 7.19775 8.19726V15.7973C7.19775 16.3495 7.64547 16.7973 8.19775 16.7973H15.7978C16.35 16.7973 16.7978 16.3496 16.7978 15.7973V8.19727C16.7978 7.64498 16.35 7.19727 15.7978 7.19727H8.19775Z" fill="#DB3244"/>
</svg>
