<svg width="20" height="20" viewBox="0 0 20 20" fill="none" xmlns="http://www.w3.org/2000/svg">
<path d="M18.1667 16.3462H17.5833V8.26923C17.5833 7 16.5333 5.96154 15.25 5.96154H11.75V4.80769C11.75 3.53846 10.7 2.5 9.41667 2.5H4.75C3.46667 2.5 2.41667 3.53846 2.41667 4.80769V16.3462H1.83333C1.50667 16.3462 1.25 16.6 1.25 16.9231C1.25 17.2462 1.50667 17.5 1.83333 17.5H18.1667C18.4933 17.5 18.75 17.2462 18.75 16.9231C18.75 16.6 18.4933 16.3462 18.1667 16.3462ZM10.5833 5.96154V7.11538V16.3462H3.58333V4.80769C3.58333 4.17308 4.10833 3.65385 4.75 3.65385H9.41667C10.0583 3.65385 10.5833 4.17308 10.5833 4.80769V5.96154ZM16.4167 16.3462H11.75V7.11538H15.25C15.8917 7.11538 16.4167 7.63462 16.4167 8.26923V16.3462ZM8.83333 5.96154H5.33333C5.00667 5.96154 4.75 6.21538 4.75 6.53846C4.75 6.86154 5.00667 7.11538 5.33333 7.11538H8.83333C9.16 7.11538 9.41667 6.86154 9.41667 6.53846C9.41667 6.21538 9.16 5.96154 8.83333 5.96154ZM8.83333 9.42308H5.33333C5.00667 9.42308 4.75 9.67692 4.75 10C4.75 10.3231 5.00667 10.5769 5.33333 10.5769H8.83333C9.16 10.5769 9.41667 10.3231 9.41667 10C9.41667 9.67692 9.16 9.42308 8.83333 9.42308ZM8.83333 12.8846H5.33333C5.00667 12.8846 4.75 13.1385 4.75 13.4615C4.75 13.7846 5.00667 14.0385 5.33333 14.0385H8.83333C9.16 14.0385 9.41667 13.7846 9.41667 13.4615C9.41667 13.1385 9.16 12.8846 8.83333 12.8846ZM14.6667 9.42308H13.5C13.1733 9.42308 12.9167 9.67692 12.9167 10C12.9167 10.3231 13.1733 10.5769 13.5 10.5769H14.6667C14.9933 10.5769 15.25 10.3231 15.25 10C15.25 9.67692 14.9933 9.42308 14.6667 9.42308ZM14.6667 12.8846H13.5C13.1733 12.8846 12.9167 13.1385 12.9167 13.4615C12.9167 13.7846 13.1733 14.0385 13.5 14.0385H14.6667C14.9933 14.0385 15.25 13.7846 15.25 13.4615C15.25 13.1385 14.9933 12.8846 14.6667 12.8846Z" fill="#575663"/>
</svg>
