<svg width="20" height="20" viewBox="0 0 20 20" fill="none" xmlns="http://www.w3.org/2000/svg">
<path fill-rule="evenodd" clip-rule="evenodd" d="M5.39976 3.50042C5.39975 3.27949 5.57884 3.10039 5.79976 3.10039H11.491C11.5879 3.10039 11.6815 3.13556 11.7544 3.19936L14.4635 5.56983C14.5503 5.64577 14.6001 5.75549 14.6001 5.87082L14.6007 13.3336H5.40035L5.39976 3.50042ZM4.20035 13.3336L4.19976 3.50049C4.19971 2.61679 4.91607 1.90039 5.79976 1.90039H11.491C11.8786 1.90039 12.253 2.04106 12.5446 2.29627L12.1633 2.73209L12.5446 2.29627L15.2537 4.66673C15.6009 4.97053 15.8001 5.40939 15.8001 5.87073L15.8007 13.3336H17.0182C17.5621 13.3433 18 13.7872 18 14.3334V16.5001C18 17.0524 17.5523 17.5001 17 17.5001H3C2.44772 17.5001 2 17.0524 2 16.5001V14.3334C2 13.7872 2.43792 13.3433 2.98181 13.3336H4.20035ZM3.2 14.5336H16.8V16.3001H3.2V14.5336Z" fill="#2373FF"/>
<rect x="7.5" y="11" width="5" height="1.2" rx="0.6" fill="#2373FF"/>
<path d="M9.80914 5.27849C9.88125 5.10923 10.1213 5.10969 10.1928 5.27922L10.6065 6.26082C10.6358 6.33027 10.7003 6.3785 10.7752 6.38693L11.8083 6.50322C11.9846 6.52306 12.057 6.74016 11.9279 6.86186L11.1403 7.60404C11.088 7.65333 11.0648 7.7261 11.0789 7.79657L11.2945 8.87272C11.3302 9.05076 11.1368 9.18603 10.9818 9.09153L10.1029 8.55587C10.0365 8.51544 9.95324 8.51527 9.88675 8.55543L9.00573 9.08748C8.85032 9.18133 8.65759 9.04533 8.69392 8.86746L8.91356 7.79198C8.92794 7.72158 8.90502 7.64874 8.85293 7.59925L8.06822 6.85382C7.93957 6.7316 8.01285 6.51477 8.18926 6.49565L9.22254 6.38368C9.2975 6.37556 9.36221 6.32758 9.39176 6.25822L9.80914 5.27849Z" fill="#2373FF"/>
</svg>
