<svg width="18" height="18" viewBox="0 0 18 18" fill="none" xmlns="http://www.w3.org/2000/svg">
<path d="M12.5798 3.17025C14.5568 5.14725 14.5568 8.35275 12.5798 10.3298L11.8463 11.0625H15.7279L17.2677 15.9375H0.732422L2.27217 11.0625H6.15342L5.4203 10.3298C3.4433 8.35275 3.4433 5.14725 5.4203 3.17025C7.3973 1.19325 10.6028 1.19325 12.5798 3.17025ZM7.27805 12.1875H3.0968L2.26767 14.8125H15.7324L14.9037 12.1875H10.7213L9.00005 13.9095L7.27805 12.1875ZM6.21567 3.96563C4.67817 5.50313 4.67817 7.99688 6.21567 9.53438L9.00005 12.3184L11.7844 9.53438C13.3219 7.99688 13.3219 5.50313 11.7844 3.96563C10.2469 2.42813 7.75317 2.42813 6.21567 3.96563ZM9.00005 4.6875C9.2709 4.6875 9.5391 4.74085 9.78933 4.8445C10.0396 4.94815 10.2669 5.10007 10.4585 5.29159C10.65 5.48311 10.8019 5.71048 10.9055 5.96072C11.0092 6.21095 11.0625 6.47915 11.0625 6.75C11.0625 7.02085 11.0092 7.28905 10.9055 7.53928C10.8019 7.78952 10.65 8.01689 10.4585 8.20841C10.2669 8.39993 10.0396 8.55185 9.78933 8.6555C9.5391 8.75915 9.2709 8.8125 9.00005 8.8125C8.45304 8.8125 7.92843 8.5952 7.54164 8.20841C7.15485 7.82161 6.93755 7.29701 6.93755 6.75C6.93755 6.20299 7.15485 5.67839 7.54164 5.29159C7.92843 4.9048 8.45304 4.6875 9.00005 4.6875ZM9.00005 5.8125C8.87693 5.8125 8.75502 5.83675 8.64128 5.88386C8.52754 5.93098 8.42419 6.00003 8.33713 6.08709C8.25008 6.17414 8.18102 6.27749 8.13391 6.39123C8.0868 6.50498 8.06255 6.62689 8.06255 6.75C8.06255 6.87311 8.0868 6.99502 8.13391 7.10877C8.18102 7.22251 8.25008 7.32586 8.33713 7.41291C8.42419 7.49997 8.52754 7.56902 8.64128 7.61614C8.75502 7.66325 8.87693 7.6875 9.00005 7.6875C9.24869 7.6875 9.48714 7.58873 9.66296 7.41291C9.83878 7.2371 9.93755 6.99864 9.93755 6.75C9.93755 6.50136 9.83878 6.2629 9.66296 6.08709C9.48714 5.91127 9.24869 5.8125 9.00005 5.8125Z" fill="#25305A"/>
</svg>
