<svg width="20" height="20" viewBox="0 0 20 20" fill="none" xmlns="http://www.w3.org/2000/svg">
<path fill-rule="evenodd" clip-rule="evenodd" d="M13.7525 3.5L16.5 6.24755V16.5H6V15.0001H5V16.6667C5 17.1269 5.3731 17.5 5.83333 17.5H16.6667C17.1269 17.5 17.5 17.1269 17.5 16.6667V6.17851C17.5 5.9575 17.4122 5.74554 17.2559 5.58926L14.4107 2.74408C14.2545 2.5878 14.0425 2.5 13.8215 2.5H5.83333C5.3731 2.5 5 2.8731 5 3.33333V10.8334H6V3.5H13.7525Z" fill="#666E8B"/>
<rect x="7.5" y="5.83203" width="5" height="1" rx="0.5" fill="#666E8B"/>
<path fill-rule="evenodd" clip-rule="evenodd" d="M9.1348 10.3536C8.93954 10.1583 8.62296 10.1583 8.4277 10.3536C8.23243 10.5488 8.23243 10.8654 8.4277 11.0607L10.4303 13.0633L8.54448 14.9492C8.34922 15.1444 8.34922 15.461 8.54448 15.6563C8.73974 15.8515 9.05633 15.8515 9.25159 15.6563L11.4908 13.4171C11.686 13.2218 11.686 12.9053 11.4908 12.71C11.4711 12.6903 11.4502 12.6726 11.4283 12.6569C11.4123 12.6344 11.3942 12.6129 11.374 12.5927L9.1348 10.3536Z" fill="#666E8B"/>
<rect x="2.5" y="12.5" width="8.33333" height="1" rx="0.5" fill="#666E8B"/>
</svg>
