<svg width="16" height="16" viewBox="0 0 16 16" fill="none" xmlns="http://www.w3.org/2000/svg">
<path fill-rule="evenodd" clip-rule="evenodd" d="M3.53594 13C3.42548 13 3.33594 12.9105 3.33594 12.8V3.2C3.33594 3.08954 3.42548 3 3.53594 3H12.4693C12.5797 3 12.6693 3.08954 12.6693 3.2V7.8C12.6693 7.91046 12.7588 8 12.8693 8H13.4693C13.5797 8 13.6693 7.91046 13.6693 7.8V2.66667C13.6693 2.29848 13.3708 2 13.0026 2H3.0026C2.63441 2 2.33594 2.29848 2.33594 2.66667V13.3333C2.33594 13.7015 2.63441 14 3.0026 14H7.80104C7.91149 14 8.00104 13.9105 8.00104 13.8V13.2C8.00104 13.0895 7.91149 13 7.80104 13H3.53594Z" fill="#25305A"/>
<rect x="10.3203" y="10.7949" width="1" height="4" rx="0.5" transform="rotate(-45 10.3203 10.7949)" fill="#25305A"/>
<circle cx="8.9067" cy="8.91016" r="2.5" transform="rotate(-45 8.9067 8.91016)" stroke="#25305A"/>
</svg>
