<svg width="24" height="24" viewBox="0 0 24 24" fill="none" xmlns="http://www.w3.org/2000/svg">
<path fill-rule="evenodd" clip-rule="evenodd" d="M12 24C18.6274 24 24 18.6274 24 12C24 5.37258 18.6274 0 12 0C5.37258 0 0 5.37258 0 12C0 18.6274 5.37258 24 12 24ZM6.90643 6.90876C7.37505 6.44013 8.08058 6.38586 8.48226 6.78754L11.9971 10.3024L15.5124 6.78716C15.9141 6.38547 16.6196 6.43975 17.0882 6.90837C17.5569 7.377 17.6111 8.08253 17.2095 8.48421L13.6942 11.9995L17.21 15.5153C17.6117 15.9169 17.5574 16.6225 17.0888 17.0911C16.6201 17.5597 15.9146 17.614 15.5129 17.2123L11.9971 13.6965L8.48174 17.2119C8.08005 17.6136 7.37453 17.5593 6.9059 17.0907C6.43727 16.6221 6.383 15.9166 6.78468 15.5149L10.3001 11.9995L6.78521 8.4846C6.38353 8.08292 6.4378 7.37739 6.90643 6.90876Z" fill="#BEC1CE"/>
</svg>
