<svg width="336" height="254" viewBox="0 0 336 254" fill="none" xmlns="http://www.w3.org/2000/svg">
<circle cx="168" cy="96" r="96" fill="url(#paint0_linear_2997_26917)"/>
<path d="M152.402 125.754C152.402 159.418 135.209 146.273 114.002 146.273C92.7938 146.273 75.6016 159.418 75.6016 125.754C75.6016 92.0906 92.7938 64.8008 114.002 64.8008C135.209 64.8008 152.402 92.0906 152.402 125.754Z" fill="url(#paint1_linear_2997_26917)"/>
<ellipse cx="222.002" cy="114" rx="14.4" ry="26.4" fill="url(#paint2_linear_2997_26917)"/>
<ellipse cx="246.002" cy="114" rx="14.4" ry="26.4" fill="url(#paint3_linear_2997_26917)"/>
<path fill-rule="evenodd" clip-rule="evenodd" d="M287.4 253.537C317.446 239.12 336 219.289 336 197.4C336 153.327 260.784 117.6 168 117.6C75.2162 117.6 0 153.327 0 197.4C0 219.119 18.2665 238.811 47.9002 253.2H287.4V253.537Z" fill="url(#paint4_linear_2997_26917)"/>
<ellipse rx="10.4246" ry="6.16082" transform="matrix(0.837102 0.547047 0.725984 -0.687712 224.398 152.739)" fill="#DEE7F4"/>
<ellipse rx="9.23517" ry="4.91307" transform="matrix(0.837102 0.547047 0.725984 -0.687712 224.184 153.999)" fill="url(#paint5_linear_2997_26917)"/>
<ellipse cx="238.938" cy="136.256" rx="4.16733" ry="2.72442" transform="rotate(25.5736 238.938 136.256)" fill="#DEE7F4"/>
<ellipse rx="5.8976" ry="4.35423" transform="matrix(0.996972 -0.077764 0.0609016 0.998144 189.746 157.206)" fill="#DEE7F4"/>
<ellipse cx="238.513" cy="136.641" rx="3.72609" ry="2.17264" transform="rotate(25.5736 238.513 136.641)" fill="url(#paint6_linear_2997_26917)"/>
<ellipse rx="4.96871" ry="3.7498" transform="matrix(0.996972 -0.077764 0.0609016 0.998144 190.366 157.7)" fill="url(#paint7_linear_2997_26917)"/>
<ellipse cx="91.0352" cy="140.298" rx="3.46321" ry="2.11924" transform="rotate(-14.0951 91.0352 140.298)" fill="#DEE7F4"/>
<ellipse cx="91.3521" cy="140.642" rx="3.06807" ry="1.69003" transform="rotate(-14.0951 91.3521 140.642)" fill="url(#paint8_linear_2997_26917)"/>
<ellipse rx="9.58596" ry="8.10662" transform="matrix(0.996022 -0.0891128 0.0531186 0.998588 157.58 161.45)" fill="#DEE7F4"/>
<ellipse rx="8.07614" ry="6.9813" transform="matrix(0.996022 -0.0891128 0.0531186 0.998588 158.591 162.373)" fill="url(#paint9_linear_2997_26917)"/>
<ellipse rx="4.4105" ry="3.52246" transform="matrix(0.999659 0.0261254 -0.0379393 0.99928 109.459 159.565)" fill="#DEE7F4"/>
<ellipse rx="3.71583" ry="3.03349" transform="matrix(0.999659 0.0261254 -0.0379393 0.99928 109.885 160.015)" fill="url(#paint10_linear_2997_26917)"/>
<rect x="94.4961" y="135.766" width="1.88727" height="8.4433" rx="0.943633" transform="rotate(-118.458 94.4961 135.766)" fill="url(#paint11_linear_2997_26917)"/>
<rect x="100.465" y="125.555" width="1.23135" height="6.56719" rx="0.615674" fill="url(#paint12_linear_2997_26917)"/>
<path d="M98.5781 113.274C98.8989 112.276 99.8273 111.6 100.875 111.6C101.924 111.6 102.852 112.276 103.173 113.274L105.273 119.809L105.742 121.998C106.406 125.096 104.044 128.018 100.875 128.018C97.7068 128.018 95.3448 125.096 96.0088 121.998L96.4778 119.809L98.5781 113.274Z" fill="url(#paint13_linear_2997_26917)"/>
<rect x="226.184" y="132.166" width="1.23127" height="5.50847" rx="0.615633" transform="rotate(-118.458 226.184 132.166)" fill="url(#paint14_linear_2997_26917)"/>
<rect x="230.078" y="125.504" width="0.803341" height="4.28448" rx="0.40167" fill="url(#paint15_linear_2997_26917)"/>
<path d="M228.846 117.493C229.055 116.842 229.661 116.4 230.345 116.4C231.029 116.4 231.634 116.842 231.844 117.493L233.214 121.756L233.52 123.184C233.953 125.205 232.412 127.112 230.345 127.112C228.278 127.112 226.737 125.205 227.17 123.184L227.476 121.756L228.846 117.493Z" fill="url(#paint16_linear_2997_26917)"/>
<path d="M75.0195 203.4L70.6924 157.802L134.581 120.466L145.137 132.529L75.0195 203.4Z" fill="url(#paint17_linear_2997_26917)"/>
<path d="M108.191 153.64L92.358 144.646L121.246 119.147L124.778 139.315L108.191 153.64Z" fill="url(#paint18_linear_2997_26917)"/>
<path d="M197.154 176.258L160.21 133.283L209.486 130.672L205.447 143.838L197.154 176.258Z" fill="url(#paint19_linear_2997_26917)"/>
<path fill-rule="evenodd" clip-rule="evenodd" d="M144.226 111.855L137.699 110.917L141.714 107.572L148.241 108.51L144.226 111.855Z" fill="url(#paint20_linear_2997_26917)"/>
<path fill-rule="evenodd" clip-rule="evenodd" d="M144.948 132.938L138.384 132.022L134.406 125.361L140.97 126.277L144.948 132.938Z" fill="#B9D0F0"/>
<path fill-rule="evenodd" clip-rule="evenodd" d="M127.779 125.438L121.23 124.441L129.863 117.193L136.682 118.159L127.779 125.438Z" fill="url(#paint21_linear_2997_26917)"/>
<path fill-rule="evenodd" clip-rule="evenodd" d="M136.384 118.112L129.863 117.192L123.207 105.924L129.728 106.844L136.384 118.112Z" fill="url(#paint22_linear_2997_26917)"/>
<path fill-rule="evenodd" clip-rule="evenodd" d="M118.419 138.592L124.853 139.525L120.086 131.234L113.652 130.301L118.419 138.592Z" fill="url(#paint23_linear_2997_26917)"/>
<path fill-rule="evenodd" clip-rule="evenodd" d="M124.615 88.8008L116.93 95.128L123.409 96.048L131.095 89.7205L124.615 88.8008Z" fill="#F7F9FD"/>
<path fill-rule="evenodd" clip-rule="evenodd" d="M113.621 130.308L120.086 131.233L123.411 96.0468L116.947 95.1211L113.621 130.308Z" fill="url(#paint24_linear_2997_26917)"/>
<path fill-rule="evenodd" clip-rule="evenodd" d="M123.414 96.0482L119.914 131.269L124.727 139.526L140.829 126.169L144.765 132.922L152.468 126.533L148.532 119.779L152.527 116.467L147.987 108.679L143.993 111.992L131.099 89.7207L123.414 96.0482ZM129.661 107.009L136.289 118.381L127.78 125.438L129.661 107.009Z" fill="url(#paint25_linear_2997_26917)"/>
<g filter="url(#filter0_f_2997_26917)">
<path fill-rule="evenodd" clip-rule="evenodd" d="M168.307 134.815C168.857 133.884 169.419 132.486 169.992 130.62C170.835 127.88 171.08 126.096 170.729 125.264C170.418 124.526 169.741 124.203 168.7 124.293C168.567 124.305 168.427 124.323 168.282 124.348C166.974 124.574 165.881 125.218 165.004 126.28C164.126 127.343 163.287 129.173 162.488 131.772C161.682 134.398 161.452 136.136 161.796 136.986C162.103 137.747 162.76 138.083 163.764 137.996C163.883 137.986 164.008 137.969 164.137 137.947C164.941 137.808 165.699 137.484 166.412 136.974C167.126 136.464 167.759 135.744 168.307 134.815ZM177.927 129.022C176.776 132.764 175.062 135.654 172.782 137.691C170.501 139.728 167.225 141.117 162.955 141.855C162.154 141.993 161.414 142.092 160.735 142.151C159.384 142.268 158.276 142.228 157.407 142.028C156.101 141.731 155.14 141.129 154.524 140.223C154.072 139.581 153.857 138.635 153.882 137.382C153.904 136.131 154.161 134.709 154.653 133.114C155.858 129.193 157.674 126.281 160.103 124.377C162.532 122.474 165.738 121.178 169.725 120.488C170.53 120.349 171.265 120.25 171.93 120.193C172.847 120.113 173.632 120.111 174.283 120.186C175.407 120.316 176.275 120.587 176.881 121.002C177.488 121.417 177.923 121.887 178.184 122.416C178.444 122.944 178.586 123.587 178.611 124.347C178.668 125.793 178.439 127.351 177.927 129.022Z" fill="#B1C4DF" fill-opacity="0.5"/>
</g>
<g filter="url(#filter1_f_2997_26917)">
<path fill-rule="evenodd" clip-rule="evenodd" d="M207.223 119.596C205.898 119.067 204.41 119.134 203.137 119.778L187.182 127.85C186.16 128.367 185.37 129.25 184.969 130.323C184.101 132.646 185.248 135.236 187.551 136.155L194.829 139.06C196.147 139.586 196.804 141.069 196.307 142.398C195.811 143.727 196.467 145.21 197.785 145.736L199.643 146.477C200.944 146.997 202.417 146.345 202.908 145.032L203.157 144.366C203.51 143.42 204.573 142.949 205.511 143.324C206.45 143.698 207.512 143.227 207.866 142.281L208.638 140.215C208.996 139.257 208.522 138.188 207.572 137.808C206.622 137.429 206.148 136.36 206.506 135.402L210.037 125.951C210.982 123.42 209.732 120.597 207.223 119.596ZM196.968 133.577C195.034 132.805 194.921 130.11 196.784 129.179C198.744 128.199 200.889 130.129 200.122 132.181C199.649 133.449 198.225 134.079 196.968 133.577Z" fill="#B1C4DF" fill-opacity="0.5"/>
</g>
<path fill-rule="evenodd" clip-rule="evenodd" d="M178.265 102.844C178.263 102.678 178.253 102.523 178.233 102.38C178.078 101.239 177.515 100.458 176.545 100.039C176.421 99.9853 176.29 99.9376 176.152 99.8955C176.059 99.8671 175.966 99.8436 175.874 99.8229C175.847 99.8165 175.82 99.8113 175.793 99.806C175.725 99.7919 175.657 99.7802 175.589 99.7706C175.572 99.7679 175.556 99.7638 175.539 99.7617C175.527 99.7604 175.516 99.7599 175.504 99.7584C175.465 99.7538 175.425 99.7507 175.386 99.7475C175.35 99.7444 175.314 99.7413 175.279 99.7396C175.239 99.7379 175.2 99.7376 175.161 99.7371C175.135 99.737 175.109 99.735 175.083 99.7355C175.076 99.7358 175.07 99.7367 175.064 99.7371C174.961 99.7394 174.859 99.747 174.759 99.7597C174.75 99.7608 174.741 99.7606 174.732 99.7616C174.719 99.7635 174.706 99.7672 174.692 99.7692C174.61 99.7815 174.529 99.7966 174.448 99.816C174.437 99.8186 174.426 99.8197 174.415 99.8223C174.412 99.8233 174.408 99.8245 174.405 99.8255C174.311 99.8491 174.219 99.8784 174.127 99.9112C174.118 99.9145 174.109 99.9166 174.099 99.9201C174.088 99.9241 174.078 99.93 174.067 99.9342C173.964 99.9737 173.862 100.018 173.761 100.069C173.759 100.07 173.756 100.071 173.754 100.072C173.734 100.082 173.715 100.094 173.696 100.105C173.648 100.131 173.601 100.156 173.553 100.185C173.527 100.201 173.5 100.218 173.473 100.235C173.431 100.262 173.389 100.289 173.347 100.319C173.338 100.325 173.329 100.33 173.32 100.336C173.306 100.346 173.292 100.358 173.278 100.369C173.219 100.412 173.16 100.457 173.102 100.504C173.08 100.522 173.057 100.54 173.035 100.559C172.958 100.624 172.883 100.691 172.807 100.763C172.737 100.831 172.667 100.905 172.596 100.982C172.59 100.989 172.584 100.995 172.578 101.001C172.549 101.034 172.519 101.07 172.49 101.104C172.465 101.132 172.441 101.159 172.417 101.188C172.375 101.238 172.334 101.292 172.292 101.345C172.272 101.37 172.252 101.394 172.232 101.42C172.17 101.502 172.108 101.587 172.045 101.676C172.041 101.681 172.037 101.688 172.033 101.693C171.975 101.777 171.915 101.864 171.856 101.954C171.835 101.986 171.813 102.021 171.791 102.055C171.749 102.121 171.707 102.186 171.664 102.255C171.639 102.296 171.614 102.339 171.588 102.382C171.549 102.447 171.51 102.512 171.47 102.58C171.443 102.626 171.416 102.675 171.389 102.722C171.351 102.789 171.313 102.857 171.274 102.926C171.246 102.978 171.217 103.031 171.189 103.084C171.151 103.153 171.114 103.224 171.076 103.296C171.047 103.351 171.018 103.408 170.988 103.466C170.951 103.539 170.913 103.613 170.875 103.689C170.846 103.748 170.816 103.808 170.787 103.868C170.749 103.946 170.71 104.026 170.672 104.106C170.642 104.168 170.613 104.23 170.583 104.294C170.544 104.376 170.505 104.461 170.466 104.547C170.436 104.611 170.407 104.675 170.377 104.741C170.337 104.83 170.297 104.921 170.257 105.012C170.227 105.079 170.198 105.144 170.169 105.212C170.127 105.308 170.085 105.408 170.043 105.507C170.015 105.573 169.987 105.637 169.959 105.704C169.913 105.815 169.866 105.93 169.819 106.044C169.795 106.103 169.771 106.16 169.747 106.219C169.677 106.394 169.606 106.572 169.534 106.755C169.486 106.877 169.439 106.998 169.394 107.117C169.387 107.134 169.382 107.151 169.375 107.168C169.29 107.39 169.209 107.608 169.132 107.82C169.116 107.864 169.101 107.907 169.086 107.95C169.02 108.134 168.956 108.314 168.896 108.491C168.883 108.531 168.868 108.572 168.855 108.611C168.787 108.812 168.724 109.006 168.664 109.197C168.651 109.239 168.638 109.281 168.625 109.323C168.573 109.489 168.525 109.652 168.479 109.81C168.471 109.841 168.461 109.873 168.452 109.903C168.402 110.081 168.356 110.254 168.313 110.423C168.303 110.462 168.294 110.501 168.284 110.539C168.247 110.691 168.213 110.839 168.181 110.982C168.177 111.002 168.172 111.022 168.168 111.042C168.135 111.199 168.106 111.35 168.08 111.497C168.074 111.532 168.068 111.567 168.063 111.601C168.04 111.74 168.02 111.875 168.004 112.004C168.003 112.011 168.002 112.019 168.001 112.025C168.001 112.027 168.001 112.028 168 112.03C167.985 112.165 167.974 112.293 167.965 112.417C167.963 112.448 167.962 112.478 167.96 112.508C167.953 112.631 167.949 112.751 167.951 112.864L168.007 118.006C168.006 117.893 168.01 117.773 168.016 117.65C168.018 117.621 168.02 117.59 168.022 117.559C168.03 117.435 168.041 117.307 168.057 117.173C168.058 117.164 168.06 117.154 168.061 117.145C168.077 117.017 168.097 116.882 168.119 116.744C168.125 116.709 168.131 116.674 168.137 116.639C168.163 116.492 168.191 116.342 168.224 116.185C168.229 116.165 168.234 116.144 168.238 116.124C168.269 115.981 168.304 115.834 168.341 115.683C168.351 115.643 168.36 115.604 168.37 115.564C168.413 115.396 168.459 115.223 168.51 115.045C168.518 115.015 168.527 114.985 168.536 114.955C168.581 114.795 168.63 114.632 168.682 114.465C168.695 114.423 168.707 114.382 168.721 114.34C168.781 114.149 168.844 113.954 168.912 113.753C168.925 113.714 168.939 113.675 168.952 113.635C169.013 113.457 169.077 113.276 169.143 113.091C169.158 113.048 169.173 113.006 169.189 112.963C169.266 112.751 169.347 112.533 169.432 112.311C169.483 112.174 169.536 112.038 169.591 111.897C169.662 111.715 169.734 111.535 169.805 111.36C169.828 111.303 169.85 111.249 169.873 111.193C169.921 111.076 169.969 110.959 170.016 110.846C170.044 110.779 170.072 110.715 170.099 110.65C170.142 110.55 170.184 110.451 170.226 110.354C170.255 110.286 170.285 110.22 170.314 110.153C170.354 110.063 170.394 109.972 170.433 109.885C170.463 109.818 170.493 109.753 170.523 109.687C170.562 109.603 170.601 109.519 170.639 109.437C170.669 109.373 170.699 109.31 170.729 109.247C170.767 109.167 170.805 109.089 170.843 109.012C170.873 108.951 170.903 108.89 170.933 108.83C170.97 108.755 171.007 108.682 171.045 108.609C171.074 108.551 171.104 108.494 171.133 108.438C171.171 108.366 171.208 108.296 171.245 108.227C171.274 108.174 171.303 108.12 171.331 108.068C171.369 107.999 171.407 107.933 171.445 107.866C171.472 107.818 171.5 107.769 171.527 107.722C171.566 107.655 171.605 107.591 171.644 107.526C171.67 107.483 171.696 107.439 171.721 107.397C171.763 107.329 171.805 107.265 171.846 107.2C171.868 107.166 171.891 107.13 171.913 107.096C171.971 107.008 172.028 106.924 172.085 106.843C172.091 106.835 172.096 106.826 172.102 106.818C172.165 106.729 172.227 106.644 172.289 106.563C172.309 106.536 172.33 106.512 172.35 106.486C172.391 106.433 172.433 106.38 172.474 106.331C172.498 106.301 172.522 106.274 172.546 106.246C172.582 106.205 172.618 106.164 172.653 106.125C172.724 106.047 172.794 105.973 172.864 105.906C172.939 105.833 173.015 105.766 173.092 105.701C173.114 105.682 173.137 105.664 173.159 105.646C173.217 105.599 173.275 105.554 173.334 105.511C173.357 105.494 173.381 105.477 173.404 105.461C173.445 105.432 173.487 105.405 173.529 105.378C173.556 105.361 173.583 105.343 173.61 105.327C173.657 105.299 173.704 105.273 173.752 105.248C173.774 105.236 173.795 105.223 173.818 105.212C173.918 105.16 174.021 105.116 174.123 105.077C174.144 105.069 174.164 105.061 174.184 105.054C174.276 105.021 174.368 104.992 174.461 104.968C174.476 104.964 174.49 104.962 174.505 104.958C174.585 104.939 174.667 104.924 174.749 104.912C174.771 104.908 174.793 104.905 174.815 104.902C174.916 104.89 175.018 104.882 175.12 104.879C175.152 104.879 175.185 104.879 175.217 104.88C175.257 104.88 175.296 104.88 175.335 104.882C175.371 104.884 175.406 104.887 175.442 104.89C175.482 104.893 175.521 104.896 175.561 104.901C175.589 104.904 175.618 104.909 175.646 104.913C175.714 104.922 175.781 104.934 175.849 104.948C175.877 104.954 175.904 104.959 175.931 104.965C176.023 104.986 176.115 105.009 176.209 105.038C176.346 105.08 176.478 105.128 176.602 105.182C177.572 105.601 178.135 106.381 178.29 107.523C178.309 107.666 178.32 107.82 178.322 107.987L178.265 102.844Z" fill="url(#paint26_linear_2997_26917)"/>
<mask id="mask0_2997_26917" style="mask-type:alpha" maskUnits="userSpaceOnUse" x="156" y="95" width="34" height="36">
<path fill-rule="evenodd" clip-rule="evenodd" d="M168.207 95.6992L189.278 105.701L177.658 130.181L156.587 120.179L168.207 95.6992Z" fill="white"/>
</mask>
<g mask="url(#mask0_2997_26917)">
<path fill-rule="evenodd" clip-rule="evenodd" d="M180.832 122.404C180.964 122.235 181.096 122.061 181.226 121.882C181.255 121.841 181.285 121.802 181.315 121.761C181.471 121.541 181.625 121.311 181.778 121.075C181.817 121.014 181.856 120.949 181.895 120.887C182.012 120.702 182.127 120.513 182.24 120.319C182.285 120.242 182.33 120.166 182.374 120.087C182.505 119.858 182.634 119.623 182.761 119.38C182.778 119.348 182.796 119.318 182.812 119.285C182.955 119.01 183.095 118.726 183.234 118.435C183.273 118.353 183.311 118.27 183.349 118.187C183.453 117.964 183.556 117.735 183.658 117.502C183.697 117.412 183.736 117.323 183.775 117.231C183.909 116.918 184.041 116.599 184.17 116.27C184.192 116.212 184.214 116.155 184.236 116.098C184.279 115.986 184.318 115.874 184.359 115.761C184.392 115.671 184.427 115.58 184.459 115.489C184.515 115.329 184.567 115.17 184.62 115.011C184.644 114.937 184.67 114.864 184.693 114.79C184.767 114.557 184.837 114.324 184.903 114.091C184.91 114.067 184.916 114.042 184.923 114.017C184.981 113.809 185.037 113.601 185.088 113.393C185.108 113.312 185.126 113.232 185.145 113.152C185.181 112.999 185.217 112.846 185.249 112.694C185.269 112.6 185.287 112.507 185.306 112.414C185.333 112.274 185.361 112.135 185.386 111.995C185.404 111.896 185.42 111.797 185.436 111.698C185.458 111.564 185.479 111.43 185.499 111.295C185.514 111.194 185.527 111.092 185.54 110.991C185.55 110.914 185.562 110.836 185.571 110.759C185.583 110.657 185.594 110.554 185.605 110.452C185.656 109.971 185.68 109.511 185.674 109.071L185.608 103.959C185.614 104.399 185.591 104.86 185.539 105.341C185.52 105.521 185.497 105.701 185.474 105.881C185.461 105.982 185.448 106.083 185.433 106.183C185.414 106.318 185.392 106.453 185.37 106.588C185.354 106.687 185.338 106.785 185.32 106.883C185.295 107.024 185.268 107.163 185.24 107.303C185.221 107.396 185.203 107.489 185.183 107.583C185.151 107.735 185.115 107.888 185.079 108.04C185.06 108.121 185.042 108.201 185.022 108.282C184.971 108.49 184.915 108.698 184.857 108.906C184.85 108.931 184.845 108.955 184.838 108.98C184.772 109.213 184.701 109.446 184.627 109.679C184.604 109.752 184.578 109.826 184.554 109.9C184.501 110.059 184.449 110.218 184.393 110.378C184.361 110.469 184.326 110.56 184.293 110.65C184.231 110.82 184.17 110.989 184.104 111.159C183.975 111.488 183.843 111.807 183.709 112.12C183.67 112.212 183.631 112.301 183.592 112.392C183.49 112.624 183.387 112.852 183.283 113.076C183.245 113.159 183.207 113.242 183.168 113.324C183.03 113.615 182.889 113.899 182.747 114.174C182.73 114.207 182.712 114.237 182.695 114.269C182.568 114.512 182.439 114.747 182.308 114.976C182.264 115.054 182.219 115.131 182.174 115.207C182.061 115.402 181.946 115.591 181.83 115.776C181.79 115.839 181.751 115.903 181.712 115.964C181.559 116.2 181.405 116.43 181.249 116.65C181.22 116.691 181.19 116.73 181.16 116.77C181.03 116.95 180.899 117.124 180.766 117.293C180.717 117.355 180.667 117.416 180.617 117.477C180.489 117.634 180.36 117.786 180.229 117.933C180.189 117.978 180.15 118.025 180.11 118.069C180.028 118.159 179.944 118.244 179.861 118.33C179.802 118.392 179.742 118.456 179.683 118.515C179.593 118.604 179.503 118.687 179.412 118.771C179.356 118.823 179.302 118.877 179.245 118.927C179.14 119.022 179.032 119.11 178.925 119.198C178.883 119.233 178.842 119.27 178.799 119.304C178.649 119.424 178.498 119.538 178.344 119.646C178.196 119.75 178.047 119.849 177.896 119.942C177.726 120.047 177.552 120.145 177.374 120.236C177.269 120.291 177.161 120.342 177.053 120.392C177.01 120.412 176.969 120.433 176.925 120.452C176.77 120.521 176.611 120.585 176.45 120.644C176.422 120.654 176.392 120.663 176.363 120.673C176.231 120.72 176.099 120.764 175.964 120.804C175.907 120.821 175.848 120.835 175.791 120.851C175.683 120.881 175.574 120.909 175.463 120.935C175.39 120.953 175.317 120.968 175.243 120.983C175.139 121.005 175.035 121.025 174.93 121.042C174.854 121.056 174.778 121.068 174.701 121.079C174.605 121.093 174.507 121.105 174.41 121.117C174.3 121.13 174.19 121.141 174.079 121.15C173.985 121.158 173.892 121.165 173.797 121.17C173.684 121.177 173.57 121.181 173.455 121.184C173.343 121.188 173.231 121.19 173.118 121.19C173.062 121.19 173.006 121.19 172.949 121.189C172.783 121.187 172.615 121.181 172.445 121.172C172.422 121.17 172.4 121.17 172.376 121.169C172.184 121.157 171.989 121.141 171.792 121.12C171.737 121.115 171.68 121.108 171.625 121.101C171.498 121.087 171.369 121.07 171.239 121.052C171.097 121.032 170.953 121.01 170.809 120.986C170.708 120.969 170.608 120.953 170.506 120.934C170.355 120.906 170.202 120.875 170.048 120.842C169.95 120.822 169.853 120.802 169.753 120.78C169.583 120.741 169.409 120.697 169.235 120.653C169.15 120.632 169.067 120.612 168.981 120.589C168.72 120.52 168.456 120.445 168.188 120.363C167.431 120.132 166.737 119.88 166.106 119.607C164.851 119.065 163.844 118.438 163.084 117.726C161.941 116.659 161.167 115.369 160.761 113.855C160.602 113.287 160.518 112.641 160.508 111.918L160.574 117.029C160.584 117.752 160.668 118.398 160.827 118.966C161.233 120.48 162.007 121.77 163.15 122.838C163.91 123.549 164.916 124.176 166.172 124.718C166.803 124.992 167.497 125.243 168.254 125.474C168.522 125.556 168.786 125.631 169.047 125.7C169.133 125.723 169.216 125.743 169.301 125.764C169.475 125.808 169.648 125.852 169.819 125.891C169.918 125.913 170.016 125.933 170.114 125.953C170.268 125.986 170.421 126.017 170.572 126.045C170.674 126.064 170.774 126.08 170.875 126.097C171.02 126.121 171.163 126.143 171.305 126.163C171.353 126.17 171.403 126.179 171.451 126.185C171.532 126.196 171.611 126.203 171.691 126.213C171.747 126.219 171.802 126.226 171.857 126.231C172.055 126.251 172.25 126.268 172.443 126.28C172.465 126.281 172.487 126.281 172.509 126.283C172.68 126.292 172.848 126.298 173.015 126.3C173.072 126.301 173.128 126.301 173.183 126.301C173.243 126.301 173.303 126.303 173.361 126.302C173.415 126.301 173.467 126.297 173.521 126.296C173.636 126.292 173.75 126.288 173.862 126.281C173.957 126.276 174.051 126.269 174.145 126.261C174.256 126.252 174.366 126.241 174.475 126.228C174.526 126.222 174.579 126.219 174.629 126.212C174.676 126.206 174.721 126.197 174.767 126.19C174.844 126.179 174.92 126.167 174.996 126.154C175.101 126.136 175.206 126.116 175.309 126.094C175.383 126.079 175.456 126.063 175.529 126.047C175.564 126.038 175.6 126.032 175.635 126.023C175.71 126.005 175.783 125.983 175.857 125.962C175.914 125.947 175.973 125.932 176.03 125.915C176.165 125.875 176.298 125.831 176.429 125.784C176.458 125.774 176.487 125.765 176.516 125.755C176.52 125.753 176.525 125.752 176.529 125.751C176.686 125.693 176.839 125.63 176.991 125.564C177.034 125.545 177.076 125.523 177.118 125.503C177.212 125.46 177.306 125.418 177.398 125.371C177.412 125.364 177.426 125.355 177.44 125.347C177.618 125.256 177.792 125.158 177.962 125.053C178.111 124.96 178.26 124.863 178.406 124.76C178.408 124.758 178.409 124.757 178.41 124.756C178.564 124.648 178.715 124.534 178.865 124.415C178.907 124.382 178.947 124.345 178.988 124.311C179.097 124.222 179.205 124.133 179.311 124.038C179.367 123.988 179.423 123.934 179.478 123.882C179.569 123.798 179.659 123.715 179.748 123.626C179.808 123.567 179.868 123.503 179.927 123.441C180.011 123.355 180.094 123.27 180.176 123.18C180.188 123.167 180.2 123.155 180.212 123.142C180.24 123.112 180.267 123.076 180.295 123.045C180.426 122.897 180.555 122.746 180.683 122.588C180.733 122.527 180.782 122.466 180.832 122.404Z" fill="url(#paint27_linear_2997_26917)"/>
</g>
<path fill-rule="evenodd" clip-rule="evenodd" d="M174.403 113.991C175.07 113.043 175.829 111.482 176.679 109.307C177.929 106.115 178.464 103.878 178.286 102.594C178.128 101.455 177.563 100.675 176.591 100.255C176.466 100.201 176.335 100.153 176.197 100.111C174.956 99.731 173.84 100.018 172.85 100.969C171.859 101.922 170.77 103.912 169.585 106.94C168.389 110.001 167.875 112.184 168.044 113.489C168.194 114.657 168.739 115.443 169.676 115.848C169.788 115.897 169.905 115.939 170.028 115.977C170.791 116.21 171.544 116.174 172.287 115.868C173.032 115.564 173.738 114.938 174.403 113.991ZM184.245 111.307C182.538 115.667 180.462 118.607 178.013 120.122C175.564 121.639 172.313 121.779 168.262 120.541C167.502 120.309 166.805 120.056 166.171 119.782C164.91 119.236 163.898 118.607 163.135 117.893C161.987 116.821 161.209 115.525 160.8 114.005C160.496 112.921 160.463 111.555 160.703 109.909C160.94 108.263 161.423 106.511 162.152 104.653C163.94 100.083 166.114 97.1677 168.676 95.9063C171.238 94.6452 174.408 94.5912 178.191 95.7452C178.954 95.9784 179.647 96.2296 180.268 96.4982C181.124 96.8687 181.846 97.2725 182.431 97.7098C183.441 98.4664 184.191 99.2752 184.676 100.14C185.162 101.004 185.48 101.853 185.627 102.688C185.775 103.523 185.794 104.449 185.685 105.468C185.486 107.414 185.006 109.36 184.245 111.307Z" fill="url(#paint28_linear_2997_26917)"/>
<path fill-rule="evenodd" clip-rule="evenodd" d="M205.282 126.984L202.945 130.992L206.05 123.005L208.301 118.9L205.282 126.984Z" fill="#B9D0F0"/>
<path fill-rule="evenodd" clip-rule="evenodd" d="M208.299 118.9L206.059 122.985L195.695 128.027L197.935 123.943L208.299 118.9Z" fill="url(#paint29_linear_2997_26917)"/>
<path fill-rule="evenodd" clip-rule="evenodd" d="M213.155 136.264L210.936 140.216L207.555 138.897L209.773 134.945L213.155 136.264Z" fill="url(#paint30_linear_2997_26917)"/>
<path fill-rule="evenodd" clip-rule="evenodd" d="M187.133 131.11L201.016 136.591L203.274 132.466L189.439 126.963L187.133 131.11Z" fill="url(#paint31_linear_2997_26917)"/>
<path fill-rule="evenodd" clip-rule="evenodd" d="M189.245 125.177L187.133 131.112L189.439 126.954L191.624 121.117L189.245 125.177Z" fill="#B9D0F0"/>
<path fill-rule="evenodd" clip-rule="evenodd" d="M199.324 141.204L205.829 143.84L208.086 139.834L201.448 137.252L199.324 141.204Z" fill="url(#paint32_linear_2997_26917)"/>
<path fill-rule="evenodd" clip-rule="evenodd" d="M201.525 137.103L199.324 141.203L201.076 136.408L203.277 132.309L201.525 137.103Z" fill="#B9D0F0"/>
<path fill-rule="evenodd" clip-rule="evenodd" d="M211.169 111.227L191.623 121.116L189.438 126.964L203.23 132.468L201.444 137.251L208.043 139.886L209.831 135.104L213.251 136.468L215.312 130.953L211.892 129.588L217.768 113.859L211.169 111.227ZM198.002 124.045L208.298 118.9L205.289 126.953L198.002 124.045Z" fill="url(#paint33_linear_2997_26917)"/>
<path d="M225.688 16.5254L226.334 16.9483L222.327 25.098L221.681 24.6751L225.688 16.5254Z" fill="#E9F2FD"/>
<circle cx="225.719" cy="17.72" r="2.13958" transform="rotate(21.4918 225.719 17.72)" fill="url(#paint34_linear_2997_26917)"/>
<ellipse cx="218.988" cy="30.3898" rx="13.7306" ry="10.6356" transform="rotate(21.6461 218.988 30.3898)" fill="url(#paint35_linear_2997_26917)"/>
<ellipse cx="212.145" cy="42.8755" rx="37.4048" ry="15.5853" transform="rotate(21.4918 212.145 42.8755)" fill="url(#paint36_linear_2997_26917)"/>
<path fill-rule="evenodd" clip-rule="evenodd" d="M206.708 57.4874C225.239 64.7838 242.726 64.4395 245.766 56.7183C248.806 48.9972 236.248 36.8231 217.717 29.5267C199.187 22.2303 181.7 22.5746 178.66 30.2958C175.62 38.0169 188.177 50.191 206.708 57.4874ZM196.216 34.0024C195.743 35.2047 193.573 35.4761 191.37 34.6086C189.167 33.7412 187.765 32.0633 188.238 30.861C188.711 29.6588 190.881 29.3873 193.084 30.2548C195.287 31.1223 196.689 32.8001 196.216 34.0024ZM212.966 36.4641C212.715 37.7316 211.019 38.464 209.178 38.0998C207.337 37.7356 206.048 36.4128 206.299 35.1453C206.55 33.8777 208.245 33.1454 210.086 33.5095C211.927 33.8737 213.216 35.1965 212.966 36.4641ZM224.947 46.5087C226.595 47.406 228.432 47.2134 229.05 46.0785C229.668 44.9436 228.832 43.2963 227.184 42.399C225.536 41.5017 223.699 41.6943 223.081 42.8292C222.463 43.9641 223.299 45.6114 224.947 46.5087ZM240.14 57.3342C239.307 57.9372 237.883 57.3923 236.96 56.1172C236.037 54.8421 235.963 53.3196 236.796 52.7166C237.629 52.1136 239.053 52.6584 239.976 53.9335C240.899 55.2086 240.972 56.7311 240.14 57.3342Z" fill="url(#paint37_linear_2997_26917)"/>
<path d="M195.597 44.3999L224.397 58.7999L227.997 154.8L124.799 126L195.597 44.3999Z" fill="url(#paint38_linear_2997_26917)"/>
<ellipse cx="210.428" cy="51.463" rx="16.3875" ry="6.12944" transform="rotate(21.4918 210.428 51.463)" fill="url(#paint39_linear_2997_26917)"/>
<circle cx="151.2" cy="30.0008" r="7.2" fill="url(#paint40_linear_2997_26917)"/>
<defs>
<filter id="filter0_f_2997_26917" x="148.569" y="114.821" width="35.3619" height="32.7056" filterUnits="userSpaceOnUse" color-interpolation-filters="sRGB">
<feFlood flood-opacity="0" result="BackgroundImageFix"/>
<feBlend mode="normal" in="SourceGraphic" in2="BackgroundImageFix" result="shape"/>
<feGaussianBlur stdDeviation="2.65493" result="effect1_foregroundBlur_2997_26917"/>
</filter>
<filter id="filter1_f_2997_26917" x="179.37" y="113.932" width="36.2916" height="38.0338" filterUnits="userSpaceOnUse" color-interpolation-filters="sRGB">
<feFlood flood-opacity="0" result="BackgroundImageFix"/>
<feBlend mode="normal" in="SourceGraphic" in2="BackgroundImageFix" result="shape"/>
<feGaussianBlur stdDeviation="2.65493" result="effect1_foregroundBlur_2997_26917"/>
</filter>
<linearGradient id="paint0_linear_2997_26917" x1="168" y1="-19.8" x2="168" y2="165" gradientUnits="userSpaceOnUse">
<stop stop-color="#E5F0FC"/>
<stop offset="1" stop-color="white" stop-opacity="0"/>
</linearGradient>
<linearGradient id="paint1_linear_2997_26917" x1="110.083" y1="64.8008" x2="104.551" y2="125.029" gradientUnits="userSpaceOnUse">
<stop stop-color="white"/>
<stop offset="1" stop-color="white" stop-opacity="0"/>
</linearGradient>
<linearGradient id="paint2_linear_2997_26917" x1="222.002" y1="94.7996" x2="218.959" y2="116.309" gradientUnits="userSpaceOnUse">
<stop stop-color="white"/>
<stop offset="1" stop-color="white" stop-opacity="0"/>
</linearGradient>
<linearGradient id="paint3_linear_2997_26917" x1="244.532" y1="87.5996" x2="247.098" y2="109.894" gradientUnits="userSpaceOnUse">
<stop stop-color="white"/>
<stop offset="1" stop-color="white" stop-opacity="0"/>
</linearGradient>
<linearGradient id="paint4_linear_2997_26917" x1="168" y1="117.6" x2="168" y2="164.4" gradientUnits="userSpaceOnUse">
<stop stop-color="#E5F0FC"/>
<stop offset="1" stop-color="white" stop-opacity="0"/>
</linearGradient>
<linearGradient id="paint5_linear_2997_26917" x1="0.952057" y1="7.23672" x2="21.2501" y2="-0.465987" gradientUnits="userSpaceOnUse">
<stop stop-color="#EFF4FB"/>
<stop offset="1" stop-color="#EFF4FB" stop-opacity="0"/>
</linearGradient>
<linearGradient id="paint6_linear_2997_26917" x1="241.092" y1="135.067" x2="236.015" y2="138.926" gradientUnits="userSpaceOnUse">
<stop stop-color="#EFF4FB"/>
<stop offset="1" stop-color="#EFF4FB" stop-opacity="0"/>
</linearGradient>
<linearGradient id="paint7_linear_2997_26917" x1="8.40816" y1="1.03368" x2="-5.72509" y2="3.85995" gradientUnits="userSpaceOnUse">
<stop stop-color="#EFF4FB"/>
<stop offset="1" stop-color="#EFF4FB" stop-opacity="0"/>
</linearGradient>
<linearGradient id="paint8_linear_2997_26917" x1="89.5186" y1="139.932" x2="95.0457" y2="142.557" gradientUnits="userSpaceOnUse">
<stop stop-color="#EFF4FB"/>
<stop offset="1" stop-color="#EFF4FB" stop-opacity="0"/>
</linearGradient>
<linearGradient id="paint9_linear_2997_26917" x1="13.6666" y1="1.92448" x2="-9.51756" y2="5.97206" gradientUnits="userSpaceOnUse">
<stop stop-color="#EFF4FB"/>
<stop offset="1" stop-color="#EFF4FB" stop-opacity="0"/>
</linearGradient>
<linearGradient id="paint10_linear_2997_26917" x1="6.288" y1="0.836219" x2="-4.34092" y2="2.80111" gradientUnits="userSpaceOnUse">
<stop stop-color="#EFF4FB"/>
<stop offset="1" stop-color="#EFF4FB" stop-opacity="0"/>
</linearGradient>
<linearGradient id="paint11_linear_2997_26917" x1="95.5495" y1="137.984" x2="95.479" y2="144.209" gradientUnits="userSpaceOnUse">
<stop stop-color="#DFECFC" stop-opacity="0"/>
<stop offset="1" stop-color="#DFECFC"/>
</linearGradient>
<linearGradient id="paint12_linear_2997_26917" x1="101.081" y1="127.607" x2="101.081" y2="132.122" gradientUnits="userSpaceOnUse">
<stop stop-color="#B5C4DD"/>
<stop offset="1" stop-color="#93A6C8"/>
</linearGradient>
<linearGradient id="paint13_linear_2997_26917" x1="101.149" y1="114.017" x2="101.149" y2="126.707" gradientUnits="userSpaceOnUse">
<stop stop-color="#EAF2FD"/>
<stop offset="1" stop-color="#D2E1F4"/>
</linearGradient>
<linearGradient id="paint14_linear_2997_26917" x1="226.871" y1="133.613" x2="226.825" y2="137.675" gradientUnits="userSpaceOnUse">
<stop stop-color="#DFECFC" stop-opacity="0"/>
<stop offset="1" stop-color="#DFECFC"/>
</linearGradient>
<linearGradient id="paint15_linear_2997_26917" x1="230.48" y1="126.843" x2="230.48" y2="129.788" gradientUnits="userSpaceOnUse">
<stop stop-color="#B5C4DD"/>
<stop offset="1" stop-color="#93A6C8"/>
</linearGradient>
<linearGradient id="paint16_linear_2997_26917" x1="230.524" y1="117.977" x2="230.524" y2="126.257" gradientUnits="userSpaceOnUse">
<stop stop-color="#EAF2FD"/>
<stop offset="1" stop-color="#D2E1F4"/>
</linearGradient>
<linearGradient id="paint17_linear_2997_26917" x1="155.692" y1="128.76" x2="124.684" y2="131.624" gradientUnits="userSpaceOnUse">
<stop stop-color="#BBD1F0"/>
<stop offset="1" stop-color="#E9F3FD" stop-opacity="0"/>
</linearGradient>
<linearGradient id="paint18_linear_2997_26917" x1="135.333" y1="134.037" x2="104.299" y2="134.9" gradientUnits="userSpaceOnUse">
<stop stop-color="#BBD1F0"/>
<stop offset="1" stop-color="#E9F3FD" stop-opacity="0"/>
</linearGradient>
<linearGradient id="paint19_linear_2997_26917" x1="241.637" y1="123.482" x2="181.906" y2="148.779" gradientUnits="userSpaceOnUse">
<stop stop-color="#BBD1F0"/>
<stop offset="1" stop-color="#E9F3FD" stop-opacity="0"/>
</linearGradient>
<linearGradient id="paint20_linear_2997_26917" x1="122.925" y1="116.121" x2="124.731" y2="101.006" gradientUnits="userSpaceOnUse">
<stop stop-color="#B1C4DF"/>
<stop offset="1" stop-color="#E7EFFA"/>
</linearGradient>
<linearGradient id="paint21_linear_2997_26917" x1="99.5751" y1="133.652" x2="104.095" y2="104.846" gradientUnits="userSpaceOnUse">
<stop stop-color="#B1C4DF"/>
<stop offset="1" stop-color="#E7EFFA"/>
</linearGradient>
<linearGradient id="paint22_linear_2997_26917" x1="133.636" y1="131.782" x2="122.108" y2="91.8091" gradientUnits="userSpaceOnUse">
<stop stop-color="#B1C4DF"/>
<stop offset="1" stop-color="#E7EFFA"/>
</linearGradient>
<linearGradient id="paint23_linear_2997_26917" x1="122.517" y1="149.869" x2="114.624" y2="119.13" gradientUnits="userSpaceOnUse">
<stop stop-color="#B1C4DF"/>
<stop offset="1" stop-color="#E7EFFA"/>
</linearGradient>
<linearGradient id="paint24_linear_2997_26917" x1="99.8998" y1="167.21" x2="164.326" y2="107.806" gradientUnits="userSpaceOnUse">
<stop stop-color="#B1C4DF"/>
<stop offset="1" stop-color="#E7EFFA"/>
</linearGradient>
<linearGradient id="paint25_linear_2997_26917" x1="113.474" y1="166.458" x2="142.696" y2="106.44" gradientUnits="userSpaceOnUse">
<stop stop-color="#B1C4DF"/>
<stop offset="0.862255" stop-color="#ECF4FF"/>
</linearGradient>
<linearGradient id="paint26_linear_2997_26917" x1="173.034" y1="117.45" x2="167.069" y2="103.361" gradientUnits="userSpaceOnUse">
<stop stop-color="#B1C4DF"/>
<stop offset="1" stop-color="#E7EFFA"/>
</linearGradient>
<linearGradient id="paint27_linear_2997_26917" x1="170.771" y1="131.021" x2="166.209" y2="116.592" gradientUnits="userSpaceOnUse">
<stop stop-color="#B1C4DF"/>
<stop offset="1" stop-color="#E7EFFA"/>
</linearGradient>
<linearGradient id="paint28_linear_2997_26917" x1="181.959" y1="91.4975" x2="165.345" y2="103.258" gradientUnits="userSpaceOnUse">
<stop stop-color="white"/>
<stop offset="1" stop-color="#E5F0FC"/>
</linearGradient>
<linearGradient id="paint29_linear_2997_26917" x1="178.032" y1="137.12" x2="184.687" y2="105.864" gradientUnits="userSpaceOnUse">
<stop stop-color="#B1C4DF"/>
<stop offset="1" stop-color="#E7EFFA"/>
</linearGradient>
<linearGradient id="paint30_linear_2997_26917" x1="211.987" y1="146.127" x2="206.928" y2="128.888" gradientUnits="userSpaceOnUse">
<stop stop-color="#B1C4DF"/>
<stop offset="1" stop-color="#E7EFFA"/>
</linearGradient>
<linearGradient id="paint31_linear_2997_26917" x1="199.909" y1="147.389" x2="193.76" y2="114.33" gradientUnits="userSpaceOnUse">
<stop stop-color="#B1C4DF"/>
<stop offset="1" stop-color="#E7EFFA"/>
</linearGradient>
<linearGradient id="paint32_linear_2997_26917" x1="206.259" y1="151.23" x2="201.058" y2="129.045" gradientUnits="userSpaceOnUse">
<stop stop-color="#B1C4DF"/>
<stop offset="1" stop-color="#E7EFFA"/>
</linearGradient>
<linearGradient id="paint33_linear_2997_26917" x1="204.644" y1="105.691" x2="194.99" y2="125.73" gradientUnits="userSpaceOnUse">
<stop stop-color="white"/>
<stop offset="1" stop-color="#E5F0FC"/>
</linearGradient>
<linearGradient id="paint34_linear_2997_26917" x1="226.201" y1="16.1911" x2="225.404" y2="20.7573" gradientUnits="userSpaceOnUse">
<stop stop-color="#F6FAFF"/>
<stop offset="1" stop-color="#D0DDEF"/>
</linearGradient>
<linearGradient id="paint35_linear_2997_26917" x1="218.988" y1="19.7543" x2="218.988" y2="41.0254" gradientUnits="userSpaceOnUse">
<stop stop-color="#F8FAFC"/>
<stop offset="0.278935" stop-color="#E8F1FC"/>
</linearGradient>
<linearGradient id="paint36_linear_2997_26917" x1="212.145" y1="27.2902" x2="207.888" y2="54.2883" gradientUnits="userSpaceOnUse">
<stop stop-color="white"/>
<stop offset="1" stop-color="#F8F8FB"/>
</linearGradient>
<linearGradient id="paint37_linear_2997_26917" x1="217.717" y1="29.5266" x2="206.708" y2="57.4873" gradientUnits="userSpaceOnUse">
<stop stop-color="#F6F7FC"/>
<stop offset="1" stop-color="#E5F0FC"/>
</linearGradient>
<linearGradient id="paint38_linear_2997_26917" x1="210.599" y1="44.3999" x2="225.465" y2="87.2236" gradientUnits="userSpaceOnUse">
<stop stop-color="#CFDEF5" stop-opacity="0.4"/>
<stop offset="1" stop-color="#E7EFFA" stop-opacity="0"/>
</linearGradient>
<linearGradient id="paint39_linear_2997_26917" x1="211.13" y1="47.4934" x2="209.812" y2="59.9522" gradientUnits="userSpaceOnUse">
<stop stop-color="#C3D5F1" stop-opacity="0.73"/>
<stop offset="1" stop-color="#DFEEFF"/>
</linearGradient>
<linearGradient id="paint40_linear_2997_26917" x1="151.2" y1="25.6808" x2="151.2" y2="35.4008" gradientUnits="userSpaceOnUse">
<stop stop-color="white"/>
<stop offset="1" stop-color="white" stop-opacity="0"/>
</linearGradient>
</defs>
</svg>
