<svg width="92" height="105" viewBox="0 0 92 105" fill="none" xmlns="http://www.w3.org/2000/svg">
<rect x="40.6602" y="79.5087" width="0.912776" height="5.09527" rx="0.454656" transform="rotate(-52.072 40.6602 79.5087)" fill="url(#paint0_linear_2684_25455)"/>
<rect x="44.3117" y="78.7892" width="0.684582" height="3.6511" rx="0.340992" fill="url(#paint1_linear_2684_25455)"/>
<path d="M43.2626 71.9604C43.441 71.4055 43.9571 71.0293 44.5399 71.0293C45.1227 71.0293 45.6388 71.4055 45.8171 71.9604L46.9848 75.5932L47.2456 76.8101C47.6147 78.5327 46.3015 80.1571 44.5399 80.1571C42.7782 80.1571 41.465 78.5327 41.8342 76.8101L42.0949 75.5932L43.2626 71.9604Z" fill="url(#paint2_linear_2684_25455)"/>
<path d="M38.6025 48.3848L77.7182 53.5316V94.706L38.6025 89.5592V48.3848Z" fill="url(#paint3_linear_2684_25455)"/>
<path d="M38.5467 48.3848L7.8301 55.6122V96.5676L38.5467 89.3402V48.3848Z" fill="url(#paint4_linear_2684_25455)"/>
<path d="M51.8658 31.4129C52.886 27.5064 56.305 19.2645 61.8196 17.5485C68.7129 15.4034 75.6479 22.053 74.9373 24.7091C74.2536 27.2649 72.0118 27.4877 67.5479 23.9038C63.0841 20.3199 62.7319 11.9722 66.7966 10.6163C70.0484 9.53164 74.2202 11.7233 75.8996 12.9547" stroke="url(#paint5_linear_2684_25455)" stroke-width="0.8" stroke-linecap="round" stroke-linejoin="round" stroke-dasharray="1.2 2.4"/>
<path fill-rule="evenodd" clip-rule="evenodd" d="M54.3137 1.61848C52.3511 5.03566 54.6679 8.9816 58.8177 9.53701C61.6864 9.92096 63.7367 9.11897 64.7839 8.41681C65.1555 8.16767 65.2566 7.68727 64.9731 7.3412C64.8264 7.16214 64.6339 6.96671 64.3881 6.77758C64.3212 6.72607 64.2557 6.67755 64.1909 6.62954C63.5121 6.1265 62.9097 5.68008 61.5069 2.44134C60.3108 -0.320155 57.4418 -0.195829 56.0491 0.236502C55.9735 0.25996 55.9019 0.293244 55.8335 0.333005L54.9572 0.842304C54.9005 0.875289 54.8463 0.912855 54.7958 0.954754C56.5585 5.40326 61.3134 7.51882 63.5647 8.03047C58.551 6.91631 55.7639 4.30514 54.3137 1.61848Z" fill="url(#paint6_linear_2684_25455)"/>
<path d="M48.0869 72.7182L42.3549 52.3953L49.6412 40.1298C55.5342 31.2168 62.7301 29.2687 72.6794 33.1244L91.25 45.673L90.2462 46.1749C81.2119 43.6654 75.3408 49.64 73.6833 60.2282L68.0588 80.7882L48.0869 72.7182Z" fill="url(#paint7_linear_2684_25455)"/>
<path d="M47.7809 71.5918L42.0489 51.2688L49.3352 39.0033C54.8604 30.6466 60.4761 28.0803 69.3557 30.9704C70.5751 31.3672 71.705 31.9907 72.7568 32.7242L91.4098 45.7322C81.5512 42.0823 75.0185 48.7978 73.2255 59.15L67.7527 79.6618L47.7809 71.5918Z" fill="url(#paint8_linear_2684_25455)"/>
<rect x="59.8766" y="36.6841" width="15.0699" height="4.01524" rx="2" transform="rotate(33 59.8766 36.6841)" fill="url(#paint9_linear_2684_25455)"/>
<rect x="55.1585" y="44.4127" width="10.1943" height="4.01524" rx="2" transform="rotate(33 55.1585 44.4127)" fill="url(#paint10_linear_2684_25455)"/>
<path d="M45.8611 46.0106C46.8224 41.0338 46.5428 35.6387 43.7548 30.8098C43.6532 30.6337 43.5493 30.4597 43.4433 30.2878C43.3465 30.1075 43.2466 29.9282 43.1436 29.7498C42.7003 28.9821 42.1802 28.3155 41.5944 27.7435C35.5559 20.6456 25.3811 18.5196 17.3227 23.1721C9.26055 27.8267 6.0151 37.7085 9.1502 46.4899C9.35276 47.2788 9.66894 48.0583 10.1098 48.8219C10.2093 48.9942 10.311 49.1645 10.4149 49.3327C10.5138 49.5166 10.6159 49.6997 10.7211 49.8819C13.5104 54.7131 18.113 57.4671 22.8391 59.3082C31.0573 62.5096 38.3736 63.144 40.1095 63.2299C40.3323 63.2409 40.5196 63.1328 40.6214 62.9344C41.4152 61.3877 44.3126 54.0274 45.8611 46.0106Z" fill="url(#paint11_linear_2684_25455)"/>
<g filter="url(#filter0_f_2684_25455)">
<path d="M49.8762 46.0108C50.8375 41.034 49.0897 39.65 47.5839 37.6423C47.4823 37.4662 27.4882 39.4942 27.3822 39.3223C27.2854 39.142 43.2464 38.9627 43.1434 38.7843C42.7002 38.0165 42.18 37.35 41.5942 36.778C35.5558 29.6801 29.3962 27.554 21.3378 32.2065C13.2757 36.8612 14.0454 37.7087 17.1805 46.4901C17.3831 47.279 17.6993 48.0585 18.1401 48.8221C18.2396 48.9944 18.3413 49.1647 18.4452 49.3329C18.5442 49.5168 18.6462 49.6999 18.7514 49.882C21.5407 54.7133 22.1281 57.4673 26.8542 59.3084C35.0724 62.5098 42.3887 63.1442 44.1246 63.2301C44.3474 63.2411 44.5347 63.133 44.6365 62.9346C45.4303 61.3879 48.3277 54.0276 49.8762 46.0108Z" fill="#A3B4CD"/>
</g>
<path d="M47.5129 46.0106C48.4742 41.0338 48.1946 35.6387 45.4066 30.8098C45.3049 30.6337 45.2011 30.4597 45.0951 30.2878C44.9982 30.1075 44.8983 29.9282 44.7953 29.7498C44.3521 28.9821 43.8319 28.3155 43.2461 27.7435C37.2077 20.6456 27.0328 18.5196 18.9745 23.1721C10.9123 27.8267 7.66687 37.7085 10.802 46.4899C11.0045 47.2788 11.3207 48.0583 11.7616 48.8219C11.8611 48.9942 11.9628 49.1645 12.0667 49.3327C12.1656 49.5166 12.2677 49.6997 12.3728 49.8819C15.1622 54.7131 19.7648 57.4671 24.4909 59.3082C32.709 62.5096 40.0254 63.144 41.7613 63.2299C41.9841 63.2409 42.1714 63.1328 42.2732 62.9344C43.067 61.3877 45.9644 54.0274 47.5129 46.0106Z" fill="url(#paint12_linear_2684_25455)"/>
<path d="M35.627 35.7306C38.1217 40.0516 36.6412 45.5769 32.3202 48.0717C27.9992 50.5664 22.4739 49.0859 19.9791 44.7649C17.4844 40.4438 18.9649 34.9186 23.2859 32.4238C27.6069 29.9291 33.1322 31.4096 35.627 35.7306Z" fill="url(#paint13_linear_2684_25455)"/>
<path d="M36.6308 35.9306C39.1255 40.2516 37.645 45.7769 33.324 48.2716C29.003 50.7664 23.4777 49.2859 20.9829 44.9649C18.4882 40.6438 19.9687 35.1185 24.2897 32.6238C28.6108 30.129 34.136 31.6095 36.6308 35.9306Z" fill="url(#paint14_linear_2684_25455)"/>
<path d="M9.94104 48.1828L79.7058 47.179L74.1848 54.7076L68.162 63.24H20.9829L9.94104 48.1828Z" fill="url(#paint15_linear_2684_25455)"/>
<path d="M77.7187 53.5293L44.7792 59.7055V104.997L77.7187 94.7037V53.5293Z" fill="url(#paint16_linear_2684_25455)"/>
<path d="M77.7152 53.5313L44.7756 59.7074L55.0692 77.2065L88.0088 66.9129L77.7152 53.5313Z" fill="url(#paint17_linear_2684_25455)"/>
<path d="M7.72168 55.5898L44.7787 59.7073V104.999L7.72168 96.7643V55.5898Z" fill="url(#paint18_linear_2684_25455)"/>
<path d="M7.7202 55.5898L44.7772 59.7073L37.057 77.2064L0 70.0009L7.7202 55.5898Z" fill="url(#paint19_linear_2684_25455)"/>
<defs>
<filter id="filter0_f_2684_25455" x="8.93821" y="23.7111" width="47.2359" height="45.542" filterUnits="userSpaceOnUse" color-interpolation-filters="sRGB">
<feFlood flood-opacity="0" result="BackgroundImageFix"/>
<feBlend mode="normal" in="SourceGraphic" in2="BackgroundImageFix" result="shape"/>
<feGaussianBlur stdDeviation="3" result="effect1_foregroundBlur_2684_25455"/>
</filter>
<linearGradient id="paint0_linear_2684_25455" x1="41.3245" y1="81.1504" x2="41.2714" y2="84.9069" gradientUnits="userSpaceOnUse">
<stop stop-color="#DFECFC" stop-opacity="0"/>
<stop offset="1" stop-color="#DFECFC"/>
</linearGradient>
<linearGradient id="paint1_linear_2684_25455" x1="44.8228" y1="80.2303" x2="44.8228" y2="82.7404" gradientUnits="userSpaceOnUse">
<stop stop-color="#B5C4DD"/>
<stop offset="1" stop-color="#93A6C8"/>
</linearGradient>
<linearGradient id="paint2_linear_2684_25455" x1="44.5399" y1="67.8364" x2="44.5399" y2="80.1571" gradientUnits="userSpaceOnUse">
<stop stop-color="#EBF3FE" stop-opacity="0.6"/>
<stop offset="1" stop-color="#D1E0F3"/>
</linearGradient>
<linearGradient id="paint3_linear_2684_25455" x1="57.821" y1="-45.5718" x2="56.1527" y2="136.928" gradientUnits="userSpaceOnUse">
<stop stop-color="#B1C4DF"/>
<stop offset="1" stop-color="#E7EFFA"/>
</linearGradient>
<linearGradient id="paint4_linear_2684_25455" x1="30.1147" y1="180.888" x2="28.6293" y2="33.3244" gradientUnits="userSpaceOnUse">
<stop offset="0.129909" stop-color="#B1C4DF"/>
<stop offset="1" stop-color="#E7EFFA"/>
</linearGradient>
<linearGradient id="paint5_linear_2684_25455" x1="87.0449" y1="8.04699" x2="50.8871" y2="37.598" gradientUnits="userSpaceOnUse">
<stop stop-color="#EBF3FE"/>
<stop offset="1" stop-color="#D2E1F5"/>
</linearGradient>
<linearGradient id="paint6_linear_2684_25455" x1="60.4307" y1="14.4549" x2="64.4145" y2="-4.49665" gradientUnits="userSpaceOnUse">
<stop stop-color="#BED3F2"/>
<stop offset="1" stop-color="white"/>
</linearGradient>
<linearGradient id="paint7_linear_2684_25455" x1="75.6905" y1="56.7152" x2="83.3091" y2="46.2407" gradientUnits="userSpaceOnUse">
<stop stop-color="#AFC2DC"/>
<stop offset="1" stop-color="#DCE7F5"/>
</linearGradient>
<linearGradient id="paint8_linear_2684_25455" x1="78.702" y1="37.1409" x2="47.0591" y2="80.6717" gradientUnits="userSpaceOnUse">
<stop offset="0.0024764" stop-color="#EDF3FB"/>
<stop offset="0.123334" stop-color="#FEFEFF"/>
<stop offset="0.189055" stop-color="#ECF3FD"/>
<stop offset="1" stop-color="#B3C4DE"/>
</linearGradient>
<linearGradient id="paint9_linear_2684_25455" x1="53.4332" y1="39.9057" x2="80.0123" y2="40.3656" gradientUnits="userSpaceOnUse">
<stop stop-color="#BBCBE2"/>
<stop offset="1" stop-color="#F1F7FF"/>
</linearGradient>
<linearGradient id="paint10_linear_2684_25455" x1="53.2176" y1="47.5629" x2="71.453" y2="47.733" gradientUnits="userSpaceOnUse">
<stop stop-color="#BBCBE2"/>
<stop offset="1" stop-color="#F1F7FF"/>
</linearGradient>
<linearGradient id="paint11_linear_2684_25455" x1="19.9904" y1="53.336" x2="43.5094" y2="38.3424" gradientUnits="userSpaceOnUse">
<stop stop-color="#AFC2DC"/>
<stop offset="1" stop-color="#D3DDEA"/>
</linearGradient>
<linearGradient id="paint12_linear_2684_25455" x1="49.9998" y1="49.0769" x2="-5.31407" y2="56.793" gradientUnits="userSpaceOnUse">
<stop stop-color="#F8FBFF"/>
<stop offset="1" stop-color="#B1C4DF"/>
</linearGradient>
<linearGradient id="paint13_linear_2684_25455" x1="18.9753" y1="41.1562" x2="28.7439" y2="32.0399" gradientUnits="userSpaceOnUse">
<stop stop-color="#B2C2D9"/>
<stop offset="1" stop-color="#C9D9F1"/>
</linearGradient>
<linearGradient id="paint14_linear_2684_25455" x1="38.0075" y1="43.7756" x2="10.5044" y2="46.2023" gradientUnits="userSpaceOnUse">
<stop stop-color="white"/>
<stop offset="1" stop-color="#D8E8FE"/>
</linearGradient>
<linearGradient id="paint15_linear_2684_25455" x1="41.6166" y1="49.0685" x2="41.9108" y2="63.2477" gradientUnits="userSpaceOnUse">
<stop stop-color="#D0DDEF" stop-opacity="0"/>
<stop offset="1" stop-color="#819ABD"/>
</linearGradient>
<linearGradient id="paint16_linear_2684_25455" x1="-137.319" y1="18.2682" x2="98.0063" y2="94.6747" gradientUnits="userSpaceOnUse">
<stop stop-color="#B1C4DF"/>
<stop offset="1" stop-color="#E7EFFA"/>
</linearGradient>
<linearGradient id="paint17_linear_2684_25455" x1="51.7952" y1="34.5319" x2="94.5575" y2="114.034" gradientUnits="userSpaceOnUse">
<stop offset="0.14576" stop-color="white"/>
<stop offset="1" stop-color="#D4E0F1"/>
</linearGradient>
<linearGradient id="paint18_linear_2684_25455" x1="23.4905" y1="-13.0488" x2="38.5298" y2="167.588" gradientUnits="userSpaceOnUse">
<stop stop-color="#B1C4DF"/>
<stop offset="1" stop-color="#E7EFFA"/>
</linearGradient>
<linearGradient id="paint19_linear_2684_25455" x1="26.5006" y1="-1.60536" x2="-31.7406" y2="54.4812" gradientUnits="userSpaceOnUse">
<stop stop-color="white"/>
<stop offset="1" stop-color="#E5F0FC"/>
</linearGradient>
</defs>
</svg>
