<svg width="20" height="20" viewBox="0 0 20 20" fill="none" xmlns="http://www.w3.org/2000/svg">
<path d="M10 0C4.47857 0 0 4.47857 0 10C0 15.5214 4.47857 20 10 20C15.5214 20 20 15.5214 20 10C20 4.47857 15.5214 -2.09263e-08 10 0ZM14.3429 8.11786L9.28214 12.8464C9.07857 13.0357 8.81429 13.1321 8.55357 13.1321C8.27143 13.1321 7.98929 13.0214 7.78214 12.8036L5.625 10.5464C5.35357 10.2607 5.36429 9.81071 5.64643 9.53572C5.93214 9.26429 6.38214 9.27143 6.65714 9.55714L8.56786 11.5571L13.3679 7.07143C13.6571 6.80357 14.1071 6.81786 14.3786 7.10357C14.6464 7.39643 14.6321 7.84643 14.3429 8.11786Z" fill="#06C151"/>
</svg>
