<svg width="10" height="12" viewBox="0 0 10 12" fill="none" xmlns="http://www.w3.org/2000/svg">
<path d="M3.76425 11.221C3.83986 11.221 3.91562 11.2034 3.98524 11.1681L6.69741 10.1764C6.7778 10.1356 6.84531 10.0733 6.89247 9.99646C6.93963 9.91962 6.9646 9.83123 6.9646 9.74107V4.54355L9.85701 0.833415C9.92529 0.765139 9.97178 0.678149 9.99062 0.583448C10.0095 0.488747 9.99979 0.390587 9.96284 0.30138C9.92589 0.212174 9.86332 0.135927 9.78303 0.082282C9.70275 0.0286369 9.60836 2.51643e-06 9.51181 0L0.488194 0C0.391638 2.51643e-06 0.297251 0.0286369 0.216969 0.082282C0.136685 0.135927 0.0741119 0.212174 0.0371618 0.30138C0.000211716 0.390587 -0.00945568 0.488747 0.00938034 0.583448C0.0282173 0.678149 0.0747118 0.765139 0.142986 0.833415L3.27603 4.54355V10.7327C3.27602 10.7969 3.28864 10.8603 3.31318 10.9196C3.33771 10.9788 3.37367 11.0326 3.41901 11.078C3.46435 11.1233 3.51817 11.1593 3.57741 11.1838C3.63664 11.2083 3.70013 11.221 3.76425 11.221ZM5.60098 9.44141L4.62419 9.93735V4.34132C4.62419 4.27721 4.61156 4.21372 4.58703 4.15449C4.56249 4.09526 4.52653 4.04144 4.48119 3.99611L2.17947 1.30189H7.93529L5.74398 4.11388C5.65243 4.20543 5.60099 4.32961 5.60098 4.45909V9.44141Z" fill="#266FE8"/>
</svg>
