<svg width="20" height="20" viewBox="0 0 20 20" fill="none" xmlns="http://www.w3.org/2000/svg">
<path fill-rule="evenodd" clip-rule="evenodd" d="M7.1849 2.6C7.1849 2.26863 7.45352 2 7.7849 2H12.4182C12.7496 2 13.0182 2.26863 13.0182 2.6C13.0182 2.93137 12.7496 3.2 12.4182 3.2H7.7849C7.45353 3.2 7.1849 2.93137 7.1849 2.6ZM7.74199 9.03739H7.16027H3.30156V16.1374H16.9016V9.03739H13.0429H12.4611L12.1008 8.58071L10.1016 6.04699L8.10232 8.58071L7.74199 9.03739ZM9.15951 5.30366C9.63996 4.69476 10.5632 4.69476 11.0436 5.30366L13.0429 7.83739H17.1016C17.6538 7.83739 18.1016 8.2851 18.1016 8.83739V16.3374C18.1016 16.8897 17.6538 17.3374 17.1016 17.3374H3.10156C2.54928 17.3374 2.10156 16.8897 2.10156 16.3374V8.83739C2.10156 8.2851 2.54928 7.83739 3.10156 7.83739H7.16027L9.15951 5.30366ZM6.53457 12.6528C6.53457 12.2938 6.82559 12.0028 7.18457 12.0028C7.54356 12.0028 7.83457 12.2938 7.83457 12.6528C7.83457 13.0118 7.54356 13.3028 7.18457 13.3028C6.82559 13.3028 6.53457 13.0118 6.53457 12.6528ZM7.18457 10.8028C6.16284 10.8028 5.33457 11.6311 5.33457 12.6528C5.33457 13.6746 6.16284 14.5028 7.18457 14.5028C8.2063 14.5028 9.03457 13.6746 9.03457 12.6528C9.03457 11.6311 8.2063 10.8028 7.18457 10.8028ZM10.9346 11.5863C10.9346 11.255 11.2032 10.9863 11.5346 10.9863C11.8659 10.9863 12.1346 11.255 12.1346 11.5863V13.7197C12.1346 14.051 11.8659 14.3197 11.5346 14.3197C11.2032 14.3197 10.9346 14.051 10.9346 13.7197V11.5863ZM14.0346 10.9863C13.7032 10.9863 13.4346 11.255 13.4346 11.5863V13.7197C13.4346 14.051 13.7032 14.3197 14.0346 14.3197C14.3659 14.3197 14.6346 14.051 14.6346 13.7197V11.5863C14.6346 11.255 14.3659 10.9863 14.0346 10.9863Z" fill="#2373FF"/>
</svg>
