<svg width="24" height="24" viewBox="0 0 24 24" fill="none" xmlns="http://www.w3.org/2000/svg">
<path d="M17.0391 15.8449C17.197 16.0036 17.2856 16.2182 17.2856 16.442C17.2856 16.6658 17.197 16.8805 17.0391 17.0391C16.8805 17.1967 16.666 17.2851 16.4425 17.2851C16.2189 17.2851 16.0045 17.1967 15.8459 17.0391L12 13.1932L8.15628 17.0391C7.99762 17.1973 7.78269 17.2862 7.55862 17.2862C7.33455 17.2862 7.11962 17.1973 6.96096 17.0391C6.80337 16.8805 6.71492 16.666 6.71492 16.4425C6.71492 16.2189 6.80337 16.0045 6.96096 15.8459L10.8047 12.0021L6.96096 8.15628C6.80273 7.99762 6.71387 7.78269 6.71387 7.55862C6.71387 7.33455 6.80273 7.11962 6.96096 6.96096C7.11962 6.80273 7.33455 6.71387 7.55862 6.71387C7.78269 6.71387 7.99762 6.80273 8.15628 6.96096L12 10.8068L15.8438 6.96307C16.0021 6.80456 16.2169 6.71532 16.441 6.71492C16.6651 6.71453 16.8802 6.80301 17.0391 6.96096C17.1973 7.11962 17.2862 7.33455 17.2862 7.55862C17.2862 7.78269 17.1973 7.99762 17.0391 8.15628L13.1932 12L17.0391 15.8449Z" fill="#E34D59"/>
</svg>
