<svg width="15" height="16" viewBox="0 0 15 16" fill="none" xmlns="http://www.w3.org/2000/svg">
<path d="M7.66693 12.3333C4.8136 12.3333 2.24626 10.6493 1.05493 7.99133C0.978929 7.764 0.978929 7.56933 1.07293 7.29533C2.24626 4.684 4.81426 3 7.66626 3C10.5196 3 13.0876 4.684 14.2783 7.342C14.3543 7.56933 14.3543 7.764 14.2603 8.038C13.0876 10.6493 10.5196 12.3333 7.6676 12.3333H7.66693ZM1.9876 7.62933C3.00093 9.88333 5.2116 11.3333 7.66693 11.3333C10.1223 11.3333 12.3336 9.88333 13.3283 7.67533C13.3349 7.65333 13.3349 7.67867 13.3449 7.702L13.3456 7.704C12.3329 5.45 10.1216 4 7.6676 4C5.21226 4 3.00093 5.45 2.00626 7.658C1.99893 7.68 1.99893 7.65467 1.98893 7.63133V7.62933H1.9876ZM7.66693 10.25C7.32657 10.2531 6.98899 10.1884 6.67386 10.0598C6.35874 9.93113 6.07237 9.74104 5.83144 9.50061C5.59051 9.26017 5.39983 8.9742 5.27053 8.65934C5.14122 8.34448 5.07586 8.00704 5.07826 7.66667C5.07586 7.3263 5.14122 6.98885 5.27053 6.674C5.39983 6.35914 5.59051 6.07316 5.83144 5.83273C6.07237 5.59229 6.35874 5.40221 6.67386 5.27355C6.98899 5.14489 7.32657 5.08023 7.66693 5.08333C8.00718 5.08041 8.34461 5.1452 8.65958 5.27394C8.97455 5.40268 9.26077 5.59279 9.50155 5.8332C9.74234 6.07362 9.9329 6.35954 10.0621 6.67431C10.1913 6.98908 10.2567 7.32641 10.2543 7.66667C10.2567 8.00698 10.1913 8.34437 10.0621 8.65918C9.93279 8.974 9.74218 9.25994 9.50132 9.50037C9.26046 9.74079 8.97417 9.93089 8.65912 10.0596C8.34407 10.1883 8.00657 10.253 7.66626 10.25H7.66693ZM7.66693 9.25C8.55893 9.25 9.2536 8.55667 9.2536 7.66667C9.25611 7.45776 9.21676 7.25047 9.13787 7.05702C9.05898 6.86356 8.94215 6.68787 8.79426 6.54029C8.64638 6.39272 8.47044 6.27626 8.27682 6.19778C8.0832 6.11929 7.87583 6.08038 7.66693 6.08333C7.45803 6.08038 7.25065 6.11929 7.05704 6.19778C6.86342 6.27626 6.68748 6.39272 6.53959 6.54029C6.39171 6.68787 6.27488 6.86356 6.19599 7.05702C6.1171 7.25047 6.07775 7.45776 6.08026 7.66667C6.07775 7.87557 6.1171 8.08286 6.19599 8.27632C6.27488 8.46977 6.39171 8.64547 6.53959 8.79304C6.68748 8.94061 6.86342 9.05708 7.05704 9.13556C7.25065 9.21404 7.45803 9.25295 7.66693 9.25Z" fill="#979797"/>
</svg>
