<svg width="336" height="240" viewBox="0 0 336 240" fill="none" xmlns="http://www.w3.org/2000/svg">
<circle cx="168" cy="96" r="96" fill="url(#paint0_linear_0_716)"/>
<ellipse cx="216" cy="63.6004" rx="10.8" ry="19.2" fill="url(#paint1_linear_0_716)"/>
<circle cx="165.6" cy="21.5992" r="8.4" fill="url(#paint2_linear_0_716)"/>
<ellipse cx="232.8" cy="76.7996" rx="10.8" ry="19.2" fill="url(#paint3_linear_0_716)"/>
<path fill-rule="evenodd" clip-rule="evenodd" d="M287.4 239.137C317.446 224.719 336 204.889 336 182.999C336 138.927 260.784 103.199 168 103.199C75.2162 103.199 0 138.927 0 182.999C0 204.718 18.2663 224.41 47.8998 238.799H287.4V239.137Z" fill="url(#paint4_linear_0_716)"/>
<rect width="1.41751" height="6.45278" rx="0.708757" transform="matrix(-0.333941 -0.942594 0.908193 -0.418551 98.875 114.834)" fill="url(#paint5_linear_0_716)"/>
<rect x="103.736" y="107.537" width="0.799815" height="4.86521" rx="0.399907" fill="url(#paint6_linear_0_716)"/>
<path d="M102.551 98.299C102.735 97.6485 103.328 97.1992 104.004 97.1992C104.68 97.1992 105.273 97.6485 105.456 98.299L106.86 103.281L107.265 105.432C107.648 107.474 106.082 109.362 104.004 109.362C101.926 109.362 100.36 107.474 100.743 105.432L101.147 103.281L102.551 98.299Z" fill="url(#paint7_linear_0_716)"/>
<rect x="115.96" y="131.67" width="2.03225" height="10.1663" rx="1.01613" transform="rotate(-112.002 115.96 131.67)" fill="url(#paint8_linear_0_716)"/>
<rect x="123.779" y="121.381" width="1.28644" height="6.86099" rx="0.643218" fill="url(#paint9_linear_0_716)"/>
<path d="M121.811 108.55C122.146 107.508 123.116 106.801 124.211 106.801C125.306 106.801 126.276 107.508 126.611 108.55L128.805 115.377L129.295 117.664C129.989 120.901 127.521 123.953 124.211 123.953C120.901 123.953 118.433 120.901 119.127 117.664L119.617 115.377L121.811 108.55Z" fill="url(#paint10_linear_0_716)"/>
<rect x="211.815" y="122.035" width="1.63722" height="8.19017" rx="0.81861" transform="rotate(-112.002 211.815 122.035)" fill="url(#paint11_linear_0_716)"/>
<rect x="218.115" y="113.746" width="1.03637" height="5.52733" rx="0.518187" fill="url(#paint12_linear_0_716)"/>
<path d="M216.526 103.41C216.796 102.57 217.577 102 218.459 102C219.341 102 220.123 102.57 220.393 103.41L222.161 108.909L222.555 110.751C223.114 113.359 221.126 115.818 218.459 115.818C215.792 115.818 213.804 113.359 214.363 110.751L214.758 108.909L216.526 103.41Z" fill="url(#paint13_linear_0_716)"/>
<ellipse rx="10.4246" ry="6.16082" transform="matrix(0.837102 0.547047 0.725984 -0.687712 220.8 137.14)" fill="#DEE7F4"/>
<ellipse rx="9.23517" ry="4.91307" transform="matrix(0.837102 0.547047 0.725984 -0.687712 220.586 138.4)" fill="url(#paint14_linear_0_716)"/>
<ellipse cx="235.337" cy="120.657" rx="4.16733" ry="2.72442" transform="rotate(25.5736 235.337 120.657)" fill="#DEE7F4"/>
<ellipse rx="5.8976" ry="4.35423" transform="matrix(0.996972 -0.077764 0.0609016 0.998144 186.145 141.606)" fill="#DEE7F4"/>
<ellipse cx="234.914" cy="121.041" rx="3.72609" ry="2.17264" transform="rotate(25.5736 234.914 121.041)" fill="url(#paint15_linear_0_716)"/>
<ellipse rx="4.96871" ry="3.7498" transform="matrix(0.996972 -0.077764 0.0609016 0.998144 186.767 142.101)" fill="url(#paint16_linear_0_716)"/>
<ellipse cx="87.4351" cy="124.698" rx="3.46321" ry="2.11924" transform="rotate(-14.0951 87.4351 124.698)" fill="#DEE7F4"/>
<ellipse cx="87.7535" cy="125.042" rx="3.06807" ry="1.69003" transform="rotate(-14.0951 87.7535 125.042)" fill="url(#paint17_linear_0_716)"/>
<ellipse rx="9.58596" ry="8.10663" transform="matrix(0.996022 -0.0891128 0.0531186 0.998588 153.979 145.85)" fill="#DEE7F4"/>
<ellipse rx="8.07614" ry="6.9813" transform="matrix(0.996022 -0.0891128 0.0531186 0.998588 154.989 146.773)" fill="url(#paint18_linear_0_716)"/>
<ellipse rx="4.4105" ry="3.52246" transform="matrix(0.999659 0.0261254 -0.0379393 0.99928 105.859 143.965)" fill="#DEE7F4"/>
<ellipse rx="3.71583" ry="3.03349" transform="matrix(0.999659 0.0261254 -0.0379393 0.99928 106.285 144.415)" fill="url(#paint19_linear_0_716)"/>
<defs>
<linearGradient id="paint0_linear_0_716" x1="168" y1="-19.8" x2="168" y2="165" gradientUnits="userSpaceOnUse">
<stop stop-color="#E5F0FC"/>
<stop offset="1" stop-color="white" stop-opacity="0"/>
</linearGradient>
<linearGradient id="paint1_linear_0_716" x1="216.001" y1="49.6368" x2="213.852" y2="65.298" gradientUnits="userSpaceOnUse">
<stop stop-color="white"/>
<stop offset="1" stop-color="white" stop-opacity="0"/>
</linearGradient>
<linearGradient id="paint2_linear_0_716" x1="165.6" y1="8.99922" x2="168.176" y2="29.6783" gradientUnits="userSpaceOnUse">
<stop stop-color="white"/>
<stop offset="1" stop-color="white" stop-opacity="0"/>
</linearGradient>
<linearGradient id="paint3_linear_0_716" x1="231.698" y1="57.5996" x2="233.509" y2="73.8265" gradientUnits="userSpaceOnUse">
<stop stop-color="white"/>
<stop offset="1" stop-color="white" stop-opacity="0"/>
</linearGradient>
<linearGradient id="paint4_linear_0_716" x1="168" y1="96.5992" x2="168" y2="150" gradientUnits="userSpaceOnUse">
<stop stop-color="#E5F0FC"/>
<stop offset="1" stop-color="white" stop-opacity="0"/>
</linearGradient>
<linearGradient id="paint5_linear_0_716" x1="0.791236" y1="1.69543" x2="0.736382" y2="6.4531" gradientUnits="userSpaceOnUse">
<stop stop-color="#DFECFC" stop-opacity="0"/>
<stop offset="1" stop-color="#DFECFC"/>
</linearGradient>
<linearGradient id="paint6_linear_0_716" x1="104.136" y1="109.057" x2="104.136" y2="112.402" gradientUnits="userSpaceOnUse">
<stop stop-color="#B5C4DD"/>
<stop offset="1" stop-color="#93A6C8"/>
</linearGradient>
<linearGradient id="paint7_linear_0_716" x1="104.182" y1="98.99" x2="104.182" y2="108.391" gradientUnits="userSpaceOnUse">
<stop stop-color="#EAF2FD"/>
<stop offset="1" stop-color="#D2E1F4"/>
</linearGradient>
<linearGradient id="paint8_linear_0_716" x1="117.094" y1="134.341" x2="116.999" y2="141.837" gradientUnits="userSpaceOnUse">
<stop stop-color="#DFECFC" stop-opacity="0"/>
<stop offset="1" stop-color="#DFECFC"/>
</linearGradient>
<linearGradient id="paint9_linear_0_716" x1="124.422" y1="123.525" x2="124.422" y2="128.242" gradientUnits="userSpaceOnUse">
<stop stop-color="#B5C4DD"/>
<stop offset="1" stop-color="#93A6C8"/>
</linearGradient>
<linearGradient id="paint10_linear_0_716" x1="124.497" y1="109.326" x2="124.497" y2="122.584" gradientUnits="userSpaceOnUse">
<stop stop-color="#EAF2FD"/>
<stop offset="1" stop-color="#D2E1F4"/>
</linearGradient>
<linearGradient id="paint11_linear_0_716" x1="212.729" y1="124.187" x2="212.652" y2="130.226" gradientUnits="userSpaceOnUse">
<stop stop-color="#DFECFC" stop-opacity="0"/>
<stop offset="1" stop-color="#DFECFC"/>
</linearGradient>
<linearGradient id="paint12_linear_0_716" x1="218.633" y1="115.473" x2="218.633" y2="119.273" gradientUnits="userSpaceOnUse">
<stop stop-color="#B5C4DD"/>
<stop offset="1" stop-color="#93A6C8"/>
</linearGradient>
<linearGradient id="paint13_linear_0_716" x1="218.69" y1="104.034" x2="218.69" y2="114.715" gradientUnits="userSpaceOnUse">
<stop stop-color="#EAF2FD"/>
<stop offset="1" stop-color="#D2E1F4"/>
</linearGradient>
<linearGradient id="paint14_linear_0_716" x1="0.952057" y1="7.23672" x2="21.2501" y2="-0.465987" gradientUnits="userSpaceOnUse">
<stop stop-color="#EFF4FB"/>
<stop offset="1" stop-color="#EFF4FB" stop-opacity="0"/>
</linearGradient>
<linearGradient id="paint15_linear_0_716" x1="237.494" y1="119.467" x2="232.416" y2="123.327" gradientUnits="userSpaceOnUse">
<stop stop-color="#EFF4FB"/>
<stop offset="1" stop-color="#EFF4FB" stop-opacity="0"/>
</linearGradient>
<linearGradient id="paint16_linear_0_716" x1="8.40816" y1="1.03368" x2="-5.7251" y2="3.85995" gradientUnits="userSpaceOnUse">
<stop stop-color="#EFF4FB"/>
<stop offset="1" stop-color="#EFF4FB" stop-opacity="0"/>
</linearGradient>
<linearGradient id="paint17_linear_0_716" x1="85.9199" y1="124.333" x2="91.447" y2="126.958" gradientUnits="userSpaceOnUse">
<stop stop-color="#EFF4FB"/>
<stop offset="1" stop-color="#EFF4FB" stop-opacity="0"/>
</linearGradient>
<linearGradient id="paint18_linear_0_716" x1="13.6666" y1="1.92448" x2="-9.51757" y2="5.97206" gradientUnits="userSpaceOnUse">
<stop stop-color="#EFF4FB"/>
<stop offset="1" stop-color="#EFF4FB" stop-opacity="0"/>
</linearGradient>
<linearGradient id="paint19_linear_0_716" x1="6.28801" y1="0.836219" x2="-4.34092" y2="2.80111" gradientUnits="userSpaceOnUse">
<stop stop-color="#EFF4FB"/>
<stop offset="1" stop-color="#EFF4FB" stop-opacity="0"/>
</linearGradient>
</defs>
</svg>
