<svg width="20" height="20" viewBox="0 0 20 20" fill="none" xmlns="http://www.w3.org/2000/svg">
<path fill-rule="evenodd" clip-rule="evenodd" d="M12.8744 10.0962L12.9334 10.0369C13.6495 9.31701 14.1 8.30438 14.1 7.17293C14.1 7.13078 14.0994 7.08882 14.0982 7.04704L14.0971 7.01117L14.0982 6.9753C14.0994 6.93478 14.1 6.89417 14.1 6.85345C14.1 6.72994 14.0838 6.62148 14.0566 6.52462L14.0415 6.47115L14.0314 6.41651C13.6888 4.55537 12.122 3.2 10.3 3.2C8.47812 3.2 6.91128 4.55537 6.56866 6.41651L6.5586 6.47115L6.54354 6.52462C6.51625 6.62148 6.50005 6.72994 6.50005 6.85345C6.50005 6.89417 6.50067 6.93479 6.50189 6.9753L6.50297 7.01117L6.50191 7.04705C6.50067 7.08882 6.50005 7.13078 6.50005 7.17293C6.50005 8.30438 6.9506 9.31701 7.66673 10.0369L7.7257 10.0962L7.77588 10.1631C8.60537 11.2688 9.64134 12.1278 10.3 12.6146C10.9588 12.1278 11.9947 11.2688 12.8242 10.1631L12.8744 10.0962ZM10.5128 13.9324C10.7077 13.8023 11.0227 13.5823 11.4007 13.2836H16.0971L17.0276 16.3002H3.57245L4.5029 13.2836H9.19943C9.57742 13.5823 9.89244 13.8023 10.0873 13.9324C10.2168 14.019 10.3833 14.019 10.5128 13.9324ZM6.81597 10.8832C7.14513 11.322 7.50137 11.7239 7.8561 12.0836H4.35529C3.91653 12.0836 3.52902 12.3696 3.39971 12.7888L2.34589 16.2055C2.1475 16.8487 2.62838 17.5002 3.30147 17.5002H17.2986C17.9716 17.5002 18.4525 16.8487 18.2541 16.2055L17.2003 12.7888C17.071 12.3696 16.6835 12.0836 16.2447 12.0836H12.744C13.0987 11.7239 13.455 11.322 13.7841 10.8832C14.7191 9.94326 15.3 8.62828 15.3 7.17293C15.3 7.11893 15.2992 7.06512 15.2977 7.01151C15.2992 6.95901 15.3 6.90632 15.3 6.85345C15.3 6.62261 15.2694 6.40454 15.2116 6.19925C14.7714 3.8078 12.7398 2 10.3 2C7.86034 2 5.82874 3.8078 5.38849 6.19925C5.33066 6.40454 5.30005 6.62261 5.30005 6.85345C5.30005 6.90632 5.30085 6.95901 5.30244 7.01151C5.30085 7.06512 5.30005 7.11893 5.30005 7.17293C5.30005 8.62828 5.88096 9.94326 6.81597 10.8832ZM11.1834 7.50339C11.1834 7.99124 10.7879 8.38672 10.3 8.38672C9.81217 8.38672 9.41669 7.99124 9.41669 7.50339C9.41669 7.01554 9.81217 6.62006 10.3 6.62006C10.7879 6.62006 11.1834 7.01554 11.1834 7.50339ZM12.3834 7.50339C12.3834 8.65398 11.4506 9.58672 10.3 9.58672C9.14943 9.58672 8.21669 8.65398 8.21669 7.50339C8.21669 6.3528 9.14943 5.42006 10.3 5.42006C11.4506 5.42006 12.3834 6.3528 12.3834 7.50339Z" fill="#2373FF"/>
</svg>
