<svg width="28" height="28" viewBox="0 0 28 28" fill="none" xmlns="http://www.w3.org/2000/svg">
<g clip-path="url(#clip0_2997_25999)">
<path fill-rule="evenodd" clip-rule="evenodd" d="M14 24.5C19.799 24.5 24.5 19.799 24.5 14C24.5 8.20101 19.799 3.5 14 3.5C8.20101 3.5 3.5 8.20101 3.5 14C3.5 19.799 8.20101 24.5 14 24.5ZM20.0287 16.2189C19.7083 15.9769 19.5851 15.559 19.6656 15.1656C19.7426 14.7891 19.7831 14.3993 19.7831 14C19.7831 10.806 17.1938 8.2167 13.9997 8.2167C10.8057 8.2167 8.21641 10.806 8.21641 14C8.21641 14.4 8.25701 14.7905 8.33433 15.1677C8.415 15.5611 8.29182 15.9792 7.97129 16.2213C7.48364 16.5896 6.77747 16.3986 6.63252 15.805C6.49129 15.2265 6.41641 14.622 6.41641 14C6.41641 9.81187 9.81158 6.4167 13.9997 6.4167C18.1879 6.4167 21.5831 9.81187 21.5831 14C21.5831 14.6211 21.5084 15.2247 21.3676 15.8023C21.2228 16.3962 20.5165 16.5873 20.0287 16.2189ZM12.2384 14.1045C12.7135 13.2345 15.7821 11.2339 15.7821 11.2339C15.7821 11.2339 15.8641 14.955 15.389 15.825C14.9139 16.695 13.8235 17.0152 12.9534 16.5401C12.0834 16.065 11.7633 14.9745 12.2384 14.1045Z" fill="#A8ACBD"/>
</g>
<defs>
<clipPath id="clip0_2997_25999">
<rect width="28" height="28" fill="white"/>
</clipPath>
</defs>
</svg>
