<svg width="10" height="10" viewBox="0 0 10 10" fill="none" xmlns="http://www.w3.org/2000/svg">
<path fill-rule="evenodd" clip-rule="evenodd" d="M1.79383 0.245533C1.42746 -0.120829 0.783974 -0.0713298 0.356551 0.356093C-0.0708717 0.783516 -0.120371 1.42701 0.245992 1.79337L3.45205 4.99943L0.245686 8.20579C-0.120677 8.57215 -0.0711776 9.21564 0.356245 9.64307C0.783668 10.0705 1.42716 10.12 1.79352 9.75363L4.99989 6.54726L8.20629 9.75366C8.57265 10.12 9.21614 10.0705 9.64356 9.6431C10.071 9.21568 10.1205 8.57219 9.75412 8.20583L6.54772 4.99943L9.75382 1.79333C10.1202 1.42697 10.0707 0.783479 9.64326 0.356056C9.21583 -0.0713671 8.57234 -0.120867 8.20598 0.245496L4.99989 3.45159L1.79383 0.245533Z" fill="#EDEDEE"/>
</svg>
