<svg width="24" height="24" viewBox="0 0 24 24" fill="none" xmlns="http://www.w3.org/2000/svg">
<path d="M17.2975 3.5105L12.3637 4.50585L22.9453 15.9525L23.9839 8.59547L17.2975 3.5105ZM14.0083 7.10244L11.9742 4.83043L8.92312 7.51356L10.849 9.87213L14.0083 7.10244ZM14.2247 16.2121L16.9729 20.1286L22.5125 16.2554L19.0286 12.4687L14.2247 16.2121ZM6.1966 5.69596L2.77762 6.32346L10.6326 19.2631L16.5401 20.4532L10.1133 11.2353L6.1966 5.69596ZM3.79466 8.98496L2.47467 6.75623L0.678627 9.39609L1.91206 11.5166L3.79466 8.98496ZM4.18416 15.4115L5.72054 18.0946L7.32183 16.4285L5.6989 13.767L4.18416 15.4115ZM0.0078125 13.4424L2.23664 17.6402L5.37431 18.4625L0.418955 9.80721L0.0078125 13.4424Z" fill="white"/>
</svg>
