<svg width="20" height="20" viewBox="0 0 20 20" fill="none" xmlns="http://www.w3.org/2000/svg">
<path fill-rule="evenodd" clip-rule="evenodd" d="M3.7 3.7V16.3H16.3V3.7H3.7ZM3.5 2.5C2.94772 2.5 2.5 2.94772 2.5 3.5V16.5C2.5 17.0523 2.94772 17.5 3.5 17.5H16.5C17.0523 17.5 17.5 17.0523 17.5 16.5V3.5C17.5 2.94772 17.0523 2.5 16.5 2.5H3.5ZM7.0116 6.43329C7.0116 6.10192 7.28023 5.83329 7.6116 5.83329C7.94297 5.83329 8.2116 6.10192 8.2116 6.43329V7.1545C8.59766 7.36723 8.85921 7.77809 8.85921 8.25004C8.85921 8.72199 8.59766 9.13285 8.2116 9.34558V13.5666C8.2116 13.898 7.94297 14.1666 7.6116 14.1666C7.28023 14.1666 7.0116 13.898 7.0116 13.5666V9.3482C6.62292 9.13624 6.35921 8.72394 6.35921 8.25004C6.35921 7.77614 6.62292 7.36384 7.0116 7.15188V6.43329ZM12.0246 6.43329C12.0246 6.10192 12.2932 5.83329 12.6246 5.83329C12.9559 5.83329 13.2246 6.10192 13.2246 6.43329V9.7236C13.6056 9.93775 13.863 10.3458 13.863 10.814C13.863 11.2822 13.6056 11.6903 13.2246 11.9045V13.5666C13.2246 13.898 12.9559 14.1666 12.6246 14.1666C12.2932 14.1666 12.0246 13.898 12.0246 13.5666V11.9171C11.6309 11.7067 11.363 11.2916 11.363 10.814C11.363 10.3364 11.6309 9.92138 12.0246 9.71093V6.43329Z" fill="#2373FF"/>
</svg>
