<svg width="16" height="12" viewBox="0 0 16 12" fill="none" xmlns="http://www.w3.org/2000/svg">
<path d="M1 12C0.447715 12 0 11.5523 0 11L0 9C0 8.44772 0.447715 8 1 8H3C3.55228 8 4 8.44772 4 9V11C4 11.5523 3.55228 12 3 12H1Z" fill="#30BF78"/>
<path d="M7 12C6.44772 12 6 11.5523 6 11L6 5C6 4.44772 6.44772 4 7 4H9C9.55228 4 10 4.44772 10 5V11C10 11.5523 9.55228 12 9 12H7Z" fill="#30BF78"/>
<path d="M13 12C12.4477 12 12 11.5523 12 11V1C12 0.447715 12.4477 0 13 0H15C15.5523 0 16 0.447716 16 1V11C16 11.5523 15.5523 12 15 12H13Z" fill="#30BF78"/>
</svg>
