<svg width="20" height="20" viewBox="0 0 20 20" fill="none" xmlns="http://www.w3.org/2000/svg">
<path fill-rule="evenodd" clip-rule="evenodd" d="M12.7591 15.7595L9.99879 17.1558L7.24072 15.7601C5.069 14.6612 3.7 12.4342 3.7 10.0003V5.3215L9.99878 2.79363L16.3 5.3216V10.0003C16.3 12.4341 14.9309 14.6609 12.7591 15.7595ZM2.5 5.18626C2.5 4.77777 2.74845 4.41035 3.12755 4.25821L9.62631 1.65007C9.86531 1.55416 10.1321 1.55414 10.3711 1.65003L16.8723 4.25825C17.2515 4.41036 17.5 4.77781 17.5 5.18635V10.0003C17.5 12.8866 15.8763 15.5275 13.3008 16.8303L10.2951 18.3507C10.1087 18.445 9.88866 18.4449 9.70231 18.3506L6.69891 16.8309C4.12348 15.5277 2.5 12.8866 2.5 10.0003V5.18626ZM11.2987 8.33402C11.2987 9.05199 10.7167 9.63402 9.9987 9.63402C9.28073 9.63402 8.6987 9.05199 8.6987 8.33402C8.6987 7.61605 9.28073 7.03402 9.9987 7.03402C10.7167 7.03402 11.2987 7.61605 11.2987 8.33402ZM10.5987 10.7616C11.6896 10.4928 12.4987 9.5079 12.4987 8.33402C12.4987 6.95331 11.3794 5.83402 9.9987 5.83402C8.61799 5.83402 7.4987 6.95331 7.4987 8.33402C7.4987 9.5079 8.30777 10.4928 9.3987 10.7616V13.5673C9.3987 13.8987 9.66733 14.1673 9.9987 14.1673C10.3301 14.1673 10.5987 13.8987 10.5987 13.5673V12.8673H11.2287C11.5601 12.8673 11.8287 12.5986 11.8287 12.2673C11.8287 11.9359 11.5601 11.6673 11.2287 11.6673H10.5987V10.7616Z" fill="#2373FF"/>
</svg>
