<svg width="17" height="12" viewBox="0 0 17 12" fill="none" xmlns="http://www.w3.org/2000/svg">
<g clip-path="url(#clip0_1542_8432)">
<path d="M6.88283 8.84599C6.74059 9.00844 6.63398 9.19811 6.56968 9.40308C6.50539 9.60805 6.48481 9.8239 6.50922 10.0371C6.53364 10.2503 6.60253 10.4562 6.71157 10.6419C6.8206 10.8276 6.96744 10.9891 7.14285 11.1162C7.31826 11.2434 7.51846 11.3334 7.73088 11.3808C7.9433 11.4281 8.16335 11.4316 8.37723 11.3912C8.59111 11.3507 8.79418 11.2671 8.97372 11.1457C9.15325 11.0243 9.30536 10.8676 9.4205 10.6855C9.92504 9.39442 10.2706 8.04844 10.4499 6.67634C9.17897 7.25987 7.98178 7.98805 6.88283 8.84599Z" fill="white"/>
<path d="M16.3869 11.4401L14.8787 10.8505C15.1936 10.0576 15.356 9.21394 15.3575 8.36253C15.3785 7.01054 14.9873 5.68344 14.2344 4.55287C13.4815 3.42229 12.4016 2.54025 11.1343 2.02083C9.86697 1.5014 8.47061 1.36849 7.1258 1.63929C5.781 1.91008 4.5496 2.57212 3.59089 3.53978C2.63587 4.4763 1.9849 5.67124 1.72063 6.97291C1.45635 8.27457 1.59069 9.62423 2.10659 10.8505L0.598358 11.4401C-0.121093 9.65156 -0.192329 7.6733 0.396667 5.83902C0.985662 4.00474 2.19884 2.4267 3.83158 1.37107C5.46431 0.315445 7.41667 -0.153165 9.35935 0.0442871C11.302 0.241739 13.1161 1.09317 14.4957 2.45496C15.6607 3.61112 16.4597 5.07581 16.7954 6.67095C17.1312 8.26608 16.9893 9.92296 16.3869 11.4401Z" fill="white"/>
</g>
<defs>
<clipPath id="clip0_1542_8432">
<rect width="16.5" height="11.55" fill="white" transform="scale(1.0303)"/>
</clipPath>
</defs>
</svg>
