<svg width="14" height="18" viewBox="0 0 14 18" fill="none" xmlns="http://www.w3.org/2000/svg">
<path d="M13.3726 16.6819H12.3638V13.8032C12.3638 11.8471 10.7276 10.58 9.53427 9.63269C9.20211 9.37434 8.79613 9.05448 8.6116 8.84534L8.52548 8.74692L8.6239 8.64851C8.82074 8.45167 9.22671 8.15641 9.55887 7.91037C10.7522 7.04921 12.4007 5.86819 12.4007 3.98594V1.25483H13.3726C13.717 1.25483 14 0.97188 14 0.627416C14 0.282952 13.717 0 13.3726 0H0.627417C0.282953 0 0 0.282952 0 0.627416C0 0.97188 0.282953 1.25483 0.627417 1.25483H1.5993V4.01054C1.5993 5.89279 3.2355 7.07381 4.44112 7.93497C4.77329 8.16872 5.17926 8.46397 5.3761 8.67311L5.47452 8.77153L5.3884 8.86995C5.20387 9.07909 4.79789 9.39894 4.46573 9.65729C3.27241 10.5923 1.6362 11.8717 1.6362 13.8155V16.6942H0.627417C0.282953 16.6942 0 16.9771 0 17.3216C0 17.6661 0.282953 17.949 0.627417 17.949H13.3726C13.5448 17.949 13.6924 17.8875 13.8155 17.7645C13.9385 17.6415 14 17.4938 14 17.3216C14 16.9648 13.717 16.6819 13.3726 16.6819ZM9.33743 14.9104H4.66257C4.34271 14.9104 4.08436 14.652 4.08436 14.3322C4.08436 14.0123 4.34271 13.754 4.66257 13.754H9.33743C9.65729 13.754 9.91564 14.0123 9.91564 14.3322C9.91564 14.652 9.65729 14.9104 9.33743 14.9104Z" fill="#26C5E8"/>
</svg>
