<svg width="8" height="9" viewBox="0 0 8 9" fill="none" xmlns="http://www.w3.org/2000/svg">
<path d="M3.01171 8.97621C3.07219 8.97621 3.1328 8.96217 3.18849 8.93389L5.35809 8.14061C5.4224 8.10796 5.47641 8.05814 5.51413 7.99667C5.55186 7.93521 5.57183 7.8645 5.57183 7.79238V3.63461L7.88562 0.666691C7.94023 0.612073 7.97743 0.542486 7.9925 0.46673C8.00756 0.390973 7.99983 0.31245 7.97027 0.241089C7.94071 0.169728 7.89066 0.108735 7.82644 0.0658215C7.76221 0.0229081 7.68671 2.01302e-06 7.60947 0L0.391027 0C0.313786 2.01302e-06 0.238281 0.0229081 0.174059 0.0658215C0.109837 0.108735 0.0597811 0.169728 0.030223 0.241089C0.000664946 0.31245 -0.00706909 0.390973 0.00799922 0.46673C0.0230675 0.542486 0.0602613 0.612073 0.114877 0.666691L2.62115 3.63461V8.58566C2.62115 8.63695 2.63125 8.68774 2.65087 8.73513C2.6705 8.78251 2.69927 8.82557 2.73554 8.86183C2.7718 8.8981 2.81486 8.92687 2.86224 8.94649C2.90963 8.96612 2.96042 8.97621 3.01171 8.97621ZM4.48101 7.55266L3.69962 7.94939V3.47284C3.69962 3.42155 3.68952 3.37077 3.66989 3.32339C3.65026 3.27601 3.62149 3.23295 3.58523 3.19669L1.74396 1.04144H6.34833L4.5954 3.2909C4.52216 3.36414 4.48101 3.46347 4.48101 3.56705V7.55266Z" fill="#A1A3A4"/>
</svg>
