<svg width="20" height="20" viewBox="0 0 20 20" fill="none" xmlns="http://www.w3.org/2000/svg">
<path fill-rule="evenodd" clip-rule="evenodd" d="M16.55 10C16.55 13.6175 13.6175 16.55 10 16.55C6.38253 16.55 3.45 13.6175 3.45 10C3.45 6.38253 6.38253 3.45 10 3.45C13.6175 3.45 16.55 6.38253 16.55 10ZM17.75 10C17.75 14.2802 14.2802 17.75 10 17.75C5.71979 17.75 2.25 14.2802 2.25 10C2.25 5.71979 5.71979 2.25 10 2.25C14.2802 2.25 17.75 5.71979 17.75 10ZM7.6 7.17969C7.26863 7.17969 7 7.44832 7 7.77969C7 8.11106 7.26863 8.37969 7.6 8.37969H9.40011V11.6665H6.6C6.26863 11.6665 6 11.9351 6 12.2665C6 12.5979 6.26863 12.8665 6.6 12.8665H13.4C13.7314 12.8665 14 12.5979 14 12.2665C14 11.9351 13.7314 11.6665 13.4 11.6665H10.6001V8.37969H12.4C12.7314 8.37969 13 8.11106 13 7.77969C13 7.44832 12.7314 7.17969 12.4 7.17969H7.6Z" fill="#2373FF"/>
</svg>
