<svg width="15" height="16" viewBox="0 0 15 16" fill="none" xmlns="http://www.w3.org/2000/svg">
<path d="M13.8835 4.65779C13.7784 4.56129 13.6411 4.51233 13.5015 4.52169C13.362 4.53105 13.2317 4.59796 13.1393 4.70771C12.2295 5.78919 11.2876 6.60838 10.3399 7.14231C9.41466 7.66414 8.45534 7.92858 7.48898 7.92858C6.52262 7.92858 5.56564 7.66414 4.64367 7.14292C3.70002 6.60899 2.76398 5.79026 1.86178 4.7094C1.76984 4.59922 1.6398 4.53174 1.50026 4.52179C1.36072 4.51184 1.22312 4.56024 1.11772 4.65634C1.01232 4.75244 0.947754 4.88838 0.938235 5.03424C0.928717 5.1801 0.97502 5.32394 1.06696 5.43411C1.72086 6.21747 2.39645 6.87772 3.08507 7.40766L2.23444 8.29698C2.13687 8.40064 2.08245 8.5404 2.08301 8.68582C2.08358 8.83123 2.13909 8.97052 2.23746 9.07335C2.33583 9.17617 2.46909 9.2342 2.6082 9.2348C2.74732 9.23539 2.88102 9.1785 2.98019 9.07651L3.988 8.02305C4.03913 8.05367 4.09054 8.08353 4.14167 8.11247C4.59811 8.37253 5.07922 8.58221 5.57721 8.73812L5.07917 10.4471C5.05897 10.5163 5.05202 10.5891 5.05871 10.6611C5.0654 10.7332 5.0856 10.8032 5.11817 10.8671C5.15073 10.931 5.19502 10.9875 5.2485 11.0335C5.30197 11.0795 5.3636 11.1141 5.42985 11.1352C5.4961 11.1563 5.56568 11.1636 5.63462 11.1566C5.70356 11.1496 5.7705 11.1285 5.83163 11.0944C5.89276 11.0604 5.94687 11.0141 5.99089 10.9582C6.0349 10.9023 6.06795 10.8379 6.08815 10.7686L6.61227 8.97025C6.90254 9.01094 7.19508 9.0314 7.48795 9.03149C7.78146 9.03139 8.07463 9.01093 8.36554 8.97025L8.88937 10.7686C8.90957 10.8379 8.94262 10.9023 8.98663 10.9582C9.03065 11.0141 9.08476 11.0604 9.14589 11.0944C9.20702 11.1285 9.27397 11.1496 9.3429 11.1566C9.41184 11.1636 9.48142 11.1563 9.54767 11.1352C9.61392 11.1141 9.67555 11.0795 9.72902 11.0335C9.7825 10.9875 9.82679 10.931 9.85935 10.8671C9.89192 10.8032 9.91212 10.7332 9.91881 10.6611C9.9255 10.5891 9.91855 10.5163 9.89835 10.4471L9.40031 8.73812C9.89954 8.58219 10.382 8.37268 10.84 8.11293C10.8881 8.08583 10.9362 8.05781 10.9844 8.02933L11.986 9.07651C12.0852 9.1785 12.2189 9.23539 12.358 9.2348C12.4972 9.2342 12.6304 9.17617 12.7288 9.07335C12.8271 8.97052 12.8827 8.83123 12.8832 8.68582C12.8838 8.5404 12.8294 8.40064 12.7318 8.29698L11.8902 7.4167C12.5859 6.88553 13.2691 6.22283 13.9308 5.43579C13.9765 5.38146 14.0116 5.31824 14.034 5.24974C14.0564 5.18124 14.0657 5.1088 14.0613 5.03655C14.0569 4.96431 14.0389 4.89367 14.0084 4.82869C13.9779 4.7637 13.9354 4.70563 13.8835 4.65779Z" fill="#A8ACBD"/>
</svg>
