<svg width="32" height="32" viewBox="0 0 32 32" fill="none" xmlns="http://www.w3.org/2000/svg">
<path fill-rule="evenodd" clip-rule="evenodd" d="M16 28C22.6274 28 28 22.6274 28 16C28 9.37258 22.6274 4 16 4C9.37258 4 4 9.37258 4 16C4 22.6274 9.37258 28 16 28ZM14.7 13.7483L18.6 16L14.7 18.2517V13.7483ZM20.5 14.5566C21.6111 15.1981 21.6111 16.8019 20.5 17.4434L15 20.6188C13.8889 21.2603 12.5 20.4584 12.5 19.1754V12.8246C12.5 11.5416 13.8889 10.7397 15 11.3812L20.5 14.5566Z" fill="#2373FF"/>
</svg>
