<svg width="20" height="20" viewBox="0 0 20 20" fill="none" xmlns="http://www.w3.org/2000/svg">
<path fill-rule="evenodd" clip-rule="evenodd" d="M3.7 15.4675V4.53419L16.3 4.53399V15.4673L3.7 15.4675ZM2.5 4.3342C2.5 3.78192 2.94771 3.3342 3.49998 3.3342L16.5 3.33398C17.0523 3.33398 17.5 3.78169 17.5 4.33398V15.6673C17.5 16.2196 17.0523 16.6673 16.5 16.6673L3.50002 16.6675C2.94772 16.6675 2.5 16.2198 2.5 15.6675V4.3342ZM5.59828 8.33395C5.26691 8.33394 4.99827 8.60257 4.99827 8.93395C4.99827 9.26531 5.26689 9.53394 5.59826 9.53395L7.39826 9.53398C7.72964 9.53398 7.99827 9.26535 7.99827 8.93398C7.99827 8.60261 7.72965 8.33398 7.39828 8.33398L5.59828 8.33395ZM4.9988 12.2672C4.9988 11.9359 5.26742 11.6672 5.59878 11.6672L6.39878 11.6672C6.73016 11.6672 6.9988 11.9358 6.9988 12.2672C6.9988 12.5985 6.73019 12.8672 6.39883 12.8672L5.59883 12.8672C5.26745 12.8672 4.9988 12.5986 4.9988 12.2672ZM11.4492 8.80068C11.8632 8.80068 12.1988 8.46509 12.1988 8.05113C12.1988 7.63717 11.8632 7.30159 11.4492 7.30159C11.0353 7.30159 10.6997 7.63717 10.6997 8.05113C10.6997 8.46509 11.0353 8.80068 11.4492 8.80068ZM11.4492 10.0007C12.5259 10.0007 13.3988 9.12784 13.3988 8.05113C13.3988 6.97443 12.5259 6.10159 11.4492 6.10159C10.3725 6.10159 9.49967 6.97443 9.49967 8.05113C9.49967 9.12784 10.3725 10.0007 11.4492 10.0007ZM7.90595 13.4112C8.15829 11.6809 9.64207 10.3978 11.3907 10.3978H11.6086C13.3573 10.3978 14.8411 11.6809 15.0934 13.4112C15.1412 13.7391 14.9142 14.0437 14.5863 14.0915C14.2584 14.1394 13.9538 13.9123 13.906 13.5844C13.7396 12.4437 12.7614 11.5978 11.6086 11.5978H11.3907C10.2379 11.5978 9.25975 12.4437 9.09339 13.5844C9.04557 13.9123 8.74099 14.1394 8.41309 14.0915C8.08519 14.0437 7.85813 13.7391 7.90595 13.4112Z" fill="#666E8B"/>
</svg>
